ISO-10303-21;
HEADER;
/* Generated by software containing ST-Developer
 * from STEP Tools, Inc. (www.steptools.com) 
 */

FILE_DESCRIPTION(
/* description */ (''),
/* implementation_level */ '2;1');

FILE_NAME(
/* name */ 'Shaft Plate.step',
/* time_stamp */ '2026-08-23T19:13:30-06:00',
/* author */ (''),
/* organization */ (''),
/* preprocessor_version */ 'ST-DEVELOPER v20.1',
/* originating_system */ 'Autodesk Translation Framework v15.8.0.0',
/* authorisation */ '');

FILE_SCHEMA (('AUTOMOTIVE_DESIGN { 1 0 10303 214 3 1 1 }'));
ENDSEC;

DATA;
#10=MECHANICAL_DESIGN_GEOMETRIC_PRESENTATION_REPRESENTATION('',(#13),#554);
#11=SHAPE_REPRESENTATION_RELATIONSHIP('SRR','None',#561,#12);
#12=ADVANCED_BREP_SHAPE_REPRESENTATION('',(#14),#553);
#13=STYLED_ITEM('',(#570),#14);
#14=MANIFOLD_SOLID_BREP('Body1',#318);
#15=FACE_BOUND('',#70,.T.);
#16=FACE_BOUND('',#71,.T.);
#17=FACE_BOUND('',#72,.T.);
#18=FACE_BOUND('',#73,.T.);
#19=FACE_BOUND('',#74,.T.);
#20=FACE_BOUND('',#75,.T.);
#21=FACE_BOUND('',#76,.T.);
#22=FACE_BOUND('',#77,.T.);
#23=FACE_BOUND('',#78,.T.);
#24=FACE_BOUND('',#79,.T.);
#25=FACE_BOUND('',#80,.T.);
#26=FACE_BOUND('',#81,.T.);
#27=FACE_BOUND('',#83,.T.);
#28=FACE_BOUND('',#84,.T.);
#29=FACE_BOUND('',#85,.T.);
#30=FACE_BOUND('',#86,.T.);
#31=FACE_BOUND('',#87,.T.);
#32=FACE_BOUND('',#88,.T.);
#33=FACE_BOUND('',#89,.T.);
#34=FACE_BOUND('',#90,.T.);
#35=FACE_BOUND('',#91,.T.);
#36=FACE_BOUND('',#92,.T.);
#37=FACE_BOUND('',#93,.T.);
#38=FACE_BOUND('',#94,.T.);
#39=PLANE('',#371);
#40=PLANE('',#372);
#41=FACE_OUTER_BOUND('',#56,.T.);
#42=FACE_OUTER_BOUND('',#57,.T.);
#43=FACE_OUTER_BOUND('',#58,.T.);
#44=FACE_OUTER_BOUND('',#59,.T.);
#45=FACE_OUTER_BOUND('',#60,.T.);
#46=FACE_OUTER_BOUND('',#61,.T.);
#47=FACE_OUTER_BOUND('',#62,.T.);
#48=FACE_OUTER_BOUND('',#63,.T.);
#49=FACE_OUTER_BOUND('',#64,.T.);
#50=FACE_OUTER_BOUND('',#65,.T.);
#51=FACE_OUTER_BOUND('',#66,.T.);
#52=FACE_OUTER_BOUND('',#67,.T.);
#53=FACE_OUTER_BOUND('',#68,.T.);
#54=FACE_OUTER_BOUND('',#69,.T.);
#55=FACE_OUTER_BOUND('',#82,.T.);
#56=EDGE_LOOP('',(#212,#213,#214,#215));
#57=EDGE_LOOP('',(#216,#217,#218,#219));
#58=EDGE_LOOP('',(#220,#221,#222,#223));
#59=EDGE_LOOP('',(#224,#225,#226,#227));
#60=EDGE_LOOP('',(#228,#229,#230,#231));
#61=EDGE_LOOP('',(#232,#233,#234,#235));
#62=EDGE_LOOP('',(#236,#237,#238,#239));
#63=EDGE_LOOP('',(#240,#241,#242,#243));
#64=EDGE_LOOP('',(#244,#245,#246,#247));
#65=EDGE_LOOP('',(#248,#249,#250,#251));
#66=EDGE_LOOP('',(#252,#253,#254,#255));
#67=EDGE_LOOP('',(#256,#257,#258,#259));
#68=EDGE_LOOP('',(#260,#261,#262,#263));
#69=EDGE_LOOP('',(#264));
#70=EDGE_LOOP('',(#265));
#71=EDGE_LOOP('',(#266));
#72=EDGE_LOOP('',(#267));
#73=EDGE_LOOP('',(#268));
#74=EDGE_LOOP('',(#269));
#75=EDGE_LOOP('',(#270));
#76=EDGE_LOOP('',(#271));
#77=EDGE_LOOP('',(#272));
#78=EDGE_LOOP('',(#273));
#79=EDGE_LOOP('',(#274));
#80=EDGE_LOOP('',(#275));
#81=EDGE_LOOP('',(#276));
#82=EDGE_LOOP('',(#277));
#83=EDGE_LOOP('',(#278));
#84=EDGE_LOOP('',(#279));
#85=EDGE_LOOP('',(#280));
#86=EDGE_LOOP('',(#281));
#87=EDGE_LOOP('',(#282));
#88=EDGE_LOOP('',(#283));
#89=EDGE_LOOP('',(#284));
#90=EDGE_LOOP('',(#285));
#91=EDGE_LOOP('',(#286));
#92=EDGE_LOOP('',(#287));
#93=EDGE_LOOP('',(#288));
#94=EDGE_LOOP('',(#289));
#95=LINE('',#475,#108);
#96=LINE('',#481,#109);
#97=LINE('',#487,#110);
#98=LINE('',#493,#111);
#99=LINE('',#499,#112);
#100=LINE('',#505,#113);
#101=LINE('',#511,#114);
#102=LINE('',#517,#115);
#103=LINE('',#523,#116);
#104=LINE('',#529,#117);
#105=LINE('',#535,#118);
#106=LINE('',#541,#119);
#107=LINE('',#547,#120);
#108=VECTOR('',#379,2.65);
#109=VECTOR('',#386,2.64999999999999);
#110=VECTOR('',#393,2.65);
#111=VECTOR('',#400,2.65000000000001);
#112=VECTOR('',#407,2.65);
#113=VECTOR('',#414,2.65);
#114=VECTOR('',#421,2.65);
#115=VECTOR('',#428,2.65);
#116=VECTOR('',#435,2.65);
#117=VECTOR('',#442,2.65);
#118=VECTOR('',#449,2.65);
#119=VECTOR('',#456,2.65);
#120=VECTOR('',#463,37.5);
#121=CIRCLE('',#333,2.65);
#122=CIRCLE('',#334,2.65);
#123=CIRCLE('',#336,2.64999999999999);
#124=CIRCLE('',#337,2.64999999999999);
#125=CIRCLE('',#339,2.65);
#126=CIRCLE('',#340,2.65);
#127=CIRCLE('',#342,2.65000000000001);
#128=CIRCLE('',#343,2.65000000000001);
#129=CIRCLE('',#345,2.117);
#130=CIRCLE('',#346,2.117);
#131=CIRCLE('',#348,2.117);
#132=CIRCLE('',#349,2.117);
#133=CIRCLE('',#351,2.117);
#134=CIRCLE('',#352,2.117);
#135=CIRCLE('',#354,2.117);
#136=CIRCLE('',#355,2.117);
#137=CIRCLE('',#357,2.117);
#138=CIRCLE('',#358,2.117);
#139=CIRCLE('',#360,2.117);
#140=CIRCLE('',#361,2.117);
#141=CIRCLE('',#363,2.117);
#142=CIRCLE('',#364,2.117);
#143=CIRCLE('',#366,2.117);
#144=CIRCLE('',#367,2.117);
#145=CIRCLE('',#369,37.5);
#146=CIRCLE('',#370,37.5);
#147=VERTEX_POINT('',#472);
#148=VERTEX_POINT('',#474);
#149=VERTEX_POINT('',#478);
#150=VERTEX_POINT('',#480);
#151=VERTEX_POINT('',#484);
#152=VERTEX_POINT('',#486);
#153=VERTEX_POINT('',#490);
#154=VERTEX_POINT('',#492);
#155=VERTEX_POINT('',#496);
#156=VERTEX_POINT('',#498);
#157=VERTEX_POINT('',#502);
#158=VERTEX_POINT('',#504);
#159=VERTEX_POINT('',#508);
#160=VERTEX_POINT('',#510);
#161=VERTEX_POINT('',#514);
#162=VERTEX_POINT('',#516);
#163=VERTEX_POINT('',#520);
#164=VERTEX_POINT('',#522);
#165=VERTEX_POINT('',#526);
#166=VERTEX_POINT('',#528);
#167=VERTEX_POINT('',#532);
#168=VERTEX_POINT('',#534);
#169=VERTEX_POINT('',#538);
#170=VERTEX_POINT('',#540);
#171=VERTEX_POINT('',#544);
#172=VERTEX_POINT('',#546);
#173=EDGE_CURVE('',#147,#147,#121,.T.);
#174=EDGE_CURVE('',#147,#148,#95,.T.);
#175=EDGE_CURVE('',#148,#148,#122,.T.);
#176=EDGE_CURVE('',#149,#149,#123,.T.);
#177=EDGE_CURVE('',#149,#150,#96,.T.);
#178=EDGE_CURVE('',#150,#150,#124,.T.);
#179=EDGE_CURVE('',#151,#151,#125,.T.);
#180=EDGE_CURVE('',#151,#152,#97,.T.);
#181=EDGE_CURVE('',#152,#152,#126,.T.);
#182=EDGE_CURVE('',#153,#153,#127,.T.);
#183=EDGE_CURVE('',#153,#154,#98,.T.);
#184=EDGE_CURVE('',#154,#154,#128,.T.);
#185=EDGE_CURVE('',#155,#155,#129,.F.);
#186=EDGE_CURVE('',#155,#156,#99,.T.);
#187=EDGE_CURVE('',#156,#156,#130,.T.);
#188=EDGE_CURVE('',#157,#157,#131,.F.);
#189=EDGE_CURVE('',#157,#158,#100,.T.);
#190=EDGE_CURVE('',#158,#158,#132,.T.);
#191=EDGE_CURVE('',#159,#159,#133,.F.);
#192=EDGE_CURVE('',#159,#160,#101,.T.);
#193=EDGE_CURVE('',#160,#160,#134,.T.);
#194=EDGE_CURVE('',#161,#161,#135,.F.);
#195=EDGE_CURVE('',#161,#162,#102,.T.);
#196=EDGE_CURVE('',#162,#162,#136,.T.);
#197=EDGE_CURVE('',#163,#163,#137,.F.);
#198=EDGE_CURVE('',#163,#164,#103,.T.);
#199=EDGE_CURVE('',#164,#164,#138,.T.);
#200=EDGE_CURVE('',#165,#165,#139,.F.);
#201=EDGE_CURVE('',#165,#166,#104,.T.);
#202=EDGE_CURVE('',#166,#166,#140,.T.);
#203=EDGE_CURVE('',#167,#167,#141,.F.);
#204=EDGE_CURVE('',#167,#168,#105,.T.);
#205=EDGE_CURVE('',#168,#168,#142,.T.);
#206=EDGE_CURVE('',#169,#169,#143,.F.);
#207=EDGE_CURVE('',#169,#170,#106,.T.);
#208=EDGE_CURVE('',#170,#170,#144,.T.);
#209=EDGE_CURVE('',#171,#171,#145,.T.);
#210=EDGE_CURVE('',#171,#172,#107,.T.);
#211=EDGE_CURVE('',#172,#172,#146,.T.);
#212=ORIENTED_EDGE('',*,*,#173,.F.);
#213=ORIENTED_EDGE('',*,*,#174,.T.);
#214=ORIENTED_EDGE('',*,*,#175,.F.);
#215=ORIENTED_EDGE('',*,*,#174,.F.);
#216=ORIENTED_EDGE('',*,*,#176,.F.);
#217=ORIENTED_EDGE('',*,*,#177,.T.);
#218=ORIENTED_EDGE('',*,*,#178,.F.);
#219=ORIENTED_EDGE('',*,*,#177,.F.);
#220=ORIENTED_EDGE('',*,*,#179,.F.);
#221=ORIENTED_EDGE('',*,*,#180,.T.);
#222=ORIENTED_EDGE('',*,*,#181,.F.);
#223=ORIENTED_EDGE('',*,*,#180,.F.);
#224=ORIENTED_EDGE('',*,*,#182,.F.);
#225=ORIENTED_EDGE('',*,*,#183,.T.);
#226=ORIENTED_EDGE('',*,*,#184,.F.);
#227=ORIENTED_EDGE('',*,*,#183,.F.);
#228=ORIENTED_EDGE('',*,*,#185,.F.);
#229=ORIENTED_EDGE('',*,*,#186,.T.);
#230=ORIENTED_EDGE('',*,*,#187,.F.);
#231=ORIENTED_EDGE('',*,*,#186,.F.);
#232=ORIENTED_EDGE('',*,*,#188,.F.);
#233=ORIENTED_EDGE('',*,*,#189,.T.);
#234=ORIENTED_EDGE('',*,*,#190,.F.);
#235=ORIENTED_EDGE('',*,*,#189,.F.);
#236=ORIENTED_EDGE('',*,*,#191,.F.);
#237=ORIENTED_EDGE('',*,*,#192,.T.);
#238=ORIENTED_EDGE('',*,*,#193,.F.);
#239=ORIENTED_EDGE('',*,*,#192,.F.);
#240=ORIENTED_EDGE('',*,*,#194,.F.);
#241=ORIENTED_EDGE('',*,*,#195,.T.);
#242=ORIENTED_EDGE('',*,*,#196,.F.);
#243=ORIENTED_EDGE('',*,*,#195,.F.);
#244=ORIENTED_EDGE('',*,*,#197,.F.);
#245=ORIENTED_EDGE('',*,*,#198,.T.);
#246=ORIENTED_EDGE('',*,*,#199,.F.);
#247=ORIENTED_EDGE('',*,*,#198,.F.);
#248=ORIENTED_EDGE('',*,*,#200,.F.);
#249=ORIENTED_EDGE('',*,*,#201,.T.);
#250=ORIENTED_EDGE('',*,*,#202,.F.);
#251=ORIENTED_EDGE('',*,*,#201,.F.);
#252=ORIENTED_EDGE('',*,*,#203,.F.);
#253=ORIENTED_EDGE('',*,*,#204,.T.);
#254=ORIENTED_EDGE('',*,*,#205,.F.);
#255=ORIENTED_EDGE('',*,*,#204,.F.);
#256=ORIENTED_EDGE('',*,*,#206,.F.);
#257=ORIENTED_EDGE('',*,*,#207,.T.);
#258=ORIENTED_EDGE('',*,*,#208,.F.);
#259=ORIENTED_EDGE('',*,*,#207,.F.);
#260=ORIENTED_EDGE('',*,*,#209,.F.);
#261=ORIENTED_EDGE('',*,*,#210,.T.);
#262=ORIENTED_EDGE('',*,*,#211,.T.);
#263=ORIENTED_EDGE('',*,*,#210,.F.);
#264=ORIENTED_EDGE('',*,*,#209,.T.);
#265=ORIENTED_EDGE('',*,*,#187,.T.);
#266=ORIENTED_EDGE('',*,*,#190,.T.);
#267=ORIENTED_EDGE('',*,*,#193,.T.);
#268=ORIENTED_EDGE('',*,*,#196,.T.);
#269=ORIENTED_EDGE('',*,*,#199,.T.);
#270=ORIENTED_EDGE('',*,*,#202,.T.);
#271=ORIENTED_EDGE('',*,*,#205,.T.);
#272=ORIENTED_EDGE('',*,*,#208,.T.);
#273=ORIENTED_EDGE('',*,*,#182,.T.);
#274=ORIENTED_EDGE('',*,*,#179,.T.);
#275=ORIENTED_EDGE('',*,*,#176,.T.);
#276=ORIENTED_EDGE('',*,*,#173,.T.);
#277=ORIENTED_EDGE('',*,*,#211,.F.);
#278=ORIENTED_EDGE('',*,*,#185,.T.);
#279=ORIENTED_EDGE('',*,*,#188,.T.);
#280=ORIENTED_EDGE('',*,*,#191,.T.);
#281=ORIENTED_EDGE('',*,*,#194,.T.);
#282=ORIENTED_EDGE('',*,*,#197,.T.);
#283=ORIENTED_EDGE('',*,*,#200,.T.);
#284=ORIENTED_EDGE('',*,*,#203,.T.);
#285=ORIENTED_EDGE('',*,*,#206,.T.);
#286=ORIENTED_EDGE('',*,*,#184,.T.);
#287=ORIENTED_EDGE('',*,*,#181,.T.);
#288=ORIENTED_EDGE('',*,*,#178,.T.);
#289=ORIENTED_EDGE('',*,*,#175,.T.);
#290=CYLINDRICAL_SURFACE('',#332,2.65);
#291=CYLINDRICAL_SURFACE('',#335,2.64999999999999);
#292=CYLINDRICAL_SURFACE('',#338,2.65);
#293=CYLINDRICAL_SURFACE('',#341,2.65000000000001);
#294=CYLINDRICAL_SURFACE('',#344,2.117);
#295=CYLINDRICAL_SURFACE('',#347,2.117);
#296=CYLINDRICAL_SURFACE('',#350,2.117);
#297=CYLINDRICAL_SURFACE('',#353,2.117);
#298=CYLINDRICAL_SURFACE('',#356,2.117);
#299=CYLINDRICAL_SURFACE('',#359,2.117);
#300=CYLINDRICAL_SURFACE('',#362,2.117);
#301=CYLINDRICAL_SURFACE('',#365,2.117);
#302=CYLINDRICAL_SURFACE('',#368,37.5);
#303=ADVANCED_FACE('',(#41),#290,.F.);
#304=ADVANCED_FACE('',(#42),#291,.F.);
#305=ADVANCED_FACE('',(#43),#292,.F.);
#306=ADVANCED_FACE('',(#44),#293,.F.);
#307=ADVANCED_FACE('',(#45),#294,.F.);
#308=ADVANCED_FACE('',(#46),#295,.F.);
#309=ADVANCED_FACE('',(#47),#296,.F.);
#310=ADVANCED_FACE('',(#48),#297,.F.);
#311=ADVANCED_FACE('',(#49),#298,.F.);
#312=ADVANCED_FACE('',(#50),#299,.F.);
#313=ADVANCED_FACE('',(#51),#300,.F.);
#314=ADVANCED_FACE('',(#52),#301,.F.);
#315=ADVANCED_FACE('',(#53),#302,.T.);
#316=ADVANCED_FACE('',(#54,#15,#16,#17,#18,#19,#20,#21,#22,#23,#24,#25,
#26),#39,.T.);
#317=ADVANCED_FACE('',(#55,#27,#28,#29,#30,#31,#32,#33,#34,#35,#36,#37,
#38),#40,.F.);
#318=CLOSED_SHELL('',(#303,#304,#305,#306,#307,#308,#309,#310,#311,#312,
#313,#314,#315,#316,#317));
#319=DERIVED_UNIT_ELEMENT(#321,1.);
#320=DERIVED_UNIT_ELEMENT(#556,-3.);
#321=(
MASS_UNIT()
NAMED_UNIT(*)
SI_UNIT(.KILO.,.GRAM.)
);
#322=DERIVED_UNIT((#319,#320));
#323=MEASURE_REPRESENTATION_ITEM('density measure',
POSITIVE_RATIO_MEASURE(2680.),#322);
#324=PROPERTY_DEFINITION_REPRESENTATION(#329,#326);
#325=PROPERTY_DEFINITION_REPRESENTATION(#330,#327);
#326=REPRESENTATION('material name',(#328),#553);
#327=REPRESENTATION('density',(#323),#553);
#328=DESCRIPTIVE_REPRESENTATION_ITEM('Aluminum 5052','Aluminum 5052');
#329=PROPERTY_DEFINITION('material property','material name',#563);
#330=PROPERTY_DEFINITION('material property','density of part',#563);
#331=AXIS2_PLACEMENT_3D('',#470,#373,#374);
#332=AXIS2_PLACEMENT_3D('',#471,#375,#376);
#333=AXIS2_PLACEMENT_3D('',#473,#377,#378);
#334=AXIS2_PLACEMENT_3D('',#476,#380,#381);
#335=AXIS2_PLACEMENT_3D('',#477,#382,#383);
#336=AXIS2_PLACEMENT_3D('',#479,#384,#385);
#337=AXIS2_PLACEMENT_3D('',#482,#387,#388);
#338=AXIS2_PLACEMENT_3D('',#483,#389,#390);
#339=AXIS2_PLACEMENT_3D('',#485,#391,#392);
#340=AXIS2_PLACEMENT_3D('',#488,#394,#395);
#341=AXIS2_PLACEMENT_3D('',#489,#396,#397);
#342=AXIS2_PLACEMENT_3D('',#491,#398,#399);
#343=AXIS2_PLACEMENT_3D('',#494,#401,#402);
#344=AXIS2_PLACEMENT_3D('',#495,#403,#404);
#345=AXIS2_PLACEMENT_3D('',#497,#405,#406);
#346=AXIS2_PLACEMENT_3D('',#500,#408,#409);
#347=AXIS2_PLACEMENT_3D('',#501,#410,#411);
#348=AXIS2_PLACEMENT_3D('',#503,#412,#413);
#349=AXIS2_PLACEMENT_3D('',#506,#415,#416);
#350=AXIS2_PLACEMENT_3D('',#507,#417,#418);
#351=AXIS2_PLACEMENT_3D('',#509,#419,#420);
#352=AXIS2_PLACEMENT_3D('',#512,#422,#423);
#353=AXIS2_PLACEMENT_3D('',#513,#424,#425);
#354=AXIS2_PLACEMENT_3D('',#515,#426,#427);
#355=AXIS2_PLACEMENT_3D('',#518,#429,#430);
#356=AXIS2_PLACEMENT_3D('',#519,#431,#432);
#357=AXIS2_PLACEMENT_3D('',#521,#433,#434);
#358=AXIS2_PLACEMENT_3D('',#524,#436,#437);
#359=AXIS2_PLACEMENT_3D('',#525,#438,#439);
#360=AXIS2_PLACEMENT_3D('',#527,#440,#441);
#361=AXIS2_PLACEMENT_3D('',#530,#443,#444);
#362=AXIS2_PLACEMENT_3D('',#531,#445,#446);
#363=AXIS2_PLACEMENT_3D('',#533,#447,#448);
#364=AXIS2_PLACEMENT_3D('',#536,#450,#451);
#365=AXIS2_PLACEMENT_3D('',#537,#452,#453);
#366=AXIS2_PLACEMENT_3D('',#539,#454,#455);
#367=AXIS2_PLACEMENT_3D('',#542,#457,#458);
#368=AXIS2_PLACEMENT_3D('',#543,#459,#460);
#369=AXIS2_PLACEMENT_3D('',#545,#461,#462);
#370=AXIS2_PLACEMENT_3D('',#548,#464,#465);
#371=AXIS2_PLACEMENT_3D('',#549,#466,#467);
#372=AXIS2_PLACEMENT_3D('',#550,#468,#469);
#373=DIRECTION('axis',(0.,0.,1.));
#374=DIRECTION('refdir',(1.,0.,0.));
#375=DIRECTION('center_axis',(-1.,0.,0.));
#376=DIRECTION('ref_axis',(0.,1.,0.));
#377=DIRECTION('center_axis',(-1.,-5.55111512312579E-17,3.3306690928989E-16));
#378=DIRECTION('ref_axis',(0.,1.,0.));
#379=DIRECTION('',(-1.,0.,0.));
#380=DIRECTION('center_axis',(1.,5.55111512312579E-17,-3.3306690928989E-16));
#381=DIRECTION('ref_axis',(0.,1.,0.));
#382=DIRECTION('center_axis',(-1.,0.,0.));
#383=DIRECTION('ref_axis',(0.,1.,0.));
#384=DIRECTION('center_axis',(-1.,-5.55111512312579E-17,3.3306690928989E-16));
#385=DIRECTION('ref_axis',(0.,1.,0.));
#386=DIRECTION('',(-1.,0.,0.));
#387=DIRECTION('center_axis',(1.,5.55111512312579E-17,-3.3306690928989E-16));
#388=DIRECTION('ref_axis',(0.,1.,0.));
#389=DIRECTION('center_axis',(-1.,0.,0.));
#390=DIRECTION('ref_axis',(0.,1.,0.));
#391=DIRECTION('center_axis',(-1.,-5.55111512312579E-17,3.3306690928989E-16));
#392=DIRECTION('ref_axis',(0.,1.,0.));
#393=DIRECTION('',(-1.,0.,0.));
#394=DIRECTION('center_axis',(1.,5.55111512312579E-17,-3.3306690928989E-16));
#395=DIRECTION('ref_axis',(0.,1.,0.));
#396=DIRECTION('center_axis',(-1.,0.,0.));
#397=DIRECTION('ref_axis',(0.,1.,0.));
#398=DIRECTION('center_axis',(-1.,-5.55111512312579E-17,3.3306690928989E-16));
#399=DIRECTION('ref_axis',(0.,1.,0.));
#400=DIRECTION('',(-1.,0.,0.));
#401=DIRECTION('center_axis',(1.,5.55111512312579E-17,-3.3306690928989E-16));
#402=DIRECTION('ref_axis',(0.,1.,0.));
#403=DIRECTION('center_axis',(1.,0.,0.));
#404=DIRECTION('ref_axis',(0.,-1.,1.97215226305253E-31));
#405=DIRECTION('center_axis',(-1.,-5.55111512312579E-17,3.3306690928989E-16));
#406=DIRECTION('ref_axis',(0.,-1.,1.97215226305253E-31));
#407=DIRECTION('',(1.,0.,0.));
#408=DIRECTION('center_axis',(-1.,-5.55111512312579E-17,3.3306690928989E-16));
#409=DIRECTION('ref_axis',(0.,-1.,1.97215226305253E-31));
#410=DIRECTION('center_axis',(1.,0.,0.));
#411=DIRECTION('ref_axis',(0.,-1.,1.97215226305253E-31));
#412=DIRECTION('center_axis',(-1.,-5.55111512312579E-17,3.3306690928989E-16));
#413=DIRECTION('ref_axis',(0.,-1.,1.97215226305253E-31));
#414=DIRECTION('',(1.,0.,0.));
#415=DIRECTION('center_axis',(-1.,-5.55111512312579E-17,3.3306690928989E-16));
#416=DIRECTION('ref_axis',(0.,-1.,1.97215226305253E-31));
#417=DIRECTION('center_axis',(1.,0.,0.));
#418=DIRECTION('ref_axis',(0.,-1.,1.97215226305253E-31));
#419=DIRECTION('center_axis',(-1.,-5.55111512312579E-17,3.3306690928989E-16));
#420=DIRECTION('ref_axis',(0.,-1.,1.97215226305253E-31));
#421=DIRECTION('',(1.,0.,0.));
#422=DIRECTION('center_axis',(-1.,-5.55111512312579E-17,3.3306690928989E-16));
#423=DIRECTION('ref_axis',(0.,-1.,1.97215226305253E-31));
#424=DIRECTION('center_axis',(1.,6.43607550507337E-17,0.));
#425=DIRECTION('ref_axis',(6.43607550507337E-17,-1.,1.97215226305253E-31));
#426=DIRECTION('center_axis',(-1.,-5.55111512312579E-17,3.3306690928989E-16));
#427=DIRECTION('ref_axis',(6.43607550507337E-17,-1.,1.97215226305253E-31));
#428=DIRECTION('',(1.,6.43607550507337E-17,0.));
#429=DIRECTION('center_axis',(-1.,-5.55111512312579E-17,3.3306690928989E-16));
#430=DIRECTION('ref_axis',(6.43607550507337E-17,-1.,1.97215226305253E-31));
#431=DIRECTION('center_axis',(1.,0.,0.));
#432=DIRECTION('ref_axis',(0.,-1.,1.97215226305253E-31));
#433=DIRECTION('center_axis',(-1.,-5.55111512312579E-17,3.3306690928989E-16));
#434=DIRECTION('ref_axis',(0.,-1.,1.97215226305253E-31));
#435=DIRECTION('',(1.,0.,0.));
#436=DIRECTION('center_axis',(-1.,-5.55111512312579E-17,3.3306690928989E-16));
#437=DIRECTION('ref_axis',(0.,-1.,1.97215226305253E-31));
#438=DIRECTION('center_axis',(1.,0.,0.));
#439=DIRECTION('ref_axis',(0.,-1.,1.97215226305253E-31));
#440=DIRECTION('center_axis',(-1.,-5.55111512312579E-17,3.3306690928989E-16));
#441=DIRECTION('ref_axis',(0.,-1.,1.97215226305253E-31));
#442=DIRECTION('',(1.,0.,0.));
#443=DIRECTION('center_axis',(-1.,-5.55111512312579E-17,3.3306690928989E-16));
#444=DIRECTION('ref_axis',(0.,-1.,1.97215226305253E-31));
#445=DIRECTION('center_axis',(1.,6.43607550507337E-17,0.));
#446=DIRECTION('ref_axis',(6.43607550507337E-17,-1.,1.97215226305253E-31));
#447=DIRECTION('center_axis',(-1.,-5.55111512312579E-17,3.3306690928989E-16));
#448=DIRECTION('ref_axis',(6.43607550507337E-17,-1.,1.97215226305253E-31));
#449=DIRECTION('',(1.,6.43607550507337E-17,0.));
#450=DIRECTION('center_axis',(-1.,-5.55111512312579E-17,3.3306690928989E-16));
#451=DIRECTION('ref_axis',(6.43607550507337E-17,-1.,1.97215226305253E-31));
#452=DIRECTION('center_axis',(1.,0.,0.));
#453=DIRECTION('ref_axis',(0.,-1.,1.97215226305253E-31));
#454=DIRECTION('center_axis',(-1.,-5.55111512312579E-17,3.3306690928989E-16));
#455=DIRECTION('ref_axis',(0.,-1.,1.97215226305253E-31));
#456=DIRECTION('',(1.,0.,0.));
#457=DIRECTION('center_axis',(-1.,-5.55111512312579E-17,3.3306690928989E-16));
#458=DIRECTION('ref_axis',(0.,-1.,1.97215226305253E-31));
#459=DIRECTION('center_axis',(1.,0.,0.));
#460=DIRECTION('ref_axis',(0.,1.,-1.97215226305253E-31));
#461=DIRECTION('center_axis',(1.,5.55111512312579E-17,-3.3306690928989E-16));
#462=DIRECTION('ref_axis',(-5.55111512312579E-17,1.,-1.97215226305253E-31));
#463=DIRECTION('',(-1.,0.,0.));
#464=DIRECTION('center_axis',(1.,5.55111512312579E-17,-3.3306690928989E-16));
#465=DIRECTION('ref_axis',(-5.55111512312579E-17,1.,-1.97215226305253E-31));
#466=DIRECTION('center_axis',(1.,5.55111512312579E-17,-3.3306690928989E-16));
#467=DIRECTION('ref_axis',(-5.55111512312579E-17,1.,-1.97215226305253E-31));
#468=DIRECTION('center_axis',(1.,5.55111512312579E-17,-3.3306690928989E-16));
#469=DIRECTION('ref_axis',(-5.55111512312579E-17,1.,-1.97215226305253E-31));
#470=CARTESIAN_POINT('',(0.,0.,0.));
#471=CARTESIAN_POINT('Origin',(49.9998000000001,-15.0500001490107,173.400000149012));
#472=CARTESIAN_POINT('',(49.9998000000001,-17.7000001490107,173.400000149012));
#473=CARTESIAN_POINT('Origin',(49.9998000000001,-15.0500001490107,173.400000149012));
#474=CARTESIAN_POINT('',(43.6498000000001,-17.7000001490107,173.400000149012));
#475=CARTESIAN_POINT('',(49.9998000000001,-17.7000001490107,173.400000149012));
#476=CARTESIAN_POINT('Origin',(43.6498000000001,-15.0500001490107,173.400000149012));
#477=CARTESIAN_POINT('Origin',(49.9998000000001,-15.0500001490107,153.399999850989));
#478=CARTESIAN_POINT('',(49.9998000000001,-17.7000001490107,153.399999850989));
#479=CARTESIAN_POINT('Origin',(49.9998000000001,-15.0500001490107,153.399999850989));
#480=CARTESIAN_POINT('',(43.6498000000001,-17.7000001490107,153.399999850989));
#481=CARTESIAN_POINT('',(49.9998000000001,-17.7000001490107,153.399999850989));
#482=CARTESIAN_POINT('Origin',(43.6498000000001,-15.0500001490107,153.399999850989));
#483=CARTESIAN_POINT('Origin',(49.9998000000001,4.95000014901247,173.400000149012));
#484=CARTESIAN_POINT('',(49.9998000000001,2.30000014901247,173.400000149012));
#485=CARTESIAN_POINT('Origin',(49.9998000000001,4.95000014901247,173.400000149012));
#486=CARTESIAN_POINT('',(43.6498000000001,2.30000014901247,173.400000149012));
#487=CARTESIAN_POINT('',(49.9998000000001,2.30000014901247,173.400000149012));
#488=CARTESIAN_POINT('Origin',(43.6498000000001,4.95000014901247,173.400000149012));
#489=CARTESIAN_POINT('Origin',(49.9998000000001,4.95000014901247,153.399999850989));
#490=CARTESIAN_POINT('',(49.9998000000001,2.30000014901246,153.399999850989));
#491=CARTESIAN_POINT('Origin',(49.9998000000001,4.95000014901247,153.399999850989));
#492=CARTESIAN_POINT('',(43.6498000000001,2.30000014901246,153.399999850989));
#493=CARTESIAN_POINT('',(49.9998000000001,2.30000014901246,153.399999850989));
#494=CARTESIAN_POINT('Origin',(43.6498000000001,4.95000014901247,153.399999850989));
#495=CARTESIAN_POINT('Origin',(32.7498,23.7500000000009,171.400000193715));
#496=CARTESIAN_POINT('',(43.6498000000001,25.8670000000009,171.400000193715));
#497=CARTESIAN_POINT('Origin',(43.6498000000001,23.7500000000009,171.400000193715));
#498=CARTESIAN_POINT('',(49.9998000000001,25.8670000000009,171.400000193715));
#499=CARTESIAN_POINT('',(32.7498,25.8670000000009,171.400000193715));
#500=CARTESIAN_POINT('Origin',(49.9998000000001,23.7500000000009,171.400000193715));
#501=CARTESIAN_POINT('Origin',(32.7498,-33.7499999999992,171.399999806285));
#502=CARTESIAN_POINT('',(43.6498000000001,-31.6329999999992,171.399999806285));
#503=CARTESIAN_POINT('Origin',(43.6498000000001,-33.7499999999992,171.399999806285));
#504=CARTESIAN_POINT('',(49.9998000000001,-31.6329999999992,171.399999806285));
#505=CARTESIAN_POINT('',(32.7498,-31.6329999999992,171.399999806285));
#506=CARTESIAN_POINT('Origin',(49.9998000000001,-33.7499999999992,171.399999806285));
#507=CARTESIAN_POINT('Origin',(32.7498,-12.9999998062841,134.65));
#508=CARTESIAN_POINT('',(43.6498000000001,-10.8829998062841,134.65));
#509=CARTESIAN_POINT('Origin',(43.6498000000001,-12.9999998062841,134.65));
#510=CARTESIAN_POINT('',(49.9998000000001,-10.8829998062841,134.65));
#511=CARTESIAN_POINT('',(32.7498,-10.8829998062841,134.65));
#512=CARTESIAN_POINT('Origin',(49.9998000000001,-12.9999998062841,134.65));
#513=CARTESIAN_POINT('Origin',(32.7498,2.99999980628573,192.15));
#514=CARTESIAN_POINT('',(43.6498000000001,5.11699980628573,192.15));
#515=CARTESIAN_POINT('Origin',(43.6498000000001,2.99999980628573,192.15));
#516=CARTESIAN_POINT('',(49.9998000000001,5.11699980628573,192.15));
#517=CARTESIAN_POINT('',(32.7498,5.11699980628573,192.15));
#518=CARTESIAN_POINT('Origin',(49.9998000000001,2.99999980628573,192.15));
#519=CARTESIAN_POINT('Origin',(32.7498,23.7500000000009,155.400000193715));
#520=CARTESIAN_POINT('',(43.6498000000001,25.8670000000009,155.400000193715));
#521=CARTESIAN_POINT('Origin',(43.6498000000001,23.7500000000009,155.400000193715));
#522=CARTESIAN_POINT('',(49.9998000000001,25.8670000000009,155.400000193715));
#523=CARTESIAN_POINT('',(32.7498,25.8670000000009,155.400000193715));
#524=CARTESIAN_POINT('Origin',(49.9998000000001,23.7500000000009,155.400000193715));
#525=CARTESIAN_POINT('Origin',(32.7498,-33.7499999999992,155.399999806285));
#526=CARTESIAN_POINT('',(43.6498000000001,-31.6329999999992,155.399999806285));
#527=CARTESIAN_POINT('Origin',(43.6498000000001,-33.7499999999992,155.399999806285));
#528=CARTESIAN_POINT('',(49.9998000000001,-31.6329999999992,155.399999806285));
#529=CARTESIAN_POINT('',(32.7498,-31.6329999999992,155.399999806285));
#530=CARTESIAN_POINT('Origin',(49.9998000000001,-33.7499999999992,155.399999806285));
#531=CARTESIAN_POINT('Origin',(32.7498,3.00000019371593,134.65));
#532=CARTESIAN_POINT('',(43.6498000000001,5.11700019371593,134.65));
#533=CARTESIAN_POINT('Origin',(43.6498000000001,3.00000019371593,134.65));
#534=CARTESIAN_POINT('',(49.9998000000001,5.11700019371593,134.65));
#535=CARTESIAN_POINT('',(32.7498,5.11700019371593,134.65));
#536=CARTESIAN_POINT('Origin',(49.9998000000001,3.00000019371593,134.65));
#537=CARTESIAN_POINT('Origin',(32.7498,-13.0000001937143,192.15));
#538=CARTESIAN_POINT('',(43.6498000000001,-10.8830001937143,192.15));
#539=CARTESIAN_POINT('Origin',(43.6498000000001,-13.0000001937143,192.15));
#540=CARTESIAN_POINT('',(49.9998000000001,-10.8830001937143,192.15));
#541=CARTESIAN_POINT('',(32.7498,-10.8830001937143,192.15));
#542=CARTESIAN_POINT('Origin',(49.9998000000001,-13.0000001937143,192.15));
#543=CARTESIAN_POINT('Origin',(43.6498000000001,-4.99999999999915,163.4));
#544=CARTESIAN_POINT('',(49.9998000000001,-42.4999999999992,163.4));
#545=CARTESIAN_POINT('Origin',(49.9998000000001,-4.99999999999915,163.4));
#546=CARTESIAN_POINT('',(43.6498000000001,-42.4999999999992,163.4));
#547=CARTESIAN_POINT('',(43.6498000000001,-42.4999999999992,163.4));
#548=CARTESIAN_POINT('Origin',(43.6498000000001,-4.99999999999915,163.4));
#549=CARTESIAN_POINT('Origin',(49.9998000000001,-4.99999999999914,163.4));
#550=CARTESIAN_POINT('Origin',(43.6498000000001,-4.99999999999914,163.4));
#551=UNCERTAINTY_MEASURE_WITH_UNIT(LENGTH_MEASURE(0.01),#555,
'DISTANCE_ACCURACY_VALUE',
'Maximum model space distance between geometric entities at asserted c
onnectivities');
#552=UNCERTAINTY_MEASURE_WITH_UNIT(LENGTH_MEASURE(0.01),#555,
'DISTANCE_ACCURACY_VALUE',
'Maximum model space distance between geometric entities at asserted c
onnectivities');
#553=(
GEOMETRIC_REPRESENTATION_CONTEXT(3)
GLOBAL_UNCERTAINTY_ASSIGNED_CONTEXT((#551))
GLOBAL_UNIT_ASSIGNED_CONTEXT((#555,#557,#558))
REPRESENTATION_CONTEXT('','3D')
);
#554=(
GEOMETRIC_REPRESENTATION_CONTEXT(3)
GLOBAL_UNCERTAINTY_ASSIGNED_CONTEXT((#552))
GLOBAL_UNIT_ASSIGNED_CONTEXT((#555,#557,#558))
REPRESENTATION_CONTEXT('','3D')
);
#555=(
LENGTH_UNIT()
NAMED_UNIT(*)
SI_UNIT(.MILLI.,.METRE.)
);
#556=(
LENGTH_UNIT()
NAMED_UNIT(*)
SI_UNIT($,.METRE.)
);
#557=(
NAMED_UNIT(*)
PLANE_ANGLE_UNIT()
SI_UNIT($,.RADIAN.)
);
#558=(
NAMED_UNIT(*)
SI_UNIT($,.STERADIAN.)
SOLID_ANGLE_UNIT()
);
#559=SHAPE_DEFINITION_REPRESENTATION(#560,#561);
#560=PRODUCT_DEFINITION_SHAPE('',$,#563);
#561=SHAPE_REPRESENTATION('',(#331),#553);
#562=PRODUCT_DEFINITION_CONTEXT('part definition',#567,'design');
#563=PRODUCT_DEFINITION('Shaft Plate','Shaft Plate',#564,#562);
#564=PRODUCT_DEFINITION_FORMATION('',$,#569);
#565=PRODUCT_RELATED_PRODUCT_CATEGORY('Shaft Plate','Shaft Plate',(#569));
#566=APPLICATION_PROTOCOL_DEFINITION('international standard',
'automotive_design',2009,#567);
#567=APPLICATION_CONTEXT(
'Core Data for Automotive Mechanical Design Process');
#568=PRODUCT_CONTEXT('part definition',#567,'mechanical');
#569=PRODUCT('Shaft Plate','Shaft Plate',$,(#568));
#570=PRESENTATION_STYLE_ASSIGNMENT((#571));
#571=SURFACE_STYLE_USAGE(.BOTH.,#572);
#572=SURFACE_SIDE_STYLE('',(#573));
#573=SURFACE_STYLE_FILL_AREA(#574);
#574=FILL_AREA_STYLE('Aluminum - Satin',(#575));
#575=FILL_AREA_STYLE_COLOUR('Aluminum - Satin',#576);
#576=COLOUR_RGB('Aluminum - Satin',0.96078431372549,0.96078431372549,0.964705882352941);
ENDSEC;
END-ISO-10303-21;
