ISO-10303-21;
HEADER;
/* Generated by software containing ST-Developer
 * from STEP Tools, Inc. (www.steptools.com) 
 */

FILE_DESCRIPTION(
/* description */ (''),
/* implementation_level */ '2;1');

FILE_NAME(
/* name */ 'Side Plate.step',
/* time_stamp */ '2026-08-23T19:12:29-06:00',
/* author */ (''),
/* organization */ (''),
/* preprocessor_version */ 'ST-DEVELOPER v20.1',
/* originating_system */ 'Autodesk Translation Framework v15.8.0.0',
/* authorisation */ '');

FILE_SCHEMA (('AUTOMOTIVE_DESIGN { 1 0 10303 214 3 1 1 }'));
ENDSEC;

DATA;
#10=MECHANICAL_DESIGN_GEOMETRIC_PRESENTATION_REPRESENTATION('',(#13),#984);
#11=SHAPE_REPRESENTATION_RELATIONSHIP('SRR','None',#991,#12);
#12=ADVANCED_BREP_SHAPE_REPRESENTATION('',(#14),#983);
#13=STYLED_ITEM('',(#1000),#14);
#14=MANIFOLD_SOLID_BREP('Body1',#576);
#15=FACE_BOUND('',#95,.T.);
#16=FACE_BOUND('',#96,.T.);
#17=FACE_BOUND('',#97,.T.);
#18=FACE_BOUND('',#98,.T.);
#19=FACE_BOUND('',#99,.T.);
#20=FACE_BOUND('',#100,.T.);
#21=FACE_BOUND('',#101,.T.);
#22=FACE_BOUND('',#102,.T.);
#23=FACE_BOUND('',#103,.T.);
#24=FACE_BOUND('',#104,.T.);
#25=FACE_BOUND('',#105,.T.);
#26=FACE_BOUND('',#106,.T.);
#27=FACE_BOUND('',#107,.T.);
#28=FACE_BOUND('',#108,.T.);
#29=FACE_BOUND('',#109,.T.);
#30=FACE_BOUND('',#110,.T.);
#31=FACE_BOUND('',#111,.T.);
#32=FACE_BOUND('',#127,.T.);
#33=FACE_BOUND('',#128,.T.);
#34=FACE_BOUND('',#129,.T.);
#35=FACE_BOUND('',#130,.T.);
#36=FACE_BOUND('',#131,.T.);
#37=FACE_BOUND('',#132,.T.);
#38=FACE_BOUND('',#133,.T.);
#39=FACE_BOUND('',#134,.T.);
#40=FACE_BOUND('',#135,.T.);
#41=FACE_BOUND('',#136,.T.);
#42=FACE_BOUND('',#137,.T.);
#43=FACE_BOUND('',#138,.T.);
#44=FACE_BOUND('',#139,.T.);
#45=FACE_BOUND('',#140,.T.);
#46=FACE_BOUND('',#141,.T.);
#47=FACE_BOUND('',#142,.T.);
#48=FACE_BOUND('',#143,.T.);
#49=PLANE('',#620);
#50=PLANE('',#621);
#51=PLANE('',#634);
#52=PLANE('',#637);
#53=PLANE('',#652);
#54=PLANE('',#653);
#55=PLANE('',#656);
#56=FACE_OUTER_BOUND('',#83,.T.);
#57=FACE_OUTER_BOUND('',#84,.T.);
#58=FACE_OUTER_BOUND('',#85,.T.);
#59=FACE_OUTER_BOUND('',#86,.T.);
#60=FACE_OUTER_BOUND('',#87,.T.);
#61=FACE_OUTER_BOUND('',#88,.T.);
#62=FACE_OUTER_BOUND('',#89,.T.);
#63=FACE_OUTER_BOUND('',#90,.T.);
#64=FACE_OUTER_BOUND('',#91,.T.);
#65=FACE_OUTER_BOUND('',#92,.T.);
#66=FACE_OUTER_BOUND('',#93,.T.);
#67=FACE_OUTER_BOUND('',#94,.T.);
#68=FACE_OUTER_BOUND('',#112,.T.);
#69=FACE_OUTER_BOUND('',#113,.T.);
#70=FACE_OUTER_BOUND('',#114,.T.);
#71=FACE_OUTER_BOUND('',#115,.T.);
#72=FACE_OUTER_BOUND('',#116,.T.);
#73=FACE_OUTER_BOUND('',#117,.T.);
#74=FACE_OUTER_BOUND('',#118,.T.);
#75=FACE_OUTER_BOUND('',#119,.T.);
#76=FACE_OUTER_BOUND('',#120,.T.);
#77=FACE_OUTER_BOUND('',#121,.T.);
#78=FACE_OUTER_BOUND('',#122,.T.);
#79=FACE_OUTER_BOUND('',#123,.T.);
#80=FACE_OUTER_BOUND('',#124,.T.);
#81=FACE_OUTER_BOUND('',#125,.T.);
#82=FACE_OUTER_BOUND('',#126,.T.);
#83=EDGE_LOOP('',(#379,#380,#381,#382));
#84=EDGE_LOOP('',(#383,#384,#385,#386));
#85=EDGE_LOOP('',(#387,#388,#389,#390));
#86=EDGE_LOOP('',(#391,#392,#393,#394));
#87=EDGE_LOOP('',(#395,#396,#397,#398));
#88=EDGE_LOOP('',(#399,#400,#401,#402));
#89=EDGE_LOOP('',(#403,#404,#405,#406));
#90=EDGE_LOOP('',(#407,#408,#409,#410));
#91=EDGE_LOOP('',(#411,#412,#413,#414));
#92=EDGE_LOOP('',(#415,#416,#417,#418));
#93=EDGE_LOOP('',(#419,#420,#421,#422));
#94=EDGE_LOOP('',(#423,#424,#425,#426,#427,#428,#429,#430));
#95=EDGE_LOOP('',(#431));
#96=EDGE_LOOP('',(#432));
#97=EDGE_LOOP('',(#433));
#98=EDGE_LOOP('',(#434));
#99=EDGE_LOOP('',(#435));
#100=EDGE_LOOP('',(#436));
#101=EDGE_LOOP('',(#437));
#102=EDGE_LOOP('',(#438));
#103=EDGE_LOOP('',(#439));
#104=EDGE_LOOP('',(#440));
#105=EDGE_LOOP('',(#441));
#106=EDGE_LOOP('',(#442));
#107=EDGE_LOOP('',(#443));
#108=EDGE_LOOP('',(#444));
#109=EDGE_LOOP('',(#445));
#110=EDGE_LOOP('',(#446));
#111=EDGE_LOOP('',(#447));
#112=EDGE_LOOP('',(#448,#449,#450,#451));
#113=EDGE_LOOP('',(#452,#453,#454,#455));
#114=EDGE_LOOP('',(#456,#457,#458,#459));
#115=EDGE_LOOP('',(#460,#461,#462,#463));
#116=EDGE_LOOP('',(#464,#465,#466,#467));
#117=EDGE_LOOP('',(#468,#469,#470,#471));
#118=EDGE_LOOP('',(#472,#473,#474,#475));
#119=EDGE_LOOP('',(#476,#477,#478,#479));
#120=EDGE_LOOP('',(#480,#481,#482,#483));
#121=EDGE_LOOP('',(#484,#485,#486,#487));
#122=EDGE_LOOP('',(#488,#489,#490,#491));
#123=EDGE_LOOP('',(#492,#493,#494,#495));
#124=EDGE_LOOP('',(#496,#497,#498,#499));
#125=EDGE_LOOP('',(#500,#501,#502,#503));
#126=EDGE_LOOP('',(#504,#505,#506,#507,#508,#509,#510,#511));
#127=EDGE_LOOP('',(#512));
#128=EDGE_LOOP('',(#513));
#129=EDGE_LOOP('',(#514));
#130=EDGE_LOOP('',(#515));
#131=EDGE_LOOP('',(#516));
#132=EDGE_LOOP('',(#517));
#133=EDGE_LOOP('',(#518));
#134=EDGE_LOOP('',(#519));
#135=EDGE_LOOP('',(#520));
#136=EDGE_LOOP('',(#521));
#137=EDGE_LOOP('',(#522));
#138=EDGE_LOOP('',(#523));
#139=EDGE_LOOP('',(#524));
#140=EDGE_LOOP('',(#525));
#141=EDGE_LOOP('',(#526));
#142=EDGE_LOOP('',(#527));
#143=EDGE_LOOP('',(#528));
#144=LINE('',#833,#179);
#145=LINE('',#839,#180);
#146=LINE('',#845,#181);
#147=LINE('',#851,#182);
#148=LINE('',#857,#183);
#149=LINE('',#863,#184);
#150=LINE('',#869,#185);
#151=LINE('',#875,#186);
#152=LINE('',#881,#187);
#153=LINE('',#888,#188);
#154=LINE('',#891,#189);
#155=LINE('',#894,#190);
#156=LINE('',#896,#191);
#157=LINE('',#897,#192);
#158=LINE('',#900,#193);
#159=LINE('',#902,#194);
#160=LINE('',#904,#195);
#161=LINE('',#908,#196);
#162=LINE('',#928,#197);
#163=LINE('',#931,#198);
#164=LINE('',#934,#199);
#165=LINE('',#935,#200);
#166=LINE('',#939,#201);
#167=LINE('',#941,#202);
#168=LINE('',#945,#203);
#169=LINE('',#949,#204);
#170=LINE('',#953,#205);
#171=LINE('',#957,#206);
#172=LINE('',#961,#207);
#173=LINE('',#965,#208);
#174=LINE('',#969,#209);
#175=LINE('',#972,#210);
#176=LINE('',#973,#211);
#177=LINE('',#975,#212);
#178=LINE('',#978,#213);
#179=VECTOR('',#663,2.65000000000001);
#180=VECTOR('',#670,2.65);
#181=VECTOR('',#677,2.65000000000001);
#182=VECTOR('',#684,2.65);
#183=VECTOR('',#691,2.65);
#184=VECTOR('',#698,2.65);
#185=VECTOR('',#705,2.64999999999999);
#186=VECTOR('',#712,2.65);
#187=VECTOR('',#719,47.5);
#188=VECTOR('',#726,10.);
#189=VECTOR('',#729,10.);
#190=VECTOR('',#732,10.);
#191=VECTOR('',#733,10.);
#192=VECTOR('',#734,10.);
#193=VECTOR('',#737,10.);
#194=VECTOR('',#738,10.);
#195=VECTOR('',#739,10.);
#196=VECTOR('',#742,10.);
#197=VECTOR('',#763,10.);
#198=VECTOR('',#766,10.);
#199=VECTOR('',#769,10.);
#200=VECTOR('',#770,10.);
#201=VECTOR('',#775,10.);
#202=VECTOR('',#778,10.);
#203=VECTOR('',#783,2.65);
#204=VECTOR('',#788,2.64999999999999);
#205=VECTOR('',#793,2.65);
#206=VECTOR('',#798,2.65);
#207=VECTOR('',#803,2.65000000000001);
#208=VECTOR('',#808,2.65);
#209=VECTOR('',#813,2.65);
#210=VECTOR('',#816,10.);
#211=VECTOR('',#817,10.);
#212=VECTOR('',#820,10.);
#213=VECTOR('',#823,6.5);
#214=CIRCLE('',#591,2.65000000000001);
#215=CIRCLE('',#592,2.65000000000001);
#216=CIRCLE('',#594,2.65);
#217=CIRCLE('',#595,2.65);
#218=CIRCLE('',#597,2.65000000000001);
#219=CIRCLE('',#598,2.65000000000001);
#220=CIRCLE('',#600,2.65);
#221=CIRCLE('',#601,2.65);
#222=CIRCLE('',#603,2.117);
#223=CIRCLE('',#604,2.117);
#224=CIRCLE('',#606,2.117);
#225=CIRCLE('',#607,2.117);
#226=CIRCLE('',#609,2.117);
#227=CIRCLE('',#610,2.117);
#228=CIRCLE('',#612,2.117);
#229=CIRCLE('',#613,2.117);
#230=CIRCLE('',#615,47.5);
#231=CIRCLE('',#616,47.5);
#232=CIRCLE('',#618,10.);
#233=CIRCLE('',#619,10.);
#234=CIRCLE('',#622,10.);
#235=CIRCLE('',#623,10.);
#236=CIRCLE('',#624,6.5);
#237=CIRCLE('',#625,2.65);
#238=CIRCLE('',#626,2.65);
#239=CIRCLE('',#627,2.65000000000001);
#240=CIRCLE('',#628,2.65);
#241=CIRCLE('',#629,2.65);
#242=CIRCLE('',#630,2.64999999999999);
#243=CIRCLE('',#631,2.65);
#244=CIRCLE('',#633,10.);
#245=CIRCLE('',#636,10.);
#246=CIRCLE('',#639,2.65);
#247=CIRCLE('',#641,2.64999999999999);
#248=CIRCLE('',#643,2.65);
#249=CIRCLE('',#645,2.65);
#250=CIRCLE('',#647,2.65000000000001);
#251=CIRCLE('',#649,2.65);
#252=CIRCLE('',#651,2.65);
#253=CIRCLE('',#655,6.5);
#254=VERTEX_POINT('',#830);
#255=VERTEX_POINT('',#832);
#256=VERTEX_POINT('',#836);
#257=VERTEX_POINT('',#838);
#258=VERTEX_POINT('',#842);
#259=VERTEX_POINT('',#844);
#260=VERTEX_POINT('',#848);
#261=VERTEX_POINT('',#850);
#262=VERTEX_POINT('',#854);
#263=VERTEX_POINT('',#856);
#264=VERTEX_POINT('',#860);
#265=VERTEX_POINT('',#862);
#266=VERTEX_POINT('',#866);
#267=VERTEX_POINT('',#868);
#268=VERTEX_POINT('',#872);
#269=VERTEX_POINT('',#874);
#270=VERTEX_POINT('',#878);
#271=VERTEX_POINT('',#880);
#272=VERTEX_POINT('',#884);
#273=VERTEX_POINT('',#885);
#274=VERTEX_POINT('',#887);
#275=VERTEX_POINT('',#889);
#276=VERTEX_POINT('',#893);
#277=VERTEX_POINT('',#895);
#278=VERTEX_POINT('',#899);
#279=VERTEX_POINT('',#901);
#280=VERTEX_POINT('',#903);
#281=VERTEX_POINT('',#905);
#282=VERTEX_POINT('',#907);
#283=VERTEX_POINT('',#910);
#284=VERTEX_POINT('',#912);
#285=VERTEX_POINT('',#914);
#286=VERTEX_POINT('',#916);
#287=VERTEX_POINT('',#918);
#288=VERTEX_POINT('',#920);
#289=VERTEX_POINT('',#922);
#290=VERTEX_POINT('',#924);
#291=VERTEX_POINT('',#927);
#292=VERTEX_POINT('',#929);
#293=VERTEX_POINT('',#933);
#294=VERTEX_POINT('',#937);
#295=VERTEX_POINT('',#943);
#296=VERTEX_POINT('',#947);
#297=VERTEX_POINT('',#951);
#298=VERTEX_POINT('',#955);
#299=VERTEX_POINT('',#959);
#300=VERTEX_POINT('',#963);
#301=VERTEX_POINT('',#967);
#302=VERTEX_POINT('',#971);
#303=VERTEX_POINT('',#977);
#304=EDGE_CURVE('',#254,#254,#214,.T.);
#305=EDGE_CURVE('',#254,#255,#144,.T.);
#306=EDGE_CURVE('',#255,#255,#215,.T.);
#307=EDGE_CURVE('',#256,#256,#216,.T.);
#308=EDGE_CURVE('',#256,#257,#145,.T.);
#309=EDGE_CURVE('',#257,#257,#217,.T.);
#310=EDGE_CURVE('',#258,#258,#218,.T.);
#311=EDGE_CURVE('',#258,#259,#146,.T.);
#312=EDGE_CURVE('',#259,#259,#219,.T.);
#313=EDGE_CURVE('',#260,#260,#220,.T.);
#314=EDGE_CURVE('',#260,#261,#147,.T.);
#315=EDGE_CURVE('',#261,#261,#221,.T.);
#316=EDGE_CURVE('',#262,#262,#222,.T.);
#317=EDGE_CURVE('',#262,#263,#148,.T.);
#318=EDGE_CURVE('',#263,#263,#223,.T.);
#319=EDGE_CURVE('',#264,#264,#224,.T.);
#320=EDGE_CURVE('',#264,#265,#149,.T.);
#321=EDGE_CURVE('',#265,#265,#225,.T.);
#322=EDGE_CURVE('',#266,#266,#226,.T.);
#323=EDGE_CURVE('',#266,#267,#150,.T.);
#324=EDGE_CURVE('',#267,#267,#227,.T.);
#325=EDGE_CURVE('',#268,#268,#228,.T.);
#326=EDGE_CURVE('',#268,#269,#151,.T.);
#327=EDGE_CURVE('',#269,#269,#229,.T.);
#328=EDGE_CURVE('',#270,#270,#230,.T.);
#329=EDGE_CURVE('',#270,#271,#152,.T.);
#330=EDGE_CURVE('',#271,#271,#231,.T.);
#331=EDGE_CURVE('',#272,#273,#232,.T.);
#332=EDGE_CURVE('',#273,#274,#153,.T.);
#333=EDGE_CURVE('',#274,#275,#233,.T.);
#334=EDGE_CURVE('',#275,#272,#154,.T.);
#335=EDGE_CURVE('',#273,#276,#155,.T.);
#336=EDGE_CURVE('',#277,#276,#156,.T.);
#337=EDGE_CURVE('',#277,#274,#157,.T.);
#338=EDGE_CURVE('',#272,#278,#158,.T.);
#339=EDGE_CURVE('',#279,#278,#159,.T.);
#340=EDGE_CURVE('',#279,#280,#160,.T.);
#341=EDGE_CURVE('',#281,#280,#234,.T.);
#342=EDGE_CURVE('',#281,#282,#161,.T.);
#343=EDGE_CURVE('',#276,#282,#235,.T.);
#344=EDGE_CURVE('',#283,#283,#236,.T.);
#345=EDGE_CURVE('',#284,#284,#237,.T.);
#346=EDGE_CURVE('',#285,#285,#238,.T.);
#347=EDGE_CURVE('',#286,#286,#239,.T.);
#348=EDGE_CURVE('',#287,#287,#240,.T.);
#349=EDGE_CURVE('',#288,#288,#241,.T.);
#350=EDGE_CURVE('',#289,#289,#242,.T.);
#351=EDGE_CURVE('',#290,#290,#243,.T.);
#352=EDGE_CURVE('',#280,#291,#162,.T.);
#353=EDGE_CURVE('',#291,#292,#244,.T.);
#354=EDGE_CURVE('',#292,#281,#163,.T.);
#355=EDGE_CURVE('',#293,#279,#164,.T.);
#356=EDGE_CURVE('',#291,#293,#165,.T.);
#357=EDGE_CURVE('',#294,#277,#245,.T.);
#358=EDGE_CURVE('',#282,#294,#166,.T.);
#359=EDGE_CURVE('',#294,#292,#167,.T.);
#360=EDGE_CURVE('',#295,#295,#246,.T.);
#361=EDGE_CURVE('',#295,#290,#168,.T.);
#362=EDGE_CURVE('',#296,#296,#247,.T.);
#363=EDGE_CURVE('',#296,#289,#169,.T.);
#364=EDGE_CURVE('',#297,#297,#248,.T.);
#365=EDGE_CURVE('',#297,#288,#170,.T.);
#366=EDGE_CURVE('',#298,#298,#249,.T.);
#367=EDGE_CURVE('',#298,#287,#171,.T.);
#368=EDGE_CURVE('',#299,#299,#250,.T.);
#369=EDGE_CURVE('',#299,#286,#172,.T.);
#370=EDGE_CURVE('',#300,#300,#251,.T.);
#371=EDGE_CURVE('',#300,#285,#173,.T.);
#372=EDGE_CURVE('',#301,#301,#252,.T.);
#373=EDGE_CURVE('',#301,#284,#174,.T.);
#374=EDGE_CURVE('',#278,#302,#175,.T.);
#375=EDGE_CURVE('',#302,#293,#176,.T.);
#376=EDGE_CURVE('',#302,#275,#177,.T.);
#377=EDGE_CURVE('',#283,#303,#178,.T.);
#378=EDGE_CURVE('',#303,#303,#253,.T.);
#379=ORIENTED_EDGE('',*,*,#304,.F.);
#380=ORIENTED_EDGE('',*,*,#305,.T.);
#381=ORIENTED_EDGE('',*,*,#306,.F.);
#382=ORIENTED_EDGE('',*,*,#305,.F.);
#383=ORIENTED_EDGE('',*,*,#307,.F.);
#384=ORIENTED_EDGE('',*,*,#308,.T.);
#385=ORIENTED_EDGE('',*,*,#309,.F.);
#386=ORIENTED_EDGE('',*,*,#308,.F.);
#387=ORIENTED_EDGE('',*,*,#310,.F.);
#388=ORIENTED_EDGE('',*,*,#311,.T.);
#389=ORIENTED_EDGE('',*,*,#312,.F.);
#390=ORIENTED_EDGE('',*,*,#311,.F.);
#391=ORIENTED_EDGE('',*,*,#313,.F.);
#392=ORIENTED_EDGE('',*,*,#314,.T.);
#393=ORIENTED_EDGE('',*,*,#315,.F.);
#394=ORIENTED_EDGE('',*,*,#314,.F.);
#395=ORIENTED_EDGE('',*,*,#316,.F.);
#396=ORIENTED_EDGE('',*,*,#317,.T.);
#397=ORIENTED_EDGE('',*,*,#318,.F.);
#398=ORIENTED_EDGE('',*,*,#317,.F.);
#399=ORIENTED_EDGE('',*,*,#319,.F.);
#400=ORIENTED_EDGE('',*,*,#320,.T.);
#401=ORIENTED_EDGE('',*,*,#321,.F.);
#402=ORIENTED_EDGE('',*,*,#320,.F.);
#403=ORIENTED_EDGE('',*,*,#322,.F.);
#404=ORIENTED_EDGE('',*,*,#323,.T.);
#405=ORIENTED_EDGE('',*,*,#324,.F.);
#406=ORIENTED_EDGE('',*,*,#323,.F.);
#407=ORIENTED_EDGE('',*,*,#325,.F.);
#408=ORIENTED_EDGE('',*,*,#326,.T.);
#409=ORIENTED_EDGE('',*,*,#327,.F.);
#410=ORIENTED_EDGE('',*,*,#326,.F.);
#411=ORIENTED_EDGE('',*,*,#328,.F.);
#412=ORIENTED_EDGE('',*,*,#329,.T.);
#413=ORIENTED_EDGE('',*,*,#330,.F.);
#414=ORIENTED_EDGE('',*,*,#329,.F.);
#415=ORIENTED_EDGE('',*,*,#331,.T.);
#416=ORIENTED_EDGE('',*,*,#332,.T.);
#417=ORIENTED_EDGE('',*,*,#333,.T.);
#418=ORIENTED_EDGE('',*,*,#334,.T.);
#419=ORIENTED_EDGE('',*,*,#332,.F.);
#420=ORIENTED_EDGE('',*,*,#335,.T.);
#421=ORIENTED_EDGE('',*,*,#336,.F.);
#422=ORIENTED_EDGE('',*,*,#337,.T.);
#423=ORIENTED_EDGE('',*,*,#331,.F.);
#424=ORIENTED_EDGE('',*,*,#338,.T.);
#425=ORIENTED_EDGE('',*,*,#339,.F.);
#426=ORIENTED_EDGE('',*,*,#340,.T.);
#427=ORIENTED_EDGE('',*,*,#341,.F.);
#428=ORIENTED_EDGE('',*,*,#342,.T.);
#429=ORIENTED_EDGE('',*,*,#343,.F.);
#430=ORIENTED_EDGE('',*,*,#335,.F.);
#431=ORIENTED_EDGE('',*,*,#312,.T.);
#432=ORIENTED_EDGE('',*,*,#315,.T.);
#433=ORIENTED_EDGE('',*,*,#328,.T.);
#434=ORIENTED_EDGE('',*,*,#344,.T.);
#435=ORIENTED_EDGE('',*,*,#345,.T.);
#436=ORIENTED_EDGE('',*,*,#346,.T.);
#437=ORIENTED_EDGE('',*,*,#347,.T.);
#438=ORIENTED_EDGE('',*,*,#348,.T.);
#439=ORIENTED_EDGE('',*,*,#349,.T.);
#440=ORIENTED_EDGE('',*,*,#350,.T.);
#441=ORIENTED_EDGE('',*,*,#351,.T.);
#442=ORIENTED_EDGE('',*,*,#325,.T.);
#443=ORIENTED_EDGE('',*,*,#322,.T.);
#444=ORIENTED_EDGE('',*,*,#319,.T.);
#445=ORIENTED_EDGE('',*,*,#316,.T.);
#446=ORIENTED_EDGE('',*,*,#309,.T.);
#447=ORIENTED_EDGE('',*,*,#306,.T.);
#448=ORIENTED_EDGE('',*,*,#341,.T.);
#449=ORIENTED_EDGE('',*,*,#352,.T.);
#450=ORIENTED_EDGE('',*,*,#353,.T.);
#451=ORIENTED_EDGE('',*,*,#354,.T.);
#452=ORIENTED_EDGE('',*,*,#352,.F.);
#453=ORIENTED_EDGE('',*,*,#340,.F.);
#454=ORIENTED_EDGE('',*,*,#355,.F.);
#455=ORIENTED_EDGE('',*,*,#356,.F.);
#456=ORIENTED_EDGE('',*,*,#357,.T.);
#457=ORIENTED_EDGE('',*,*,#336,.T.);
#458=ORIENTED_EDGE('',*,*,#343,.T.);
#459=ORIENTED_EDGE('',*,*,#358,.T.);
#460=ORIENTED_EDGE('',*,*,#354,.F.);
#461=ORIENTED_EDGE('',*,*,#359,.F.);
#462=ORIENTED_EDGE('',*,*,#358,.F.);
#463=ORIENTED_EDGE('',*,*,#342,.F.);
#464=ORIENTED_EDGE('',*,*,#360,.F.);
#465=ORIENTED_EDGE('',*,*,#361,.T.);
#466=ORIENTED_EDGE('',*,*,#351,.F.);
#467=ORIENTED_EDGE('',*,*,#361,.F.);
#468=ORIENTED_EDGE('',*,*,#362,.F.);
#469=ORIENTED_EDGE('',*,*,#363,.T.);
#470=ORIENTED_EDGE('',*,*,#350,.F.);
#471=ORIENTED_EDGE('',*,*,#363,.F.);
#472=ORIENTED_EDGE('',*,*,#364,.F.);
#473=ORIENTED_EDGE('',*,*,#365,.T.);
#474=ORIENTED_EDGE('',*,*,#349,.F.);
#475=ORIENTED_EDGE('',*,*,#365,.F.);
#476=ORIENTED_EDGE('',*,*,#366,.F.);
#477=ORIENTED_EDGE('',*,*,#367,.T.);
#478=ORIENTED_EDGE('',*,*,#348,.F.);
#479=ORIENTED_EDGE('',*,*,#367,.F.);
#480=ORIENTED_EDGE('',*,*,#368,.F.);
#481=ORIENTED_EDGE('',*,*,#369,.T.);
#482=ORIENTED_EDGE('',*,*,#347,.F.);
#483=ORIENTED_EDGE('',*,*,#369,.F.);
#484=ORIENTED_EDGE('',*,*,#370,.F.);
#485=ORIENTED_EDGE('',*,*,#371,.T.);
#486=ORIENTED_EDGE('',*,*,#346,.F.);
#487=ORIENTED_EDGE('',*,*,#371,.F.);
#488=ORIENTED_EDGE('',*,*,#372,.F.);
#489=ORIENTED_EDGE('',*,*,#373,.T.);
#490=ORIENTED_EDGE('',*,*,#345,.F.);
#491=ORIENTED_EDGE('',*,*,#373,.F.);
#492=ORIENTED_EDGE('',*,*,#355,.T.);
#493=ORIENTED_EDGE('',*,*,#339,.T.);
#494=ORIENTED_EDGE('',*,*,#374,.T.);
#495=ORIENTED_EDGE('',*,*,#375,.T.);
#496=ORIENTED_EDGE('',*,*,#334,.F.);
#497=ORIENTED_EDGE('',*,*,#376,.F.);
#498=ORIENTED_EDGE('',*,*,#374,.F.);
#499=ORIENTED_EDGE('',*,*,#338,.F.);
#500=ORIENTED_EDGE('',*,*,#344,.F.);
#501=ORIENTED_EDGE('',*,*,#377,.T.);
#502=ORIENTED_EDGE('',*,*,#378,.F.);
#503=ORIENTED_EDGE('',*,*,#377,.F.);
#504=ORIENTED_EDGE('',*,*,#333,.F.);
#505=ORIENTED_EDGE('',*,*,#337,.F.);
#506=ORIENTED_EDGE('',*,*,#357,.F.);
#507=ORIENTED_EDGE('',*,*,#359,.T.);
#508=ORIENTED_EDGE('',*,*,#353,.F.);
#509=ORIENTED_EDGE('',*,*,#356,.T.);
#510=ORIENTED_EDGE('',*,*,#375,.F.);
#511=ORIENTED_EDGE('',*,*,#376,.T.);
#512=ORIENTED_EDGE('',*,*,#310,.T.);
#513=ORIENTED_EDGE('',*,*,#313,.T.);
#514=ORIENTED_EDGE('',*,*,#330,.T.);
#515=ORIENTED_EDGE('',*,*,#360,.T.);
#516=ORIENTED_EDGE('',*,*,#362,.T.);
#517=ORIENTED_EDGE('',*,*,#364,.T.);
#518=ORIENTED_EDGE('',*,*,#366,.T.);
#519=ORIENTED_EDGE('',*,*,#368,.T.);
#520=ORIENTED_EDGE('',*,*,#370,.T.);
#521=ORIENTED_EDGE('',*,*,#372,.T.);
#522=ORIENTED_EDGE('',*,*,#378,.T.);
#523=ORIENTED_EDGE('',*,*,#327,.T.);
#524=ORIENTED_EDGE('',*,*,#324,.T.);
#525=ORIENTED_EDGE('',*,*,#321,.T.);
#526=ORIENTED_EDGE('',*,*,#318,.T.);
#527=ORIENTED_EDGE('',*,*,#307,.T.);
#528=ORIENTED_EDGE('',*,*,#304,.T.);
#529=CYLINDRICAL_SURFACE('',#590,2.65000000000001);
#530=CYLINDRICAL_SURFACE('',#593,2.65);
#531=CYLINDRICAL_SURFACE('',#596,2.65000000000001);
#532=CYLINDRICAL_SURFACE('',#599,2.65);
#533=CYLINDRICAL_SURFACE('',#602,2.117);
#534=CYLINDRICAL_SURFACE('',#605,2.117);
#535=CYLINDRICAL_SURFACE('',#608,2.117);
#536=CYLINDRICAL_SURFACE('',#611,2.117);
#537=CYLINDRICAL_SURFACE('',#614,47.5);
#538=CYLINDRICAL_SURFACE('',#617,10.);
#539=CYLINDRICAL_SURFACE('',#632,10.);
#540=CYLINDRICAL_SURFACE('',#635,10.);
#541=CYLINDRICAL_SURFACE('',#638,2.65);
#542=CYLINDRICAL_SURFACE('',#640,2.64999999999999);
#543=CYLINDRICAL_SURFACE('',#642,2.65);
#544=CYLINDRICAL_SURFACE('',#644,2.65);
#545=CYLINDRICAL_SURFACE('',#646,2.65000000000001);
#546=CYLINDRICAL_SURFACE('',#648,2.65);
#547=CYLINDRICAL_SURFACE('',#650,2.65);
#548=CYLINDRICAL_SURFACE('',#654,6.5);
#549=ADVANCED_FACE('',(#56),#529,.F.);
#550=ADVANCED_FACE('',(#57),#530,.F.);
#551=ADVANCED_FACE('',(#58),#531,.F.);
#552=ADVANCED_FACE('',(#59),#532,.F.);
#553=ADVANCED_FACE('',(#60),#533,.F.);
#554=ADVANCED_FACE('',(#61),#534,.F.);
#555=ADVANCED_FACE('',(#62),#535,.F.);
#556=ADVANCED_FACE('',(#63),#536,.F.);
#557=ADVANCED_FACE('',(#64),#537,.F.);
#558=ADVANCED_FACE('',(#65),#538,.T.);
#559=ADVANCED_FACE('',(#66),#49,.T.);
#560=ADVANCED_FACE('',(#67,#15,#16,#17,#18,#19,#20,#21,#22,#23,#24,#25,
#26,#27,#28,#29,#30,#31),#50,.T.);
#561=ADVANCED_FACE('',(#68),#539,.T.);
#562=ADVANCED_FACE('',(#69),#51,.F.);
#563=ADVANCED_FACE('',(#70),#540,.T.);
#564=ADVANCED_FACE('',(#71),#52,.F.);
#565=ADVANCED_FACE('',(#72),#541,.F.);
#566=ADVANCED_FACE('',(#73),#542,.F.);
#567=ADVANCED_FACE('',(#74),#543,.F.);
#568=ADVANCED_FACE('',(#75),#544,.F.);
#569=ADVANCED_FACE('',(#76),#545,.F.);
#570=ADVANCED_FACE('',(#77),#546,.F.);
#571=ADVANCED_FACE('',(#78),#547,.F.);
#572=ADVANCED_FACE('',(#79),#53,.T.);
#573=ADVANCED_FACE('',(#80),#54,.T.);
#574=ADVANCED_FACE('',(#81),#548,.F.);
#575=ADVANCED_FACE('',(#82,#32,#33,#34,#35,#36,#37,#38,#39,#40,#41,#42,
#43,#44,#45,#46,#47,#48),#55,.T.);
#576=CLOSED_SHELL('',(#549,#550,#551,#552,#553,#554,#555,#556,#557,#558,
#559,#560,#561,#562,#563,#564,#565,#566,#567,#568,#569,#570,#571,#572,#573,
#574,#575));
#577=DERIVED_UNIT_ELEMENT(#579,1.);
#578=DERIVED_UNIT_ELEMENT(#986,-3.);
#579=(
MASS_UNIT()
NAMED_UNIT(*)
SI_UNIT(.KILO.,.GRAM.)
);
#580=DERIVED_UNIT((#577,#578));
#581=MEASURE_REPRESENTATION_ITEM('density measure',
POSITIVE_RATIO_MEASURE(2680.),#580);
#582=PROPERTY_DEFINITION_REPRESENTATION(#587,#584);
#583=PROPERTY_DEFINITION_REPRESENTATION(#588,#585);
#584=REPRESENTATION('material name',(#586),#983);
#585=REPRESENTATION('density',(#581),#983);
#586=DESCRIPTIVE_REPRESENTATION_ITEM('Aluminum 5052','Aluminum 5052');
#587=PROPERTY_DEFINITION('material property','material name',#993);
#588=PROPERTY_DEFINITION('material property','density of part',#993);
#589=AXIS2_PLACEMENT_3D('',#828,#657,#658);
#590=AXIS2_PLACEMENT_3D('',#829,#659,#660);
#591=AXIS2_PLACEMENT_3D('',#831,#661,#662);
#592=AXIS2_PLACEMENT_3D('',#834,#664,#665);
#593=AXIS2_PLACEMENT_3D('',#835,#666,#667);
#594=AXIS2_PLACEMENT_3D('',#837,#668,#669);
#595=AXIS2_PLACEMENT_3D('',#840,#671,#672);
#596=AXIS2_PLACEMENT_3D('',#841,#673,#674);
#597=AXIS2_PLACEMENT_3D('',#843,#675,#676);
#598=AXIS2_PLACEMENT_3D('',#846,#678,#679);
#599=AXIS2_PLACEMENT_3D('',#847,#680,#681);
#600=AXIS2_PLACEMENT_3D('',#849,#682,#683);
#601=AXIS2_PLACEMENT_3D('',#852,#685,#686);
#602=AXIS2_PLACEMENT_3D('',#853,#687,#688);
#603=AXIS2_PLACEMENT_3D('',#855,#689,#690);
#604=AXIS2_PLACEMENT_3D('',#858,#692,#693);
#605=AXIS2_PLACEMENT_3D('',#859,#694,#695);
#606=AXIS2_PLACEMENT_3D('',#861,#696,#697);
#607=AXIS2_PLACEMENT_3D('',#864,#699,#700);
#608=AXIS2_PLACEMENT_3D('',#865,#701,#702);
#609=AXIS2_PLACEMENT_3D('',#867,#703,#704);
#610=AXIS2_PLACEMENT_3D('',#870,#706,#707);
#611=AXIS2_PLACEMENT_3D('',#871,#708,#709);
#612=AXIS2_PLACEMENT_3D('',#873,#710,#711);
#613=AXIS2_PLACEMENT_3D('',#876,#713,#714);
#614=AXIS2_PLACEMENT_3D('',#877,#715,#716);
#615=AXIS2_PLACEMENT_3D('',#879,#717,#718);
#616=AXIS2_PLACEMENT_3D('',#882,#720,#721);
#617=AXIS2_PLACEMENT_3D('',#883,#722,#723);
#618=AXIS2_PLACEMENT_3D('',#886,#724,#725);
#619=AXIS2_PLACEMENT_3D('',#890,#727,#728);
#620=AXIS2_PLACEMENT_3D('',#892,#730,#731);
#621=AXIS2_PLACEMENT_3D('',#898,#735,#736);
#622=AXIS2_PLACEMENT_3D('',#906,#740,#741);
#623=AXIS2_PLACEMENT_3D('',#909,#743,#744);
#624=AXIS2_PLACEMENT_3D('',#911,#745,#746);
#625=AXIS2_PLACEMENT_3D('',#913,#747,#748);
#626=AXIS2_PLACEMENT_3D('',#915,#749,#750);
#627=AXIS2_PLACEMENT_3D('',#917,#751,#752);
#628=AXIS2_PLACEMENT_3D('',#919,#753,#754);
#629=AXIS2_PLACEMENT_3D('',#921,#755,#756);
#630=AXIS2_PLACEMENT_3D('',#923,#757,#758);
#631=AXIS2_PLACEMENT_3D('',#925,#759,#760);
#632=AXIS2_PLACEMENT_3D('',#926,#761,#762);
#633=AXIS2_PLACEMENT_3D('',#930,#764,#765);
#634=AXIS2_PLACEMENT_3D('',#932,#767,#768);
#635=AXIS2_PLACEMENT_3D('',#936,#771,#772);
#636=AXIS2_PLACEMENT_3D('',#938,#773,#774);
#637=AXIS2_PLACEMENT_3D('',#940,#776,#777);
#638=AXIS2_PLACEMENT_3D('',#942,#779,#780);
#639=AXIS2_PLACEMENT_3D('',#944,#781,#782);
#640=AXIS2_PLACEMENT_3D('',#946,#784,#785);
#641=AXIS2_PLACEMENT_3D('',#948,#786,#787);
#642=AXIS2_PLACEMENT_3D('',#950,#789,#790);
#643=AXIS2_PLACEMENT_3D('',#952,#791,#792);
#644=AXIS2_PLACEMENT_3D('',#954,#794,#795);
#645=AXIS2_PLACEMENT_3D('',#956,#796,#797);
#646=AXIS2_PLACEMENT_3D('',#958,#799,#800);
#647=AXIS2_PLACEMENT_3D('',#960,#801,#802);
#648=AXIS2_PLACEMENT_3D('',#962,#804,#805);
#649=AXIS2_PLACEMENT_3D('',#964,#806,#807);
#650=AXIS2_PLACEMENT_3D('',#966,#809,#810);
#651=AXIS2_PLACEMENT_3D('',#968,#811,#812);
#652=AXIS2_PLACEMENT_3D('',#970,#814,#815);
#653=AXIS2_PLACEMENT_3D('',#974,#818,#819);
#654=AXIS2_PLACEMENT_3D('',#976,#821,#822);
#655=AXIS2_PLACEMENT_3D('',#979,#824,#825);
#656=AXIS2_PLACEMENT_3D('',#980,#826,#827);
#657=DIRECTION('axis',(0.,0.,1.));
#658=DIRECTION('refdir',(1.,0.,0.));
#659=DIRECTION('center_axis',(1.,0.,0.));
#660=DIRECTION('ref_axis',(0.,-1.,1.06762000537162E-28));
#661=DIRECTION('center_axis',(1.,0.,0.));
#662=DIRECTION('ref_axis',(0.,-1.,1.06762000537162E-28));
#663=DIRECTION('',(1.,0.,0.));
#664=DIRECTION('center_axis',(-1.,-1.05547049281061E-16,0.));
#665=DIRECTION('ref_axis',(0.,-1.,1.06762000537162E-28));
#666=DIRECTION('center_axis',(1.,0.,0.));
#667=DIRECTION('ref_axis',(0.,-1.,1.06762000537162E-28));
#668=DIRECTION('center_axis',(1.,0.,0.));
#669=DIRECTION('ref_axis',(0.,-1.,1.06762000537162E-28));
#670=DIRECTION('',(1.,0.,0.));
#671=DIRECTION('center_axis',(-1.,-1.05547049281061E-16,0.));
#672=DIRECTION('ref_axis',(0.,-1.,1.06762000537162E-28));
#673=DIRECTION('center_axis',(1.,0.,0.));
#674=DIRECTION('ref_axis',(0.,-1.,1.06762000537162E-28));
#675=DIRECTION('center_axis',(1.,0.,0.));
#676=DIRECTION('ref_axis',(0.,-1.,1.06762000537162E-28));
#677=DIRECTION('',(1.,0.,0.));
#678=DIRECTION('center_axis',(-1.,-1.05547049281061E-16,0.));
#679=DIRECTION('ref_axis',(0.,-1.,1.06762000537162E-28));
#680=DIRECTION('center_axis',(1.,0.,0.));
#681=DIRECTION('ref_axis',(0.,-1.,1.06762000537162E-28));
#682=DIRECTION('center_axis',(1.,0.,0.));
#683=DIRECTION('ref_axis',(0.,-1.,1.06762000537162E-28));
#684=DIRECTION('',(1.,0.,0.));
#685=DIRECTION('center_axis',(-1.,-1.05547049281061E-16,0.));
#686=DIRECTION('ref_axis',(0.,-1.,1.06762000537162E-28));
#687=DIRECTION('center_axis',(-1.,5.5345115883607E-17,0.));
#688=DIRECTION('ref_axis',(5.5345115883607E-17,1.,-4.16333634234452E-17));
#689=DIRECTION('center_axis',(-1.,-1.05547049281061E-16,0.));
#690=DIRECTION('ref_axis',(5.5345115883607E-17,1.,-4.16333634234452E-17));
#691=DIRECTION('',(-1.,5.5345115883607E-17,0.));
#692=DIRECTION('center_axis',(1.,0.,0.));
#693=DIRECTION('ref_axis',(5.5345115883607E-17,1.,-4.16333634234452E-17));
#694=DIRECTION('center_axis',(-1.,0.,0.));
#695=DIRECTION('ref_axis',(0.,1.,-4.16333634234452E-17));
#696=DIRECTION('center_axis',(-1.,-1.05547049281061E-16,0.));
#697=DIRECTION('ref_axis',(0.,1.,-4.16333634234452E-17));
#698=DIRECTION('',(-1.,0.,0.));
#699=DIRECTION('center_axis',(1.,0.,0.));
#700=DIRECTION('ref_axis',(0.,1.,-4.16333634234452E-17));
#701=DIRECTION('center_axis',(-1.,4.42760927068856E-17,0.));
#702=DIRECTION('ref_axis',(4.42760927068856E-17,1.,-4.16333634234452E-17));
#703=DIRECTION('center_axis',(-1.,-1.05547049281061E-16,0.));
#704=DIRECTION('ref_axis',(4.42760927068856E-17,1.,-4.16333634234452E-17));
#705=DIRECTION('',(-1.,4.42760927068856E-17,0.));
#706=DIRECTION('center_axis',(1.,0.,0.));
#707=DIRECTION('ref_axis',(4.42760927068856E-17,1.,-4.16333634234452E-17));
#708=DIRECTION('center_axis',(-1.,0.,0.));
#709=DIRECTION('ref_axis',(0.,1.,-4.16333634234452E-17));
#710=DIRECTION('center_axis',(-1.,-1.05547049281061E-16,0.));
#711=DIRECTION('ref_axis',(0.,1.,-4.16333634234452E-17));
#712=DIRECTION('',(-1.,0.,0.));
#713=DIRECTION('center_axis',(1.,0.,0.));
#714=DIRECTION('ref_axis',(0.,1.,-4.16333634234452E-17));
#715=DIRECTION('center_axis',(-1.,0.,0.));
#716=DIRECTION('ref_axis',(0.,1.,-4.16333634234434E-17));
#717=DIRECTION('center_axis',(-1.,-1.05547049281061E-16,0.));
#718=DIRECTION('ref_axis',(0.,1.,-4.16333634234434E-17));
#719=DIRECTION('',(-1.,0.,0.));
#720=DIRECTION('center_axis',(1.,0.,0.));
#721=DIRECTION('ref_axis',(0.,1.,-4.16333634234434E-17));
#722=DIRECTION('center_axis',(1.,0.,0.));
#723=DIRECTION('ref_axis',(0.,-0.707106781186547,0.707106781186547));
#724=DIRECTION('center_axis',(-1.,-1.05547049281061E-16,0.));
#725=DIRECTION('ref_axis',(0.,-0.707106781186547,0.707106781186547));
#726=DIRECTION('',(-1.,0.,0.));
#727=DIRECTION('center_axis',(1.,0.,0.));
#728=DIRECTION('ref_axis',(0.,-0.707106781186547,0.707106781186547));
#729=DIRECTION('',(1.,0.,0.));
#730=DIRECTION('center_axis',(0.,0.,1.));
#731=DIRECTION('ref_axis',(1.,0.,0.));
#732=DIRECTION('',(-1.05547049281061E-16,1.,0.));
#733=DIRECTION('',(1.,0.,0.));
#734=DIRECTION('',(0.,-1.,0.));
#735=DIRECTION('center_axis',(1.,1.05547049281061E-16,0.));
#736=DIRECTION('ref_axis',(-1.05547049281061E-16,1.,0.));
#737=DIRECTION('',(0.,0.,-1.));
#738=DIRECTION('',(0.,-1.,0.));
#739=DIRECTION('',(0.,0.,1.));
#740=DIRECTION('center_axis',(-1.,-1.05547049281061E-16,0.));
#741=DIRECTION('ref_axis',(0.,0.958376130225901,0.285508656634483));
#742=DIRECTION('',(5.77605554837644E-17,-0.547249362982703,0.836969613973545));
#743=DIRECTION('center_axis',(-1.,-1.05547049281061E-16,0.));
#744=DIRECTION('ref_axis',(0.,0.475789153416352,0.879559367803761));
#745=DIRECTION('center_axis',(-1.,-1.05547049281061E-16,0.));
#746=DIRECTION('ref_axis',(0.,1.,-4.16333634234434E-17));
#747=DIRECTION('center_axis',(-1.,-1.05547049281061E-16,0.));
#748=DIRECTION('ref_axis',(-1.16282562679984E-32,-1.,4.16333634234449E-17));
#749=DIRECTION('center_axis',(-1.,-1.05547049281061E-16,0.));
#750=DIRECTION('ref_axis',(-5.84327907697451E-17,-1.,4.16333634234448E-17));
#751=DIRECTION('center_axis',(-1.,-1.05547049281061E-16,0.));
#752=DIRECTION('ref_axis',(-9.34924652315921E-17,-1.,4.16333634234448E-17));
#753=DIRECTION('center_axis',(-1.,-1.05547049281061E-16,0.));
#754=DIRECTION('ref_axis',(-1.16282562679984E-32,-1.,4.16333634234449E-17));
#755=DIRECTION('center_axis',(-1.,-1.05547049281061E-16,0.));
#756=DIRECTION('ref_axis',(-5.84327907697451E-17,-1.,4.16333634234448E-17));
#757=DIRECTION('center_axis',(-1.,-1.05547049281061E-16,0.));
#758=DIRECTION('ref_axis',(-9.34924652315921E-17,-1.,4.16333634234448E-17));
#759=DIRECTION('center_axis',(-1.,-1.05547049281061E-16,0.));
#760=DIRECTION('ref_axis',(-1.16282562679984E-32,-1.,4.16333634234449E-17));
#761=DIRECTION('center_axis',(1.,0.,0.));
#762=DIRECTION('ref_axis',(0.,0.958376130225901,0.285508656634483));
#763=DIRECTION('',(-1.,0.,0.));
#764=DIRECTION('center_axis',(1.,0.,0.));
#765=DIRECTION('ref_axis',(0.,0.958376130225901,0.285508656634483));
#766=DIRECTION('',(1.,0.,0.));
#767=DIRECTION('center_axis',(0.,-1.,0.));
#768=DIRECTION('ref_axis',(0.,0.,-1.));
#769=DIRECTION('',(1.,0.,0.));
#770=DIRECTION('',(0.,0.,-1.));
#771=DIRECTION('center_axis',(-1.,0.,0.));
#772=DIRECTION('ref_axis',(0.,0.475789153416352,0.879559367803761));
#773=DIRECTION('center_axis',(1.,0.,0.));
#774=DIRECTION('ref_axis',(0.,0.475789153416352,0.879559367803761));
#775=DIRECTION('',(-1.,0.,0.));
#776=DIRECTION('center_axis',(0.,-0.836969613973546,-0.547249362982703));
#777=DIRECTION('ref_axis',(-3.05683600773142E-29,0.547249362982703,-0.836969613973545));
#778=DIRECTION('',(0.,0.547249362982703,-0.836969613973545));
#779=DIRECTION('center_axis',(1.,0.,3.85656419080318E-16));
#780=DIRECTION('ref_axis',(-1.16282562679984E-32,-1.,4.16333634234449E-17));
#781=DIRECTION('center_axis',(1.,0.,0.));
#782=DIRECTION('ref_axis',(-1.16282562679984E-32,-1.,4.16333634234449E-17));
#783=DIRECTION('',(1.,0.,3.85656419080318E-16));
#784=DIRECTION('center_axis',(1.,-9.34924652315921E-17,3.73969860926368E-16));
#785=DIRECTION('ref_axis',(-9.34924652315921E-17,-1.,4.16333634234448E-17));
#786=DIRECTION('center_axis',(1.,0.,0.));
#787=DIRECTION('ref_axis',(-9.34924652315921E-17,-1.,4.16333634234448E-17));
#788=DIRECTION('',(1.,-9.34924652315921E-17,3.73969860926368E-16));
#789=DIRECTION('center_axis',(1.,-5.84327907697451E-17,3.85656419080318E-16));
#790=DIRECTION('ref_axis',(-5.84327907697451E-17,-1.,4.16333634234448E-17));
#791=DIRECTION('center_axis',(1.,0.,0.));
#792=DIRECTION('ref_axis',(-5.84327907697451E-17,-1.,4.16333634234448E-17));
#793=DIRECTION('',(1.,-5.84327907697451E-17,3.85656419080318E-16));
#794=DIRECTION('center_axis',(1.,0.,3.97342977234267E-16));
#795=DIRECTION('ref_axis',(-1.16282562679984E-32,-1.,4.16333634234449E-17));
#796=DIRECTION('center_axis',(1.,0.,0.));
#797=DIRECTION('ref_axis',(-1.16282562679984E-32,-1.,4.16333634234449E-17));
#798=DIRECTION('',(1.,0.,3.97342977234267E-16));
#799=DIRECTION('center_axis',(1.,-9.34924652315921E-17,3.85656419080318E-16));
#800=DIRECTION('ref_axis',(-9.34924652315921E-17,-1.,4.16333634234448E-17));
#801=DIRECTION('center_axis',(1.,0.,0.));
#802=DIRECTION('ref_axis',(-9.34924652315921E-17,-1.,4.16333634234448E-17));
#803=DIRECTION('',(1.,-9.34924652315921E-17,3.85656419080318E-16));
#804=DIRECTION('center_axis',(1.,-5.84327907697451E-17,3.73969860926368E-16));
#805=DIRECTION('ref_axis',(-5.84327907697451E-17,-1.,4.16333634234448E-17));
#806=DIRECTION('center_axis',(1.,0.,0.));
#807=DIRECTION('ref_axis',(-5.84327907697451E-17,-1.,4.16333634234448E-17));
#808=DIRECTION('',(1.,-5.84327907697451E-17,3.73969860926368E-16));
#809=DIRECTION('center_axis',(1.,0.,3.73969860926368E-16));
#810=DIRECTION('ref_axis',(-1.16282562679984E-32,-1.,4.16333634234449E-17));
#811=DIRECTION('center_axis',(1.,0.,0.));
#812=DIRECTION('ref_axis',(-1.16282562679984E-32,-1.,4.16333634234449E-17));
#813=DIRECTION('',(1.,0.,3.73969860926368E-16));
#814=DIRECTION('center_axis',(0.,0.,-1.));
#815=DIRECTION('ref_axis',(-1.,0.,0.));
#816=DIRECTION('',(-1.,0.,0.));
#817=DIRECTION('',(0.,1.,0.));
#818=DIRECTION('center_axis',(0.,-1.,0.));
#819=DIRECTION('ref_axis',(0.,0.,-1.));
#820=DIRECTION('',(0.,0.,1.));
#821=DIRECTION('center_axis',(-1.,0.,0.));
#822=DIRECTION('ref_axis',(0.,1.,-4.16333634234434E-17));
#823=DIRECTION('',(-1.,0.,0.));
#824=DIRECTION('center_axis',(1.,0.,0.));
#825=DIRECTION('ref_axis',(0.,1.,-4.16333634234434E-17));
#826=DIRECTION('center_axis',(-1.,0.,0.));
#827=DIRECTION('ref_axis',(0.,-1.,0.));
#828=CARTESIAN_POINT('',(0.,0.,0.));
#829=CARTESIAN_POINT('Origin',(-49.7752,-99.85,72.680455515257));
#830=CARTESIAN_POINT('',(-49.7752,-97.2,72.680455515257));
#831=CARTESIAN_POINT('Origin',(-49.7752,-99.85,72.680455515257));
#832=CARTESIAN_POINT('',(-43.4252,-97.2,72.680455515257));
#833=CARTESIAN_POINT('',(-49.7752,-97.2,72.680455515257));
#834=CARTESIAN_POINT('Origin',(-43.4252,-99.85,72.680455515257));
#835=CARTESIAN_POINT('Origin',(-49.7752,-99.85,92.680455515257));
#836=CARTESIAN_POINT('',(-49.7752,-97.2,92.680455515257));
#837=CARTESIAN_POINT('Origin',(-49.7752,-99.85,92.680455515257));
#838=CARTESIAN_POINT('',(-43.4252,-97.2,92.680455515257));
#839=CARTESIAN_POINT('',(-49.7752,-97.2,92.680455515257));
#840=CARTESIAN_POINT('Origin',(-43.4252,-99.85,92.680455515257));
#841=CARTESIAN_POINT('Origin',(-49.7752,27.1538548004841,99.2116987067288));
#842=CARTESIAN_POINT('',(-49.7752,29.8038548004841,99.2116987067288));
#843=CARTESIAN_POINT('Origin',(-49.7752,27.1538548004841,99.2116987067288));
#844=CARTESIAN_POINT('',(-43.4252,29.8038548004841,99.2116987067288));
#845=CARTESIAN_POINT('',(-49.7752,29.8038548004841,99.2116987067288));
#846=CARTESIAN_POINT('Origin',(-43.4252,27.1538548004841,99.2116987067288));
#847=CARTESIAN_POINT('Origin',(-49.7752,16.2087248688518,115.950997699808));
#848=CARTESIAN_POINT('',(-49.7752,18.8587248688518,115.950997699808));
#849=CARTESIAN_POINT('Origin',(-49.7752,16.2087248688518,115.950997699808));
#850=CARTESIAN_POINT('',(-43.4252,18.8587248688518,115.950997699808));
#851=CARTESIAN_POINT('',(-49.7752,18.8587248688518,115.950997699808));
#852=CARTESIAN_POINT('Origin',(-43.4252,16.2087248688518,115.950997699808));
#853=CARTESIAN_POINT('Origin',(-36.7752,8.00000077486053,139.650002324581));
#854=CARTESIAN_POINT('',(-43.4252,5.88300077486053,139.650002324581));
#855=CARTESIAN_POINT('Origin',(-43.4252,8.00000077486053,139.650002324581));
#856=CARTESIAN_POINT('',(-49.7752,5.88300077486053,139.650002324581));
#857=CARTESIAN_POINT('',(-36.7752,5.88300077486053,139.650002324581));
#858=CARTESIAN_POINT('Origin',(-49.7752,8.00000077486053,139.650002324581));
#859=CARTESIAN_POINT('Origin',(-36.7752,-97.4243077008135,113.294845500547));
#860=CARTESIAN_POINT('',(-43.4252,-99.5413077008135,113.294845500547));
#861=CARTESIAN_POINT('Origin',(-43.4252,-97.4243077008135,113.294845500547));
#862=CARTESIAN_POINT('',(-49.7752,-99.5413077008135,113.294845500547));
#863=CARTESIAN_POINT('',(-36.7752,-99.5413077008135,113.294845500547));
#864=CARTESIAN_POINT('Origin',(-49.7752,-97.4243077008135,113.294845500547));
#865=CARTESIAN_POINT('Origin',(-36.7752,-20.9999996572732,192.650003114343));
#866=CARTESIAN_POINT('',(-43.4252,-23.1169996572731,192.650003114343));
#867=CARTESIAN_POINT('Origin',(-43.4252,-20.9999996572732,192.650003114343));
#868=CARTESIAN_POINT('',(-49.7752,-23.1169996572731,192.650003114343));
#869=CARTESIAN_POINT('',(-36.7752,-23.1169996572731,192.650003114343));
#870=CARTESIAN_POINT('Origin',(-49.7752,-20.9999996572732,192.650003114343));
#871=CARTESIAN_POINT('Origin',(-36.7752,-99.8499999999999,190.));
#872=CARTESIAN_POINT('',(-43.4252,-101.967,190.));
#873=CARTESIAN_POINT('Origin',(-43.4252,-99.8499999999999,190.));
#874=CARTESIAN_POINT('',(-49.7752,-101.967,190.));
#875=CARTESIAN_POINT('',(-36.7752,-101.967,190.));
#876=CARTESIAN_POINT('Origin',(-49.7752,-99.8499999999999,190.));
#877=CARTESIAN_POINT('Origin',(-43.4252,-48.999999999999,147.05));
#878=CARTESIAN_POINT('',(-43.4252,-96.499999999999,147.05));
#879=CARTESIAN_POINT('Origin',(-43.4252,-48.999999999999,147.05));
#880=CARTESIAN_POINT('',(-49.7752,-96.499999999999,147.05));
#881=CARTESIAN_POINT('',(-43.4252,-96.499999999999,147.05));
#882=CARTESIAN_POINT('Origin',(-49.7752,-48.999999999999,147.05));
#883=CARTESIAN_POINT('Origin',(-48.5814,-99.85,190.));
#884=CARTESIAN_POINT('',(-43.4252,-109.85,190.));
#885=CARTESIAN_POINT('',(-43.4252,-99.85,200.));
#886=CARTESIAN_POINT('Origin',(-43.4252,-99.85,190.));
#887=CARTESIAN_POINT('',(-49.7752,-99.85,200.));
#888=CARTESIAN_POINT('',(-48.5814,-99.85,200.));
#889=CARTESIAN_POINT('',(-49.7752,-109.85,190.));
#890=CARTESIAN_POINT('Origin',(-49.7752,-99.85,190.));
#891=CARTESIAN_POINT('',(-48.5814,-109.85,190.));
#892=CARTESIAN_POINT('Origin',(-47.3876,4.15000000000001,200.));
#893=CARTESIAN_POINT('',(-43.4252,-20.259403513084,200.));
#894=CARTESIAN_POINT('',(-43.4252,0.,200.));
#895=CARTESIAN_POINT('',(-49.7752,-20.259403513084,200.));
#896=CARTESIAN_POINT('',(-48.5814,-20.259403513084,200.));
#897=CARTESIAN_POINT('',(-49.7752,84.15,200.));
#898=CARTESIAN_POINT('Origin',(-43.4252,-75.85,0.));
#899=CARTESIAN_POINT('',(-43.4252,-109.85,-10.));
#900=CARTESIAN_POINT('',(-43.4252,-109.85,0.));
#901=CARTESIAN_POINT('',(-43.4252,70.15,-10.));
#902=CARTESIAN_POINT('',(-43.4252,-75.85,-10.));
#903=CARTESIAN_POINT('',(-43.4252,70.15,67.0209122741069));
#904=CARTESIAN_POINT('',(-43.4252,70.15,90.));
#905=CARTESIAN_POINT('',(-43.4252,68.5196961397355,72.4934059039339));
#906=CARTESIAN_POINT('Origin',(-43.4252,60.15,67.0209122741069));
#907=CARTESIAN_POINT('',(-43.4252,-11.8897073733485,195.472493629827));
#908=CARTESIAN_POINT('',(-43.4252,21.8189119170984,143.918134715026));
#909=CARTESIAN_POINT('Origin',(-43.4252,-20.259403513084,190.));
#910=CARTESIAN_POINT('',(-43.4252,39.5,70.0500000000001));
#911=CARTESIAN_POINT('Origin',(-43.4252,46.,70.0500000000001));
#912=CARTESIAN_POINT('',(-43.4252,-102.2,38.5));
#913=CARTESIAN_POINT('Origin',(-43.4252,-104.85,38.5));
#914=CARTESIAN_POINT('',(-43.4252,-7.69999999999987,38.5));
#915=CARTESIAN_POINT('Origin',(-43.4252,-10.3499999999999,38.5));
#916=CARTESIAN_POINT('',(-43.4252,67.8000000000001,-5.00000000000003));
#917=CARTESIAN_POINT('Origin',(-43.4252,65.1500000000001,-5.00000000000003));
#918=CARTESIAN_POINT('',(-43.4252,-102.2,13.));
#919=CARTESIAN_POINT('Origin',(-43.4252,-104.85,13.));
#920=CARTESIAN_POINT('',(-43.4252,-7.69999999999987,-5.00000000000003));
#921=CARTESIAN_POINT('Origin',(-43.4252,-10.3499999999999,-5.00000000000003));
#922=CARTESIAN_POINT('',(-43.4252,67.8000000000001,38.5));
#923=CARTESIAN_POINT('Origin',(-43.4252,65.1500000000001,38.5));
#924=CARTESIAN_POINT('',(-43.4252,-102.2,-5.00000000000003));
#925=CARTESIAN_POINT('Origin',(-43.4252,-104.85,-5.00000000000003));
#926=CARTESIAN_POINT('Origin',(-47.3876,60.15,67.0209122741069));
#927=CARTESIAN_POINT('',(-49.7752,70.15,67.0209122741069));
#928=CARTESIAN_POINT('',(-47.3876,70.15,67.0209122741069));
#929=CARTESIAN_POINT('',(-49.7752,68.5196961397355,72.4934059039339));
#930=CARTESIAN_POINT('Origin',(-49.7752,60.15,67.0209122741069));
#931=CARTESIAN_POINT('',(-47.3876,68.5196961397355,72.4934059039339));
#932=CARTESIAN_POINT('Origin',(-45.,70.15,0.));
#933=CARTESIAN_POINT('',(-49.7752,70.15,-10.));
#934=CARTESIAN_POINT('',(-46.1938,70.15,-10.));
#935=CARTESIAN_POINT('',(-49.7752,70.15,0.));
#936=CARTESIAN_POINT('Origin',(-48.5814,-20.259403513084,190.));
#937=CARTESIAN_POINT('',(-49.7752,-11.8897073733485,195.472493629827));
#938=CARTESIAN_POINT('Origin',(-49.7752,-20.259403513084,190.));
#939=CARTESIAN_POINT('',(-48.5814,-11.8897073733485,195.472493629827));
#940=CARTESIAN_POINT('Origin',(-49.7752,-14.85,200.));
#941=CARTESIAN_POINT('',(-49.7752,45.7774611398963,107.275647668394));
#942=CARTESIAN_POINT('Origin',(-137.075,-104.85,-5.00000000000007));
#943=CARTESIAN_POINT('',(-49.7752,-102.2,-5.00000000000003));
#944=CARTESIAN_POINT('Origin',(-49.7752,-104.85,-5.00000000000003));
#945=CARTESIAN_POINT('',(-137.075,-102.2,-5.00000000000007));
#946=CARTESIAN_POINT('Origin',(-137.075,65.1500000000001,38.5));
#947=CARTESIAN_POINT('',(-49.7752,67.8000000000001,38.5));
#948=CARTESIAN_POINT('Origin',(-49.7752,65.1500000000001,38.5));
#949=CARTESIAN_POINT('',(-137.075,67.8000000000001,38.5));
#950=CARTESIAN_POINT('Origin',(-137.075,-10.3499999999999,-5.00000000000007));
#951=CARTESIAN_POINT('',(-49.7752,-7.69999999999987,-5.00000000000004));
#952=CARTESIAN_POINT('Origin',(-49.7752,-10.3499999999999,-5.00000000000004));
#953=CARTESIAN_POINT('',(-137.075,-7.69999999999987,-5.00000000000007));
#954=CARTESIAN_POINT('Origin',(-137.075,-104.85,13.));
#955=CARTESIAN_POINT('',(-49.7752,-102.2,13.));
#956=CARTESIAN_POINT('Origin',(-49.7752,-104.85,13.));
#957=CARTESIAN_POINT('',(-137.075,-102.2,13.));
#958=CARTESIAN_POINT('Origin',(-137.075,65.1500000000001,-5.00000000000007));
#959=CARTESIAN_POINT('',(-49.7752,67.8000000000001,-5.00000000000004));
#960=CARTESIAN_POINT('Origin',(-49.7752,65.1500000000001,-5.00000000000004));
#961=CARTESIAN_POINT('',(-137.075,67.8000000000001,-5.00000000000007));
#962=CARTESIAN_POINT('Origin',(-137.075,-10.3499999999999,38.5));
#963=CARTESIAN_POINT('',(-49.7752,-7.69999999999987,38.5));
#964=CARTESIAN_POINT('Origin',(-49.7752,-10.3499999999999,38.5));
#965=CARTESIAN_POINT('',(-137.075,-7.69999999999987,38.5));
#966=CARTESIAN_POINT('Origin',(-137.075,-104.85,38.5));
#967=CARTESIAN_POINT('',(-49.7752,-102.2,38.5));
#968=CARTESIAN_POINT('Origin',(-49.7752,-104.85,38.5));
#969=CARTESIAN_POINT('',(-137.075,-102.2,38.5));
#970=CARTESIAN_POINT('Origin',(-47.3876,4.15000000000001,-10.));
#971=CARTESIAN_POINT('',(-49.7752,-109.85,-10.));
#972=CARTESIAN_POINT('',(-49.7752,-109.85,-10.));
#973=CARTESIAN_POINT('',(-49.7752,84.15,-10.));
#974=CARTESIAN_POINT('Origin',(-49.7752,-109.85,0.));
#975=CARTESIAN_POINT('',(-49.7752,-109.85,90.));
#976=CARTESIAN_POINT('Origin',(-43.4252,46.,70.0500000000001));
#977=CARTESIAN_POINT('',(-49.7752,39.5,70.0500000000001));
#978=CARTESIAN_POINT('',(-43.4252,39.5,70.0500000000001));
#979=CARTESIAN_POINT('Origin',(-49.7752,46.,70.0500000000001));
#980=CARTESIAN_POINT('Origin',(-49.7752,84.15,0.));
#981=UNCERTAINTY_MEASURE_WITH_UNIT(LENGTH_MEASURE(0.01),#985,
'DISTANCE_ACCURACY_VALUE',
'Maximum model space distance between geometric entities at asserted c
onnectivities');
#982=UNCERTAINTY_MEASURE_WITH_UNIT(LENGTH_MEASURE(0.01),#985,
'DISTANCE_ACCURACY_VALUE',
'Maximum model space distance between geometric entities at asserted c
onnectivities');
#983=(
GEOMETRIC_REPRESENTATION_CONTEXT(3)
GLOBAL_UNCERTAINTY_ASSIGNED_CONTEXT((#981))
GLOBAL_UNIT_ASSIGNED_CONTEXT((#985,#987,#988))
REPRESENTATION_CONTEXT('','3D')
);
#984=(
GEOMETRIC_REPRESENTATION_CONTEXT(3)
GLOBAL_UNCERTAINTY_ASSIGNED_CONTEXT((#982))
GLOBAL_UNIT_ASSIGNED_CONTEXT((#985,#987,#988))
REPRESENTATION_CONTEXT('','3D')
);
#985=(
LENGTH_UNIT()
NAMED_UNIT(*)
SI_UNIT(.MILLI.,.METRE.)
);
#986=(
LENGTH_UNIT()
NAMED_UNIT(*)
SI_UNIT($,.METRE.)
);
#987=(
NAMED_UNIT(*)
PLANE_ANGLE_UNIT()
SI_UNIT($,.RADIAN.)
);
#988=(
NAMED_UNIT(*)
SI_UNIT($,.STERADIAN.)
SOLID_ANGLE_UNIT()
);
#989=SHAPE_DEFINITION_REPRESENTATION(#990,#991);
#990=PRODUCT_DEFINITION_SHAPE('',$,#993);
#991=SHAPE_REPRESENTATION('',(#589),#983);
#992=PRODUCT_DEFINITION_CONTEXT('part definition',#997,'design');
#993=PRODUCT_DEFINITION('Side Plate','Side Plate',#994,#992);
#994=PRODUCT_DEFINITION_FORMATION('',$,#999);
#995=PRODUCT_RELATED_PRODUCT_CATEGORY('Side Plate','Side Plate',(#999));
#996=APPLICATION_PROTOCOL_DEFINITION('international standard',
'automotive_design',2009,#997);
#997=APPLICATION_CONTEXT(
'Core Data for Automotive Mechanical Design Process');
#998=PRODUCT_CONTEXT('part definition',#997,'mechanical');
#999=PRODUCT('Side Plate','Side Plate',$,(#998));
#1000=PRESENTATION_STYLE_ASSIGNMENT((#1001));
#1001=SURFACE_STYLE_USAGE(.BOTH.,#1002);
#1002=SURFACE_SIDE_STYLE('',(#1003));
#1003=SURFACE_STYLE_FILL_AREA(#1004);
#1004=FILL_AREA_STYLE('Aluminum - Satin',(#1005));
#1005=FILL_AREA_STYLE_COLOUR('Aluminum - Satin',#1006);
#1006=COLOUR_RGB('Aluminum - Satin',0.96078431372549,0.96078431372549,0.964705882352941);
ENDSEC;
END-ISO-10303-21;
