ISO-10303-21;
HEADER;
/* Generated by software containing ST-Developer
 * from STEP Tools, Inc. (www.steptools.com) 
 */

FILE_DESCRIPTION(
/* description */ (''),
/* implementation_level */ '2;1');

FILE_NAME(
/* name */ 'Top Mount Plate.step',
/* time_stamp */ '2026-08-23T19:13:45-06:00',
/* author */ (''),
/* organization */ (''),
/* preprocessor_version */ 'ST-DEVELOPER v20.1',
/* originating_system */ 'Autodesk Translation Framework v15.8.0.0',
/* authorisation */ '');

FILE_SCHEMA (('AUTOMOTIVE_DESIGN { 1 0 10303 214 3 1 1 }'));
ENDSEC;

DATA;
#10=MECHANICAL_DESIGN_GEOMETRIC_PRESENTATION_REPRESENTATION('',(#13),#495);
#11=SHAPE_REPRESENTATION_RELATIONSHIP('SRR','None',#502,#12);
#12=ADVANCED_BREP_SHAPE_REPRESENTATION('',(#14),#494);
#13=STYLED_ITEM('',(#511),#14);
#14=MANIFOLD_SOLID_BREP('Body1',#291);
#15=FACE_BOUND('',#57,.T.);
#16=FACE_BOUND('',#58,.T.);
#17=FACE_BOUND('',#59,.T.);
#18=FACE_BOUND('',#60,.T.);
#19=FACE_BOUND('',#61,.T.);
#20=FACE_BOUND('',#62,.T.);
#21=FACE_BOUND('',#63,.T.);
#22=FACE_BOUND('',#64,.T.);
#23=FACE_BOUND('',#73,.T.);
#24=FACE_BOUND('',#74,.T.);
#25=FACE_BOUND('',#75,.T.);
#26=FACE_BOUND('',#76,.T.);
#27=FACE_BOUND('',#77,.T.);
#28=FACE_BOUND('',#78,.T.);
#29=FACE_BOUND('',#79,.T.);
#30=FACE_BOUND('',#80,.T.);
#31=PLANE('',#317);
#32=PLANE('',#318);
#33=PLANE('',#331);
#34=PLANE('',#332);
#35=PLANE('',#333);
#36=PLANE('',#334);
#37=FACE_OUTER_BOUND('',#51,.T.);
#38=FACE_OUTER_BOUND('',#52,.T.);
#39=FACE_OUTER_BOUND('',#53,.T.);
#40=FACE_OUTER_BOUND('',#54,.T.);
#41=FACE_OUTER_BOUND('',#55,.T.);
#42=FACE_OUTER_BOUND('',#56,.T.);
#43=FACE_OUTER_BOUND('',#65,.T.);
#44=FACE_OUTER_BOUND('',#66,.T.);
#45=FACE_OUTER_BOUND('',#67,.T.);
#46=FACE_OUTER_BOUND('',#68,.T.);
#47=FACE_OUTER_BOUND('',#69,.T.);
#48=FACE_OUTER_BOUND('',#70,.T.);
#49=FACE_OUTER_BOUND('',#71,.T.);
#50=FACE_OUTER_BOUND('',#72,.T.);
#51=EDGE_LOOP('',(#197,#198,#199,#200));
#52=EDGE_LOOP('',(#201,#202,#203,#204));
#53=EDGE_LOOP('',(#205,#206,#207,#208));
#54=EDGE_LOOP('',(#209,#210,#211,#212));
#55=EDGE_LOOP('',(#213,#214,#215,#216));
#56=EDGE_LOOP('',(#217,#218,#219,#220));
#57=EDGE_LOOP('',(#221));
#58=EDGE_LOOP('',(#222));
#59=EDGE_LOOP('',(#223));
#60=EDGE_LOOP('',(#224));
#61=EDGE_LOOP('',(#225));
#62=EDGE_LOOP('',(#226));
#63=EDGE_LOOP('',(#227));
#64=EDGE_LOOP('',(#228));
#65=EDGE_LOOP('',(#229,#230,#231,#232));
#66=EDGE_LOOP('',(#233,#234,#235,#236));
#67=EDGE_LOOP('',(#237,#238,#239,#240));
#68=EDGE_LOOP('',(#241,#242,#243,#244));
#69=EDGE_LOOP('',(#245,#246,#247,#248));
#70=EDGE_LOOP('',(#249,#250,#251,#252));
#71=EDGE_LOOP('',(#253,#254,#255,#256));
#72=EDGE_LOOP('',(#257,#258,#259,#260));
#73=EDGE_LOOP('',(#261));
#74=EDGE_LOOP('',(#262));
#75=EDGE_LOOP('',(#263));
#76=EDGE_LOOP('',(#264));
#77=EDGE_LOOP('',(#265));
#78=EDGE_LOOP('',(#266));
#79=EDGE_LOOP('',(#267));
#80=EDGE_LOOP('',(#268));
#81=LINE('',#422,#101);
#82=LINE('',#428,#102);
#83=LINE('',#434,#103);
#84=LINE('',#440,#104);
#85=LINE('',#445,#105);
#86=LINE('',#447,#106);
#87=LINE('',#449,#107);
#88=LINE('',#450,#108);
#89=LINE('',#453,#109);
#90=LINE('',#455,#110);
#91=LINE('',#456,#111);
#92=LINE('',#468,#112);
#93=LINE('',#472,#113);
#94=LINE('',#476,#114);
#95=LINE('',#480,#115);
#96=LINE('',#483,#116);
#97=LINE('',#484,#117);
#98=LINE('',#487,#118);
#99=LINE('',#488,#119);
#100=LINE('',#490,#120);
#101=VECTOR('',#341,3.);
#102=VECTOR('',#348,3.);
#103=VECTOR('',#355,3.);
#104=VECTOR('',#362,3.);
#105=VECTOR('',#367,10.);
#106=VECTOR('',#368,10.);
#107=VECTOR('',#369,10.);
#108=VECTOR('',#370,10.);
#109=VECTOR('',#373,10.);
#110=VECTOR('',#374,10.);
#111=VECTOR('',#375,10.);
#112=VECTOR('',#388,2.65);
#113=VECTOR('',#393,2.65);
#114=VECTOR('',#398,2.65);
#115=VECTOR('',#403,2.65);
#116=VECTOR('',#406,10.);
#117=VECTOR('',#407,10.);
#118=VECTOR('',#410,10.);
#119=VECTOR('',#411,10.);
#120=VECTOR('',#414,10.);
#121=CIRCLE('',#306,2.5175);
#122=CIRCLE('',#307,2.5175);
#123=CIRCLE('',#309,2.5175);
#124=CIRCLE('',#310,2.5175);
#125=CIRCLE('',#312,2.5175);
#126=CIRCLE('',#313,2.5175);
#127=CIRCLE('',#315,2.5175);
#128=CIRCLE('',#316,2.5175);
#129=CIRCLE('',#319,2.65);
#130=CIRCLE('',#320,2.65);
#131=CIRCLE('',#321,2.65);
#132=CIRCLE('',#322,2.65);
#133=CIRCLE('',#324,2.65);
#134=CIRCLE('',#326,2.65);
#135=CIRCLE('',#328,2.65);
#136=CIRCLE('',#330,2.65);
#137=VERTEX_POINT('',#419);
#138=VERTEX_POINT('',#421);
#139=VERTEX_POINT('',#425);
#140=VERTEX_POINT('',#427);
#141=VERTEX_POINT('',#431);
#142=VERTEX_POINT('',#433);
#143=VERTEX_POINT('',#437);
#144=VERTEX_POINT('',#439);
#145=VERTEX_POINT('',#443);
#146=VERTEX_POINT('',#444);
#147=VERTEX_POINT('',#446);
#148=VERTEX_POINT('',#448);
#149=VERTEX_POINT('',#452);
#150=VERTEX_POINT('',#454);
#151=VERTEX_POINT('',#457);
#152=VERTEX_POINT('',#459);
#153=VERTEX_POINT('',#461);
#154=VERTEX_POINT('',#463);
#155=VERTEX_POINT('',#466);
#156=VERTEX_POINT('',#470);
#157=VERTEX_POINT('',#474);
#158=VERTEX_POINT('',#478);
#159=VERTEX_POINT('',#482);
#160=VERTEX_POINT('',#486);
#161=EDGE_CURVE('',#137,#137,#121,.T.);
#162=EDGE_CURVE('',#137,#138,#81,.T.);
#163=EDGE_CURVE('',#138,#138,#122,.F.);
#164=EDGE_CURVE('',#139,#139,#123,.T.);
#165=EDGE_CURVE('',#139,#140,#82,.T.);
#166=EDGE_CURVE('',#140,#140,#124,.F.);
#167=EDGE_CURVE('',#141,#141,#125,.T.);
#168=EDGE_CURVE('',#141,#142,#83,.T.);
#169=EDGE_CURVE('',#142,#142,#126,.F.);
#170=EDGE_CURVE('',#143,#143,#127,.T.);
#171=EDGE_CURVE('',#143,#144,#84,.T.);
#172=EDGE_CURVE('',#144,#144,#128,.F.);
#173=EDGE_CURVE('',#145,#146,#85,.T.);
#174=EDGE_CURVE('',#146,#147,#86,.T.);
#175=EDGE_CURVE('',#147,#148,#87,.T.);
#176=EDGE_CURVE('',#148,#145,#88,.T.);
#177=EDGE_CURVE('',#149,#145,#89,.T.);
#178=EDGE_CURVE('',#150,#149,#90,.T.);
#179=EDGE_CURVE('',#150,#146,#91,.T.);
#180=EDGE_CURVE('',#151,#151,#129,.T.);
#181=EDGE_CURVE('',#152,#152,#130,.T.);
#182=EDGE_CURVE('',#153,#153,#131,.T.);
#183=EDGE_CURVE('',#154,#154,#132,.T.);
#184=EDGE_CURVE('',#155,#155,#133,.T.);
#185=EDGE_CURVE('',#155,#154,#92,.T.);
#186=EDGE_CURVE('',#156,#156,#134,.T.);
#187=EDGE_CURVE('',#156,#153,#93,.T.);
#188=EDGE_CURVE('',#157,#157,#135,.T.);
#189=EDGE_CURVE('',#157,#152,#94,.T.);
#190=EDGE_CURVE('',#158,#158,#136,.T.);
#191=EDGE_CURVE('',#158,#151,#95,.T.);
#192=EDGE_CURVE('',#159,#148,#96,.T.);
#193=EDGE_CURVE('',#149,#159,#97,.T.);
#194=EDGE_CURVE('',#160,#159,#98,.T.);
#195=EDGE_CURVE('',#150,#160,#99,.T.);
#196=EDGE_CURVE('',#160,#147,#100,.T.);
#197=ORIENTED_EDGE('',*,*,#161,.F.);
#198=ORIENTED_EDGE('',*,*,#162,.T.);
#199=ORIENTED_EDGE('',*,*,#163,.F.);
#200=ORIENTED_EDGE('',*,*,#162,.F.);
#201=ORIENTED_EDGE('',*,*,#164,.F.);
#202=ORIENTED_EDGE('',*,*,#165,.T.);
#203=ORIENTED_EDGE('',*,*,#166,.F.);
#204=ORIENTED_EDGE('',*,*,#165,.F.);
#205=ORIENTED_EDGE('',*,*,#167,.F.);
#206=ORIENTED_EDGE('',*,*,#168,.T.);
#207=ORIENTED_EDGE('',*,*,#169,.F.);
#208=ORIENTED_EDGE('',*,*,#168,.F.);
#209=ORIENTED_EDGE('',*,*,#170,.F.);
#210=ORIENTED_EDGE('',*,*,#171,.T.);
#211=ORIENTED_EDGE('',*,*,#172,.F.);
#212=ORIENTED_EDGE('',*,*,#171,.F.);
#213=ORIENTED_EDGE('',*,*,#173,.T.);
#214=ORIENTED_EDGE('',*,*,#174,.T.);
#215=ORIENTED_EDGE('',*,*,#175,.T.);
#216=ORIENTED_EDGE('',*,*,#176,.T.);
#217=ORIENTED_EDGE('',*,*,#177,.F.);
#218=ORIENTED_EDGE('',*,*,#178,.F.);
#219=ORIENTED_EDGE('',*,*,#179,.T.);
#220=ORIENTED_EDGE('',*,*,#173,.F.);
#221=ORIENTED_EDGE('',*,*,#180,.F.);
#222=ORIENTED_EDGE('',*,*,#181,.F.);
#223=ORIENTED_EDGE('',*,*,#182,.F.);
#224=ORIENTED_EDGE('',*,*,#183,.F.);
#225=ORIENTED_EDGE('',*,*,#172,.T.);
#226=ORIENTED_EDGE('',*,*,#169,.T.);
#227=ORIENTED_EDGE('',*,*,#166,.T.);
#228=ORIENTED_EDGE('',*,*,#163,.T.);
#229=ORIENTED_EDGE('',*,*,#184,.F.);
#230=ORIENTED_EDGE('',*,*,#185,.T.);
#231=ORIENTED_EDGE('',*,*,#183,.T.);
#232=ORIENTED_EDGE('',*,*,#185,.F.);
#233=ORIENTED_EDGE('',*,*,#186,.F.);
#234=ORIENTED_EDGE('',*,*,#187,.T.);
#235=ORIENTED_EDGE('',*,*,#182,.T.);
#236=ORIENTED_EDGE('',*,*,#187,.F.);
#237=ORIENTED_EDGE('',*,*,#188,.F.);
#238=ORIENTED_EDGE('',*,*,#189,.T.);
#239=ORIENTED_EDGE('',*,*,#181,.T.);
#240=ORIENTED_EDGE('',*,*,#189,.F.);
#241=ORIENTED_EDGE('',*,*,#190,.F.);
#242=ORIENTED_EDGE('',*,*,#191,.T.);
#243=ORIENTED_EDGE('',*,*,#180,.T.);
#244=ORIENTED_EDGE('',*,*,#191,.F.);
#245=ORIENTED_EDGE('',*,*,#177,.T.);
#246=ORIENTED_EDGE('',*,*,#176,.F.);
#247=ORIENTED_EDGE('',*,*,#192,.F.);
#248=ORIENTED_EDGE('',*,*,#193,.F.);
#249=ORIENTED_EDGE('',*,*,#178,.T.);
#250=ORIENTED_EDGE('',*,*,#193,.T.);
#251=ORIENTED_EDGE('',*,*,#194,.F.);
#252=ORIENTED_EDGE('',*,*,#195,.F.);
#253=ORIENTED_EDGE('',*,*,#179,.F.);
#254=ORIENTED_EDGE('',*,*,#195,.T.);
#255=ORIENTED_EDGE('',*,*,#196,.T.);
#256=ORIENTED_EDGE('',*,*,#174,.F.);
#257=ORIENTED_EDGE('',*,*,#196,.F.);
#258=ORIENTED_EDGE('',*,*,#194,.T.);
#259=ORIENTED_EDGE('',*,*,#192,.T.);
#260=ORIENTED_EDGE('',*,*,#175,.F.);
#261=ORIENTED_EDGE('',*,*,#184,.T.);
#262=ORIENTED_EDGE('',*,*,#186,.T.);
#263=ORIENTED_EDGE('',*,*,#188,.T.);
#264=ORIENTED_EDGE('',*,*,#190,.T.);
#265=ORIENTED_EDGE('',*,*,#170,.T.);
#266=ORIENTED_EDGE('',*,*,#167,.T.);
#267=ORIENTED_EDGE('',*,*,#164,.T.);
#268=ORIENTED_EDGE('',*,*,#161,.T.);
#269=CYLINDRICAL_SURFACE('',#305,2.5175);
#270=CYLINDRICAL_SURFACE('',#308,2.5175);
#271=CYLINDRICAL_SURFACE('',#311,2.5175);
#272=CYLINDRICAL_SURFACE('',#314,2.5175);
#273=CYLINDRICAL_SURFACE('',#323,2.65);
#274=CYLINDRICAL_SURFACE('',#325,2.65);
#275=CYLINDRICAL_SURFACE('',#327,2.65);
#276=CYLINDRICAL_SURFACE('',#329,2.65);
#277=ADVANCED_FACE('',(#37),#269,.F.);
#278=ADVANCED_FACE('',(#38),#270,.F.);
#279=ADVANCED_FACE('',(#39),#271,.F.);
#280=ADVANCED_FACE('',(#40),#272,.F.);
#281=ADVANCED_FACE('',(#41),#31,.T.);
#282=ADVANCED_FACE('',(#42,#15,#16,#17,#18,#19,#20,#21,#22),#32,.F.);
#283=ADVANCED_FACE('',(#43),#273,.F.);
#284=ADVANCED_FACE('',(#44),#274,.F.);
#285=ADVANCED_FACE('',(#45),#275,.F.);
#286=ADVANCED_FACE('',(#46),#276,.F.);
#287=ADVANCED_FACE('',(#47),#33,.T.);
#288=ADVANCED_FACE('',(#48),#34,.T.);
#289=ADVANCED_FACE('',(#49),#35,.T.);
#290=ADVANCED_FACE('',(#50,#23,#24,#25,#26,#27,#28,#29,#30),#36,.T.);
#291=CLOSED_SHELL('',(#277,#278,#279,#280,#281,#282,#283,#284,#285,#286,
#287,#288,#289,#290));
#292=DERIVED_UNIT_ELEMENT(#294,1.);
#293=DERIVED_UNIT_ELEMENT(#497,-3.);
#294=(
MASS_UNIT()
NAMED_UNIT(*)
SI_UNIT(.KILO.,.GRAM.)
);
#295=DERIVED_UNIT((#292,#293));
#296=MEASURE_REPRESENTATION_ITEM('density measure',
POSITIVE_RATIO_MEASURE(2680.),#295);
#297=PROPERTY_DEFINITION_REPRESENTATION(#302,#299);
#298=PROPERTY_DEFINITION_REPRESENTATION(#303,#300);
#299=REPRESENTATION('material name',(#301),#494);
#300=REPRESENTATION('density',(#296),#494);
#301=DESCRIPTIVE_REPRESENTATION_ITEM('Aluminum 5052','Aluminum 5052');
#302=PROPERTY_DEFINITION('material property','material name',#504);
#303=PROPERTY_DEFINITION('material property','density of part',#504);
#304=AXIS2_PLACEMENT_3D('',#417,#335,#336);
#305=AXIS2_PLACEMENT_3D('',#418,#337,#338);
#306=AXIS2_PLACEMENT_3D('',#420,#339,#340);
#307=AXIS2_PLACEMENT_3D('',#423,#342,#343);
#308=AXIS2_PLACEMENT_3D('',#424,#344,#345);
#309=AXIS2_PLACEMENT_3D('',#426,#346,#347);
#310=AXIS2_PLACEMENT_3D('',#429,#349,#350);
#311=AXIS2_PLACEMENT_3D('',#430,#351,#352);
#312=AXIS2_PLACEMENT_3D('',#432,#353,#354);
#313=AXIS2_PLACEMENT_3D('',#435,#356,#357);
#314=AXIS2_PLACEMENT_3D('',#436,#358,#359);
#315=AXIS2_PLACEMENT_3D('',#438,#360,#361);
#316=AXIS2_PLACEMENT_3D('',#441,#363,#364);
#317=AXIS2_PLACEMENT_3D('',#442,#365,#366);
#318=AXIS2_PLACEMENT_3D('',#451,#371,#372);
#319=AXIS2_PLACEMENT_3D('',#458,#376,#377);
#320=AXIS2_PLACEMENT_3D('',#460,#378,#379);
#321=AXIS2_PLACEMENT_3D('',#462,#380,#381);
#322=AXIS2_PLACEMENT_3D('',#464,#382,#383);
#323=AXIS2_PLACEMENT_3D('',#465,#384,#385);
#324=AXIS2_PLACEMENT_3D('',#467,#386,#387);
#325=AXIS2_PLACEMENT_3D('',#469,#389,#390);
#326=AXIS2_PLACEMENT_3D('',#471,#391,#392);
#327=AXIS2_PLACEMENT_3D('',#473,#394,#395);
#328=AXIS2_PLACEMENT_3D('',#475,#396,#397);
#329=AXIS2_PLACEMENT_3D('',#477,#399,#400);
#330=AXIS2_PLACEMENT_3D('',#479,#401,#402);
#331=AXIS2_PLACEMENT_3D('',#481,#404,#405);
#332=AXIS2_PLACEMENT_3D('',#485,#408,#409);
#333=AXIS2_PLACEMENT_3D('',#489,#412,#413);
#334=AXIS2_PLACEMENT_3D('',#491,#415,#416);
#335=DIRECTION('axis',(0.,0.,1.));
#336=DIRECTION('refdir',(1.,0.,0.));
#337=DIRECTION('center_axis',(0.,0.,-1.));
#338=DIRECTION('ref_axis',(-1.,0.,0.));
#339=DIRECTION('center_axis',(0.,0.,-1.));
#340=DIRECTION('ref_axis',(-1.,0.,0.));
#341=DIRECTION('',(0.,0.,-1.));
#342=DIRECTION('center_axis',(0.,0.,-1.));
#343=DIRECTION('ref_axis',(-1.,0.,0.));
#344=DIRECTION('center_axis',(0.,0.,-1.));
#345=DIRECTION('ref_axis',(-1.,0.,0.));
#346=DIRECTION('center_axis',(0.,0.,-1.));
#347=DIRECTION('ref_axis',(-1.,0.,0.));
#348=DIRECTION('',(0.,0.,-1.));
#349=DIRECTION('center_axis',(0.,0.,-1.));
#350=DIRECTION('ref_axis',(-1.,0.,0.));
#351=DIRECTION('center_axis',(0.,0.,-1.));
#352=DIRECTION('ref_axis',(-1.,0.,0.));
#353=DIRECTION('center_axis',(0.,0.,-1.));
#354=DIRECTION('ref_axis',(-1.,0.,0.));
#355=DIRECTION('',(0.,0.,-1.));
#356=DIRECTION('center_axis',(0.,0.,-1.));
#357=DIRECTION('ref_axis',(-1.,0.,0.));
#358=DIRECTION('center_axis',(0.,0.,-1.));
#359=DIRECTION('ref_axis',(-1.,0.,0.));
#360=DIRECTION('center_axis',(0.,0.,-1.));
#361=DIRECTION('ref_axis',(-1.,0.,0.));
#362=DIRECTION('',(0.,0.,-1.));
#363=DIRECTION('center_axis',(0.,0.,-1.));
#364=DIRECTION('ref_axis',(-1.,0.,0.));
#365=DIRECTION('center_axis',(1.,0.,0.));
#366=DIRECTION('ref_axis',(0.,0.,-1.));
#367=DIRECTION('',(-4.31359097277318E-17,1.,0.));
#368=DIRECTION('',(0.,0.,1.));
#369=DIRECTION('',(4.31359097277318E-17,-1.,0.));
#370=DIRECTION('',(0.,0.,-1.));
#371=DIRECTION('center_axis',(0.,0.,1.));
#372=DIRECTION('ref_axis',(-1.,0.,0.));
#373=DIRECTION('',(1.,-2.18680292729198E-15,0.));
#374=DIRECTION('',(-4.31359097277318E-17,-1.,0.));
#375=DIRECTION('',(1.,0.,0.));
#376=DIRECTION('center_axis',(0.,0.,-1.));
#377=DIRECTION('ref_axis',(-1.,0.,0.));
#378=DIRECTION('center_axis',(0.,0.,-1.));
#379=DIRECTION('ref_axis',(-1.,0.,0.));
#380=DIRECTION('center_axis',(0.,0.,-1.));
#381=DIRECTION('ref_axis',(-1.,0.,0.));
#382=DIRECTION('center_axis',(0.,0.,-1.));
#383=DIRECTION('ref_axis',(-1.,0.,0.));
#384=DIRECTION('center_axis',(0.,0.,1.));
#385=DIRECTION('ref_axis',(-1.,0.,0.));
#386=DIRECTION('center_axis',(0.,0.,-1.));
#387=DIRECTION('ref_axis',(-1.,0.,0.));
#388=DIRECTION('',(0.,0.,-1.));
#389=DIRECTION('center_axis',(0.,0.,1.));
#390=DIRECTION('ref_axis',(-1.,0.,0.));
#391=DIRECTION('center_axis',(0.,0.,-1.));
#392=DIRECTION('ref_axis',(-1.,0.,0.));
#393=DIRECTION('',(0.,0.,-1.));
#394=DIRECTION('center_axis',(0.,0.,1.));
#395=DIRECTION('ref_axis',(-1.,0.,0.));
#396=DIRECTION('center_axis',(0.,0.,-1.));
#397=DIRECTION('ref_axis',(-1.,0.,0.));
#398=DIRECTION('',(0.,0.,-1.));
#399=DIRECTION('center_axis',(0.,0.,1.));
#400=DIRECTION('ref_axis',(-1.,0.,0.));
#401=DIRECTION('center_axis',(0.,0.,-1.));
#402=DIRECTION('ref_axis',(-1.,0.,0.));
#403=DIRECTION('',(0.,0.,-1.));
#404=DIRECTION('center_axis',(-2.18680292729198E-15,-1.,0.));
#405=DIRECTION('ref_axis',(1.,-2.18680292729198E-15,0.));
#406=DIRECTION('',(1.,-2.18680292729198E-15,0.));
#407=DIRECTION('',(0.,0.,1.));
#408=DIRECTION('center_axis',(-1.,4.31359097277318E-17,0.));
#409=DIRECTION('ref_axis',(-4.31359097277318E-17,-1.,0.));
#410=DIRECTION('',(-4.31359097277318E-17,-1.,0.));
#411=DIRECTION('',(0.,0.,1.));
#412=DIRECTION('center_axis',(0.,1.,0.));
#413=DIRECTION('ref_axis',(-1.,0.,0.));
#414=DIRECTION('',(1.,0.,0.));
#415=DIRECTION('center_axis',(0.,0.,1.));
#416=DIRECTION('ref_axis',(-1.,0.,0.));
#417=CARTESIAN_POINT('',(0.,0.,0.));
#418=CARTESIAN_POINT('Origin',(0.000199999999939925,-22.4999999999992,244.75));
#419=CARTESIAN_POINT('',(2.51769999999994,-22.4999999999992,244.75));
#420=CARTESIAN_POINT('Origin',(0.000199999999939925,-22.4999999999992,244.75));
#421=CARTESIAN_POINT('',(2.51769999999994,-22.4999999999992,238.4));
#422=CARTESIAN_POINT('',(2.51769999999994,-22.4999999999992,244.75));
#423=CARTESIAN_POINT('Origin',(0.000199999999939925,-22.4999999999992,238.4));
#424=CARTESIAN_POINT('Origin',(15.0001999999999,-4.99999999999916,244.75));
#425=CARTESIAN_POINT('',(17.5176999999999,-4.99999999999916,244.75));
#426=CARTESIAN_POINT('Origin',(15.0001999999999,-4.99999999999916,244.75));
#427=CARTESIAN_POINT('',(17.5176999999999,-4.99999999999916,238.4));
#428=CARTESIAN_POINT('',(17.5176999999999,-4.99999999999916,244.75));
#429=CARTESIAN_POINT('Origin',(15.0001999999999,-4.99999999999916,238.4));
#430=CARTESIAN_POINT('Origin',(-14.9998000000001,-4.99999999999916,244.75));
#431=CARTESIAN_POINT('',(-12.4823000000001,-4.99999999999916,244.75));
#432=CARTESIAN_POINT('Origin',(-14.9998000000001,-4.99999999999916,244.75));
#433=CARTESIAN_POINT('',(-12.4823000000001,-4.99999999999916,238.4));
#434=CARTESIAN_POINT('',(-12.4823000000001,-4.99999999999916,244.75));
#435=CARTESIAN_POINT('Origin',(-14.9998000000001,-4.99999999999916,238.4));
#436=CARTESIAN_POINT('Origin',(0.000199999999935638,12.5000000000009,244.75));
#437=CARTESIAN_POINT('',(2.51769999999994,12.5000000000009,244.75));
#438=CARTESIAN_POINT('Origin',(0.000199999999935638,12.5000000000009,244.75));
#439=CARTESIAN_POINT('',(2.51769999999994,12.5000000000009,238.4));
#440=CARTESIAN_POINT('',(2.51769999999994,12.5000000000009,244.75));
#441=CARTESIAN_POINT('Origin',(0.000199999999935638,12.5000000000009,238.4));
#442=CARTESIAN_POINT('Origin',(32.7498000000001,41.0859611255262,238.4));
#443=CARTESIAN_POINT('',(32.7498000000001,-56.4755817894057,238.4));
#444=CARTESIAN_POINT('',(32.7498000000001,46.4755817894074,238.4));
#445=CARTESIAN_POINT('',(32.7498000000001,46.4755817894074,238.4));
#446=CARTESIAN_POINT('',(32.7498000000001,46.4755817894074,244.75));
#447=CARTESIAN_POINT('',(32.7498000000001,46.4755817894074,238.4));
#448=CARTESIAN_POINT('',(32.7498000000001,-56.4755817894057,244.75));
#449=CARTESIAN_POINT('',(32.7498000000001,46.4755817894074,244.75));
#450=CARTESIAN_POINT('',(32.7498000000001,-56.4755817894057,238.4));
#451=CARTESIAN_POINT('Origin',(0.,-4.99999999999923,238.4));
#452=CARTESIAN_POINT('',(-32.7498000000001,-56.4755817894057,238.4));
#453=CARTESIAN_POINT('',(-26.3998000000001,-56.4755817894057,238.4));
#454=CARTESIAN_POINT('',(-32.7498000000001,46.4755817894074,238.4));
#455=CARTESIAN_POINT('',(-32.7498000000001,46.4755817894074,238.4));
#456=CARTESIAN_POINT('',(26.3998,46.4755817894074,238.4));
#457=CARTESIAN_POINT('',(-10.5498000000001,-46.4755817894058,238.4));
#458=CARTESIAN_POINT('Origin',(-13.1998000000001,-46.4755817894058,238.4));
#459=CARTESIAN_POINT('',(15.85,36.4755817894073,238.4));
#460=CARTESIAN_POINT('Origin',(13.2,36.4755817894073,238.4));
#461=CARTESIAN_POINT('',(-10.5498000000001,36.4755817894073,238.4));
#462=CARTESIAN_POINT('Origin',(-13.1998000000001,36.4755817894073,238.4));
#463=CARTESIAN_POINT('',(15.85,-46.4755817894058,238.4));
#464=CARTESIAN_POINT('Origin',(13.2,-46.4755817894058,238.4));
#465=CARTESIAN_POINT('Origin',(13.2,-46.4755817894058,238.4));
#466=CARTESIAN_POINT('',(15.85,-46.4755817894058,244.75));
#467=CARTESIAN_POINT('Origin',(13.2,-46.4755817894058,244.75));
#468=CARTESIAN_POINT('',(15.85,-46.4755817894058,238.4));
#469=CARTESIAN_POINT('Origin',(-13.1998000000001,36.4755817894073,238.4));
#470=CARTESIAN_POINT('',(-10.5498000000001,36.4755817894073,244.75));
#471=CARTESIAN_POINT('Origin',(-13.1998000000001,36.4755817894073,244.75));
#472=CARTESIAN_POINT('',(-10.5498000000001,36.4755817894073,238.4));
#473=CARTESIAN_POINT('Origin',(13.2,36.4755817894073,238.4));
#474=CARTESIAN_POINT('',(15.85,36.4755817894073,244.75));
#475=CARTESIAN_POINT('Origin',(13.2,36.4755817894073,244.75));
#476=CARTESIAN_POINT('',(15.85,36.4755817894073,238.4));
#477=CARTESIAN_POINT('Origin',(-13.1998000000001,-46.4755817894058,238.4));
#478=CARTESIAN_POINT('',(-10.5498000000001,-46.4755817894058,244.75));
#479=CARTESIAN_POINT('Origin',(-13.1998000000001,-46.4755817894058,244.75));
#480=CARTESIAN_POINT('',(-10.5498000000001,-46.4755817894058,238.4));
#481=CARTESIAN_POINT('Origin',(-32.7498000000001,-56.4755817894057,238.4));
#482=CARTESIAN_POINT('',(-32.7498000000001,-56.4755817894057,244.75));
#483=CARTESIAN_POINT('',(-26.3998000000001,-56.4755817894057,244.75));
#484=CARTESIAN_POINT('',(-32.7498000000001,-56.4755817894057,238.4));
#485=CARTESIAN_POINT('Origin',(-32.7498000000001,46.4755817894074,238.4));
#486=CARTESIAN_POINT('',(-32.7498000000001,46.4755817894074,244.75));
#487=CARTESIAN_POINT('',(-32.7498000000001,46.4755817894074,244.75));
#488=CARTESIAN_POINT('',(-32.7498000000001,46.4755817894074,238.4));
#489=CARTESIAN_POINT('Origin',(26.3998,46.4755817894074,238.4));
#490=CARTESIAN_POINT('',(26.3998,46.4755817894074,244.75));
#491=CARTESIAN_POINT('Origin',(0.,-4.99999999999923,244.75));
#492=UNCERTAINTY_MEASURE_WITH_UNIT(LENGTH_MEASURE(0.01),#496,
'DISTANCE_ACCURACY_VALUE',
'Maximum model space distance between geometric entities at asserted c
onnectivities');
#493=UNCERTAINTY_MEASURE_WITH_UNIT(LENGTH_MEASURE(0.01),#496,
'DISTANCE_ACCURACY_VALUE',
'Maximum model space distance between geometric entities at asserted c
onnectivities');
#494=(
GEOMETRIC_REPRESENTATION_CONTEXT(3)
GLOBAL_UNCERTAINTY_ASSIGNED_CONTEXT((#492))
GLOBAL_UNIT_ASSIGNED_CONTEXT((#496,#498,#499))
REPRESENTATION_CONTEXT('','3D')
);
#495=(
GEOMETRIC_REPRESENTATION_CONTEXT(3)
GLOBAL_UNCERTAINTY_ASSIGNED_CONTEXT((#493))
GLOBAL_UNIT_ASSIGNED_CONTEXT((#496,#498,#499))
REPRESENTATION_CONTEXT('','3D')
);
#496=(
LENGTH_UNIT()
NAMED_UNIT(*)
SI_UNIT(.MILLI.,.METRE.)
);
#497=(
LENGTH_UNIT()
NAMED_UNIT(*)
SI_UNIT($,.METRE.)
);
#498=(
NAMED_UNIT(*)
PLANE_ANGLE_UNIT()
SI_UNIT($,.RADIAN.)
);
#499=(
NAMED_UNIT(*)
SI_UNIT($,.STERADIAN.)
SOLID_ANGLE_UNIT()
);
#500=SHAPE_DEFINITION_REPRESENTATION(#501,#502);
#501=PRODUCT_DEFINITION_SHAPE('',$,#504);
#502=SHAPE_REPRESENTATION('',(#304),#494);
#503=PRODUCT_DEFINITION_CONTEXT('part definition',#508,'design');
#504=PRODUCT_DEFINITION('Top Mount Plate','Top Mount Plate',#505,#503);
#505=PRODUCT_DEFINITION_FORMATION('',$,#510);
#506=PRODUCT_RELATED_PRODUCT_CATEGORY('Top Mount Plate',
'Top Mount Plate',(#510));
#507=APPLICATION_PROTOCOL_DEFINITION('international standard',
'automotive_design',2009,#508);
#508=APPLICATION_CONTEXT(
'Core Data for Automotive Mechanical Design Process');
#509=PRODUCT_CONTEXT('part definition',#508,'mechanical');
#510=PRODUCT('Top Mount Plate','Top Mount Plate',$,(#509));
#511=PRESENTATION_STYLE_ASSIGNMENT((#512));
#512=SURFACE_STYLE_USAGE(.BOTH.,#513);
#513=SURFACE_SIDE_STYLE('',(#514));
#514=SURFACE_STYLE_FILL_AREA(#515);
#515=FILL_AREA_STYLE('Aluminum - Satin',(#516));
#516=FILL_AREA_STYLE_COLOUR('Aluminum - Satin',#517);
#517=COLOUR_RGB('Aluminum - Satin',0.96078431372549,0.96078431372549,0.964705882352941);
ENDSEC;
END-ISO-10303-21;
