ISO-10303-21;
HEADER;
/* Generated by software containing ST-Developer
 * from STEP Tools, Inc. (www.steptools.com) 
 */

FILE_DESCRIPTION(
/* description */ (''),
/* implementation_level */ '2;1');

FILE_NAME(
/* name */ 'Bottom Plate.step',
/* time_stamp */ '2026-08-23T20:36:09-06:00',
/* author */ (''),
/* organization */ (''),
/* preprocessor_version */ 'ST-DEVELOPER v20.1',
/* originating_system */ 'Autodesk Translation Framework v15.8.0.0',
/* authorisation */ '');

FILE_SCHEMA (('AUTOMOTIVE_DESIGN { 1 0 10303 214 3 1 1 }'));
ENDSEC;

DATA;
#10=MECHANICAL_DESIGN_GEOMETRIC_PRESENTATION_REPRESENTATION('',(#13),#1080);
#11=SHAPE_REPRESENTATION_RELATIONSHIP('SRR','None',#1087,#12);
#12=ADVANCED_BREP_SHAPE_REPRESENTATION('',(#14),#1079);
#13=STYLED_ITEM('',(#1097),#14);
#14=MANIFOLD_SOLID_BREP('Body1',#636);
#15=FACE_BOUND('',#124,.T.);
#16=FACE_BOUND('',#125,.T.);
#17=FACE_BOUND('',#126,.T.);
#18=FACE_BOUND('',#127,.T.);
#19=FACE_BOUND('',#128,.T.);
#20=FACE_BOUND('',#129,.T.);
#21=FACE_BOUND('',#130,.T.);
#22=FACE_BOUND('',#131,.T.);
#23=FACE_BOUND('',#132,.T.);
#24=FACE_BOUND('',#133,.T.);
#25=FACE_BOUND('',#134,.T.);
#26=FACE_BOUND('',#135,.T.);
#27=FACE_BOUND('',#136,.T.);
#28=FACE_BOUND('',#137,.T.);
#29=FACE_BOUND('',#138,.T.);
#30=FACE_BOUND('',#139,.T.);
#31=FACE_BOUND('',#140,.T.);
#32=FACE_BOUND('',#141,.T.);
#33=FACE_BOUND('',#142,.T.);
#34=FACE_BOUND('',#143,.T.);
#35=FACE_BOUND('',#144,.T.);
#36=FACE_BOUND('',#145,.T.);
#37=FACE_BOUND('',#146,.T.);
#38=FACE_BOUND('',#148,.T.);
#39=FACE_BOUND('',#149,.T.);
#40=FACE_BOUND('',#150,.T.);
#41=FACE_BOUND('',#151,.T.);
#42=FACE_BOUND('',#152,.T.);
#43=FACE_BOUND('',#153,.T.);
#44=FACE_BOUND('',#154,.T.);
#45=FACE_BOUND('',#155,.T.);
#46=FACE_BOUND('',#156,.T.);
#47=FACE_BOUND('',#157,.T.);
#48=FACE_BOUND('',#158,.T.);
#49=FACE_BOUND('',#159,.T.);
#50=FACE_BOUND('',#160,.T.);
#51=FACE_BOUND('',#161,.T.);
#52=FACE_BOUND('',#162,.T.);
#53=FACE_BOUND('',#163,.T.);
#54=FACE_BOUND('',#164,.T.);
#55=FACE_BOUND('',#165,.T.);
#56=FACE_BOUND('',#166,.T.);
#57=FACE_BOUND('',#167,.T.);
#58=FACE_BOUND('',#168,.T.);
#59=FACE_BOUND('',#169,.T.);
#60=FACE_BOUND('',#170,.T.);
#61=PLANE('',#668);
#62=PLANE('',#669);
#63=PLANE('',#721);
#64=PLANE('',#722);
#65=PLANE('',#723);
#66=PLANE('',#724);
#67=FACE_OUTER_BOUND('',#96,.T.);
#68=FACE_OUTER_BOUND('',#97,.T.);
#69=FACE_OUTER_BOUND('',#98,.T.);
#70=FACE_OUTER_BOUND('',#99,.T.);
#71=FACE_OUTER_BOUND('',#100,.T.);
#72=FACE_OUTER_BOUND('',#101,.T.);
#73=FACE_OUTER_BOUND('',#102,.T.);
#74=FACE_OUTER_BOUND('',#103,.T.);
#75=FACE_OUTER_BOUND('',#104,.T.);
#76=FACE_OUTER_BOUND('',#105,.T.);
#77=FACE_OUTER_BOUND('',#106,.T.);
#78=FACE_OUTER_BOUND('',#107,.T.);
#79=FACE_OUTER_BOUND('',#108,.T.);
#80=FACE_OUTER_BOUND('',#109,.T.);
#81=FACE_OUTER_BOUND('',#110,.T.);
#82=FACE_OUTER_BOUND('',#111,.T.);
#83=FACE_OUTER_BOUND('',#112,.T.);
#84=FACE_OUTER_BOUND('',#113,.T.);
#85=FACE_OUTER_BOUND('',#114,.T.);
#86=FACE_OUTER_BOUND('',#115,.T.);
#87=FACE_OUTER_BOUND('',#116,.T.);
#88=FACE_OUTER_BOUND('',#117,.T.);
#89=FACE_OUTER_BOUND('',#118,.T.);
#90=FACE_OUTER_BOUND('',#119,.T.);
#91=FACE_OUTER_BOUND('',#120,.T.);
#92=FACE_OUTER_BOUND('',#121,.T.);
#93=FACE_OUTER_BOUND('',#122,.T.);
#94=FACE_OUTER_BOUND('',#123,.T.);
#95=FACE_OUTER_BOUND('',#147,.T.);
#96=EDGE_LOOP('',(#422,#423,#424,#425));
#97=EDGE_LOOP('',(#426,#427,#428,#429));
#98=EDGE_LOOP('',(#430,#431,#432,#433));
#99=EDGE_LOOP('',(#434,#435,#436,#437));
#100=EDGE_LOOP('',(#438,#439,#440,#441));
#101=EDGE_LOOP('',(#442,#443,#444,#445));
#102=EDGE_LOOP('',(#446,#447,#448,#449));
#103=EDGE_LOOP('',(#450,#451,#452,#453));
#104=EDGE_LOOP('',(#454,#455,#456,#457));
#105=EDGE_LOOP('',(#458,#459,#460,#461));
#106=EDGE_LOOP('',(#462,#463,#464,#465));
#107=EDGE_LOOP('',(#466,#467,#468,#469));
#108=EDGE_LOOP('',(#470,#471,#472,#473));
#109=EDGE_LOOP('',(#474,#475,#476,#477));
#110=EDGE_LOOP('',(#478,#479,#480,#481));
#111=EDGE_LOOP('',(#482,#483,#484,#485));
#112=EDGE_LOOP('',(#486,#487,#488,#489));
#113=EDGE_LOOP('',(#490,#491,#492,#493));
#114=EDGE_LOOP('',(#494,#495,#496,#497));
#115=EDGE_LOOP('',(#498,#499,#500,#501));
#116=EDGE_LOOP('',(#502,#503,#504,#505));
#117=EDGE_LOOP('',(#506,#507,#508,#509));
#118=EDGE_LOOP('',(#510,#511,#512,#513));
#119=EDGE_LOOP('',(#514,#515,#516,#517));
#120=EDGE_LOOP('',(#518,#519,#520,#521));
#121=EDGE_LOOP('',(#522,#523,#524,#525));
#122=EDGE_LOOP('',(#526,#527,#528,#529));
#123=EDGE_LOOP('',(#530,#531,#532,#533));
#124=EDGE_LOOP('',(#534));
#125=EDGE_LOOP('',(#535));
#126=EDGE_LOOP('',(#536));
#127=EDGE_LOOP('',(#537));
#128=EDGE_LOOP('',(#538));
#129=EDGE_LOOP('',(#539));
#130=EDGE_LOOP('',(#540));
#131=EDGE_LOOP('',(#541));
#132=EDGE_LOOP('',(#542));
#133=EDGE_LOOP('',(#543));
#134=EDGE_LOOP('',(#544));
#135=EDGE_LOOP('',(#545));
#136=EDGE_LOOP('',(#546));
#137=EDGE_LOOP('',(#547));
#138=EDGE_LOOP('',(#548));
#139=EDGE_LOOP('',(#549));
#140=EDGE_LOOP('',(#550));
#141=EDGE_LOOP('',(#551));
#142=EDGE_LOOP('',(#552));
#143=EDGE_LOOP('',(#553));
#144=EDGE_LOOP('',(#554));
#145=EDGE_LOOP('',(#555));
#146=EDGE_LOOP('',(#556));
#147=EDGE_LOOP('',(#557,#558,#559,#560));
#148=EDGE_LOOP('',(#561));
#149=EDGE_LOOP('',(#562));
#150=EDGE_LOOP('',(#563));
#151=EDGE_LOOP('',(#564));
#152=EDGE_LOOP('',(#565));
#153=EDGE_LOOP('',(#566));
#154=EDGE_LOOP('',(#567));
#155=EDGE_LOOP('',(#568));
#156=EDGE_LOOP('',(#569));
#157=EDGE_LOOP('',(#570));
#158=EDGE_LOOP('',(#571));
#159=EDGE_LOOP('',(#572));
#160=EDGE_LOOP('',(#573));
#161=EDGE_LOOP('',(#574));
#162=EDGE_LOOP('',(#575));
#163=EDGE_LOOP('',(#576));
#164=EDGE_LOOP('',(#577));
#165=EDGE_LOOP('',(#578));
#166=EDGE_LOOP('',(#579));
#167=EDGE_LOOP('',(#580));
#168=EDGE_LOOP('',(#581));
#169=EDGE_LOOP('',(#582));
#170=EDGE_LOOP('',(#583));
#171=LINE('',#917,#206);
#172=LINE('',#923,#207);
#173=LINE('',#929,#208);
#174=LINE('',#935,#209);
#175=LINE('',#941,#210);
#176=LINE('',#947,#211);
#177=LINE('',#952,#212);
#178=LINE('',#954,#213);
#179=LINE('',#956,#214);
#180=LINE('',#957,#215);
#181=LINE('',#961,#216);
#182=LINE('',#963,#217);
#183=LINE('',#965,#218);
#184=LINE('',#966,#219);
#185=LINE('',#971,#220);
#186=LINE('',#977,#221);
#187=LINE('',#983,#222);
#188=LINE('',#989,#223);
#189=LINE('',#995,#224);
#190=LINE('',#1001,#225);
#191=LINE('',#1007,#226);
#192=LINE('',#1013,#227);
#193=LINE('',#1019,#228);
#194=LINE('',#1025,#229);
#195=LINE('',#1031,#230);
#196=LINE('',#1037,#231);
#197=LINE('',#1043,#232);
#198=LINE('',#1049,#233);
#199=LINE('',#1055,#234);
#200=LINE('',#1061,#235);
#201=LINE('',#1067,#236);
#202=LINE('',#1070,#237);
#203=LINE('',#1071,#238);
#204=LINE('',#1073,#239);
#205=LINE('',#1074,#240);
#206=VECTOR('',#731,2.65);
#207=VECTOR('',#738,2.65);
#208=VECTOR('',#745,2.65);
#209=VECTOR('',#752,2.65);
#210=VECTOR('',#759,2.65);
#211=VECTOR('',#766,2.65);
#212=VECTOR('',#771,10.);
#213=VECTOR('',#772,10.);
#214=VECTOR('',#773,10.);
#215=VECTOR('',#774,10.);
#216=VECTOR('',#777,10.);
#217=VECTOR('',#778,10.);
#218=VECTOR('',#779,10.);
#219=VECTOR('',#780,10.);
#220=VECTOR('',#785,1.65);
#221=VECTOR('',#792,2.15000000000001);
#222=VECTOR('',#799,2.15);
#223=VECTOR('',#806,1.65);
#224=VECTOR('',#813,2.15);
#225=VECTOR('',#820,25.);
#226=VECTOR('',#827,1.65);
#227=VECTOR('',#834,2.15);
#228=VECTOR('',#841,2.15);
#229=VECTOR('',#848,1.65);
#230=VECTOR('',#855,2.15);
#231=VECTOR('',#862,2.15);
#232=VECTOR('',#869,2.15);
#233=VECTOR('',#876,2.15);
#234=VECTOR('',#883,1.65);
#235=VECTOR('',#890,1.65);
#236=VECTOR('',#897,2.15);
#237=VECTOR('',#902,10.);
#238=VECTOR('',#903,10.);
#239=VECTOR('',#906,10.);
#240=VECTOR('',#907,10.);
#241=CIRCLE('',#651,2.65);
#242=CIRCLE('',#652,2.65);
#243=CIRCLE('',#654,2.65);
#244=CIRCLE('',#655,2.65);
#245=CIRCLE('',#657,2.65);
#246=CIRCLE('',#658,2.65);
#247=CIRCLE('',#660,2.65);
#248=CIRCLE('',#661,2.65);
#249=CIRCLE('',#663,2.65);
#250=CIRCLE('',#664,2.65);
#251=CIRCLE('',#666,2.65);
#252=CIRCLE('',#667,2.65);
#253=CIRCLE('',#671,1.65);
#254=CIRCLE('',#672,1.65);
#255=CIRCLE('',#674,2.15000000000001);
#256=CIRCLE('',#675,2.15000000000001);
#257=CIRCLE('',#677,2.15);
#258=CIRCLE('',#678,2.15);
#259=CIRCLE('',#680,1.65);
#260=CIRCLE('',#681,1.65);
#261=CIRCLE('',#683,2.15);
#262=CIRCLE('',#684,2.15);
#263=CIRCLE('',#686,24.);
#264=CIRCLE('',#687,24.);
#265=CIRCLE('',#689,1.65);
#266=CIRCLE('',#690,1.65);
#267=CIRCLE('',#692,2.15);
#268=CIRCLE('',#693,2.15);
#269=CIRCLE('',#695,2.15);
#270=CIRCLE('',#696,2.15);
#271=CIRCLE('',#698,1.65);
#272=CIRCLE('',#699,1.65);
#273=CIRCLE('',#701,2.15);
#274=CIRCLE('',#702,2.15);
#275=CIRCLE('',#704,2.15);
#276=CIRCLE('',#705,2.15);
#277=CIRCLE('',#707,2.15);
#278=CIRCLE('',#708,2.15);
#279=CIRCLE('',#710,2.15);
#280=CIRCLE('',#711,2.15);
#281=CIRCLE('',#713,1.65);
#282=CIRCLE('',#714,1.65);
#283=CIRCLE('',#716,1.65);
#284=CIRCLE('',#717,1.65);
#285=CIRCLE('',#719,2.15);
#286=CIRCLE('',#720,2.15);
#287=VERTEX_POINT('',#914);
#288=VERTEX_POINT('',#916);
#289=VERTEX_POINT('',#920);
#290=VERTEX_POINT('',#922);
#291=VERTEX_POINT('',#926);
#292=VERTEX_POINT('',#928);
#293=VERTEX_POINT('',#932);
#294=VERTEX_POINT('',#934);
#295=VERTEX_POINT('',#938);
#296=VERTEX_POINT('',#940);
#297=VERTEX_POINT('',#944);
#298=VERTEX_POINT('',#946);
#299=VERTEX_POINT('',#950);
#300=VERTEX_POINT('',#951);
#301=VERTEX_POINT('',#953);
#302=VERTEX_POINT('',#955);
#303=VERTEX_POINT('',#959);
#304=VERTEX_POINT('',#960);
#305=VERTEX_POINT('',#962);
#306=VERTEX_POINT('',#964);
#307=VERTEX_POINT('',#968);
#308=VERTEX_POINT('',#970);
#309=VERTEX_POINT('',#974);
#310=VERTEX_POINT('',#976);
#311=VERTEX_POINT('',#980);
#312=VERTEX_POINT('',#982);
#313=VERTEX_POINT('',#986);
#314=VERTEX_POINT('',#988);
#315=VERTEX_POINT('',#992);
#316=VERTEX_POINT('',#994);
#317=VERTEX_POINT('',#998);
#318=VERTEX_POINT('',#1000);
#319=VERTEX_POINT('',#1004);
#320=VERTEX_POINT('',#1006);
#321=VERTEX_POINT('',#1010);
#322=VERTEX_POINT('',#1012);
#323=VERTEX_POINT('',#1016);
#324=VERTEX_POINT('',#1018);
#325=VERTEX_POINT('',#1022);
#326=VERTEX_POINT('',#1024);
#327=VERTEX_POINT('',#1028);
#328=VERTEX_POINT('',#1030);
#329=VERTEX_POINT('',#1034);
#330=VERTEX_POINT('',#1036);
#331=VERTEX_POINT('',#1040);
#332=VERTEX_POINT('',#1042);
#333=VERTEX_POINT('',#1046);
#334=VERTEX_POINT('',#1048);
#335=VERTEX_POINT('',#1052);
#336=VERTEX_POINT('',#1054);
#337=VERTEX_POINT('',#1058);
#338=VERTEX_POINT('',#1060);
#339=VERTEX_POINT('',#1064);
#340=VERTEX_POINT('',#1066);
#341=EDGE_CURVE('',#287,#287,#241,.T.);
#342=EDGE_CURVE('',#287,#288,#171,.T.);
#343=EDGE_CURVE('',#288,#288,#242,.T.);
#344=EDGE_CURVE('',#289,#289,#243,.T.);
#345=EDGE_CURVE('',#289,#290,#172,.T.);
#346=EDGE_CURVE('',#290,#290,#244,.T.);
#347=EDGE_CURVE('',#291,#291,#245,.T.);
#348=EDGE_CURVE('',#291,#292,#173,.T.);
#349=EDGE_CURVE('',#292,#292,#246,.T.);
#350=EDGE_CURVE('',#293,#293,#247,.T.);
#351=EDGE_CURVE('',#293,#294,#174,.T.);
#352=EDGE_CURVE('',#294,#294,#248,.T.);
#353=EDGE_CURVE('',#295,#295,#249,.T.);
#354=EDGE_CURVE('',#295,#296,#175,.T.);
#355=EDGE_CURVE('',#296,#296,#250,.T.);
#356=EDGE_CURVE('',#297,#297,#251,.T.);
#357=EDGE_CURVE('',#297,#298,#176,.T.);
#358=EDGE_CURVE('',#298,#298,#252,.T.);
#359=EDGE_CURVE('',#299,#300,#177,.T.);
#360=EDGE_CURVE('',#300,#301,#178,.T.);
#361=EDGE_CURVE('',#301,#302,#179,.T.);
#362=EDGE_CURVE('',#302,#299,#180,.T.);
#363=EDGE_CURVE('',#303,#304,#181,.T.);
#364=EDGE_CURVE('',#304,#305,#182,.T.);
#365=EDGE_CURVE('',#305,#306,#183,.T.);
#366=EDGE_CURVE('',#306,#303,#184,.T.);
#367=EDGE_CURVE('',#307,#307,#253,.T.);
#368=EDGE_CURVE('',#307,#308,#185,.T.);
#369=EDGE_CURVE('',#308,#308,#254,.T.);
#370=EDGE_CURVE('',#309,#309,#255,.T.);
#371=EDGE_CURVE('',#309,#310,#186,.T.);
#372=EDGE_CURVE('',#310,#310,#256,.T.);
#373=EDGE_CURVE('',#311,#311,#257,.T.);
#374=EDGE_CURVE('',#311,#312,#187,.T.);
#375=EDGE_CURVE('',#312,#312,#258,.T.);
#376=EDGE_CURVE('',#313,#313,#259,.T.);
#377=EDGE_CURVE('',#313,#314,#188,.T.);
#378=EDGE_CURVE('',#314,#314,#260,.T.);
#379=EDGE_CURVE('',#315,#315,#261,.T.);
#380=EDGE_CURVE('',#315,#316,#189,.T.);
#381=EDGE_CURVE('',#316,#316,#262,.T.);
#382=EDGE_CURVE('',#317,#317,#263,.F.);
#383=EDGE_CURVE('',#317,#318,#190,.T.);
#384=EDGE_CURVE('',#318,#318,#264,.F.);
#385=EDGE_CURVE('',#319,#319,#265,.T.);
#386=EDGE_CURVE('',#319,#320,#191,.T.);
#387=EDGE_CURVE('',#320,#320,#266,.T.);
#388=EDGE_CURVE('',#321,#321,#267,.T.);
#389=EDGE_CURVE('',#321,#322,#192,.T.);
#390=EDGE_CURVE('',#322,#322,#268,.T.);
#391=EDGE_CURVE('',#323,#323,#269,.T.);
#392=EDGE_CURVE('',#323,#324,#193,.T.);
#393=EDGE_CURVE('',#324,#324,#270,.T.);
#394=EDGE_CURVE('',#325,#325,#271,.T.);
#395=EDGE_CURVE('',#325,#326,#194,.T.);
#396=EDGE_CURVE('',#326,#326,#272,.T.);
#397=EDGE_CURVE('',#327,#327,#273,.T.);
#398=EDGE_CURVE('',#327,#328,#195,.T.);
#399=EDGE_CURVE('',#328,#328,#274,.T.);
#400=EDGE_CURVE('',#329,#329,#275,.T.);
#401=EDGE_CURVE('',#329,#330,#196,.T.);
#402=EDGE_CURVE('',#330,#330,#276,.T.);
#403=EDGE_CURVE('',#331,#331,#277,.T.);
#404=EDGE_CURVE('',#331,#332,#197,.T.);
#405=EDGE_CURVE('',#332,#332,#278,.T.);
#406=EDGE_CURVE('',#333,#333,#279,.T.);
#407=EDGE_CURVE('',#333,#334,#198,.T.);
#408=EDGE_CURVE('',#334,#334,#280,.T.);
#409=EDGE_CURVE('',#335,#335,#281,.T.);
#410=EDGE_CURVE('',#335,#336,#199,.T.);
#411=EDGE_CURVE('',#336,#336,#282,.T.);
#412=EDGE_CURVE('',#337,#337,#283,.T.);
#413=EDGE_CURVE('',#337,#338,#200,.T.);
#414=EDGE_CURVE('',#338,#338,#284,.T.);
#415=EDGE_CURVE('',#339,#339,#285,.T.);
#416=EDGE_CURVE('',#339,#340,#201,.T.);
#417=EDGE_CURVE('',#340,#340,#286,.T.);
#418=EDGE_CURVE('',#303,#300,#202,.T.);
#419=EDGE_CURVE('',#306,#301,#203,.T.);
#420=EDGE_CURVE('',#304,#299,#204,.T.);
#421=EDGE_CURVE('',#302,#305,#205,.T.);
#422=ORIENTED_EDGE('',*,*,#341,.F.);
#423=ORIENTED_EDGE('',*,*,#342,.T.);
#424=ORIENTED_EDGE('',*,*,#343,.F.);
#425=ORIENTED_EDGE('',*,*,#342,.F.);
#426=ORIENTED_EDGE('',*,*,#344,.F.);
#427=ORIENTED_EDGE('',*,*,#345,.T.);
#428=ORIENTED_EDGE('',*,*,#346,.F.);
#429=ORIENTED_EDGE('',*,*,#345,.F.);
#430=ORIENTED_EDGE('',*,*,#347,.F.);
#431=ORIENTED_EDGE('',*,*,#348,.T.);
#432=ORIENTED_EDGE('',*,*,#349,.F.);
#433=ORIENTED_EDGE('',*,*,#348,.F.);
#434=ORIENTED_EDGE('',*,*,#350,.F.);
#435=ORIENTED_EDGE('',*,*,#351,.T.);
#436=ORIENTED_EDGE('',*,*,#352,.F.);
#437=ORIENTED_EDGE('',*,*,#351,.F.);
#438=ORIENTED_EDGE('',*,*,#353,.F.);
#439=ORIENTED_EDGE('',*,*,#354,.T.);
#440=ORIENTED_EDGE('',*,*,#355,.F.);
#441=ORIENTED_EDGE('',*,*,#354,.F.);
#442=ORIENTED_EDGE('',*,*,#356,.F.);
#443=ORIENTED_EDGE('',*,*,#357,.T.);
#444=ORIENTED_EDGE('',*,*,#358,.F.);
#445=ORIENTED_EDGE('',*,*,#357,.F.);
#446=ORIENTED_EDGE('',*,*,#359,.T.);
#447=ORIENTED_EDGE('',*,*,#360,.T.);
#448=ORIENTED_EDGE('',*,*,#361,.T.);
#449=ORIENTED_EDGE('',*,*,#362,.T.);
#450=ORIENTED_EDGE('',*,*,#363,.T.);
#451=ORIENTED_EDGE('',*,*,#364,.T.);
#452=ORIENTED_EDGE('',*,*,#365,.T.);
#453=ORIENTED_EDGE('',*,*,#366,.T.);
#454=ORIENTED_EDGE('',*,*,#367,.F.);
#455=ORIENTED_EDGE('',*,*,#368,.T.);
#456=ORIENTED_EDGE('',*,*,#369,.T.);
#457=ORIENTED_EDGE('',*,*,#368,.F.);
#458=ORIENTED_EDGE('',*,*,#370,.F.);
#459=ORIENTED_EDGE('',*,*,#371,.T.);
#460=ORIENTED_EDGE('',*,*,#372,.T.);
#461=ORIENTED_EDGE('',*,*,#371,.F.);
#462=ORIENTED_EDGE('',*,*,#373,.F.);
#463=ORIENTED_EDGE('',*,*,#374,.T.);
#464=ORIENTED_EDGE('',*,*,#375,.T.);
#465=ORIENTED_EDGE('',*,*,#374,.F.);
#466=ORIENTED_EDGE('',*,*,#376,.F.);
#467=ORIENTED_EDGE('',*,*,#377,.T.);
#468=ORIENTED_EDGE('',*,*,#378,.T.);
#469=ORIENTED_EDGE('',*,*,#377,.F.);
#470=ORIENTED_EDGE('',*,*,#379,.F.);
#471=ORIENTED_EDGE('',*,*,#380,.T.);
#472=ORIENTED_EDGE('',*,*,#381,.T.);
#473=ORIENTED_EDGE('',*,*,#380,.F.);
#474=ORIENTED_EDGE('',*,*,#382,.F.);
#475=ORIENTED_EDGE('',*,*,#383,.T.);
#476=ORIENTED_EDGE('',*,*,#384,.T.);
#477=ORIENTED_EDGE('',*,*,#383,.F.);
#478=ORIENTED_EDGE('',*,*,#385,.F.);
#479=ORIENTED_EDGE('',*,*,#386,.T.);
#480=ORIENTED_EDGE('',*,*,#387,.T.);
#481=ORIENTED_EDGE('',*,*,#386,.F.);
#482=ORIENTED_EDGE('',*,*,#388,.F.);
#483=ORIENTED_EDGE('',*,*,#389,.T.);
#484=ORIENTED_EDGE('',*,*,#390,.T.);
#485=ORIENTED_EDGE('',*,*,#389,.F.);
#486=ORIENTED_EDGE('',*,*,#391,.F.);
#487=ORIENTED_EDGE('',*,*,#392,.T.);
#488=ORIENTED_EDGE('',*,*,#393,.T.);
#489=ORIENTED_EDGE('',*,*,#392,.F.);
#490=ORIENTED_EDGE('',*,*,#394,.F.);
#491=ORIENTED_EDGE('',*,*,#395,.T.);
#492=ORIENTED_EDGE('',*,*,#396,.T.);
#493=ORIENTED_EDGE('',*,*,#395,.F.);
#494=ORIENTED_EDGE('',*,*,#397,.F.);
#495=ORIENTED_EDGE('',*,*,#398,.T.);
#496=ORIENTED_EDGE('',*,*,#399,.T.);
#497=ORIENTED_EDGE('',*,*,#398,.F.);
#498=ORIENTED_EDGE('',*,*,#400,.F.);
#499=ORIENTED_EDGE('',*,*,#401,.T.);
#500=ORIENTED_EDGE('',*,*,#402,.T.);
#501=ORIENTED_EDGE('',*,*,#401,.F.);
#502=ORIENTED_EDGE('',*,*,#403,.F.);
#503=ORIENTED_EDGE('',*,*,#404,.T.);
#504=ORIENTED_EDGE('',*,*,#405,.T.);
#505=ORIENTED_EDGE('',*,*,#404,.F.);
#506=ORIENTED_EDGE('',*,*,#406,.F.);
#507=ORIENTED_EDGE('',*,*,#407,.T.);
#508=ORIENTED_EDGE('',*,*,#408,.T.);
#509=ORIENTED_EDGE('',*,*,#407,.F.);
#510=ORIENTED_EDGE('',*,*,#409,.F.);
#511=ORIENTED_EDGE('',*,*,#410,.T.);
#512=ORIENTED_EDGE('',*,*,#411,.T.);
#513=ORIENTED_EDGE('',*,*,#410,.F.);
#514=ORIENTED_EDGE('',*,*,#412,.F.);
#515=ORIENTED_EDGE('',*,*,#413,.T.);
#516=ORIENTED_EDGE('',*,*,#414,.T.);
#517=ORIENTED_EDGE('',*,*,#413,.F.);
#518=ORIENTED_EDGE('',*,*,#415,.F.);
#519=ORIENTED_EDGE('',*,*,#416,.T.);
#520=ORIENTED_EDGE('',*,*,#417,.T.);
#521=ORIENTED_EDGE('',*,*,#416,.F.);
#522=ORIENTED_EDGE('',*,*,#418,.F.);
#523=ORIENTED_EDGE('',*,*,#366,.F.);
#524=ORIENTED_EDGE('',*,*,#419,.T.);
#525=ORIENTED_EDGE('',*,*,#360,.F.);
#526=ORIENTED_EDGE('',*,*,#420,.T.);
#527=ORIENTED_EDGE('',*,*,#362,.F.);
#528=ORIENTED_EDGE('',*,*,#421,.T.);
#529=ORIENTED_EDGE('',*,*,#364,.F.);
#530=ORIENTED_EDGE('',*,*,#421,.F.);
#531=ORIENTED_EDGE('',*,*,#361,.F.);
#532=ORIENTED_EDGE('',*,*,#419,.F.);
#533=ORIENTED_EDGE('',*,*,#365,.F.);
#534=ORIENTED_EDGE('',*,*,#367,.T.);
#535=ORIENTED_EDGE('',*,*,#370,.T.);
#536=ORIENTED_EDGE('',*,*,#373,.T.);
#537=ORIENTED_EDGE('',*,*,#376,.T.);
#538=ORIENTED_EDGE('',*,*,#379,.T.);
#539=ORIENTED_EDGE('',*,*,#382,.T.);
#540=ORIENTED_EDGE('',*,*,#385,.T.);
#541=ORIENTED_EDGE('',*,*,#388,.T.);
#542=ORIENTED_EDGE('',*,*,#391,.T.);
#543=ORIENTED_EDGE('',*,*,#394,.T.);
#544=ORIENTED_EDGE('',*,*,#397,.T.);
#545=ORIENTED_EDGE('',*,*,#400,.T.);
#546=ORIENTED_EDGE('',*,*,#403,.T.);
#547=ORIENTED_EDGE('',*,*,#406,.T.);
#548=ORIENTED_EDGE('',*,*,#409,.T.);
#549=ORIENTED_EDGE('',*,*,#412,.T.);
#550=ORIENTED_EDGE('',*,*,#415,.T.);
#551=ORIENTED_EDGE('',*,*,#356,.T.);
#552=ORIENTED_EDGE('',*,*,#353,.T.);
#553=ORIENTED_EDGE('',*,*,#350,.T.);
#554=ORIENTED_EDGE('',*,*,#347,.T.);
#555=ORIENTED_EDGE('',*,*,#344,.T.);
#556=ORIENTED_EDGE('',*,*,#341,.T.);
#557=ORIENTED_EDGE('',*,*,#420,.F.);
#558=ORIENTED_EDGE('',*,*,#363,.F.);
#559=ORIENTED_EDGE('',*,*,#418,.T.);
#560=ORIENTED_EDGE('',*,*,#359,.F.);
#561=ORIENTED_EDGE('',*,*,#369,.F.);
#562=ORIENTED_EDGE('',*,*,#372,.F.);
#563=ORIENTED_EDGE('',*,*,#375,.F.);
#564=ORIENTED_EDGE('',*,*,#378,.F.);
#565=ORIENTED_EDGE('',*,*,#381,.F.);
#566=ORIENTED_EDGE('',*,*,#384,.F.);
#567=ORIENTED_EDGE('',*,*,#387,.F.);
#568=ORIENTED_EDGE('',*,*,#390,.F.);
#569=ORIENTED_EDGE('',*,*,#393,.F.);
#570=ORIENTED_EDGE('',*,*,#396,.F.);
#571=ORIENTED_EDGE('',*,*,#399,.F.);
#572=ORIENTED_EDGE('',*,*,#402,.F.);
#573=ORIENTED_EDGE('',*,*,#405,.F.);
#574=ORIENTED_EDGE('',*,*,#408,.F.);
#575=ORIENTED_EDGE('',*,*,#411,.F.);
#576=ORIENTED_EDGE('',*,*,#414,.F.);
#577=ORIENTED_EDGE('',*,*,#417,.F.);
#578=ORIENTED_EDGE('',*,*,#358,.T.);
#579=ORIENTED_EDGE('',*,*,#355,.T.);
#580=ORIENTED_EDGE('',*,*,#352,.T.);
#581=ORIENTED_EDGE('',*,*,#349,.T.);
#582=ORIENTED_EDGE('',*,*,#346,.T.);
#583=ORIENTED_EDGE('',*,*,#343,.T.);
#584=CYLINDRICAL_SURFACE('',#650,2.65);
#585=CYLINDRICAL_SURFACE('',#653,2.65);
#586=CYLINDRICAL_SURFACE('',#656,2.65);
#587=CYLINDRICAL_SURFACE('',#659,2.65);
#588=CYLINDRICAL_SURFACE('',#662,2.65);
#589=CYLINDRICAL_SURFACE('',#665,2.65);
#590=CYLINDRICAL_SURFACE('',#670,1.65);
#591=CYLINDRICAL_SURFACE('',#673,2.15000000000001);
#592=CYLINDRICAL_SURFACE('',#676,2.15);
#593=CYLINDRICAL_SURFACE('',#679,1.65);
#594=CYLINDRICAL_SURFACE('',#682,2.15);
#595=CYLINDRICAL_SURFACE('',#685,24.);
#596=CYLINDRICAL_SURFACE('',#688,1.65);
#597=CYLINDRICAL_SURFACE('',#691,2.15);
#598=CYLINDRICAL_SURFACE('',#694,2.15);
#599=CYLINDRICAL_SURFACE('',#697,1.65);
#600=CYLINDRICAL_SURFACE('',#700,2.15);
#601=CYLINDRICAL_SURFACE('',#703,2.15);
#602=CYLINDRICAL_SURFACE('',#706,2.15);
#603=CYLINDRICAL_SURFACE('',#709,2.15);
#604=CYLINDRICAL_SURFACE('',#712,1.65);
#605=CYLINDRICAL_SURFACE('',#715,1.65);
#606=CYLINDRICAL_SURFACE('',#718,2.15);
#607=ADVANCED_FACE('',(#67),#584,.F.);
#608=ADVANCED_FACE('',(#68),#585,.F.);
#609=ADVANCED_FACE('',(#69),#586,.F.);
#610=ADVANCED_FACE('',(#70),#587,.F.);
#611=ADVANCED_FACE('',(#71),#588,.F.);
#612=ADVANCED_FACE('',(#72),#589,.F.);
#613=ADVANCED_FACE('',(#73),#61,.T.);
#614=ADVANCED_FACE('',(#74),#62,.T.);
#615=ADVANCED_FACE('',(#75),#590,.F.);
#616=ADVANCED_FACE('',(#76),#591,.F.);
#617=ADVANCED_FACE('',(#77),#592,.F.);
#618=ADVANCED_FACE('',(#78),#593,.F.);
#619=ADVANCED_FACE('',(#79),#594,.F.);
#620=ADVANCED_FACE('',(#80),#595,.F.);
#621=ADVANCED_FACE('',(#81),#596,.F.);
#622=ADVANCED_FACE('',(#82),#597,.F.);
#623=ADVANCED_FACE('',(#83),#598,.F.);
#624=ADVANCED_FACE('',(#84),#599,.F.);
#625=ADVANCED_FACE('',(#85),#600,.F.);
#626=ADVANCED_FACE('',(#86),#601,.F.);
#627=ADVANCED_FACE('',(#87),#602,.F.);
#628=ADVANCED_FACE('',(#88),#603,.F.);
#629=ADVANCED_FACE('',(#89),#604,.F.);
#630=ADVANCED_FACE('',(#90),#605,.F.);
#631=ADVANCED_FACE('',(#91),#606,.F.);
#632=ADVANCED_FACE('',(#92),#63,.T.);
#633=ADVANCED_FACE('',(#93),#64,.T.);
#634=ADVANCED_FACE('',(#94,#15,#16,#17,#18,#19,#20,#21,#22,#23,#24,#25,
#26,#27,#28,#29,#30,#31,#32,#33,#34,#35,#36,#37),#65,.T.);
#635=ADVANCED_FACE('',(#95,#38,#39,#40,#41,#42,#43,#44,#45,#46,#47,#48,
#49,#50,#51,#52,#53,#54,#55,#56,#57,#58,#59,#60),#66,.F.);
#636=CLOSED_SHELL('',(#607,#608,#609,#610,#611,#612,#613,#614,#615,#616,
#617,#618,#619,#620,#621,#622,#623,#624,#625,#626,#627,#628,#629,#630,#631,
#632,#633,#634,#635));
#637=DERIVED_UNIT_ELEMENT(#639,1.);
#638=DERIVED_UNIT_ELEMENT(#1082,-3.);
#639=(
MASS_UNIT()
NAMED_UNIT(*)
SI_UNIT(.KILO.,.GRAM.)
);
#640=DERIVED_UNIT((#637,#638));
#641=MEASURE_REPRESENTATION_ITEM('density measure',
POSITIVE_RATIO_MEASURE(7850.),#640);
#642=PROPERTY_DEFINITION_REPRESENTATION(#647,#644);
#643=PROPERTY_DEFINITION_REPRESENTATION(#648,#645);
#644=REPRESENTATION('material name',(#646),#1079);
#645=REPRESENTATION('density',(#641),#1079);
#646=DESCRIPTIVE_REPRESENTATION_ITEM('Steel','Steel');
#647=PROPERTY_DEFINITION('material property','material name',#1089);
#648=PROPERTY_DEFINITION('material property','density of part',#1089);
#649=AXIS2_PLACEMENT_3D('',#912,#725,#726);
#650=AXIS2_PLACEMENT_3D('',#913,#727,#728);
#651=AXIS2_PLACEMENT_3D('',#915,#729,#730);
#652=AXIS2_PLACEMENT_3D('',#918,#732,#733);
#653=AXIS2_PLACEMENT_3D('',#919,#734,#735);
#654=AXIS2_PLACEMENT_3D('',#921,#736,#737);
#655=AXIS2_PLACEMENT_3D('',#924,#739,#740);
#656=AXIS2_PLACEMENT_3D('',#925,#741,#742);
#657=AXIS2_PLACEMENT_3D('',#927,#743,#744);
#658=AXIS2_PLACEMENT_3D('',#930,#746,#747);
#659=AXIS2_PLACEMENT_3D('',#931,#748,#749);
#660=AXIS2_PLACEMENT_3D('',#933,#750,#751);
#661=AXIS2_PLACEMENT_3D('',#936,#753,#754);
#662=AXIS2_PLACEMENT_3D('',#937,#755,#756);
#663=AXIS2_PLACEMENT_3D('',#939,#757,#758);
#664=AXIS2_PLACEMENT_3D('',#942,#760,#761);
#665=AXIS2_PLACEMENT_3D('',#943,#762,#763);
#666=AXIS2_PLACEMENT_3D('',#945,#764,#765);
#667=AXIS2_PLACEMENT_3D('',#948,#767,#768);
#668=AXIS2_PLACEMENT_3D('',#949,#769,#770);
#669=AXIS2_PLACEMENT_3D('',#958,#775,#776);
#670=AXIS2_PLACEMENT_3D('',#967,#781,#782);
#671=AXIS2_PLACEMENT_3D('',#969,#783,#784);
#672=AXIS2_PLACEMENT_3D('',#972,#786,#787);
#673=AXIS2_PLACEMENT_3D('',#973,#788,#789);
#674=AXIS2_PLACEMENT_3D('',#975,#790,#791);
#675=AXIS2_PLACEMENT_3D('',#978,#793,#794);
#676=AXIS2_PLACEMENT_3D('',#979,#795,#796);
#677=AXIS2_PLACEMENT_3D('',#981,#797,#798);
#678=AXIS2_PLACEMENT_3D('',#984,#800,#801);
#679=AXIS2_PLACEMENT_3D('',#985,#802,#803);
#680=AXIS2_PLACEMENT_3D('',#987,#804,#805);
#681=AXIS2_PLACEMENT_3D('',#990,#807,#808);
#682=AXIS2_PLACEMENT_3D('',#991,#809,#810);
#683=AXIS2_PLACEMENT_3D('',#993,#811,#812);
#684=AXIS2_PLACEMENT_3D('',#996,#814,#815);
#685=AXIS2_PLACEMENT_3D('',#997,#816,#817);
#686=AXIS2_PLACEMENT_3D('',#999,#818,#819);
#687=AXIS2_PLACEMENT_3D('',#1002,#821,#822);
#688=AXIS2_PLACEMENT_3D('',#1003,#823,#824);
#689=AXIS2_PLACEMENT_3D('',#1005,#825,#826);
#690=AXIS2_PLACEMENT_3D('',#1008,#828,#829);
#691=AXIS2_PLACEMENT_3D('',#1009,#830,#831);
#692=AXIS2_PLACEMENT_3D('',#1011,#832,#833);
#693=AXIS2_PLACEMENT_3D('',#1014,#835,#836);
#694=AXIS2_PLACEMENT_3D('',#1015,#837,#838);
#695=AXIS2_PLACEMENT_3D('',#1017,#839,#840);
#696=AXIS2_PLACEMENT_3D('',#1020,#842,#843);
#697=AXIS2_PLACEMENT_3D('',#1021,#844,#845);
#698=AXIS2_PLACEMENT_3D('',#1023,#846,#847);
#699=AXIS2_PLACEMENT_3D('',#1026,#849,#850);
#700=AXIS2_PLACEMENT_3D('',#1027,#851,#852);
#701=AXIS2_PLACEMENT_3D('',#1029,#853,#854);
#702=AXIS2_PLACEMENT_3D('',#1032,#856,#857);
#703=AXIS2_PLACEMENT_3D('',#1033,#858,#859);
#704=AXIS2_PLACEMENT_3D('',#1035,#860,#861);
#705=AXIS2_PLACEMENT_3D('',#1038,#863,#864);
#706=AXIS2_PLACEMENT_3D('',#1039,#865,#866);
#707=AXIS2_PLACEMENT_3D('',#1041,#867,#868);
#708=AXIS2_PLACEMENT_3D('',#1044,#870,#871);
#709=AXIS2_PLACEMENT_3D('',#1045,#872,#873);
#710=AXIS2_PLACEMENT_3D('',#1047,#874,#875);
#711=AXIS2_PLACEMENT_3D('',#1050,#877,#878);
#712=AXIS2_PLACEMENT_3D('',#1051,#879,#880);
#713=AXIS2_PLACEMENT_3D('',#1053,#881,#882);
#714=AXIS2_PLACEMENT_3D('',#1056,#884,#885);
#715=AXIS2_PLACEMENT_3D('',#1057,#886,#887);
#716=AXIS2_PLACEMENT_3D('',#1059,#888,#889);
#717=AXIS2_PLACEMENT_3D('',#1062,#891,#892);
#718=AXIS2_PLACEMENT_3D('',#1063,#893,#894);
#719=AXIS2_PLACEMENT_3D('',#1065,#895,#896);
#720=AXIS2_PLACEMENT_3D('',#1068,#898,#899);
#721=AXIS2_PLACEMENT_3D('',#1069,#900,#901);
#722=AXIS2_PLACEMENT_3D('',#1072,#904,#905);
#723=AXIS2_PLACEMENT_3D('',#1075,#908,#909);
#724=AXIS2_PLACEMENT_3D('',#1076,#910,#911);
#725=DIRECTION('axis',(0.,0.,1.));
#726=DIRECTION('refdir',(1.,0.,0.));
#727=DIRECTION('center_axis',(0.,0.,1.));
#728=DIRECTION('ref_axis',(1.,0.,0.));
#729=DIRECTION('center_axis',(3.05311331771918E-16,-8.96114200012005E-59,
1.));
#730=DIRECTION('ref_axis',(1.,0.,0.));
#731=DIRECTION('',(0.,0.,1.));
#732=DIRECTION('center_axis',(-3.05311331771918E-16,8.96114200012005E-59,
-1.));
#733=DIRECTION('ref_axis',(1.,0.,0.));
#734=DIRECTION('center_axis',(0.,0.,1.));
#735=DIRECTION('ref_axis',(1.,0.,0.));
#736=DIRECTION('center_axis',(3.05311331771918E-16,-8.96114200012005E-59,
1.));
#737=DIRECTION('ref_axis',(1.,0.,0.));
#738=DIRECTION('',(0.,0.,1.));
#739=DIRECTION('center_axis',(-3.05311331771918E-16,8.96114200012005E-59,
-1.));
#740=DIRECTION('ref_axis',(1.,0.,0.));
#741=DIRECTION('center_axis',(0.,0.,1.));
#742=DIRECTION('ref_axis',(1.,0.,0.));
#743=DIRECTION('center_axis',(3.05311331771918E-16,-8.96114200012005E-59,
1.));
#744=DIRECTION('ref_axis',(1.,0.,0.));
#745=DIRECTION('',(0.,0.,1.));
#746=DIRECTION('center_axis',(-3.05311331771918E-16,8.96114200012005E-59,
-1.));
#747=DIRECTION('ref_axis',(1.,0.,0.));
#748=DIRECTION('center_axis',(0.,0.,1.));
#749=DIRECTION('ref_axis',(1.,0.,0.));
#750=DIRECTION('center_axis',(3.05311331771918E-16,-8.96114200012005E-59,
1.));
#751=DIRECTION('ref_axis',(1.,0.,0.));
#752=DIRECTION('',(0.,0.,1.));
#753=DIRECTION('center_axis',(-3.05311331771918E-16,8.96114200012005E-59,
-1.));
#754=DIRECTION('ref_axis',(1.,0.,0.));
#755=DIRECTION('center_axis',(0.,0.,1.));
#756=DIRECTION('ref_axis',(1.,0.,0.));
#757=DIRECTION('center_axis',(3.05311331771918E-16,-8.96114200012005E-59,
1.));
#758=DIRECTION('ref_axis',(1.,0.,0.));
#759=DIRECTION('',(0.,0.,1.));
#760=DIRECTION('center_axis',(-3.05311331771918E-16,8.96114200012005E-59,
-1.));
#761=DIRECTION('ref_axis',(1.,0.,0.));
#762=DIRECTION('center_axis',(0.,0.,1.));
#763=DIRECTION('ref_axis',(1.,0.,0.));
#764=DIRECTION('center_axis',(3.05311331771918E-16,-8.96114200012005E-59,
1.));
#765=DIRECTION('ref_axis',(1.,0.,0.));
#766=DIRECTION('',(0.,0.,1.));
#767=DIRECTION('center_axis',(-3.05311331771918E-16,8.96114200012005E-59,
-1.));
#768=DIRECTION('ref_axis',(1.,0.,0.));
#769=DIRECTION('center_axis',(0.,1.,0.));
#770=DIRECTION('ref_axis',(0.,0.,1.));
#771=DIRECTION('',(1.,0.,-3.05311331771918E-16));
#772=DIRECTION('',(0.,0.,-1.));
#773=DIRECTION('',(-1.,0.,3.05311331771918E-16));
#774=DIRECTION('',(0.,0.,1.));
#775=DIRECTION('center_axis',(0.,-1.,0.));
#776=DIRECTION('ref_axis',(0.,0.,-1.));
#777=DIRECTION('',(-1.,0.,3.05311331771918E-16));
#778=DIRECTION('',(0.,0.,-1.));
#779=DIRECTION('',(1.,0.,-3.05311331771918E-16));
#780=DIRECTION('',(0.,0.,1.));
#781=DIRECTION('center_axis',(0.,0.,-1.));
#782=DIRECTION('ref_axis',(1.,0.,0.));
#783=DIRECTION('center_axis',(3.05311331771918E-16,-8.96114200012005E-59,
1.));
#784=DIRECTION('ref_axis',(1.,0.,-3.05311331771917E-16));
#785=DIRECTION('',(0.,0.,1.));
#786=DIRECTION('center_axis',(3.05311331771918E-16,-8.96114200012005E-59,
1.));
#787=DIRECTION('ref_axis',(1.,0.,-3.05311331771917E-16));
#788=DIRECTION('center_axis',(0.,0.,-1.));
#789=DIRECTION('ref_axis',(1.,6.06075763836136E-165,0.));
#790=DIRECTION('center_axis',(3.05311331771918E-16,-2.30432769386193E-64,
1.));
#791=DIRECTION('ref_axis',(1.,6.06075763836136E-165,-3.05311331771918E-16));
#792=DIRECTION('',(0.,0.,1.));
#793=DIRECTION('center_axis',(3.05311331771918E-16,-2.30432769386193E-64,
1.));
#794=DIRECTION('ref_axis',(1.,6.06075763836136E-165,-3.05311331771918E-16));
#795=DIRECTION('center_axis',(0.,0.,-1.));
#796=DIRECTION('ref_axis',(1.,6.06075763836137E-165,0.));
#797=DIRECTION('center_axis',(3.05311331771918E-16,-2.30432769386193E-64,
1.));
#798=DIRECTION('ref_axis',(1.,6.06075763836137E-165,-3.05311331771918E-16));
#799=DIRECTION('',(0.,0.,1.));
#800=DIRECTION('center_axis',(3.05311331771918E-16,-2.30432769386193E-64,
1.));
#801=DIRECTION('ref_axis',(1.,6.06075763836137E-165,-3.05311331771918E-16));
#802=DIRECTION('center_axis',(0.,0.,-1.));
#803=DIRECTION('ref_axis',(1.,0.,0.));
#804=DIRECTION('center_axis',(3.05311331771918E-16,-8.96114200012005E-59,
1.));
#805=DIRECTION('ref_axis',(1.,0.,-3.05311331771917E-16));
#806=DIRECTION('',(0.,0.,1.));
#807=DIRECTION('center_axis',(3.05311331771918E-16,-8.96114200012005E-59,
1.));
#808=DIRECTION('ref_axis',(1.,0.,-3.05311331771917E-16));
#809=DIRECTION('center_axis',(0.,0.,-1.));
#810=DIRECTION('ref_axis',(1.,6.06075763836137E-165,0.));
#811=DIRECTION('center_axis',(3.05311331771918E-16,-2.30432769386193E-64,
1.));
#812=DIRECTION('ref_axis',(1.,6.06075763836137E-165,-3.05311331771918E-16));
#813=DIRECTION('',(0.,0.,1.));
#814=DIRECTION('center_axis',(3.05311331771918E-16,-2.30432769386193E-64,
1.));
#815=DIRECTION('ref_axis',(1.,6.06075763836137E-165,-3.05311331771918E-16));
#816=DIRECTION('center_axis',(0.,0.,-1.));
#817=DIRECTION('ref_axis',(1.,6.06075763836137E-165,0.));
#818=DIRECTION('center_axis',(-3.05311331771918E-16,8.96114200012005E-59,
-1.));
#819=DIRECTION('ref_axis',(1.,6.06075763836137E-165,0.));
#820=DIRECTION('',(0.,0.,1.));
#821=DIRECTION('center_axis',(-3.05311331771918E-16,8.96114200012005E-59,
-1.));
#822=DIRECTION('ref_axis',(1.,6.06075763836137E-165,0.));
#823=DIRECTION('center_axis',(0.,0.,-1.));
#824=DIRECTION('ref_axis',(1.,0.,0.));
#825=DIRECTION('center_axis',(3.05311331771918E-16,-8.96114200012005E-59,
1.));
#826=DIRECTION('ref_axis',(1.,0.,-3.05311331771917E-16));
#827=DIRECTION('',(0.,0.,1.));
#828=DIRECTION('center_axis',(3.05311331771918E-16,-8.96114200012005E-59,
1.));
#829=DIRECTION('ref_axis',(1.,0.,-3.05311331771917E-16));
#830=DIRECTION('center_axis',(0.,0.,-1.));
#831=DIRECTION('ref_axis',(1.,6.06075763836137E-165,0.));
#832=DIRECTION('center_axis',(3.05311331771918E-16,-2.30432769386193E-64,
1.));
#833=DIRECTION('ref_axis',(1.,6.06075763836137E-165,-3.05311331771918E-16));
#834=DIRECTION('',(0.,0.,1.));
#835=DIRECTION('center_axis',(3.05311331771918E-16,-2.30432769386193E-64,
1.));
#836=DIRECTION('ref_axis',(1.,6.06075763836137E-165,-3.05311331771918E-16));
#837=DIRECTION('center_axis',(0.,0.,-1.));
#838=DIRECTION('ref_axis',(1.,6.06075763836137E-165,0.));
#839=DIRECTION('center_axis',(3.05311331771918E-16,-2.30432769386193E-64,
1.));
#840=DIRECTION('ref_axis',(1.,6.06075763836137E-165,-3.05311331771918E-16));
#841=DIRECTION('',(0.,0.,1.));
#842=DIRECTION('center_axis',(3.05311331771918E-16,-2.30432769386193E-64,
1.));
#843=DIRECTION('ref_axis',(1.,6.06075763836137E-165,-3.05311331771918E-16));
#844=DIRECTION('center_axis',(0.,0.,-1.));
#845=DIRECTION('ref_axis',(1.,0.,0.));
#846=DIRECTION('center_axis',(3.05311331771918E-16,-8.96114200012005E-59,
1.));
#847=DIRECTION('ref_axis',(1.,0.,-3.05311331771917E-16));
#848=DIRECTION('',(0.,0.,1.));
#849=DIRECTION('center_axis',(3.05311331771918E-16,-8.96114200012005E-59,
1.));
#850=DIRECTION('ref_axis',(1.,0.,-3.05311331771917E-16));
#851=DIRECTION('center_axis',(0.,0.,-1.));
#852=DIRECTION('ref_axis',(1.,6.06075763836137E-165,0.));
#853=DIRECTION('center_axis',(3.05311331771918E-16,-2.30432769386193E-64,
1.));
#854=DIRECTION('ref_axis',(1.,6.06075763836137E-165,-3.05311331771918E-16));
#855=DIRECTION('',(0.,0.,1.));
#856=DIRECTION('center_axis',(3.05311331771918E-16,-2.30432769386193E-64,
1.));
#857=DIRECTION('ref_axis',(1.,6.06075763836137E-165,-3.05311331771918E-16));
#858=DIRECTION('center_axis',(0.,0.,-1.));
#859=DIRECTION('ref_axis',(1.,6.06075763836137E-165,0.));
#860=DIRECTION('center_axis',(3.05311331771918E-16,-2.30432769386193E-64,
1.));
#861=DIRECTION('ref_axis',(1.,6.06075763836137E-165,-3.05311331771918E-16));
#862=DIRECTION('',(0.,0.,1.));
#863=DIRECTION('center_axis',(3.05311331771918E-16,-2.30432769386193E-64,
1.));
#864=DIRECTION('ref_axis',(1.,6.06075763836137E-165,-3.05311331771918E-16));
#865=DIRECTION('center_axis',(0.,0.,-1.));
#866=DIRECTION('ref_axis',(1.,6.06075763836137E-165,0.));
#867=DIRECTION('center_axis',(3.05311331771918E-16,-2.30432769386193E-64,
1.));
#868=DIRECTION('ref_axis',(1.,6.06075763836137E-165,-3.05311331771918E-16));
#869=DIRECTION('',(0.,0.,1.));
#870=DIRECTION('center_axis',(3.05311331771918E-16,-2.30432769386193E-64,
1.));
#871=DIRECTION('ref_axis',(1.,6.06075763836137E-165,-3.05311331771918E-16));
#872=DIRECTION('center_axis',(0.,0.,-1.));
#873=DIRECTION('ref_axis',(1.,6.06075763836137E-165,0.));
#874=DIRECTION('center_axis',(3.05311331771918E-16,-2.30432769386193E-64,
1.));
#875=DIRECTION('ref_axis',(1.,6.06075763836137E-165,-3.05311331771918E-16));
#876=DIRECTION('',(0.,0.,1.));
#877=DIRECTION('center_axis',(3.05311331771918E-16,-2.30432769386193E-64,
1.));
#878=DIRECTION('ref_axis',(1.,6.06075763836137E-165,-3.05311331771918E-16));
#879=DIRECTION('center_axis',(0.,0.,-1.));
#880=DIRECTION('ref_axis',(1.,0.,0.));
#881=DIRECTION('center_axis',(3.05311331771918E-16,-8.96114200012005E-59,
1.));
#882=DIRECTION('ref_axis',(1.,0.,-3.05311331771917E-16));
#883=DIRECTION('',(0.,0.,1.));
#884=DIRECTION('center_axis',(3.05311331771918E-16,-8.96114200012005E-59,
1.));
#885=DIRECTION('ref_axis',(1.,0.,-3.05311331771917E-16));
#886=DIRECTION('center_axis',(0.,0.,-1.));
#887=DIRECTION('ref_axis',(1.,0.,0.));
#888=DIRECTION('center_axis',(3.05311331771918E-16,-8.96114200012005E-59,
1.));
#889=DIRECTION('ref_axis',(1.,0.,-3.05311331771917E-16));
#890=DIRECTION('',(0.,0.,1.));
#891=DIRECTION('center_axis',(3.05311331771918E-16,-8.96114200012005E-59,
1.));
#892=DIRECTION('ref_axis',(1.,0.,-3.05311331771917E-16));
#893=DIRECTION('center_axis',(0.,0.,-1.));
#894=DIRECTION('ref_axis',(1.,6.06075763836137E-165,0.));
#895=DIRECTION('center_axis',(3.05311331771918E-16,-2.30432769386193E-64,
1.));
#896=DIRECTION('ref_axis',(1.,6.06075763836137E-165,-3.05311331771918E-16));
#897=DIRECTION('',(0.,0.,1.));
#898=DIRECTION('center_axis',(3.05311331771918E-16,-2.30432769386193E-64,
1.));
#899=DIRECTION('ref_axis',(1.,6.06075763836137E-165,-3.05311331771918E-16));
#900=DIRECTION('center_axis',(1.,-2.73593819825392E-74,0.));
#901=DIRECTION('ref_axis',(-2.73593819825392E-74,-1.,-8.96114200012005E-59));
#902=DIRECTION('',(0.,1.,0.));
#903=DIRECTION('',(0.,1.,0.));
#904=DIRECTION('center_axis',(-1.,2.73593819825392E-74,0.));
#905=DIRECTION('ref_axis',(2.73593819825392E-74,1.,8.96114200012005E-59));
#906=DIRECTION('',(2.73593819825392E-74,1.,8.96114200012005E-59));
#907=DIRECTION('',(0.,-1.,0.));
#908=DIRECTION('center_axis',(-3.05311331771918E-16,8.96114200012005E-59,
-1.));
#909=DIRECTION('ref_axis',(1.,0.,-3.05311331771918E-16));
#910=DIRECTION('center_axis',(-3.05311331771918E-16,8.96114200012005E-59,
-1.));
#911=DIRECTION('ref_axis',(1.,0.,-3.05311331771918E-16));
#912=CARTESIAN_POINT('',(0.,0.,0.));
#913=CARTESIAN_POINT('Origin',(21.8250000000001,53.65,-1.11022302462516E-14));
#914=CARTESIAN_POINT('',(19.1750000000001,53.65,-1.11022302462516E-14));
#915=CARTESIAN_POINT('Origin',(21.8250000000001,53.65,-1.11022302462516E-14));
#916=CARTESIAN_POINT('',(19.1750000000001,53.65,6.34999999999999));
#917=CARTESIAN_POINT('',(19.1750000000001,53.65,-1.11022302462516E-14));
#918=CARTESIAN_POINT('Origin',(21.8250000000001,53.65,6.34999999999999));
#919=CARTESIAN_POINT('Origin',(-21.8250000000023,-53.650000000001,-1.11022302462516E-14));
#920=CARTESIAN_POINT('',(-24.4750000000023,-53.650000000001,-1.11022302462516E-14));
#921=CARTESIAN_POINT('Origin',(-21.8250000000023,-53.650000000001,-1.11022302462516E-14));
#922=CARTESIAN_POINT('',(-24.4750000000023,-53.650000000001,6.34999999999999));
#923=CARTESIAN_POINT('',(-24.4750000000023,-53.650000000001,-1.11022302462516E-14));
#924=CARTESIAN_POINT('Origin',(-21.8250000000023,-53.650000000001,6.34999999999999));
#925=CARTESIAN_POINT('Origin',(8.88178419700125E-14,53.65,-1.11022302462516E-14));
#926=CARTESIAN_POINT('',(-2.64999999999991,53.65,-1.11022302462516E-14));
#927=CARTESIAN_POINT('Origin',(8.88178419700125E-14,53.65,-1.11022302462516E-14));
#928=CARTESIAN_POINT('',(-2.64999999999991,53.65,6.34999999999999));
#929=CARTESIAN_POINT('',(-2.64999999999991,53.65,-1.11022302462516E-14));
#930=CARTESIAN_POINT('Origin',(8.88178419700125E-14,53.65,6.34999999999999));
#931=CARTESIAN_POINT('Origin',(21.8249999999977,-53.6500000000029,-1.11022302462516E-14));
#932=CARTESIAN_POINT('',(19.1749999999977,-53.6500000000029,-1.11022302462516E-14));
#933=CARTESIAN_POINT('Origin',(21.8249999999977,-53.6500000000029,-1.11022302462516E-14));
#934=CARTESIAN_POINT('',(19.1749999999977,-53.6500000000029,6.34999999999999));
#935=CARTESIAN_POINT('',(19.1749999999977,-53.6500000000029,-1.11022302462516E-14));
#936=CARTESIAN_POINT('Origin',(21.8249999999977,-53.6500000000029,6.34999999999999));
#937=CARTESIAN_POINT('Origin',(-2.26485497023532E-12,-53.6500000000019,
-1.11022302462516E-14));
#938=CARTESIAN_POINT('',(-2.65000000000226,-53.6500000000019,-1.11022302462516E-14));
#939=CARTESIAN_POINT('Origin',(-2.26485497023532E-12,-53.6500000000019,
-1.11022302462516E-14));
#940=CARTESIAN_POINT('',(-2.65000000000226,-53.6500000000019,6.34999999999999));
#941=CARTESIAN_POINT('',(-2.65000000000226,-53.6500000000019,-1.11022302462516E-14));
#942=CARTESIAN_POINT('Origin',(-2.26485497023532E-12,-53.6500000000019,
6.34999999999999));
#943=CARTESIAN_POINT('Origin',(-21.8249999999999,53.65,-1.11022302462516E-14));
#944=CARTESIAN_POINT('',(-24.4749999999999,53.65,-1.11022302462516E-14));
#945=CARTESIAN_POINT('Origin',(-21.8249999999999,53.65,-1.11022302462516E-14));
#946=CARTESIAN_POINT('',(-24.4749999999999,53.65,6.34999999999999));
#947=CARTESIAN_POINT('',(-24.4749999999999,53.65,-1.11022302462516E-14));
#948=CARTESIAN_POINT('Origin',(-21.8249999999999,53.65,6.34999999999999));
#949=CARTESIAN_POINT('Origin',(-43.6499999999999,63.65,6.35));
#950=CARTESIAN_POINT('',(-43.6499999999999,63.65,6.35));
#951=CARTESIAN_POINT('',(43.6500000000002,63.65,6.34999999999998));
#952=CARTESIAN_POINT('',(-43.6499999999999,63.65,6.35));
#953=CARTESIAN_POINT('',(43.6500000000002,63.65,-2.44249065417534E-14));
#954=CARTESIAN_POINT('',(43.6500000000002,63.65,6.34999999999998));
#955=CARTESIAN_POINT('',(-43.6499999999999,63.65,2.22044604925031E-15));
#956=CARTESIAN_POINT('',(-43.6499999999999,63.65,2.22044604925031E-15));
#957=CARTESIAN_POINT('',(-43.6499999999999,63.65,6.35));
#958=CARTESIAN_POINT('Origin',(43.6500000000002,-63.65,6.34999999999998));
#959=CARTESIAN_POINT('',(43.6500000000002,-63.65,6.34999999999998));
#960=CARTESIAN_POINT('',(-43.6499999999999,-63.65,6.35));
#961=CARTESIAN_POINT('',(43.6500000000002,-63.65,6.34999999999998));
#962=CARTESIAN_POINT('',(-43.6499999999999,-63.65,2.22044604925031E-15));
#963=CARTESIAN_POINT('',(-43.6499999999999,-63.65,6.35));
#964=CARTESIAN_POINT('',(43.6500000000002,-63.65,-2.44249065417534E-14));
#965=CARTESIAN_POINT('',(43.6500000000002,-63.65,-2.44249065417534E-14));
#966=CARTESIAN_POINT('',(43.6500000000002,-63.65,6.34999999999998));
#967=CARTESIAN_POINT('Origin',(-21.8322666288908,18.3194468760664,6.35));
#968=CARTESIAN_POINT('',(-23.4822666288908,18.3194468760664,-4.44089209850063E-15));
#969=CARTESIAN_POINT('Origin',(-21.8322666288908,18.3194468760664,-4.44089209850063E-15));
#970=CARTESIAN_POINT('',(-23.4822666288908,18.3194468760664,6.35));
#971=CARTESIAN_POINT('',(-23.4822666288908,18.3194468760664,6.35));
#972=CARTESIAN_POINT('Origin',(-21.8322666288908,18.3194468760664,6.35));
#973=CARTESIAN_POINT('Origin',(39.3250000000001,2.03073633856813E-13,6.34999999999998));
#974=CARTESIAN_POINT('',(37.1750000000001,2.04281036531029E-13,-2.22044604925031E-14));
#975=CARTESIAN_POINT('Origin',(39.3250000000001,2.03073633856813E-13,-2.33146835171283E-14));
#976=CARTESIAN_POINT('',(37.1750000000001,2.0333693291863E-13,6.34999999999998));
#977=CARTESIAN_POINT('',(37.1750000000001,2.0333693291863E-13,6.34999999999998));
#978=CARTESIAN_POINT('Origin',(39.3250000000001,2.03073633856813E-13,6.34999999999998));
#979=CARTESIAN_POINT('Origin',(12.1520933037947,37.4002975033069,6.34999999999999));
#980=CARTESIAN_POINT('',(10.0020933037947,37.4002975033069,-1.4432899320127E-14));
#981=CARTESIAN_POINT('Origin',(12.1520933037947,37.4002975033069,-1.4432899320127E-14));
#982=CARTESIAN_POINT('',(10.0020933037947,37.4002975033069,6.34999999999999));
#983=CARTESIAN_POINT('',(10.0020933037947,37.4002975033069,6.34999999999999));
#984=CARTESIAN_POINT('Origin',(12.1520933037947,37.4002975033069,6.34999999999999));
#985=CARTESIAN_POINT('Origin',(26.7812396923986,9.74757408478157,6.34999999999998));
#986=CARTESIAN_POINT('',(25.1312396923986,9.74757408478157,-1.88737914186277E-14));
#987=CARTESIAN_POINT('Origin',(26.7812396923986,9.74757408478157,-1.88737914186277E-14));
#988=CARTESIAN_POINT('',(25.1312396923986,9.74757408478157,6.34999999999998));
#989=CARTESIAN_POINT('',(25.1312396923986,9.74757408478157,6.34999999999998));
#990=CARTESIAN_POINT('Origin',(26.7812396923986,9.74757408478157,6.34999999999998));
#991=CARTESIAN_POINT('Origin',(31.8145933037948,23.1146550464016,6.34999999999998));
#992=CARTESIAN_POINT('',(29.6645933037948,23.1146550464016,-1.99840144432528E-14));
#993=CARTESIAN_POINT('Origin',(31.8145933037948,23.1146550464016,-2.1094237467878E-14));
#994=CARTESIAN_POINT('',(29.6645933037948,23.1146550464016,6.34999999999998));
#995=CARTESIAN_POINT('',(29.6645933037948,23.1146550464016,6.34999999999998));
#996=CARTESIAN_POINT('Origin',(31.8145933037948,23.1146550464016,6.34999999999998));
#997=CARTESIAN_POINT('Origin',(1.28258514919821E-13,-1.26217744835362E-28,
6.34999999999999));
#998=CARTESIAN_POINT('',(-23.9999999999999,2.93915231795352E-15,-1.11022302462516E-14));
#999=CARTESIAN_POINT('Origin',(1.28258514919821E-13,-1.26217744835362E-28,
-1.11022302462516E-14));
#1000=CARTESIAN_POINT('',(-23.9999999999999,2.93915231795352E-15,6.34999999999999));
#1001=CARTESIAN_POINT('',(-23.9999999999999,2.93915231795352E-15,6.34999999999999));
#1002=CARTESIAN_POINT('Origin',(1.28258514919821E-13,-1.26217744835362E-28,
6.34999999999999));
#1003=CARTESIAN_POINT('Origin',(-26.7812396923983,-9.74757408478157,6.35));
#1004=CARTESIAN_POINT('',(-28.4312396923983,-9.74757408478157,-2.22044604925031E-15));
#1005=CARTESIAN_POINT('Origin',(-26.7812396923983,-9.74757408478157,-3.33066907387547E-15));
#1006=CARTESIAN_POINT('',(-28.4312396923983,-9.74757408478157,6.35));
#1007=CARTESIAN_POINT('',(-28.4312396923983,-9.74757408478157,6.35));
#1008=CARTESIAN_POINT('Origin',(-26.7812396923983,-9.74757408478157,6.35));
#1009=CARTESIAN_POINT('Origin',(-39.3249999999998,-1.89750957561312E-13,
6.35));
#1010=CARTESIAN_POINT('',(-41.4749999999998,-1.90958360235527E-13,1.11022302462516E-15));
#1011=CARTESIAN_POINT('Origin',(-39.3249999999998,-1.89750957561312E-13,
1.11022302462516E-15));
#1012=CARTESIAN_POINT('',(-41.4749999999998,-1.89487658499495E-13,6.35));
#1013=CARTESIAN_POINT('',(-41.4749999999998,-1.89487658499495E-13,6.35));
#1014=CARTESIAN_POINT('Origin',(-39.3249999999998,-1.89750957561312E-13,
6.35));
#1015=CARTESIAN_POINT('Origin',(-12.1520933037945,-37.4002975033069,6.34999999999999));
#1016=CARTESIAN_POINT('',(-14.3020933037945,-37.4002975033069,-6.66133814775094E-15));
#1017=CARTESIAN_POINT('Origin',(-12.1520933037945,-37.4002975033069,-7.7715611723761E-15));
#1018=CARTESIAN_POINT('',(-14.3020933037945,-37.4002975033069,6.34999999999999));
#1019=CARTESIAN_POINT('',(-14.3020933037945,-37.4002975033069,6.34999999999999));
#1020=CARTESIAN_POINT('Origin',(-12.1520933037945,-37.4002975033069,6.34999999999999));
#1021=CARTESIAN_POINT('Origin',(21.832266628891,-18.3194468760664,6.34999999999998));
#1022=CARTESIAN_POINT('',(20.182266628891,-18.3194468760664,-1.77635683940025E-14));
#1023=CARTESIAN_POINT('Origin',(21.832266628891,-18.3194468760664,-1.77635683940025E-14));
#1024=CARTESIAN_POINT('',(20.182266628891,-18.3194468760664,6.34999999999998));
#1025=CARTESIAN_POINT('',(20.182266628891,-18.3194468760664,6.34999999999998));
#1026=CARTESIAN_POINT('Origin',(21.832266628891,-18.3194468760664,6.34999999999998));
#1027=CARTESIAN_POINT('Origin',(-12.1520933037948,37.4002975033068,6.34999999999999));
#1028=CARTESIAN_POINT('',(-14.3020933037948,37.4002975033068,-6.66133814775094E-15));
#1029=CARTESIAN_POINT('Origin',(-12.1520933037948,37.4002975033068,-7.7715611723761E-15));
#1030=CARTESIAN_POINT('',(-14.3020933037949,37.4002975033068,6.34999999999999));
#1031=CARTESIAN_POINT('',(-14.3020933037949,37.4002975033068,6.34999999999999));
#1032=CARTESIAN_POINT('Origin',(-12.1520933037948,37.4002975033068,6.34999999999999));
#1033=CARTESIAN_POINT('Origin',(-31.8145933037947,23.1146550464013,6.35));
#1034=CARTESIAN_POINT('',(-33.9645933037947,23.1146550464013,-1.11022302462516E-15));
#1035=CARTESIAN_POINT('Origin',(-31.8145933037947,23.1146550464013,-1.11022302462516E-15));
#1036=CARTESIAN_POINT('',(-33.9645933037947,23.1146550464013,6.35));
#1037=CARTESIAN_POINT('',(-33.9645933037947,23.1146550464013,6.35));
#1038=CARTESIAN_POINT('Origin',(-31.8145933037947,23.1146550464013,6.35));
#1039=CARTESIAN_POINT('Origin',(-31.8145933037945,-23.1146550464016,6.35));
#1040=CARTESIAN_POINT('',(-33.9645933037945,-23.1146550464016,-1.11022302462516E-15));
#1041=CARTESIAN_POINT('Origin',(-31.8145933037945,-23.1146550464016,-1.11022302462516E-15));
#1042=CARTESIAN_POINT('',(-33.9645933037945,-23.1146550464016,6.35));
#1043=CARTESIAN_POINT('',(-33.9645933037945,-23.1146550464016,6.35));
#1044=CARTESIAN_POINT('Origin',(-31.8145933037945,-23.1146550464016,6.35));
#1045=CARTESIAN_POINT('Origin',(12.1520933037951,-37.4002975033068,6.34999999999999));
#1046=CARTESIAN_POINT('',(10.0020933037951,-37.4002975033068,-1.4432899320127E-14));
#1047=CARTESIAN_POINT('Origin',(12.1520933037951,-37.4002975033068,-1.4432899320127E-14));
#1048=CARTESIAN_POINT('',(10.0020933037951,-37.4002975033068,6.34999999999999));
#1049=CARTESIAN_POINT('',(10.0020933037951,-37.4002975033068,6.34999999999999));
#1050=CARTESIAN_POINT('Origin',(12.1520933037951,-37.4002975033068,6.34999999999999));
#1051=CARTESIAN_POINT('Origin',(4.94897306350765,28.0670209608479,6.34999999999999));
#1052=CARTESIAN_POINT('',(3.29897306350765,28.0670209608479,-1.22124532708767E-14));
#1053=CARTESIAN_POINT('Origin',(4.94897306350765,28.0670209608479,-1.22124532708767E-14));
#1054=CARTESIAN_POINT('',(3.29897306350765,28.0670209608479,6.34999999999999));
#1055=CARTESIAN_POINT('',(3.29897306350765,28.0670209608479,6.34999999999999));
#1056=CARTESIAN_POINT('Origin',(4.94897306350765,28.0670209608479,6.34999999999999));
#1057=CARTESIAN_POINT('Origin',(-4.94897306350739,-28.0670209608479,6.34999999999999));
#1058=CARTESIAN_POINT('',(-6.59897306350739,-28.0670209608479,-8.88178419700125E-15));
#1059=CARTESIAN_POINT('Origin',(-4.94897306350739,-28.0670209608479,-9.99200722162641E-15));
#1060=CARTESIAN_POINT('',(-6.59897306350739,-28.0670209608479,6.34999999999999));
#1061=CARTESIAN_POINT('',(-6.59897306350739,-28.0670209608479,6.34999999999999));
#1062=CARTESIAN_POINT('Origin',(-4.94897306350739,-28.0670209608479,6.34999999999999));
#1063=CARTESIAN_POINT('Origin',(31.814593303795,-23.1146550464013,6.34999999999998));
#1064=CARTESIAN_POINT('',(29.664593303795,-23.1146550464013,-1.99840144432528E-14));
#1065=CARTESIAN_POINT('Origin',(31.814593303795,-23.1146550464013,-2.1094237467878E-14));
#1066=CARTESIAN_POINT('',(29.664593303795,-23.1146550464013,6.34999999999998));
#1067=CARTESIAN_POINT('',(29.664593303795,-23.1146550464013,6.34999999999998));
#1068=CARTESIAN_POINT('Origin',(31.814593303795,-23.1146550464013,6.34999999999998));
#1069=CARTESIAN_POINT('Origin',(43.6500000000002,43.65,6.34999999999998));
#1070=CARTESIAN_POINT('',(43.6500000000002,43.65,6.34999999999998));
#1071=CARTESIAN_POINT('',(43.6500000000002,43.65,-2.44249065417534E-14));
#1072=CARTESIAN_POINT('Origin',(-43.6499999999999,-43.65,6.35));
#1073=CARTESIAN_POINT('',(-43.6499999999999,-43.65,6.35));
#1074=CARTESIAN_POINT('',(-43.6499999999999,-43.65,2.22044604925031E-15));
#1075=CARTESIAN_POINT('Origin',(1.26283705248901E-13,-2.92812546243556E-24,
-1.11022302462516E-14));
#1076=CARTESIAN_POINT('Origin',(1.26283705248901E-13,-2.92812546243556E-24,
6.34999999999999));
#1077=UNCERTAINTY_MEASURE_WITH_UNIT(LENGTH_MEASURE(0.01),#1081,
'DISTANCE_ACCURACY_VALUE',
'Maximum model space distance between geometric entities at asserted c
onnectivities');
#1078=UNCERTAINTY_MEASURE_WITH_UNIT(LENGTH_MEASURE(0.01),#1081,
'DISTANCE_ACCURACY_VALUE',
'Maximum model space distance between geometric entities at asserted c
onnectivities');
#1079=(
GEOMETRIC_REPRESENTATION_CONTEXT(3)
GLOBAL_UNCERTAINTY_ASSIGNED_CONTEXT((#1077))
GLOBAL_UNIT_ASSIGNED_CONTEXT((#1081,#1083,#1084))
REPRESENTATION_CONTEXT('','3D')
);
#1080=(
GEOMETRIC_REPRESENTATION_CONTEXT(3)
GLOBAL_UNCERTAINTY_ASSIGNED_CONTEXT((#1078))
GLOBAL_UNIT_ASSIGNED_CONTEXT((#1081,#1083,#1084))
REPRESENTATION_CONTEXT('','3D')
);
#1081=(
LENGTH_UNIT()
NAMED_UNIT(*)
SI_UNIT(.MILLI.,.METRE.)
);
#1082=(
LENGTH_UNIT()
NAMED_UNIT(*)
SI_UNIT($,.METRE.)
);
#1083=(
NAMED_UNIT(*)
PLANE_ANGLE_UNIT()
SI_UNIT($,.RADIAN.)
);
#1084=(
NAMED_UNIT(*)
SI_UNIT($,.STERADIAN.)
SOLID_ANGLE_UNIT()
);
#1085=SHAPE_DEFINITION_REPRESENTATION(#1086,#1087);
#1086=PRODUCT_DEFINITION_SHAPE('',$,#1089);
#1087=SHAPE_REPRESENTATION('',(#649),#1079);
#1088=PRODUCT_DEFINITION_CONTEXT('part definition',#1093,'design');
#1089=PRODUCT_DEFINITION('Bottom Plate','Bottom Plate',#1090,#1088);
#1090=PRODUCT_DEFINITION_FORMATION('',$,#1095);
#1091=PRODUCT_RELATED_PRODUCT_CATEGORY('Bottom Plate','Bottom Plate',(#1095));
#1092=APPLICATION_PROTOCOL_DEFINITION('international standard',
'automotive_design',2009,#1093);
#1093=APPLICATION_CONTEXT(
'Core Data for Automotive Mechanical Design Process');
#1094=PRODUCT_CONTEXT('part definition',#1093,'mechanical');
#1095=PRODUCT('Bottom Plate','Bottom Plate',$,(#1094));
#1096=PRESENTATION_STYLE_ASSIGNMENT((#1098));
#1097=PRESENTATION_STYLE_ASSIGNMENT((#1099));
#1098=SURFACE_STYLE_USAGE(.BOTH.,#1100);
#1099=SURFACE_STYLE_USAGE(.BOTH.,#1101);
#1100=SURFACE_SIDE_STYLE('',(#1102));
#1101=SURFACE_SIDE_STYLE('',(#1103));
#1102=SURFACE_STYLE_FILL_AREA(#1104);
#1103=SURFACE_STYLE_FILL_AREA(#1105);
#1104=FILL_AREA_STYLE('Steel - Satin',(#1106));
#1105=FILL_AREA_STYLE('Aluminum - Satin',(#1107));
#1106=FILL_AREA_STYLE_COLOUR('Steel - Satin',#1108);
#1107=FILL_AREA_STYLE_COLOUR('Aluminum - Satin',#1109);
#1108=COLOUR_RGB('Steel - Satin',0.627450980392157,0.627450980392157,0.627450980392157);
#1109=COLOUR_RGB('Aluminum - Satin',0.96078431372549,0.96078431372549,0.964705882352941);
ENDSEC;
END-ISO-10303-21;
