ISO-10303-21;
HEADER;
/* Generated by software containing ST-Developer
 * from STEP Tools, Inc. (www.steptools.com) 
 */

FILE_DESCRIPTION(
/* description */ (''),
/* implementation_level */ '2;1');

FILE_NAME(
/* name */ 'Vixen  Adapter Plate.step',
/* time_stamp */ '2026-08-23T20:36:19-06:00',
/* author */ (''),
/* organization */ (''),
/* preprocessor_version */ 'ST-DEVELOPER v20.1',
/* originating_system */ 'Autodesk Translation Framework v15.8.0.0',
/* authorisation */ '');

FILE_SCHEMA (('AUTOMOTIVE_DESIGN { 1 0 10303 214 3 1 1 }'));
ENDSEC;

DATA;
#10=MECHANICAL_DESIGN_GEOMETRIC_PRESENTATION_REPRESENTATION('',(#13),#752);
#11=SHAPE_REPRESENTATION_RELATIONSHIP('SRR','None',#759,#12);
#12=ADVANCED_BREP_SHAPE_REPRESENTATION('',(#14),#751);
#13=STYLED_ITEM('',(#768),#14);
#14=MANIFOLD_SOLID_BREP('Body1',#436);
#15=FACE_BOUND('',#74,.T.);
#16=FACE_BOUND('',#75,.T.);
#17=FACE_BOUND('',#76,.T.);
#18=FACE_BOUND('',#77,.T.);
#19=FACE_BOUND('',#78,.T.);
#20=FACE_BOUND('',#79,.T.);
#21=FACE_BOUND('',#80,.T.);
#22=FACE_BOUND('',#81,.T.);
#23=FACE_BOUND('',#82,.T.);
#24=FACE_BOUND('',#83,.T.);
#25=FACE_BOUND('',#84,.T.);
#26=FACE_BOUND('',#86,.T.);
#27=FACE_BOUND('',#87,.T.);
#28=FACE_BOUND('',#88,.T.);
#29=FACE_BOUND('',#89,.T.);
#30=FACE_BOUND('',#90,.T.);
#31=FACE_BOUND('',#91,.T.);
#32=FACE_BOUND('',#92,.T.);
#33=FACE_BOUND('',#93,.T.);
#34=FACE_BOUND('',#94,.T.);
#35=FACE_BOUND('',#95,.T.);
#36=FACE_BOUND('',#96,.T.);
#37=PLANE('',#453);
#38=PLANE('',#457);
#39=PLANE('',#461);
#40=PLANE('',#465);
#41=PLANE('',#469);
#42=PLANE('',#480);
#43=FACE_OUTER_BOUND('',#64,.T.);
#44=FACE_OUTER_BOUND('',#65,.T.);
#45=FACE_OUTER_BOUND('',#66,.T.);
#46=FACE_OUTER_BOUND('',#67,.T.);
#47=FACE_OUTER_BOUND('',#68,.T.);
#48=FACE_OUTER_BOUND('',#69,.T.);
#49=FACE_OUTER_BOUND('',#70,.T.);
#50=FACE_OUTER_BOUND('',#71,.T.);
#51=FACE_OUTER_BOUND('',#72,.T.);
#52=FACE_OUTER_BOUND('',#73,.T.);
#53=FACE_OUTER_BOUND('',#85,.T.);
#54=FACE_OUTER_BOUND('',#97,.T.);
#55=FACE_OUTER_BOUND('',#98,.T.);
#56=FACE_OUTER_BOUND('',#99,.T.);
#57=FACE_OUTER_BOUND('',#100,.T.);
#58=FACE_OUTER_BOUND('',#101,.T.);
#59=FACE_OUTER_BOUND('',#102,.T.);
#60=FACE_OUTER_BOUND('',#103,.T.);
#61=FACE_OUTER_BOUND('',#104,.T.);
#62=FACE_OUTER_BOUND('',#105,.T.);
#63=FACE_OUTER_BOUND('',#106,.T.);
#64=EDGE_LOOP('',(#286,#287,#288,#289));
#65=EDGE_LOOP('',(#290,#291,#292,#293));
#66=EDGE_LOOP('',(#294,#295,#296,#297));
#67=EDGE_LOOP('',(#298,#299,#300,#301));
#68=EDGE_LOOP('',(#302,#303,#304,#305));
#69=EDGE_LOOP('',(#306,#307,#308,#309));
#70=EDGE_LOOP('',(#310,#311,#312,#313));
#71=EDGE_LOOP('',(#314,#315,#316,#317));
#72=EDGE_LOOP('',(#318,#319,#320,#321));
#73=EDGE_LOOP('',(#322,#323,#324,#325,#326,#327,#328,#329));
#74=EDGE_LOOP('',(#330));
#75=EDGE_LOOP('',(#331));
#76=EDGE_LOOP('',(#332));
#77=EDGE_LOOP('',(#333));
#78=EDGE_LOOP('',(#334));
#79=EDGE_LOOP('',(#335));
#80=EDGE_LOOP('',(#336));
#81=EDGE_LOOP('',(#337));
#82=EDGE_LOOP('',(#338));
#83=EDGE_LOOP('',(#339));
#84=EDGE_LOOP('',(#340));
#85=EDGE_LOOP('',(#341,#342,#343,#344,#345,#346,#347,#348));
#86=EDGE_LOOP('',(#349));
#87=EDGE_LOOP('',(#350));
#88=EDGE_LOOP('',(#351));
#89=EDGE_LOOP('',(#352));
#90=EDGE_LOOP('',(#353));
#91=EDGE_LOOP('',(#354));
#92=EDGE_LOOP('',(#355));
#93=EDGE_LOOP('',(#356));
#94=EDGE_LOOP('',(#357));
#95=EDGE_LOOP('',(#358));
#96=EDGE_LOOP('',(#359));
#97=EDGE_LOOP('',(#360,#361,#362,#363));
#98=EDGE_LOOP('',(#364,#365,#366,#367));
#99=EDGE_LOOP('',(#368,#369,#370,#371));
#100=EDGE_LOOP('',(#372,#373,#374,#375));
#101=EDGE_LOOP('',(#376,#377,#378,#379));
#102=EDGE_LOOP('',(#380,#381,#382,#383));
#103=EDGE_LOOP('',(#384,#385,#386,#387));
#104=EDGE_LOOP('',(#388,#389,#390,#391));
#105=EDGE_LOOP('',(#392,#393,#394,#395));
#106=EDGE_LOOP('',(#396,#397,#398,#399));
#107=LINE('',#637,#134);
#108=LINE('',#642,#135);
#109=LINE('',#644,#136);
#110=LINE('',#646,#137);
#111=LINE('',#647,#138);
#112=LINE('',#653,#139);
#113=LINE('',#656,#140);
#114=LINE('',#658,#141);
#115=LINE('',#659,#142);
#116=LINE('',#665,#143);
#117=LINE('',#669,#144);
#118=LINE('',#671,#145);
#119=LINE('',#673,#146);
#120=LINE('',#674,#147);
#121=LINE('',#679,#148);
#122=LINE('',#682,#149);
#123=LINE('',#683,#150);
#124=LINE('',#730,#151);
#125=LINE('',#732,#152);
#126=LINE('',#734,#153);
#127=LINE('',#736,#154);
#128=LINE('',#738,#155);
#129=LINE('',#740,#156);
#130=LINE('',#742,#157);
#131=LINE('',#744,#158);
#132=LINE('',#746,#159);
#133=LINE('',#748,#160);
#134=VECTOR('',#507,3.25);
#135=VECTOR('',#512,10.);
#136=VECTOR('',#513,10.);
#137=VECTOR('',#514,10.);
#138=VECTOR('',#515,10.);
#139=VECTOR('',#522,10.);
#140=VECTOR('',#525,10.);
#141=VECTOR('',#526,10.);
#142=VECTOR('',#527,10.);
#143=VECTOR('',#534,10.);
#144=VECTOR('',#537,10.);
#145=VECTOR('',#538,10.);
#146=VECTOR('',#539,10.);
#147=VECTOR('',#540,10.);
#148=VECTOR('',#545,10.);
#149=VECTOR('',#550,10.);
#150=VECTOR('',#551,10.);
#151=VECTOR('',#604,3.50000000000001);
#152=VECTOR('',#607,3.5);
#153=VECTOR('',#610,1.65);
#154=VECTOR('',#613,1.65);
#155=VECTOR('',#616,1.65);
#156=VECTOR('',#619,1.65);
#157=VECTOR('',#622,3.50000000000001);
#158=VECTOR('',#625,1.65);
#159=VECTOR('',#628,1.65);
#160=VECTOR('',#631,3.5);
#161=CIRCLE('',#451,2.5175);
#162=CIRCLE('',#452,2.5175);
#163=CIRCLE('',#455,10.);
#164=CIRCLE('',#456,10.);
#165=CIRCLE('',#459,7.49999999999998);
#166=CIRCLE('',#460,7.49999999999998);
#167=CIRCLE('',#463,10.);
#168=CIRCLE('',#464,10.);
#169=CIRCLE('',#467,7.50000000000007);
#170=CIRCLE('',#468,7.50000000000007);
#171=CIRCLE('',#470,2.5175);
#172=CIRCLE('',#471,1.65);
#173=CIRCLE('',#472,1.65);
#174=CIRCLE('',#473,2.5175);
#175=CIRCLE('',#474,1.65);
#176=CIRCLE('',#475,1.65);
#177=CIRCLE('',#476,1.65);
#178=CIRCLE('',#477,1.65);
#179=CIRCLE('',#478,2.5175);
#180=CIRCLE('',#479,2.5175);
#181=CIRCLE('',#481,2.5175);
#182=CIRCLE('',#482,1.65);
#183=CIRCLE('',#483,1.65);
#184=CIRCLE('',#484,2.5175);
#185=CIRCLE('',#485,1.65);
#186=CIRCLE('',#486,1.65);
#187=CIRCLE('',#487,1.65);
#188=CIRCLE('',#488,1.65);
#189=CIRCLE('',#489,2.5175);
#190=CIRCLE('',#490,2.5175);
#191=VERTEX_POINT('',#634);
#192=VERTEX_POINT('',#636);
#193=VERTEX_POINT('',#640);
#194=VERTEX_POINT('',#641);
#195=VERTEX_POINT('',#643);
#196=VERTEX_POINT('',#645);
#197=VERTEX_POINT('',#649);
#198=VERTEX_POINT('',#651);
#199=VERTEX_POINT('',#655);
#200=VERTEX_POINT('',#657);
#201=VERTEX_POINT('',#661);
#202=VERTEX_POINT('',#663);
#203=VERTEX_POINT('',#667);
#204=VERTEX_POINT('',#668);
#205=VERTEX_POINT('',#670);
#206=VERTEX_POINT('',#672);
#207=VERTEX_POINT('',#676);
#208=VERTEX_POINT('',#678);
#209=VERTEX_POINT('',#688);
#210=VERTEX_POINT('',#690);
#211=VERTEX_POINT('',#692);
#212=VERTEX_POINT('',#694);
#213=VERTEX_POINT('',#696);
#214=VERTEX_POINT('',#698);
#215=VERTEX_POINT('',#700);
#216=VERTEX_POINT('',#702);
#217=VERTEX_POINT('',#704);
#218=VERTEX_POINT('',#706);
#219=VERTEX_POINT('',#709);
#220=VERTEX_POINT('',#711);
#221=VERTEX_POINT('',#713);
#222=VERTEX_POINT('',#715);
#223=VERTEX_POINT('',#717);
#224=VERTEX_POINT('',#719);
#225=VERTEX_POINT('',#721);
#226=VERTEX_POINT('',#723);
#227=VERTEX_POINT('',#725);
#228=VERTEX_POINT('',#727);
#229=EDGE_CURVE('',#191,#191,#161,.T.);
#230=EDGE_CURVE('',#191,#192,#107,.T.);
#231=EDGE_CURVE('',#192,#192,#162,.F.);
#232=EDGE_CURVE('',#193,#194,#108,.T.);
#233=EDGE_CURVE('',#193,#195,#109,.T.);
#234=EDGE_CURVE('',#196,#195,#110,.T.);
#235=EDGE_CURVE('',#194,#196,#111,.T.);
#236=EDGE_CURVE('',#194,#197,#163,.T.);
#237=EDGE_CURVE('',#198,#196,#164,.T.);
#238=EDGE_CURVE('',#197,#198,#112,.T.);
#239=EDGE_CURVE('',#197,#199,#113,.T.);
#240=EDGE_CURVE('',#200,#198,#114,.T.);
#241=EDGE_CURVE('',#199,#200,#115,.T.);
#242=EDGE_CURVE('',#199,#201,#165,.T.);
#243=EDGE_CURVE('',#202,#200,#166,.T.);
#244=EDGE_CURVE('',#201,#202,#116,.T.);
#245=EDGE_CURVE('',#203,#204,#117,.T.);
#246=EDGE_CURVE('',#203,#205,#118,.T.);
#247=EDGE_CURVE('',#206,#205,#119,.T.);
#248=EDGE_CURVE('',#204,#206,#120,.T.);
#249=EDGE_CURVE('',#207,#203,#167,.T.);
#250=EDGE_CURVE('',#207,#208,#121,.T.);
#251=EDGE_CURVE('',#205,#208,#168,.T.);
#252=EDGE_CURVE('',#201,#207,#122,.T.);
#253=EDGE_CURVE('',#208,#202,#123,.T.);
#254=EDGE_CURVE('',#204,#193,#169,.T.);
#255=EDGE_CURVE('',#195,#206,#170,.T.);
#256=EDGE_CURVE('',#209,#209,#171,.F.);
#257=EDGE_CURVE('',#210,#210,#172,.T.);
#258=EDGE_CURVE('',#211,#211,#173,.T.);
#259=EDGE_CURVE('',#212,#212,#174,.F.);
#260=EDGE_CURVE('',#213,#213,#175,.T.);
#261=EDGE_CURVE('',#214,#214,#176,.T.);
#262=EDGE_CURVE('',#215,#215,#177,.T.);
#263=EDGE_CURVE('',#216,#216,#178,.T.);
#264=EDGE_CURVE('',#217,#217,#179,.F.);
#265=EDGE_CURVE('',#218,#218,#180,.F.);
#266=EDGE_CURVE('',#219,#219,#181,.F.);
#267=EDGE_CURVE('',#220,#220,#182,.T.);
#268=EDGE_CURVE('',#221,#221,#183,.T.);
#269=EDGE_CURVE('',#222,#222,#184,.F.);
#270=EDGE_CURVE('',#223,#223,#185,.T.);
#271=EDGE_CURVE('',#224,#224,#186,.T.);
#272=EDGE_CURVE('',#225,#225,#187,.T.);
#273=EDGE_CURVE('',#226,#226,#188,.T.);
#274=EDGE_CURVE('',#227,#227,#189,.F.);
#275=EDGE_CURVE('',#228,#228,#190,.F.);
#276=EDGE_CURVE('',#218,#228,#124,.T.);
#277=EDGE_CURVE('',#217,#227,#125,.T.);
#278=EDGE_CURVE('',#216,#226,#126,.T.);
#279=EDGE_CURVE('',#215,#225,#127,.T.);
#280=EDGE_CURVE('',#214,#224,#128,.T.);
#281=EDGE_CURVE('',#213,#223,#129,.T.);
#282=EDGE_CURVE('',#212,#222,#130,.T.);
#283=EDGE_CURVE('',#211,#221,#131,.T.);
#284=EDGE_CURVE('',#210,#220,#132,.T.);
#285=EDGE_CURVE('',#209,#219,#133,.T.);
#286=ORIENTED_EDGE('',*,*,#229,.F.);
#287=ORIENTED_EDGE('',*,*,#230,.T.);
#288=ORIENTED_EDGE('',*,*,#231,.F.);
#289=ORIENTED_EDGE('',*,*,#230,.F.);
#290=ORIENTED_EDGE('',*,*,#232,.F.);
#291=ORIENTED_EDGE('',*,*,#233,.T.);
#292=ORIENTED_EDGE('',*,*,#234,.F.);
#293=ORIENTED_EDGE('',*,*,#235,.F.);
#294=ORIENTED_EDGE('',*,*,#236,.F.);
#295=ORIENTED_EDGE('',*,*,#235,.T.);
#296=ORIENTED_EDGE('',*,*,#237,.F.);
#297=ORIENTED_EDGE('',*,*,#238,.F.);
#298=ORIENTED_EDGE('',*,*,#239,.F.);
#299=ORIENTED_EDGE('',*,*,#238,.T.);
#300=ORIENTED_EDGE('',*,*,#240,.F.);
#301=ORIENTED_EDGE('',*,*,#241,.F.);
#302=ORIENTED_EDGE('',*,*,#242,.F.);
#303=ORIENTED_EDGE('',*,*,#241,.T.);
#304=ORIENTED_EDGE('',*,*,#243,.F.);
#305=ORIENTED_EDGE('',*,*,#244,.F.);
#306=ORIENTED_EDGE('',*,*,#245,.F.);
#307=ORIENTED_EDGE('',*,*,#246,.T.);
#308=ORIENTED_EDGE('',*,*,#247,.F.);
#309=ORIENTED_EDGE('',*,*,#248,.F.);
#310=ORIENTED_EDGE('',*,*,#249,.F.);
#311=ORIENTED_EDGE('',*,*,#250,.T.);
#312=ORIENTED_EDGE('',*,*,#251,.F.);
#313=ORIENTED_EDGE('',*,*,#246,.F.);
#314=ORIENTED_EDGE('',*,*,#252,.F.);
#315=ORIENTED_EDGE('',*,*,#244,.T.);
#316=ORIENTED_EDGE('',*,*,#253,.F.);
#317=ORIENTED_EDGE('',*,*,#250,.F.);
#318=ORIENTED_EDGE('',*,*,#254,.F.);
#319=ORIENTED_EDGE('',*,*,#248,.T.);
#320=ORIENTED_EDGE('',*,*,#255,.F.);
#321=ORIENTED_EDGE('',*,*,#233,.F.);
#322=ORIENTED_EDGE('',*,*,#242,.T.);
#323=ORIENTED_EDGE('',*,*,#252,.T.);
#324=ORIENTED_EDGE('',*,*,#249,.T.);
#325=ORIENTED_EDGE('',*,*,#245,.T.);
#326=ORIENTED_EDGE('',*,*,#254,.T.);
#327=ORIENTED_EDGE('',*,*,#232,.T.);
#328=ORIENTED_EDGE('',*,*,#236,.T.);
#329=ORIENTED_EDGE('',*,*,#239,.T.);
#330=ORIENTED_EDGE('',*,*,#256,.T.);
#331=ORIENTED_EDGE('',*,*,#257,.T.);
#332=ORIENTED_EDGE('',*,*,#258,.T.);
#333=ORIENTED_EDGE('',*,*,#259,.T.);
#334=ORIENTED_EDGE('',*,*,#260,.T.);
#335=ORIENTED_EDGE('',*,*,#261,.T.);
#336=ORIENTED_EDGE('',*,*,#262,.T.);
#337=ORIENTED_EDGE('',*,*,#263,.T.);
#338=ORIENTED_EDGE('',*,*,#264,.T.);
#339=ORIENTED_EDGE('',*,*,#265,.T.);
#340=ORIENTED_EDGE('',*,*,#229,.T.);
#341=ORIENTED_EDGE('',*,*,#243,.T.);
#342=ORIENTED_EDGE('',*,*,#240,.T.);
#343=ORIENTED_EDGE('',*,*,#237,.T.);
#344=ORIENTED_EDGE('',*,*,#234,.T.);
#345=ORIENTED_EDGE('',*,*,#255,.T.);
#346=ORIENTED_EDGE('',*,*,#247,.T.);
#347=ORIENTED_EDGE('',*,*,#251,.T.);
#348=ORIENTED_EDGE('',*,*,#253,.T.);
#349=ORIENTED_EDGE('',*,*,#266,.F.);
#350=ORIENTED_EDGE('',*,*,#267,.F.);
#351=ORIENTED_EDGE('',*,*,#268,.F.);
#352=ORIENTED_EDGE('',*,*,#269,.F.);
#353=ORIENTED_EDGE('',*,*,#270,.F.);
#354=ORIENTED_EDGE('',*,*,#271,.F.);
#355=ORIENTED_EDGE('',*,*,#272,.F.);
#356=ORIENTED_EDGE('',*,*,#273,.F.);
#357=ORIENTED_EDGE('',*,*,#274,.F.);
#358=ORIENTED_EDGE('',*,*,#275,.F.);
#359=ORIENTED_EDGE('',*,*,#231,.T.);
#360=ORIENTED_EDGE('',*,*,#265,.F.);
#361=ORIENTED_EDGE('',*,*,#276,.T.);
#362=ORIENTED_EDGE('',*,*,#275,.T.);
#363=ORIENTED_EDGE('',*,*,#276,.F.);
#364=ORIENTED_EDGE('',*,*,#264,.F.);
#365=ORIENTED_EDGE('',*,*,#277,.T.);
#366=ORIENTED_EDGE('',*,*,#274,.T.);
#367=ORIENTED_EDGE('',*,*,#277,.F.);
#368=ORIENTED_EDGE('',*,*,#263,.F.);
#369=ORIENTED_EDGE('',*,*,#278,.T.);
#370=ORIENTED_EDGE('',*,*,#273,.T.);
#371=ORIENTED_EDGE('',*,*,#278,.F.);
#372=ORIENTED_EDGE('',*,*,#262,.F.);
#373=ORIENTED_EDGE('',*,*,#279,.T.);
#374=ORIENTED_EDGE('',*,*,#272,.T.);
#375=ORIENTED_EDGE('',*,*,#279,.F.);
#376=ORIENTED_EDGE('',*,*,#261,.F.);
#377=ORIENTED_EDGE('',*,*,#280,.T.);
#378=ORIENTED_EDGE('',*,*,#271,.T.);
#379=ORIENTED_EDGE('',*,*,#280,.F.);
#380=ORIENTED_EDGE('',*,*,#260,.F.);
#381=ORIENTED_EDGE('',*,*,#281,.T.);
#382=ORIENTED_EDGE('',*,*,#270,.T.);
#383=ORIENTED_EDGE('',*,*,#281,.F.);
#384=ORIENTED_EDGE('',*,*,#259,.F.);
#385=ORIENTED_EDGE('',*,*,#282,.T.);
#386=ORIENTED_EDGE('',*,*,#269,.T.);
#387=ORIENTED_EDGE('',*,*,#282,.F.);
#388=ORIENTED_EDGE('',*,*,#258,.F.);
#389=ORIENTED_EDGE('',*,*,#283,.T.);
#390=ORIENTED_EDGE('',*,*,#268,.T.);
#391=ORIENTED_EDGE('',*,*,#283,.F.);
#392=ORIENTED_EDGE('',*,*,#257,.F.);
#393=ORIENTED_EDGE('',*,*,#284,.T.);
#394=ORIENTED_EDGE('',*,*,#267,.T.);
#395=ORIENTED_EDGE('',*,*,#284,.F.);
#396=ORIENTED_EDGE('',*,*,#256,.F.);
#397=ORIENTED_EDGE('',*,*,#285,.T.);
#398=ORIENTED_EDGE('',*,*,#266,.T.);
#399=ORIENTED_EDGE('',*,*,#285,.F.);
#400=CYLINDRICAL_SURFACE('',#450,2.5175);
#401=CYLINDRICAL_SURFACE('',#454,10.);
#402=CYLINDRICAL_SURFACE('',#458,7.49999999999998);
#403=CYLINDRICAL_SURFACE('',#462,10.);
#404=CYLINDRICAL_SURFACE('',#466,7.50000000000007);
#405=CYLINDRICAL_SURFACE('',#491,2.5175);
#406=CYLINDRICAL_SURFACE('',#492,2.5175);
#407=CYLINDRICAL_SURFACE('',#493,1.65);
#408=CYLINDRICAL_SURFACE('',#494,1.65);
#409=CYLINDRICAL_SURFACE('',#495,1.65);
#410=CYLINDRICAL_SURFACE('',#496,1.65);
#411=CYLINDRICAL_SURFACE('',#497,2.5175);
#412=CYLINDRICAL_SURFACE('',#498,1.65);
#413=CYLINDRICAL_SURFACE('',#499,1.65);
#414=CYLINDRICAL_SURFACE('',#500,2.5175);
#415=ADVANCED_FACE('',(#43),#400,.F.);
#416=ADVANCED_FACE('',(#44),#37,.F.);
#417=ADVANCED_FACE('',(#45),#401,.T.);
#418=ADVANCED_FACE('',(#46),#38,.F.);
#419=ADVANCED_FACE('',(#47),#402,.T.);
#420=ADVANCED_FACE('',(#48),#39,.F.);
#421=ADVANCED_FACE('',(#49),#403,.T.);
#422=ADVANCED_FACE('',(#50),#40,.F.);
#423=ADVANCED_FACE('',(#51),#404,.T.);
#424=ADVANCED_FACE('',(#52,#15,#16,#17,#18,#19,#20,#21,#22,#23,#24,#25),
#41,.T.);
#425=ADVANCED_FACE('',(#53,#26,#27,#28,#29,#30,#31,#32,#33,#34,#35,#36),
#42,.F.);
#426=ADVANCED_FACE('',(#54),#405,.F.);
#427=ADVANCED_FACE('',(#55),#406,.F.);
#428=ADVANCED_FACE('',(#56),#407,.F.);
#429=ADVANCED_FACE('',(#57),#408,.F.);
#430=ADVANCED_FACE('',(#58),#409,.F.);
#431=ADVANCED_FACE('',(#59),#410,.F.);
#432=ADVANCED_FACE('',(#60),#411,.F.);
#433=ADVANCED_FACE('',(#61),#412,.F.);
#434=ADVANCED_FACE('',(#62),#413,.F.);
#435=ADVANCED_FACE('',(#63),#414,.F.);
#436=CLOSED_SHELL('',(#415,#416,#417,#418,#419,#420,#421,#422,#423,#424,
#425,#426,#427,#428,#429,#430,#431,#432,#433,#434,#435));
#437=DERIVED_UNIT_ELEMENT(#439,1.);
#438=DERIVED_UNIT_ELEMENT(#754,-3.);
#439=(
MASS_UNIT()
NAMED_UNIT(*)
SI_UNIT(.KILO.,.GRAM.)
);
#440=DERIVED_UNIT((#437,#438));
#441=MEASURE_REPRESENTATION_ITEM('density measure',
POSITIVE_RATIO_MEASURE(2700.),#440);
#442=PROPERTY_DEFINITION_REPRESENTATION(#447,#444);
#443=PROPERTY_DEFINITION_REPRESENTATION(#448,#445);
#444=REPRESENTATION('material name',(#446),#751);
#445=REPRESENTATION('density',(#441),#751);
#446=DESCRIPTIVE_REPRESENTATION_ITEM('Aluminum','Aluminum');
#447=PROPERTY_DEFINITION('material property','material name',#761);
#448=PROPERTY_DEFINITION('material property','density of part',#761);
#449=AXIS2_PLACEMENT_3D('',#632,#501,#502);
#450=AXIS2_PLACEMENT_3D('',#633,#503,#504);
#451=AXIS2_PLACEMENT_3D('',#635,#505,#506);
#452=AXIS2_PLACEMENT_3D('',#638,#508,#509);
#453=AXIS2_PLACEMENT_3D('',#639,#510,#511);
#454=AXIS2_PLACEMENT_3D('',#648,#516,#517);
#455=AXIS2_PLACEMENT_3D('',#650,#518,#519);
#456=AXIS2_PLACEMENT_3D('',#652,#520,#521);
#457=AXIS2_PLACEMENT_3D('',#654,#523,#524);
#458=AXIS2_PLACEMENT_3D('',#660,#528,#529);
#459=AXIS2_PLACEMENT_3D('',#662,#530,#531);
#460=AXIS2_PLACEMENT_3D('',#664,#532,#533);
#461=AXIS2_PLACEMENT_3D('',#666,#535,#536);
#462=AXIS2_PLACEMENT_3D('',#675,#541,#542);
#463=AXIS2_PLACEMENT_3D('',#677,#543,#544);
#464=AXIS2_PLACEMENT_3D('',#680,#546,#547);
#465=AXIS2_PLACEMENT_3D('',#681,#548,#549);
#466=AXIS2_PLACEMENT_3D('',#684,#552,#553);
#467=AXIS2_PLACEMENT_3D('',#685,#554,#555);
#468=AXIS2_PLACEMENT_3D('',#686,#556,#557);
#469=AXIS2_PLACEMENT_3D('',#687,#558,#559);
#470=AXIS2_PLACEMENT_3D('',#689,#560,#561);
#471=AXIS2_PLACEMENT_3D('',#691,#562,#563);
#472=AXIS2_PLACEMENT_3D('',#693,#564,#565);
#473=AXIS2_PLACEMENT_3D('',#695,#566,#567);
#474=AXIS2_PLACEMENT_3D('',#697,#568,#569);
#475=AXIS2_PLACEMENT_3D('',#699,#570,#571);
#476=AXIS2_PLACEMENT_3D('',#701,#572,#573);
#477=AXIS2_PLACEMENT_3D('',#703,#574,#575);
#478=AXIS2_PLACEMENT_3D('',#705,#576,#577);
#479=AXIS2_PLACEMENT_3D('',#707,#578,#579);
#480=AXIS2_PLACEMENT_3D('',#708,#580,#581);
#481=AXIS2_PLACEMENT_3D('',#710,#582,#583);
#482=AXIS2_PLACEMENT_3D('',#712,#584,#585);
#483=AXIS2_PLACEMENT_3D('',#714,#586,#587);
#484=AXIS2_PLACEMENT_3D('',#716,#588,#589);
#485=AXIS2_PLACEMENT_3D('',#718,#590,#591);
#486=AXIS2_PLACEMENT_3D('',#720,#592,#593);
#487=AXIS2_PLACEMENT_3D('',#722,#594,#595);
#488=AXIS2_PLACEMENT_3D('',#724,#596,#597);
#489=AXIS2_PLACEMENT_3D('',#726,#598,#599);
#490=AXIS2_PLACEMENT_3D('',#728,#600,#601);
#491=AXIS2_PLACEMENT_3D('',#729,#602,#603);
#492=AXIS2_PLACEMENT_3D('',#731,#605,#606);
#493=AXIS2_PLACEMENT_3D('',#733,#608,#609);
#494=AXIS2_PLACEMENT_3D('',#735,#611,#612);
#495=AXIS2_PLACEMENT_3D('',#737,#614,#615);
#496=AXIS2_PLACEMENT_3D('',#739,#617,#618);
#497=AXIS2_PLACEMENT_3D('',#741,#620,#621);
#498=AXIS2_PLACEMENT_3D('',#743,#623,#624);
#499=AXIS2_PLACEMENT_3D('',#745,#626,#627);
#500=AXIS2_PLACEMENT_3D('',#747,#629,#630);
#501=DIRECTION('axis',(0.,0.,1.));
#502=DIRECTION('refdir',(1.,0.,0.));
#503=DIRECTION('center_axis',(-1.,-3.83255412436224E-17,0.));
#504=DIRECTION('ref_axis',(-4.74075063233781E-33,1.11022302462516E-16,1.));
#505=DIRECTION('center_axis',(-1.,1.47136924869936E-22,1.97758468154983E-14));
#506=DIRECTION('ref_axis',(-4.74075063233781E-33,1.11022302462516E-16,1.));
#507=DIRECTION('',(-1.,-3.83255412436224E-17,0.));
#508=DIRECTION('center_axis',(-1.,1.47136924869936E-22,1.97758468154983E-14));
#509=DIRECTION('ref_axis',(-4.74075063233781E-33,1.11022302462516E-16,1.));
#510=DIRECTION('center_axis',(0.,-0.649235835841764,0.760587160987382));
#511=DIRECTION('ref_axis',(0.,0.760587160987382,0.649235835841764));
#512=DIRECTION('',(1.28391885486492E-14,0.760587160987382,0.649235835841764));
#513=DIRECTION('',(-1.,0.,0.));
#514=DIRECTION('',(-1.28391885486492E-14,-0.760587160987382,-0.649235835841764));
#515=DIRECTION('',(-1.,0.,0.));
#516=DIRECTION('center_axis',(-1.,0.,0.));
#517=DIRECTION('ref_axis',(0.,1.,0.));
#518=DIRECTION('center_axis',(1.,-1.47136924869936E-22,-1.97758468154983E-14));
#519=DIRECTION('ref_axis',(0.,1.,0.));
#520=DIRECTION('center_axis',(-1.,1.47136924869936E-22,1.97758468154983E-14));
#521=DIRECTION('ref_axis',(0.,1.,0.));
#522=DIRECTION('',(-1.,0.,0.));
#523=DIRECTION('center_axis',(0.,-0.349945994277702,-0.93676987627111));
#524=DIRECTION('ref_axis',(0.,-0.93676987627111,0.349945994277702));
#525=DIRECTION('',(6.92047823869964E-15,-0.93676987627111,0.349945994277702));
#526=DIRECTION('',(-6.92047823869964E-15,0.93676987627111,-0.349945994277702));
#527=DIRECTION('',(-1.,0.,0.));
#528=DIRECTION('center_axis',(-1.,0.,0.));
#529=DIRECTION('ref_axis',(0.,1.,0.));
#530=DIRECTION('center_axis',(1.,-1.47136924869936E-22,-1.97758468154983E-14));
#531=DIRECTION('ref_axis',(0.,1.,0.));
#532=DIRECTION('center_axis',(-1.,1.47136924869936E-22,1.97758468154983E-14));
#533=DIRECTION('ref_axis',(0.,1.,0.));
#534=DIRECTION('',(-1.,0.,0.));
#535=DIRECTION('center_axis',(0.,0.349945994277704,0.936769876271109));
#536=DIRECTION('ref_axis',(0.,0.936769876271109,-0.349945994277704));
#537=DIRECTION('',(-6.92047823869969E-15,0.936769876271109,-0.349945994277704));
#538=DIRECTION('',(-1.,0.,0.));
#539=DIRECTION('',(6.92047823869969E-15,-0.936769876271109,0.349945994277704));
#540=DIRECTION('',(-1.,0.,0.));
#541=DIRECTION('center_axis',(-1.,0.,0.));
#542=DIRECTION('ref_axis',(0.,-0.984808762919664,-0.17364245009974));
#543=DIRECTION('center_axis',(1.,-1.47136924869936E-22,-1.97758468154983E-14));
#544=DIRECTION('ref_axis',(0.,1.,0.));
#545=DIRECTION('',(-1.,0.,0.));
#546=DIRECTION('center_axis',(-1.,1.47136924869936E-22,1.97758468154983E-14));
#547=DIRECTION('ref_axis',(0.,1.,0.));
#548=DIRECTION('center_axis',(0.,0.649235835841761,-0.760587160987385));
#549=DIRECTION('ref_axis',(0.,-0.760587160987385,-0.649235835841761));
#550=DIRECTION('',(-1.28391885486491E-14,-0.760587160987385,-0.649235835841761));
#551=DIRECTION('',(1.28391885486491E-14,0.760587160987385,0.649235835841761));
#552=DIRECTION('center_axis',(-1.,0.,0.));
#553=DIRECTION('ref_axis',(0.,1.,0.));
#554=DIRECTION('center_axis',(1.,-1.47136924869936E-22,-1.97758468154983E-14));
#555=DIRECTION('ref_axis',(0.,1.,0.));
#556=DIRECTION('center_axis',(-1.,1.47136924869936E-22,1.97758468154983E-14));
#557=DIRECTION('ref_axis',(0.,1.,0.));
#558=DIRECTION('center_axis',(1.,-1.47136924869936E-22,-1.97758468154983E-14));
#559=DIRECTION('ref_axis',(4.94220117364304E-23,1.,-4.94112409168373E-9));
#560=DIRECTION('center_axis',(1.,-1.47136924869936E-22,-1.97758468154983E-14));
#561=DIRECTION('ref_axis',(-1.10578892278271E-22,1.,-4.94112409168373E-9));
#562=DIRECTION('center_axis',(-1.,1.47136925941828E-22,1.97758468154983E-14));
#563=DIRECTION('ref_axis',(4.94220128083225E-23,1.,-4.94112409168373E-9));
#564=DIRECTION('center_axis',(-1.,1.47136925941828E-22,1.97758468154983E-14));
#565=DIRECTION('ref_axis',(4.94220128083225E-23,1.,-4.94112409168373E-9));
#566=DIRECTION('center_axis',(1.,-1.47136924869936E-22,-1.97758468154983E-14));
#567=DIRECTION('ref_axis',(-1.10578892278271E-22,1.,-4.94112409168373E-9));
#568=DIRECTION('center_axis',(-1.,1.47136925941828E-22,1.97758468154983E-14));
#569=DIRECTION('ref_axis',(4.94220128083225E-23,1.,-4.94112409168373E-9));
#570=DIRECTION('center_axis',(-1.,1.47136925941828E-22,1.97758468154983E-14));
#571=DIRECTION('ref_axis',(4.94220128083225E-23,1.,-4.94112409168373E-9));
#572=DIRECTION('center_axis',(-1.,1.47136925941828E-22,1.97758468154983E-14));
#573=DIRECTION('ref_axis',(4.94220128083225E-23,1.,-4.94112409168373E-9));
#574=DIRECTION('center_axis',(-1.,1.47136925941828E-22,1.97758468154983E-14));
#575=DIRECTION('ref_axis',(4.94220128083225E-23,1.,-4.94112409168373E-9));
#576=DIRECTION('center_axis',(1.,-1.47136924869936E-22,-1.97758468154983E-14));
#577=DIRECTION('ref_axis',(-1.10578892278271E-22,1.,-4.94112409168373E-9));
#578=DIRECTION('center_axis',(1.,-1.47136924869936E-22,-1.97758468154983E-14));
#579=DIRECTION('ref_axis',(-1.10578892278271E-22,1.,-4.94112409168373E-9));
#580=DIRECTION('center_axis',(1.,-1.47136924869936E-22,-1.97758468154983E-14));
#581=DIRECTION('ref_axis',(4.94220117364304E-23,1.,-4.94112409168373E-9));
#582=DIRECTION('center_axis',(1.,-1.47136924869936E-22,-1.97758468154983E-14));
#583=DIRECTION('ref_axis',(-1.10578892278271E-22,1.,-4.94112409168373E-9));
#584=DIRECTION('center_axis',(-1.,1.47136925941828E-22,1.97758468154983E-14));
#585=DIRECTION('ref_axis',(4.94220128083225E-23,1.,-4.94112409168373E-9));
#586=DIRECTION('center_axis',(-1.,1.47136925941828E-22,1.97758468154983E-14));
#587=DIRECTION('ref_axis',(4.94220128083225E-23,1.,-4.94112409168373E-9));
#588=DIRECTION('center_axis',(1.,-1.47136924869936E-22,-1.97758468154983E-14));
#589=DIRECTION('ref_axis',(-1.10578892278271E-22,1.,-4.94112409168373E-9));
#590=DIRECTION('center_axis',(-1.,1.47136925941828E-22,1.97758468154983E-14));
#591=DIRECTION('ref_axis',(4.94220128083225E-23,1.,-4.94112409168373E-9));
#592=DIRECTION('center_axis',(-1.,1.47136925941828E-22,1.97758468154983E-14));
#593=DIRECTION('ref_axis',(4.94220128083225E-23,1.,-4.94112409168373E-9));
#594=DIRECTION('center_axis',(-1.,1.47136925941828E-22,1.97758468154983E-14));
#595=DIRECTION('ref_axis',(4.94220128083225E-23,1.,-4.94112409168373E-9));
#596=DIRECTION('center_axis',(-1.,1.47136925941828E-22,1.97758468154983E-14));
#597=DIRECTION('ref_axis',(4.94220128083225E-23,1.,-4.94112409168373E-9));
#598=DIRECTION('center_axis',(1.,-1.47136924869936E-22,-1.97758468154983E-14));
#599=DIRECTION('ref_axis',(-1.10578892278271E-22,1.,-4.94112409168373E-9));
#600=DIRECTION('center_axis',(1.,-1.47136924869936E-22,-1.97758468154983E-14));
#601=DIRECTION('ref_axis',(-1.10578892278271E-22,1.,-4.94112409168373E-9));
#602=DIRECTION('center_axis',(1.,0.,-2.23792987640977E-14));
#603=DIRECTION('ref_axis',(-1.10578892278271E-22,1.,-4.94112409168373E-9));
#604=DIRECTION('',(-1.,0.,2.23792987640976E-14));
#605=DIRECTION('center_axis',(1.,0.,-2.23792987640977E-14));
#606=DIRECTION('ref_axis',(-1.10578892278271E-22,1.,-4.94112409168373E-9));
#607=DIRECTION('',(-1.,0.,2.23792987640977E-14));
#608=DIRECTION('center_axis',(1.,0.,-2.23792987640977E-14));
#609=DIRECTION('ref_axis',(-1.10578892278271E-22,1.,-4.94112409168373E-9));
#610=DIRECTION('',(-1.,0.,2.23792987640977E-14));
#611=DIRECTION('center_axis',(1.,0.,-2.23792987640977E-14));
#612=DIRECTION('ref_axis',(-1.10578892278271E-22,1.,-4.94112409168373E-9));
#613=DIRECTION('',(-1.,0.,2.23792987640977E-14));
#614=DIRECTION('center_axis',(1.,0.,-2.23792987640977E-14));
#615=DIRECTION('ref_axis',(-1.10578892278271E-22,1.,-4.94112409168373E-9));
#616=DIRECTION('',(-1.,0.,2.23792987640977E-14));
#617=DIRECTION('center_axis',(1.,0.,-2.23792987640977E-14));
#618=DIRECTION('ref_axis',(-1.10578892278271E-22,1.,-4.94112409168373E-9));
#619=DIRECTION('',(-1.,0.,2.23792987640976E-14));
#620=DIRECTION('center_axis',(1.,0.,-2.23792987640977E-14));
#621=DIRECTION('ref_axis',(-1.10578892278271E-22,1.,-4.94112409168373E-9));
#622=DIRECTION('',(-1.,0.,2.23792987640977E-14));
#623=DIRECTION('center_axis',(1.,0.,-2.23792987640977E-14));
#624=DIRECTION('ref_axis',(-1.10578892278271E-22,1.,-4.94112409168373E-9));
#625=DIRECTION('',(-1.,0.,2.23792987640976E-14));
#626=DIRECTION('center_axis',(1.,0.,-2.23792987640977E-14));
#627=DIRECTION('ref_axis',(-1.10578892278271E-22,1.,-4.94112409168373E-9));
#628=DIRECTION('',(-1.,0.,2.23792987640977E-14));
#629=DIRECTION('center_axis',(1.,0.,-2.23792987640977E-14));
#630=DIRECTION('ref_axis',(-1.10578892278271E-22,1.,-4.94112409168373E-9));
#631=DIRECTION('',(-1.,0.,2.23792987640976E-14));
#632=CARTESIAN_POINT('',(0.,0.,0.));
#633=CARTESIAN_POINT('Origin',(71.3500000000001,5.6467037514955E-14,161.000003814697));
#634=CARTESIAN_POINT('',(68.350000000004,5.57642574130895E-14,158.482503814697));
#635=CARTESIAN_POINT('Origin',(68.350000000004,5.63520608912242E-14,161.000003814697));
#636=CARTESIAN_POINT('',(62.000000000004,5.55208902261925E-14,158.482503814697));
#637=CARTESIAN_POINT('',(71.3500000000001,5.58792340368202E-14,158.482503814697));
#638=CARTESIAN_POINT('Origin',(62.000000000004,5.61086937043272E-14,161.000003814697));
#639=CARTESIAN_POINT('Origin',(71.350000000004,7.9081118779846,138.061460614882));
#640=CARTESIAN_POINT('',(68.3500000000036,7.9081118779846,138.061460614882));
#641=CARTESIAN_POINT('',(68.350000000004,30.915591137782,157.700603627045));
#642=CARTESIAN_POINT('',(68.3500000000036,11.2842493043588,140.943325463985));
#643=CARTESIAN_POINT('',(62.000000000004,7.9081118779846,138.061460614882));
#644=CARTESIAN_POINT('',(71.350000000004,7.9081118779846,138.061460614882));
#645=CARTESIAN_POINT('',(62.000000000004,30.915591137782,157.700603627045));
#646=CARTESIAN_POINT('',(62.0000000000036,11.2842493043588,140.943325463985));
#647=CARTESIAN_POINT('',(71.350000000004,30.915591137782,157.700603627045));
#648=CARTESIAN_POINT('Origin',(71.350000000004,24.4232322747028,165.306474806141));
#649=CARTESIAN_POINT('',(68.3500000000043,27.9226921585936,174.67417359085));
#650=CARTESIAN_POINT('Origin',(68.350000000004,24.4232322747028,165.306474806141));
#651=CARTESIAN_POINT('',(62.000000000004,27.9226921585936,174.67417359085));
#652=CARTESIAN_POINT('Origin',(62.000000000004,24.4232322747028,165.306474806141));
#653=CARTESIAN_POINT('',(71.350000000004,27.9226921585936,174.67417359085));
#654=CARTESIAN_POINT('Origin',(71.350000000004,27.9226921585936,174.67417359085));
#655=CARTESIAN_POINT('',(68.3500000000045,-0.41426203814194,185.259914937115));
#656=CARTESIAN_POINT('',(68.3500000000044,17.9124092583115,178.41368154395));
#657=CARTESIAN_POINT('',(62.000000000004,-0.41426203814194,185.259914937115));
#658=CARTESIAN_POINT('',(62.0000000000044,17.9124092583115,178.41368154395));
#659=CARTESIAN_POINT('',(71.350000000004,-0.41426203814194,185.259914937115));
#660=CARTESIAN_POINT('Origin',(71.350000000004,-3.03884310917131,178.234135677715));
#661=CARTESIAN_POINT('',(68.3500000000045,-7.90811187798451,183.93853938512));
#662=CARTESIAN_POINT('Origin',(68.350000000004,-3.03884310917131,178.234135677715));
#663=CARTESIAN_POINT('',(62.000000000004,-7.90811187798451,183.93853938512));
#664=CARTESIAN_POINT('Origin',(62.000000000004,-3.03884310917131,178.234135677715));
#665=CARTESIAN_POINT('',(71.350000000004,-7.90811187798451,183.93853938512));
#666=CARTESIAN_POINT('Origin',(71.350000000004,-27.9226918053846,147.325826277205));
#667=CARTESIAN_POINT('',(68.3500000000038,-27.9226918053846,147.325826277205));
#668=CARTESIAN_POINT('',(68.3500000000035,0.414248152088521,136.740090250254));
#669=CARTESIAN_POINT('',(68.3500000000037,-17.9124090817066,143.586318390078));
#670=CARTESIAN_POINT('',(62.000000000004,-27.9226918053846,147.325826277205));
#671=CARTESIAN_POINT('',(71.350000000004,-27.9226918053846,147.325826277205));
#672=CARTESIAN_POINT('',(62.000000000004,0.414248152088521,136.740090250254));
#673=CARTESIAN_POINT('',(62.0000000000037,-17.9124090817066,143.586318390078));
#674=CARTESIAN_POINT('',(71.350000000004,0.414248152088521,136.740090250254));
#675=CARTESIAN_POINT('Origin',(71.350000000004,-24.4232322747028,156.693525193861));
#676=CARTESIAN_POINT('',(68.3500000000041,-30.9155018282305,164.29947260743));
#677=CARTESIAN_POINT('Origin',(68.350000000004,-24.4232322747028,156.693525193861));
#678=CARTESIAN_POINT('',(62.000000000004,-30.9155018282305,164.29947260743));
#679=CARTESIAN_POINT('',(71.350000000004,-30.9155018282305,164.29947260743));
#680=CARTESIAN_POINT('Origin',(62.000000000004,-24.4232322747028,156.693525193861));
#681=CARTESIAN_POINT('Origin',(71.350000000004,-7.90811187798451,183.93853938512));
#682=CARTESIAN_POINT('',(68.3500000000044,-11.2842493043593,181.056674536016));
#683=CARTESIAN_POINT('',(62.0000000000044,-11.2842493043592,181.056674536016));
#684=CARTESIAN_POINT('Origin',(71.350000000004,3.03884310917132,143.765864322287));
#685=CARTESIAN_POINT('Origin',(68.350000000004,3.03884310917132,143.765864322287));
#686=CARTESIAN_POINT('Origin',(62.000000000004,3.03884310917132,143.765864322287));
#687=CARTESIAN_POINT('Origin',(68.350000000004,1.52592493109962E-14,161.));
#688=CARTESIAN_POINT('',(68.3500000000041,21.9057322747028,165.306474818579));
#689=CARTESIAN_POINT('Origin',(68.3500000000041,24.4232322747028,165.30647480614));
#690=CARTESIAN_POINT('',(68.350000000004,-15.4373087476178,158.56892548459));
#691=CARTESIAN_POINT('Origin',(68.350000000004,-13.7873087476178,158.568925476437));
#692=CARTESIAN_POINT('',(68.3500000000038,7.34902666970749,150.275377644677));
#693=CARTESIAN_POINT('Origin',(68.3500000000038,8.99902666970749,150.275377636525));
#694=CARTESIAN_POINT('',(68.3500000000044,-5.55634310917131,178.234135690153));
#695=CARTESIAN_POINT('Origin',(68.3500000000044,-3.03884310917131,178.234135677713));
#696=CARTESIAN_POINT('',(68.3500000000038,-6.43828207791034,147.844303121115));
#697=CARTESIAN_POINT('Origin',(68.3500000000038,-4.78828207791034,147.844303112962));
#698=CARTESIAN_POINT('',(68.3500000000042,-10.6490266697075,171.724622371628));
#699=CARTESIAN_POINT('Origin',(68.3500000000042,-8.9990266697075,171.724622363475));
#700=CARTESIAN_POINT('',(68.3500000000043,3.13828207791032,174.15569689519));
#701=CARTESIAN_POINT('Origin',(68.3500000000043,4.78828207791032,174.155696887038));
#702=CARTESIAN_POINT('',(68.3500000000041,12.1373087476178,163.431074531715));
#703=CARTESIAN_POINT('Origin',(68.3500000000041,13.7873087476178,163.431074523563));
#704=CARTESIAN_POINT('',(68.3500000000039,-26.9407322747028,156.693525206299));
#705=CARTESIAN_POINT('Origin',(68.3500000000039,-24.4232322747028,156.69352519386));
#706=CARTESIAN_POINT('',(68.3500000000036,0.521343109171322,143.765864334725));
#707=CARTESIAN_POINT('Origin',(68.3500000000036,3.03884310917132,143.765864322286));
#708=CARTESIAN_POINT('Origin',(62.000000000004,1.52592493109962E-14,161.));
#709=CARTESIAN_POINT('',(62.0000000000041,21.9057322747028,165.306474818579));
#710=CARTESIAN_POINT('Origin',(62.0000000000041,24.4232322747028,165.30647480614));
#711=CARTESIAN_POINT('',(62.000000000004,-15.4373087476178,158.56892548459));
#712=CARTESIAN_POINT('Origin',(62.000000000004,-13.7873087476178,158.568925476437));
#713=CARTESIAN_POINT('',(62.0000000000038,7.34902666970749,150.275377644678));
#714=CARTESIAN_POINT('Origin',(62.0000000000038,8.99902666970749,150.275377636525));
#715=CARTESIAN_POINT('',(62.0000000000044,-5.55634310917131,178.234135690153));
#716=CARTESIAN_POINT('Origin',(62.0000000000044,-3.03884310917131,178.234135677713));
#717=CARTESIAN_POINT('',(62.0000000000038,-6.43828207791034,147.844303121115));
#718=CARTESIAN_POINT('Origin',(62.0000000000038,-4.78828207791034,147.844303112962));
#719=CARTESIAN_POINT('',(62.0000000000042,-10.6490266697075,171.724622371628));
#720=CARTESIAN_POINT('Origin',(62.0000000000042,-8.9990266697075,171.724622363475));
#721=CARTESIAN_POINT('',(62.0000000000043,3.13828207791032,174.155696895191));
#722=CARTESIAN_POINT('Origin',(62.0000000000043,4.78828207791032,174.155696887038));
#723=CARTESIAN_POINT('',(62.0000000000041,12.1373087476178,163.431074531716));
#724=CARTESIAN_POINT('Origin',(62.0000000000041,13.7873087476178,163.431074523563));
#725=CARTESIAN_POINT('',(62.0000000000039,-26.9407322747028,156.693525206299));
#726=CARTESIAN_POINT('Origin',(62.0000000000039,-24.4232322747028,156.69352519386));
#727=CARTESIAN_POINT('',(62.0000000000036,0.521343109171322,143.765864334725));
#728=CARTESIAN_POINT('Origin',(62.0000000000036,3.03884310917132,143.765864322286));
#729=CARTESIAN_POINT('Origin',(62.0000000000037,3.03884310917132,143.765864322286));
#730=CARTESIAN_POINT('',(62.0000000000037,0.521343109171322,143.765864334725));
#731=CARTESIAN_POINT('Origin',(62.0000000000039,-24.4232322747028,156.69352519386));
#732=CARTESIAN_POINT('',(62.0000000000039,-26.9407322747028,156.693525206299));
#733=CARTESIAN_POINT('Origin',(62.0000000000041,13.7873087476178,163.431074523563));
#734=CARTESIAN_POINT('',(62.0000000000041,12.1373087476178,163.431074531715));
#735=CARTESIAN_POINT('Origin',(62.0000000000043,4.78828207791032,174.155696887038));
#736=CARTESIAN_POINT('',(62.0000000000043,3.13828207791032,174.155696895191));
#737=CARTESIAN_POINT('Origin',(62.0000000000042,-8.9990266697075,171.724622363475));
#738=CARTESIAN_POINT('',(62.0000000000042,-10.6490266697075,171.724622371628));
#739=CARTESIAN_POINT('Origin',(62.0000000000038,-4.78828207791034,147.844303112962));
#740=CARTESIAN_POINT('',(62.0000000000038,-6.43828207791034,147.844303121115));
#741=CARTESIAN_POINT('Origin',(62.0000000000044,-3.03884310917131,178.234135677713));
#742=CARTESIAN_POINT('',(62.0000000000044,-5.55634310917131,178.234135690153));
#743=CARTESIAN_POINT('Origin',(62.0000000000038,8.99902666970749,150.275377636525));
#744=CARTESIAN_POINT('',(62.0000000000038,7.34902666970749,150.275377644678));
#745=CARTESIAN_POINT('Origin',(62.000000000004,-13.7873087476178,158.568925476437));
#746=CARTESIAN_POINT('',(62.000000000004,-15.4373087476178,158.56892548459));
#747=CARTESIAN_POINT('Origin',(62.0000000000041,24.4232322747028,165.30647480614));
#748=CARTESIAN_POINT('',(62.0000000000041,21.9057322747028,165.306474818579));
#749=UNCERTAINTY_MEASURE_WITH_UNIT(LENGTH_MEASURE(0.01),#753,
'DISTANCE_ACCURACY_VALUE',
'Maximum model space distance between geometric entities at asserted c
onnectivities');
#750=UNCERTAINTY_MEASURE_WITH_UNIT(LENGTH_MEASURE(0.01),#753,
'DISTANCE_ACCURACY_VALUE',
'Maximum model space distance between geometric entities at asserted c
onnectivities');
#751=(
GEOMETRIC_REPRESENTATION_CONTEXT(3)
GLOBAL_UNCERTAINTY_ASSIGNED_CONTEXT((#749))
GLOBAL_UNIT_ASSIGNED_CONTEXT((#753,#755,#756))
REPRESENTATION_CONTEXT('','3D')
);
#752=(
GEOMETRIC_REPRESENTATION_CONTEXT(3)
GLOBAL_UNCERTAINTY_ASSIGNED_CONTEXT((#750))
GLOBAL_UNIT_ASSIGNED_CONTEXT((#753,#755,#756))
REPRESENTATION_CONTEXT('','3D')
);
#753=(
LENGTH_UNIT()
NAMED_UNIT(*)
SI_UNIT(.MILLI.,.METRE.)
);
#754=(
LENGTH_UNIT()
NAMED_UNIT(*)
SI_UNIT($,.METRE.)
);
#755=(
NAMED_UNIT(*)
PLANE_ANGLE_UNIT()
SI_UNIT($,.RADIAN.)
);
#756=(
NAMED_UNIT(*)
SI_UNIT($,.STERADIAN.)
SOLID_ANGLE_UNIT()
);
#757=SHAPE_DEFINITION_REPRESENTATION(#758,#759);
#758=PRODUCT_DEFINITION_SHAPE('',$,#761);
#759=SHAPE_REPRESENTATION('',(#449),#751);
#760=PRODUCT_DEFINITION_CONTEXT('part definition',#765,'design');
#761=PRODUCT_DEFINITION('Vixen  Adapter Plate','Vixen  Adapter Plate',#762,
#760);
#762=PRODUCT_DEFINITION_FORMATION('',$,#767);
#763=PRODUCT_RELATED_PRODUCT_CATEGORY('Vixen  Adapter Plate',
'Vixen  Adapter Plate',(#767));
#764=APPLICATION_PROTOCOL_DEFINITION('international standard',
'automotive_design',2009,#765);
#765=APPLICATION_CONTEXT(
'Core Data for Automotive Mechanical Design Process');
#766=PRODUCT_CONTEXT('part definition',#765,'mechanical');
#767=PRODUCT('Vixen  Adapter Plate','Vixen  Adapter Plate',$,(#766));
#768=PRESENTATION_STYLE_ASSIGNMENT((#769));
#769=SURFACE_STYLE_USAGE(.BOTH.,#770);
#770=SURFACE_SIDE_STYLE('',(#771));
#771=SURFACE_STYLE_FILL_AREA(#772);
#772=FILL_AREA_STYLE('Aluminum - Satin',(#773));
#773=FILL_AREA_STYLE_COLOUR('Aluminum - Satin',#774);
#774=COLOUR_RGB('Aluminum - Satin',0.96078431372549,0.96078431372549,0.964705882352941);
ENDSEC;
END-ISO-10303-21;
