ISO-10303-21;
HEADER;
/* Generated by software containing ST-Developer
 * from STEP Tools, Inc. (www.steptools.com) 
 */

FILE_DESCRIPTION(
/* description */ (''),
/* implementation_level */ '2;1');

FILE_NAME(
/* name */ 'Back Plate.step',
/* time_stamp */ '2026-08-23T20:35:56-06:00',
/* author */ (''),
/* organization */ (''),
/* preprocessor_version */ 'ST-DEVELOPER v20.1',
/* originating_system */ 'Autodesk Translation Framework v15.8.0.0',
/* authorisation */ '');

FILE_SCHEMA (('AUTOMOTIVE_DESIGN { 1 0 10303 214 3 1 1 }'));
ENDSEC;

DATA;
#10=MECHANICAL_DESIGN_GEOMETRIC_PRESENTATION_REPRESENTATION('',(#13),#1255);
#11=SHAPE_REPRESENTATION_RELATIONSHIP('SRR','None',#1262,#12);
#12=ADVANCED_BREP_SHAPE_REPRESENTATION('',(#14),#1254);
#13=STYLED_ITEM('',(#1271),#14);
#14=MANIFOLD_SOLID_BREP('Body1',#727);
#15=FACE_BOUND('',#84,.T.);
#16=FACE_BOUND('',#85,.T.);
#17=FACE_BOUND('',#86,.T.);
#18=FACE_BOUND('',#87,.T.);
#19=FACE_BOUND('',#88,.T.);
#20=FACE_BOUND('',#89,.T.);
#21=FACE_BOUND('',#90,.T.);
#22=FACE_BOUND('',#91,.T.);
#23=FACE_BOUND('',#92,.T.);
#24=FACE_BOUND('',#101,.T.);
#25=FACE_BOUND('',#102,.T.);
#26=FACE_BOUND('',#103,.T.);
#27=FACE_BOUND('',#104,.T.);
#28=FACE_BOUND('',#105,.T.);
#29=FACE_BOUND('',#106,.T.);
#30=FACE_BOUND('',#107,.T.);
#31=FACE_BOUND('',#108,.T.);
#32=FACE_BOUND('',#109,.T.);
#33=PLANE('',#744);
#34=PLANE('',#777);
#35=PLANE('',#778);
#36=PLANE('',#779);
#37=PLANE('',#797);
#38=PLANE('',#798);
#39=PLANE('',#800);
#40=PLANE('',#802);
#41=PLANE('',#803);
#42=PLANE('',#804);
#43=PLANE('',#807);
#44=PLANE('',#810);
#45=PLANE('',#814);
#46=FACE_OUTER_BOUND('',#82,.T.);
#47=FACE_OUTER_BOUND('',#83,.T.);
#48=FACE_OUTER_BOUND('',#93,.T.);
#49=FACE_OUTER_BOUND('',#94,.T.);
#50=FACE_OUTER_BOUND('',#95,.T.);
#51=FACE_OUTER_BOUND('',#96,.T.);
#52=FACE_OUTER_BOUND('',#97,.T.);
#53=FACE_OUTER_BOUND('',#98,.T.);
#54=FACE_OUTER_BOUND('',#99,.T.);
#55=FACE_OUTER_BOUND('',#100,.T.);
#56=FACE_OUTER_BOUND('',#110,.T.);
#57=FACE_OUTER_BOUND('',#111,.T.);
#58=FACE_OUTER_BOUND('',#112,.T.);
#59=FACE_OUTER_BOUND('',#113,.T.);
#60=FACE_OUTER_BOUND('',#114,.T.);
#61=FACE_OUTER_BOUND('',#115,.T.);
#62=FACE_OUTER_BOUND('',#116,.T.);
#63=FACE_OUTER_BOUND('',#117,.T.);
#64=FACE_OUTER_BOUND('',#118,.T.);
#65=FACE_OUTER_BOUND('',#119,.T.);
#66=FACE_OUTER_BOUND('',#120,.T.);
#67=FACE_OUTER_BOUND('',#121,.T.);
#68=FACE_OUTER_BOUND('',#122,.T.);
#69=FACE_OUTER_BOUND('',#123,.T.);
#70=FACE_OUTER_BOUND('',#124,.T.);
#71=FACE_OUTER_BOUND('',#125,.T.);
#72=FACE_OUTER_BOUND('',#126,.T.);
#73=FACE_OUTER_BOUND('',#127,.T.);
#74=FACE_OUTER_BOUND('',#128,.T.);
#75=FACE_OUTER_BOUND('',#129,.T.);
#76=FACE_OUTER_BOUND('',#130,.T.);
#77=FACE_OUTER_BOUND('',#131,.T.);
#78=FACE_OUTER_BOUND('',#132,.T.);
#79=FACE_OUTER_BOUND('',#133,.T.);
#80=FACE_OUTER_BOUND('',#134,.T.);
#81=FACE_OUTER_BOUND('',#135,.T.);
#82=EDGE_LOOP('',(#464,#465,#466,#467));
#83=EDGE_LOOP('',(#468,#469,#470,#471,#472,#473,#474,#475,#476,#477,#478,
#479,#480,#481,#482,#483));
#84=EDGE_LOOP('',(#484));
#85=EDGE_LOOP('',(#485));
#86=EDGE_LOOP('',(#486));
#87=EDGE_LOOP('',(#487));
#88=EDGE_LOOP('',(#488));
#89=EDGE_LOOP('',(#489));
#90=EDGE_LOOP('',(#490));
#91=EDGE_LOOP('',(#491));
#92=EDGE_LOOP('',(#492,#493,#494,#495,#496,#497,#498,#499,#500,#501));
#93=EDGE_LOOP('',(#502,#503,#504,#505));
#94=EDGE_LOOP('',(#506,#507,#508,#509));
#95=EDGE_LOOP('',(#510,#511,#512,#513));
#96=EDGE_LOOP('',(#514,#515,#516,#517));
#97=EDGE_LOOP('',(#518,#519,#520,#521));
#98=EDGE_LOOP('',(#522,#523,#524,#525));
#99=EDGE_LOOP('',(#526,#527,#528,#529));
#100=EDGE_LOOP('',(#530,#531,#532,#533,#534,#535,#536,#537,#538,#539,#540,
#541,#542,#543,#544,#545));
#101=EDGE_LOOP('',(#546));
#102=EDGE_LOOP('',(#547));
#103=EDGE_LOOP('',(#548));
#104=EDGE_LOOP('',(#549));
#105=EDGE_LOOP('',(#550));
#106=EDGE_LOOP('',(#551));
#107=EDGE_LOOP('',(#552));
#108=EDGE_LOOP('',(#553));
#109=EDGE_LOOP('',(#554,#555,#556,#557,#558,#559,#560,#561,#562,#563));
#110=EDGE_LOOP('',(#564,#565,#566,#567));
#111=EDGE_LOOP('',(#568,#569,#570,#571));
#112=EDGE_LOOP('',(#572,#573,#574,#575));
#113=EDGE_LOOP('',(#576,#577,#578,#579));
#114=EDGE_LOOP('',(#580,#581,#582,#583));
#115=EDGE_LOOP('',(#584,#585,#586,#587));
#116=EDGE_LOOP('',(#588,#589,#590,#591));
#117=EDGE_LOOP('',(#592,#593,#594,#595));
#118=EDGE_LOOP('',(#596,#597,#598,#599));
#119=EDGE_LOOP('',(#600,#601,#602,#603));
#120=EDGE_LOOP('',(#604,#605,#606,#607));
#121=EDGE_LOOP('',(#608,#609,#610,#611));
#122=EDGE_LOOP('',(#612,#613,#614,#615));
#123=EDGE_LOOP('',(#616,#617,#618,#619));
#124=EDGE_LOOP('',(#620,#621,#622,#623));
#125=EDGE_LOOP('',(#624,#625,#626,#627));
#126=EDGE_LOOP('',(#628,#629,#630,#631));
#127=EDGE_LOOP('',(#632,#633,#634,#635));
#128=EDGE_LOOP('',(#636,#637,#638,#639));
#129=EDGE_LOOP('',(#640,#641,#642,#643));
#130=EDGE_LOOP('',(#644,#645,#646,#647));
#131=EDGE_LOOP('',(#648,#649,#650,#651));
#132=EDGE_LOOP('',(#652,#653,#654,#655));
#133=EDGE_LOOP('',(#656,#657,#658,#659));
#134=EDGE_LOOP('',(#660,#661,#662,#663));
#135=EDGE_LOOP('',(#664,#665,#666,#667));
#136=LINE('',#1051,#192);
#137=LINE('',#1054,#193);
#138=LINE('',#1061,#194);
#139=LINE('',#1065,#195);
#140=LINE('',#1069,#196);
#141=LINE('',#1077,#197);
#142=LINE('',#1081,#198);
#143=LINE('',#1084,#199);
#144=LINE('',#1103,#200);
#145=LINE('',#1107,#201);
#146=LINE('',#1111,#202);
#147=LINE('',#1115,#203);
#148=LINE('',#1119,#204);
#149=LINE('',#1124,#205);
#150=LINE('',#1128,#206);
#151=LINE('',#1133,#207);
#152=LINE('',#1134,#208);
#153=LINE('',#1137,#209);
#154=LINE('',#1141,#210);
#155=LINE('',#1145,#211);
#156=LINE('',#1146,#212);
#157=LINE('',#1149,#213);
#158=LINE('',#1150,#214);
#159=LINE('',#1155,#215);
#160=LINE('',#1158,#216);
#161=LINE('',#1160,#217);
#162=LINE('',#1164,#218);
#163=LINE('',#1184,#219);
#164=LINE('',#1188,#220);
#165=LINE('',#1192,#221);
#166=LINE('',#1196,#222);
#167=LINE('',#1200,#223);
#168=LINE('',#1203,#224);
#169=LINE('',#1205,#225);
#170=LINE('',#1207,#226);
#171=LINE('',#1208,#227);
#172=LINE('',#1210,#228);
#173=LINE('',#1212,#229);
#174=LINE('',#1213,#230);
#175=LINE('',#1215,#231);
#176=LINE('',#1217,#232);
#177=LINE('',#1219,#233);
#178=LINE('',#1222,#234);
#179=LINE('',#1224,#235);
#180=LINE('',#1227,#236);
#181=LINE('',#1229,#237);
#182=LINE('',#1232,#238);
#183=LINE('',#1234,#239);
#184=LINE('',#1237,#240);
#185=LINE('',#1239,#241);
#186=LINE('',#1241,#242);
#187=LINE('',#1243,#243);
#188=LINE('',#1245,#244);
#189=LINE('',#1247,#245);
#190=LINE('',#1249,#246);
#191=LINE('',#1251,#247);
#192=VECTOR('',#829,10.);
#193=VECTOR('',#832,10.);
#194=VECTOR('',#839,10.);
#195=VECTOR('',#842,10.);
#196=VECTOR('',#845,10.);
#197=VECTOR('',#852,10.);
#198=VECTOR('',#855,10.);
#199=VECTOR('',#858,10.);
#200=VECTOR('',#875,10.);
#201=VECTOR('',#878,10.);
#202=VECTOR('',#881,10.);
#203=VECTOR('',#884,10.);
#204=VECTOR('',#887,10.);
#205=VECTOR('',#894,10.);
#206=VECTOR('',#899,10.);
#207=VECTOR('',#904,10.);
#208=VECTOR('',#905,10.);
#209=VECTOR('',#908,10.);
#210=VECTOR('',#913,10.);
#211=VECTOR('',#918,10.);
#212=VECTOR('',#919,10.);
#213=VECTOR('',#922,10.);
#214=VECTOR('',#923,10.);
#215=VECTOR('',#928,10.);
#216=VECTOR('',#931,10.);
#217=VECTOR('',#932,10.);
#218=VECTOR('',#935,10.);
#219=VECTOR('',#954,10.);
#220=VECTOR('',#957,10.);
#221=VECTOR('',#960,10.);
#222=VECTOR('',#963,10.);
#223=VECTOR('',#966,10.);
#224=VECTOR('',#971,10.);
#225=VECTOR('',#974,10.);
#226=VECTOR('',#977,10.);
#227=VECTOR('',#978,10.);
#228=VECTOR('',#981,10.);
#229=VECTOR('',#984,10.);
#230=VECTOR('',#985,10.);
#231=VECTOR('',#988,10.);
#232=VECTOR('',#991,10.);
#233=VECTOR('',#994,10.);
#234=VECTOR('',#999,10.);
#235=VECTOR('',#1002,10.);
#236=VECTOR('',#1007,10.);
#237=VECTOR('',#1010,10.);
#238=VECTOR('',#1015,10.);
#239=VECTOR('',#1018,10.);
#240=VECTOR('',#1023,2.65000000000001);
#241=VECTOR('',#1026,2.65000000000001);
#242=VECTOR('',#1029,2.65000000000001);
#243=VECTOR('',#1032,2.65000000000001);
#244=VECTOR('',#1035,2.65000000000001);
#245=VECTOR('',#1038,2.64999999999999);
#246=VECTOR('',#1041,2.65);
#247=VECTOR('',#1044,2.65);
#248=CIRCLE('',#742,10.);
#249=CIRCLE('',#743,10.);
#250=CIRCLE('',#745,139.330061088944);
#251=CIRCLE('',#746,10.);
#252=CIRCLE('',#747,3.);
#253=CIRCLE('',#748,3.);
#254=CIRCLE('',#749,10.);
#255=CIRCLE('',#750,139.330061088944);
#256=CIRCLE('',#751,10.);
#257=CIRCLE('',#752,3.);
#258=CIRCLE('',#753,3.);
#259=CIRCLE('',#754,2.65000000000001);
#260=CIRCLE('',#755,2.65000000000001);
#261=CIRCLE('',#756,2.65000000000001);
#262=CIRCLE('',#757,2.65000000000001);
#263=CIRCLE('',#758,2.65000000000001);
#264=CIRCLE('',#759,2.64999999999999);
#265=CIRCLE('',#760,2.65);
#266=CIRCLE('',#761,2.65);
#267=CIRCLE('',#762,5.);
#268=CIRCLE('',#763,5.);
#269=CIRCLE('',#764,5.);
#270=CIRCLE('',#765,10.);
#271=CIRCLE('',#766,5.);
#272=CIRCLE('',#768,139.330061088944);
#273=CIRCLE('',#770,10.);
#274=CIRCLE('',#772,10.);
#275=CIRCLE('',#774,139.330061088944);
#276=CIRCLE('',#776,10.);
#277=CIRCLE('',#780,3.);
#278=CIRCLE('',#781,3.);
#279=CIRCLE('',#782,3.);
#280=CIRCLE('',#783,3.);
#281=CIRCLE('',#784,2.65000000000001);
#282=CIRCLE('',#785,2.65000000000001);
#283=CIRCLE('',#786,2.65000000000001);
#284=CIRCLE('',#787,2.65000000000001);
#285=CIRCLE('',#788,2.65000000000001);
#286=CIRCLE('',#789,2.64999999999999);
#287=CIRCLE('',#790,2.65);
#288=CIRCLE('',#791,2.65);
#289=CIRCLE('',#792,5.);
#290=CIRCLE('',#793,10.);
#291=CIRCLE('',#794,5.);
#292=CIRCLE('',#795,5.);
#293=CIRCLE('',#796,5.);
#294=VERTEX_POINT('',#1047);
#295=VERTEX_POINT('',#1048);
#296=VERTEX_POINT('',#1050);
#297=VERTEX_POINT('',#1052);
#298=VERTEX_POINT('',#1056);
#299=VERTEX_POINT('',#1058);
#300=VERTEX_POINT('',#1060);
#301=VERTEX_POINT('',#1062);
#302=VERTEX_POINT('',#1064);
#303=VERTEX_POINT('',#1066);
#304=VERTEX_POINT('',#1068);
#305=VERTEX_POINT('',#1070);
#306=VERTEX_POINT('',#1072);
#307=VERTEX_POINT('',#1074);
#308=VERTEX_POINT('',#1076);
#309=VERTEX_POINT('',#1078);
#310=VERTEX_POINT('',#1080);
#311=VERTEX_POINT('',#1082);
#312=VERTEX_POINT('',#1085);
#313=VERTEX_POINT('',#1087);
#314=VERTEX_POINT('',#1089);
#315=VERTEX_POINT('',#1091);
#316=VERTEX_POINT('',#1093);
#317=VERTEX_POINT('',#1095);
#318=VERTEX_POINT('',#1097);
#319=VERTEX_POINT('',#1099);
#320=VERTEX_POINT('',#1101);
#321=VERTEX_POINT('',#1102);
#322=VERTEX_POINT('',#1104);
#323=VERTEX_POINT('',#1106);
#324=VERTEX_POINT('',#1108);
#325=VERTEX_POINT('',#1110);
#326=VERTEX_POINT('',#1112);
#327=VERTEX_POINT('',#1114);
#328=VERTEX_POINT('',#1116);
#329=VERTEX_POINT('',#1118);
#330=VERTEX_POINT('',#1122);
#331=VERTEX_POINT('',#1126);
#332=VERTEX_POINT('',#1130);
#333=VERTEX_POINT('',#1131);
#334=VERTEX_POINT('',#1136);
#335=VERTEX_POINT('',#1140);
#336=VERTEX_POINT('',#1144);
#337=VERTEX_POINT('',#1148);
#338=VERTEX_POINT('',#1152);
#339=VERTEX_POINT('',#1154);
#340=VERTEX_POINT('',#1156);
#341=VERTEX_POINT('',#1159);
#342=VERTEX_POINT('',#1161);
#343=VERTEX_POINT('',#1163);
#344=VERTEX_POINT('',#1166);
#345=VERTEX_POINT('',#1168);
#346=VERTEX_POINT('',#1170);
#347=VERTEX_POINT('',#1172);
#348=VERTEX_POINT('',#1174);
#349=VERTEX_POINT('',#1176);
#350=VERTEX_POINT('',#1178);
#351=VERTEX_POINT('',#1180);
#352=VERTEX_POINT('',#1182);
#353=VERTEX_POINT('',#1183);
#354=VERTEX_POINT('',#1185);
#355=VERTEX_POINT('',#1187);
#356=VERTEX_POINT('',#1189);
#357=VERTEX_POINT('',#1191);
#358=VERTEX_POINT('',#1193);
#359=VERTEX_POINT('',#1195);
#360=VERTEX_POINT('',#1197);
#361=VERTEX_POINT('',#1199);
#362=EDGE_CURVE('',#294,#295,#248,.T.);
#363=EDGE_CURVE('',#295,#296,#136,.T.);
#364=EDGE_CURVE('',#296,#297,#249,.T.);
#365=EDGE_CURVE('',#297,#294,#137,.T.);
#366=EDGE_CURVE('',#294,#298,#250,.T.);
#367=EDGE_CURVE('',#299,#298,#251,.T.);
#368=EDGE_CURVE('',#299,#300,#138,.T.);
#369=EDGE_CURVE('',#301,#300,#252,.T.);
#370=EDGE_CURVE('',#301,#302,#139,.T.);
#371=EDGE_CURVE('',#303,#302,#253,.T.);
#372=EDGE_CURVE('',#303,#304,#140,.T.);
#373=EDGE_CURVE('',#305,#304,#254,.T.);
#374=EDGE_CURVE('',#305,#306,#255,.T.);
#375=EDGE_CURVE('',#307,#306,#256,.T.);
#376=EDGE_CURVE('',#307,#308,#141,.T.);
#377=EDGE_CURVE('',#309,#308,#257,.T.);
#378=EDGE_CURVE('',#309,#310,#142,.T.);
#379=EDGE_CURVE('',#311,#310,#258,.T.);
#380=EDGE_CURVE('',#311,#295,#143,.T.);
#381=EDGE_CURVE('',#312,#312,#259,.T.);
#382=EDGE_CURVE('',#313,#313,#260,.T.);
#383=EDGE_CURVE('',#314,#314,#261,.T.);
#384=EDGE_CURVE('',#315,#315,#262,.T.);
#385=EDGE_CURVE('',#316,#316,#263,.T.);
#386=EDGE_CURVE('',#317,#317,#264,.T.);
#387=EDGE_CURVE('',#318,#318,#265,.T.);
#388=EDGE_CURVE('',#319,#319,#266,.T.);
#389=EDGE_CURVE('',#320,#321,#144,.T.);
#390=EDGE_CURVE('',#322,#321,#267,.T.);
#391=EDGE_CURVE('',#322,#323,#145,.T.);
#392=EDGE_CURVE('',#324,#323,#268,.T.);
#393=EDGE_CURVE('',#324,#325,#146,.T.);
#394=EDGE_CURVE('',#326,#325,#269,.T.);
#395=EDGE_CURVE('',#326,#327,#147,.T.);
#396=EDGE_CURVE('',#328,#327,#270,.T.);
#397=EDGE_CURVE('',#328,#329,#148,.T.);
#398=EDGE_CURVE('',#320,#329,#271,.T.);
#399=EDGE_CURVE('',#330,#297,#272,.T.);
#400=EDGE_CURVE('',#298,#330,#149,.T.);
#401=EDGE_CURVE('',#330,#331,#273,.T.);
#402=EDGE_CURVE('',#331,#299,#150,.T.);
#403=EDGE_CURVE('',#332,#333,#274,.T.);
#404=EDGE_CURVE('',#333,#307,#151,.T.);
#405=EDGE_CURVE('',#306,#332,#152,.T.);
#406=EDGE_CURVE('',#334,#305,#153,.T.);
#407=EDGE_CURVE('',#332,#334,#275,.T.);
#408=EDGE_CURVE('',#304,#335,#154,.T.);
#409=EDGE_CURVE('',#335,#334,#276,.T.);
#410=EDGE_CURVE('',#331,#336,#155,.T.);
#411=EDGE_CURVE('',#300,#336,#156,.T.);
#412=EDGE_CURVE('',#337,#311,#157,.T.);
#413=EDGE_CURVE('',#337,#296,#158,.T.);
#414=EDGE_CURVE('',#338,#337,#277,.T.);
#415=EDGE_CURVE('',#339,#338,#159,.T.);
#416=EDGE_CURVE('',#340,#339,#278,.T.);
#417=EDGE_CURVE('',#333,#340,#160,.T.);
#418=EDGE_CURVE('',#341,#335,#161,.T.);
#419=EDGE_CURVE('',#342,#341,#279,.T.);
#420=EDGE_CURVE('',#343,#342,#162,.T.);
#421=EDGE_CURVE('',#336,#343,#280,.T.);
#422=EDGE_CURVE('',#344,#344,#281,.T.);
#423=EDGE_CURVE('',#345,#345,#282,.T.);
#424=EDGE_CURVE('',#346,#346,#283,.T.);
#425=EDGE_CURVE('',#347,#347,#284,.T.);
#426=EDGE_CURVE('',#348,#348,#285,.T.);
#427=EDGE_CURVE('',#349,#349,#286,.T.);
#428=EDGE_CURVE('',#350,#350,#287,.T.);
#429=EDGE_CURVE('',#351,#351,#288,.T.);
#430=EDGE_CURVE('',#352,#353,#163,.T.);
#431=EDGE_CURVE('',#354,#353,#289,.T.);
#432=EDGE_CURVE('',#354,#355,#164,.T.);
#433=EDGE_CURVE('',#356,#355,#290,.T.);
#434=EDGE_CURVE('',#356,#357,#165,.T.);
#435=EDGE_CURVE('',#358,#357,#291,.T.);
#436=EDGE_CURVE('',#358,#359,#166,.T.);
#437=EDGE_CURVE('',#360,#359,#292,.T.);
#438=EDGE_CURVE('',#361,#360,#167,.T.);
#439=EDGE_CURVE('',#352,#361,#293,.T.);
#440=EDGE_CURVE('',#308,#340,#168,.T.);
#441=EDGE_CURVE('',#341,#303,#169,.T.);
#442=EDGE_CURVE('',#325,#358,#170,.T.);
#443=EDGE_CURVE('',#357,#326,#171,.T.);
#444=EDGE_CURVE('',#359,#324,#172,.T.);
#445=EDGE_CURVE('',#353,#320,#173,.T.);
#446=EDGE_CURVE('',#329,#354,#174,.T.);
#447=EDGE_CURVE('',#321,#352,#175,.T.);
#448=EDGE_CURVE('',#355,#328,#176,.T.);
#449=EDGE_CURVE('',#327,#356,#177,.T.);
#450=EDGE_CURVE('',#310,#338,#178,.T.);
#451=EDGE_CURVE('',#339,#309,#179,.T.);
#452=EDGE_CURVE('',#343,#301,#180,.T.);
#453=EDGE_CURVE('',#302,#342,#181,.T.);
#454=EDGE_CURVE('',#323,#360,#182,.T.);
#455=EDGE_CURVE('',#361,#322,#183,.T.);
#456=EDGE_CURVE('',#312,#344,#184,.T.);
#457=EDGE_CURVE('',#313,#345,#185,.T.);
#458=EDGE_CURVE('',#314,#346,#186,.T.);
#459=EDGE_CURVE('',#315,#347,#187,.T.);
#460=EDGE_CURVE('',#316,#348,#188,.T.);
#461=EDGE_CURVE('',#317,#349,#189,.T.);
#462=EDGE_CURVE('',#318,#350,#190,.T.);
#463=EDGE_CURVE('',#319,#351,#191,.T.);
#464=ORIENTED_EDGE('',*,*,#362,.T.);
#465=ORIENTED_EDGE('',*,*,#363,.T.);
#466=ORIENTED_EDGE('',*,*,#364,.T.);
#467=ORIENTED_EDGE('',*,*,#365,.T.);
#468=ORIENTED_EDGE('',*,*,#362,.F.);
#469=ORIENTED_EDGE('',*,*,#366,.T.);
#470=ORIENTED_EDGE('',*,*,#367,.F.);
#471=ORIENTED_EDGE('',*,*,#368,.T.);
#472=ORIENTED_EDGE('',*,*,#369,.F.);
#473=ORIENTED_EDGE('',*,*,#370,.T.);
#474=ORIENTED_EDGE('',*,*,#371,.F.);
#475=ORIENTED_EDGE('',*,*,#372,.T.);
#476=ORIENTED_EDGE('',*,*,#373,.F.);
#477=ORIENTED_EDGE('',*,*,#374,.T.);
#478=ORIENTED_EDGE('',*,*,#375,.F.);
#479=ORIENTED_EDGE('',*,*,#376,.T.);
#480=ORIENTED_EDGE('',*,*,#377,.F.);
#481=ORIENTED_EDGE('',*,*,#378,.T.);
#482=ORIENTED_EDGE('',*,*,#379,.F.);
#483=ORIENTED_EDGE('',*,*,#380,.T.);
#484=ORIENTED_EDGE('',*,*,#381,.T.);
#485=ORIENTED_EDGE('',*,*,#382,.T.);
#486=ORIENTED_EDGE('',*,*,#383,.T.);
#487=ORIENTED_EDGE('',*,*,#384,.T.);
#488=ORIENTED_EDGE('',*,*,#385,.T.);
#489=ORIENTED_EDGE('',*,*,#386,.T.);
#490=ORIENTED_EDGE('',*,*,#387,.T.);
#491=ORIENTED_EDGE('',*,*,#388,.T.);
#492=ORIENTED_EDGE('',*,*,#389,.T.);
#493=ORIENTED_EDGE('',*,*,#390,.F.);
#494=ORIENTED_EDGE('',*,*,#391,.T.);
#495=ORIENTED_EDGE('',*,*,#392,.F.);
#496=ORIENTED_EDGE('',*,*,#393,.T.);
#497=ORIENTED_EDGE('',*,*,#394,.F.);
#498=ORIENTED_EDGE('',*,*,#395,.T.);
#499=ORIENTED_EDGE('',*,*,#396,.F.);
#500=ORIENTED_EDGE('',*,*,#397,.T.);
#501=ORIENTED_EDGE('',*,*,#398,.F.);
#502=ORIENTED_EDGE('',*,*,#365,.F.);
#503=ORIENTED_EDGE('',*,*,#399,.F.);
#504=ORIENTED_EDGE('',*,*,#400,.F.);
#505=ORIENTED_EDGE('',*,*,#366,.F.);
#506=ORIENTED_EDGE('',*,*,#401,.T.);
#507=ORIENTED_EDGE('',*,*,#402,.T.);
#508=ORIENTED_EDGE('',*,*,#367,.T.);
#509=ORIENTED_EDGE('',*,*,#400,.T.);
#510=ORIENTED_EDGE('',*,*,#403,.T.);
#511=ORIENTED_EDGE('',*,*,#404,.T.);
#512=ORIENTED_EDGE('',*,*,#375,.T.);
#513=ORIENTED_EDGE('',*,*,#405,.T.);
#514=ORIENTED_EDGE('',*,*,#405,.F.);
#515=ORIENTED_EDGE('',*,*,#374,.F.);
#516=ORIENTED_EDGE('',*,*,#406,.F.);
#517=ORIENTED_EDGE('',*,*,#407,.F.);
#518=ORIENTED_EDGE('',*,*,#373,.T.);
#519=ORIENTED_EDGE('',*,*,#408,.T.);
#520=ORIENTED_EDGE('',*,*,#409,.T.);
#521=ORIENTED_EDGE('',*,*,#406,.T.);
#522=ORIENTED_EDGE('',*,*,#402,.F.);
#523=ORIENTED_EDGE('',*,*,#410,.T.);
#524=ORIENTED_EDGE('',*,*,#411,.F.);
#525=ORIENTED_EDGE('',*,*,#368,.F.);
#526=ORIENTED_EDGE('',*,*,#363,.F.);
#527=ORIENTED_EDGE('',*,*,#380,.F.);
#528=ORIENTED_EDGE('',*,*,#412,.F.);
#529=ORIENTED_EDGE('',*,*,#413,.T.);
#530=ORIENTED_EDGE('',*,*,#364,.F.);
#531=ORIENTED_EDGE('',*,*,#413,.F.);
#532=ORIENTED_EDGE('',*,*,#414,.F.);
#533=ORIENTED_EDGE('',*,*,#415,.F.);
#534=ORIENTED_EDGE('',*,*,#416,.F.);
#535=ORIENTED_EDGE('',*,*,#417,.F.);
#536=ORIENTED_EDGE('',*,*,#403,.F.);
#537=ORIENTED_EDGE('',*,*,#407,.T.);
#538=ORIENTED_EDGE('',*,*,#409,.F.);
#539=ORIENTED_EDGE('',*,*,#418,.F.);
#540=ORIENTED_EDGE('',*,*,#419,.F.);
#541=ORIENTED_EDGE('',*,*,#420,.F.);
#542=ORIENTED_EDGE('',*,*,#421,.F.);
#543=ORIENTED_EDGE('',*,*,#410,.F.);
#544=ORIENTED_EDGE('',*,*,#401,.F.);
#545=ORIENTED_EDGE('',*,*,#399,.T.);
#546=ORIENTED_EDGE('',*,*,#422,.F.);
#547=ORIENTED_EDGE('',*,*,#423,.F.);
#548=ORIENTED_EDGE('',*,*,#424,.F.);
#549=ORIENTED_EDGE('',*,*,#425,.F.);
#550=ORIENTED_EDGE('',*,*,#426,.F.);
#551=ORIENTED_EDGE('',*,*,#427,.F.);
#552=ORIENTED_EDGE('',*,*,#428,.F.);
#553=ORIENTED_EDGE('',*,*,#429,.F.);
#554=ORIENTED_EDGE('',*,*,#430,.T.);
#555=ORIENTED_EDGE('',*,*,#431,.F.);
#556=ORIENTED_EDGE('',*,*,#432,.T.);
#557=ORIENTED_EDGE('',*,*,#433,.F.);
#558=ORIENTED_EDGE('',*,*,#434,.T.);
#559=ORIENTED_EDGE('',*,*,#435,.F.);
#560=ORIENTED_EDGE('',*,*,#436,.T.);
#561=ORIENTED_EDGE('',*,*,#437,.F.);
#562=ORIENTED_EDGE('',*,*,#438,.F.);
#563=ORIENTED_EDGE('',*,*,#439,.F.);
#564=ORIENTED_EDGE('',*,*,#404,.F.);
#565=ORIENTED_EDGE('',*,*,#417,.T.);
#566=ORIENTED_EDGE('',*,*,#440,.F.);
#567=ORIENTED_EDGE('',*,*,#376,.F.);
#568=ORIENTED_EDGE('',*,*,#408,.F.);
#569=ORIENTED_EDGE('',*,*,#372,.F.);
#570=ORIENTED_EDGE('',*,*,#441,.F.);
#571=ORIENTED_EDGE('',*,*,#418,.T.);
#572=ORIENTED_EDGE('',*,*,#394,.T.);
#573=ORIENTED_EDGE('',*,*,#442,.T.);
#574=ORIENTED_EDGE('',*,*,#435,.T.);
#575=ORIENTED_EDGE('',*,*,#443,.T.);
#576=ORIENTED_EDGE('',*,*,#442,.F.);
#577=ORIENTED_EDGE('',*,*,#393,.F.);
#578=ORIENTED_EDGE('',*,*,#444,.F.);
#579=ORIENTED_EDGE('',*,*,#436,.F.);
#580=ORIENTED_EDGE('',*,*,#431,.T.);
#581=ORIENTED_EDGE('',*,*,#445,.T.);
#582=ORIENTED_EDGE('',*,*,#398,.T.);
#583=ORIENTED_EDGE('',*,*,#446,.T.);
#584=ORIENTED_EDGE('',*,*,#445,.F.);
#585=ORIENTED_EDGE('',*,*,#430,.F.);
#586=ORIENTED_EDGE('',*,*,#447,.F.);
#587=ORIENTED_EDGE('',*,*,#389,.F.);
#588=ORIENTED_EDGE('',*,*,#446,.F.);
#589=ORIENTED_EDGE('',*,*,#397,.F.);
#590=ORIENTED_EDGE('',*,*,#448,.F.);
#591=ORIENTED_EDGE('',*,*,#432,.F.);
#592=ORIENTED_EDGE('',*,*,#443,.F.);
#593=ORIENTED_EDGE('',*,*,#434,.F.);
#594=ORIENTED_EDGE('',*,*,#449,.F.);
#595=ORIENTED_EDGE('',*,*,#395,.F.);
#596=ORIENTED_EDGE('',*,*,#433,.T.);
#597=ORIENTED_EDGE('',*,*,#448,.T.);
#598=ORIENTED_EDGE('',*,*,#396,.T.);
#599=ORIENTED_EDGE('',*,*,#449,.T.);
#600=ORIENTED_EDGE('',*,*,#379,.T.);
#601=ORIENTED_EDGE('',*,*,#450,.T.);
#602=ORIENTED_EDGE('',*,*,#414,.T.);
#603=ORIENTED_EDGE('',*,*,#412,.T.);
#604=ORIENTED_EDGE('',*,*,#450,.F.);
#605=ORIENTED_EDGE('',*,*,#378,.F.);
#606=ORIENTED_EDGE('',*,*,#451,.F.);
#607=ORIENTED_EDGE('',*,*,#415,.T.);
#608=ORIENTED_EDGE('',*,*,#377,.T.);
#609=ORIENTED_EDGE('',*,*,#440,.T.);
#610=ORIENTED_EDGE('',*,*,#416,.T.);
#611=ORIENTED_EDGE('',*,*,#451,.T.);
#612=ORIENTED_EDGE('',*,*,#369,.T.);
#613=ORIENTED_EDGE('',*,*,#411,.T.);
#614=ORIENTED_EDGE('',*,*,#421,.T.);
#615=ORIENTED_EDGE('',*,*,#452,.T.);
#616=ORIENTED_EDGE('',*,*,#452,.F.);
#617=ORIENTED_EDGE('',*,*,#420,.T.);
#618=ORIENTED_EDGE('',*,*,#453,.F.);
#619=ORIENTED_EDGE('',*,*,#370,.F.);
#620=ORIENTED_EDGE('',*,*,#371,.T.);
#621=ORIENTED_EDGE('',*,*,#453,.T.);
#622=ORIENTED_EDGE('',*,*,#419,.T.);
#623=ORIENTED_EDGE('',*,*,#441,.T.);
#624=ORIENTED_EDGE('',*,*,#437,.T.);
#625=ORIENTED_EDGE('',*,*,#444,.T.);
#626=ORIENTED_EDGE('',*,*,#392,.T.);
#627=ORIENTED_EDGE('',*,*,#454,.T.);
#628=ORIENTED_EDGE('',*,*,#439,.T.);
#629=ORIENTED_EDGE('',*,*,#455,.T.);
#630=ORIENTED_EDGE('',*,*,#390,.T.);
#631=ORIENTED_EDGE('',*,*,#447,.T.);
#632=ORIENTED_EDGE('',*,*,#454,.F.);
#633=ORIENTED_EDGE('',*,*,#391,.F.);
#634=ORIENTED_EDGE('',*,*,#455,.F.);
#635=ORIENTED_EDGE('',*,*,#438,.T.);
#636=ORIENTED_EDGE('',*,*,#381,.F.);
#637=ORIENTED_EDGE('',*,*,#456,.T.);
#638=ORIENTED_EDGE('',*,*,#422,.T.);
#639=ORIENTED_EDGE('',*,*,#456,.F.);
#640=ORIENTED_EDGE('',*,*,#382,.F.);
#641=ORIENTED_EDGE('',*,*,#457,.T.);
#642=ORIENTED_EDGE('',*,*,#423,.T.);
#643=ORIENTED_EDGE('',*,*,#457,.F.);
#644=ORIENTED_EDGE('',*,*,#383,.F.);
#645=ORIENTED_EDGE('',*,*,#458,.T.);
#646=ORIENTED_EDGE('',*,*,#424,.T.);
#647=ORIENTED_EDGE('',*,*,#458,.F.);
#648=ORIENTED_EDGE('',*,*,#384,.F.);
#649=ORIENTED_EDGE('',*,*,#459,.T.);
#650=ORIENTED_EDGE('',*,*,#425,.T.);
#651=ORIENTED_EDGE('',*,*,#459,.F.);
#652=ORIENTED_EDGE('',*,*,#385,.F.);
#653=ORIENTED_EDGE('',*,*,#460,.T.);
#654=ORIENTED_EDGE('',*,*,#426,.T.);
#655=ORIENTED_EDGE('',*,*,#460,.F.);
#656=ORIENTED_EDGE('',*,*,#386,.F.);
#657=ORIENTED_EDGE('',*,*,#461,.T.);
#658=ORIENTED_EDGE('',*,*,#427,.T.);
#659=ORIENTED_EDGE('',*,*,#461,.F.);
#660=ORIENTED_EDGE('',*,*,#387,.F.);
#661=ORIENTED_EDGE('',*,*,#462,.T.);
#662=ORIENTED_EDGE('',*,*,#428,.T.);
#663=ORIENTED_EDGE('',*,*,#462,.F.);
#664=ORIENTED_EDGE('',*,*,#388,.F.);
#665=ORIENTED_EDGE('',*,*,#463,.T.);
#666=ORIENTED_EDGE('',*,*,#429,.T.);
#667=ORIENTED_EDGE('',*,*,#463,.F.);
#668=CYLINDRICAL_SURFACE('',#741,10.);
#669=CYLINDRICAL_SURFACE('',#767,139.330061088944);
#670=CYLINDRICAL_SURFACE('',#769,10.);
#671=CYLINDRICAL_SURFACE('',#771,10.);
#672=CYLINDRICAL_SURFACE('',#773,139.330061088944);
#673=CYLINDRICAL_SURFACE('',#775,10.);
#674=CYLINDRICAL_SURFACE('',#799,5.);
#675=CYLINDRICAL_SURFACE('',#801,5.);
#676=CYLINDRICAL_SURFACE('',#805,10.);
#677=CYLINDRICAL_SURFACE('',#806,3.);
#678=CYLINDRICAL_SURFACE('',#808,3.);
#679=CYLINDRICAL_SURFACE('',#809,3.);
#680=CYLINDRICAL_SURFACE('',#811,3.);
#681=CYLINDRICAL_SURFACE('',#812,5.);
#682=CYLINDRICAL_SURFACE('',#813,5.);
#683=CYLINDRICAL_SURFACE('',#815,2.65000000000001);
#684=CYLINDRICAL_SURFACE('',#816,2.65000000000001);
#685=CYLINDRICAL_SURFACE('',#817,2.65000000000001);
#686=CYLINDRICAL_SURFACE('',#818,2.65000000000001);
#687=CYLINDRICAL_SURFACE('',#819,2.65000000000001);
#688=CYLINDRICAL_SURFACE('',#820,2.64999999999999);
#689=CYLINDRICAL_SURFACE('',#821,2.65);
#690=CYLINDRICAL_SURFACE('',#822,2.65);
#691=ADVANCED_FACE('',(#46),#668,.T.);
#692=ADVANCED_FACE('',(#47,#15,#16,#17,#18,#19,#20,#21,#22,#23),#33,.T.);
#693=ADVANCED_FACE('',(#48),#669,.F.);
#694=ADVANCED_FACE('',(#49),#670,.T.);
#695=ADVANCED_FACE('',(#50),#671,.T.);
#696=ADVANCED_FACE('',(#51),#672,.F.);
#697=ADVANCED_FACE('',(#52),#673,.T.);
#698=ADVANCED_FACE('',(#53),#34,.T.);
#699=ADVANCED_FACE('',(#54),#35,.T.);
#700=ADVANCED_FACE('',(#55,#24,#25,#26,#27,#28,#29,#30,#31,#32),#36,.F.);
#701=ADVANCED_FACE('',(#56),#37,.T.);
#702=ADVANCED_FACE('',(#57),#38,.T.);
#703=ADVANCED_FACE('',(#58),#674,.F.);
#704=ADVANCED_FACE('',(#59),#39,.F.);
#705=ADVANCED_FACE('',(#60),#675,.F.);
#706=ADVANCED_FACE('',(#61),#40,.F.);
#707=ADVANCED_FACE('',(#62),#41,.F.);
#708=ADVANCED_FACE('',(#63),#42,.F.);
#709=ADVANCED_FACE('',(#64),#676,.F.);
#710=ADVANCED_FACE('',(#65),#677,.T.);
#711=ADVANCED_FACE('',(#66),#43,.T.);
#712=ADVANCED_FACE('',(#67),#678,.T.);
#713=ADVANCED_FACE('',(#68),#679,.T.);
#714=ADVANCED_FACE('',(#69),#44,.T.);
#715=ADVANCED_FACE('',(#70),#680,.T.);
#716=ADVANCED_FACE('',(#71),#681,.F.);
#717=ADVANCED_FACE('',(#72),#682,.F.);
#718=ADVANCED_FACE('',(#73),#45,.T.);
#719=ADVANCED_FACE('',(#74),#683,.F.);
#720=ADVANCED_FACE('',(#75),#684,.F.);
#721=ADVANCED_FACE('',(#76),#685,.F.);
#722=ADVANCED_FACE('',(#77),#686,.F.);
#723=ADVANCED_FACE('',(#78),#687,.F.);
#724=ADVANCED_FACE('',(#79),#688,.F.);
#725=ADVANCED_FACE('',(#80),#689,.F.);
#726=ADVANCED_FACE('',(#81),#690,.F.);
#727=CLOSED_SHELL('',(#691,#692,#693,#694,#695,#696,#697,#698,#699,#700,
#701,#702,#703,#704,#705,#706,#707,#708,#709,#710,#711,#712,#713,#714,#715,
#716,#717,#718,#719,#720,#721,#722,#723,#724,#725,#726));
#728=DERIVED_UNIT_ELEMENT(#730,1.);
#729=DERIVED_UNIT_ELEMENT(#1257,-3.);
#730=(
MASS_UNIT()
NAMED_UNIT(*)
SI_UNIT(.KILO.,.GRAM.)
);
#731=DERIVED_UNIT((#728,#729));
#732=MEASURE_REPRESENTATION_ITEM('density measure',
POSITIVE_RATIO_MEASURE(2700.),#731);
#733=PROPERTY_DEFINITION_REPRESENTATION(#738,#735);
#734=PROPERTY_DEFINITION_REPRESENTATION(#739,#736);
#735=REPRESENTATION('material name',(#737),#1254);
#736=REPRESENTATION('density',(#732),#1254);
#737=DESCRIPTIVE_REPRESENTATION_ITEM('Aluminum','Aluminum');
#738=PROPERTY_DEFINITION('material property','material name',#1264);
#739=PROPERTY_DEFINITION('material property','density of part',#1264);
#740=AXIS2_PLACEMENT_3D('',#1045,#823,#824);
#741=AXIS2_PLACEMENT_3D('',#1046,#825,#826);
#742=AXIS2_PLACEMENT_3D('',#1049,#827,#828);
#743=AXIS2_PLACEMENT_3D('',#1053,#830,#831);
#744=AXIS2_PLACEMENT_3D('',#1055,#833,#834);
#745=AXIS2_PLACEMENT_3D('',#1057,#835,#836);
#746=AXIS2_PLACEMENT_3D('',#1059,#837,#838);
#747=AXIS2_PLACEMENT_3D('',#1063,#840,#841);
#748=AXIS2_PLACEMENT_3D('',#1067,#843,#844);
#749=AXIS2_PLACEMENT_3D('',#1071,#846,#847);
#750=AXIS2_PLACEMENT_3D('',#1073,#848,#849);
#751=AXIS2_PLACEMENT_3D('',#1075,#850,#851);
#752=AXIS2_PLACEMENT_3D('',#1079,#853,#854);
#753=AXIS2_PLACEMENT_3D('',#1083,#856,#857);
#754=AXIS2_PLACEMENT_3D('',#1086,#859,#860);
#755=AXIS2_PLACEMENT_3D('',#1088,#861,#862);
#756=AXIS2_PLACEMENT_3D('',#1090,#863,#864);
#757=AXIS2_PLACEMENT_3D('',#1092,#865,#866);
#758=AXIS2_PLACEMENT_3D('',#1094,#867,#868);
#759=AXIS2_PLACEMENT_3D('',#1096,#869,#870);
#760=AXIS2_PLACEMENT_3D('',#1098,#871,#872);
#761=AXIS2_PLACEMENT_3D('',#1100,#873,#874);
#762=AXIS2_PLACEMENT_3D('',#1105,#876,#877);
#763=AXIS2_PLACEMENT_3D('',#1109,#879,#880);
#764=AXIS2_PLACEMENT_3D('',#1113,#882,#883);
#765=AXIS2_PLACEMENT_3D('',#1117,#885,#886);
#766=AXIS2_PLACEMENT_3D('',#1120,#888,#889);
#767=AXIS2_PLACEMENT_3D('',#1121,#890,#891);
#768=AXIS2_PLACEMENT_3D('',#1123,#892,#893);
#769=AXIS2_PLACEMENT_3D('',#1125,#895,#896);
#770=AXIS2_PLACEMENT_3D('',#1127,#897,#898);
#771=AXIS2_PLACEMENT_3D('',#1129,#900,#901);
#772=AXIS2_PLACEMENT_3D('',#1132,#902,#903);
#773=AXIS2_PLACEMENT_3D('',#1135,#906,#907);
#774=AXIS2_PLACEMENT_3D('',#1138,#909,#910);
#775=AXIS2_PLACEMENT_3D('',#1139,#911,#912);
#776=AXIS2_PLACEMENT_3D('',#1142,#914,#915);
#777=AXIS2_PLACEMENT_3D('',#1143,#916,#917);
#778=AXIS2_PLACEMENT_3D('',#1147,#920,#921);
#779=AXIS2_PLACEMENT_3D('',#1151,#924,#925);
#780=AXIS2_PLACEMENT_3D('',#1153,#926,#927);
#781=AXIS2_PLACEMENT_3D('',#1157,#929,#930);
#782=AXIS2_PLACEMENT_3D('',#1162,#933,#934);
#783=AXIS2_PLACEMENT_3D('',#1165,#936,#937);
#784=AXIS2_PLACEMENT_3D('',#1167,#938,#939);
#785=AXIS2_PLACEMENT_3D('',#1169,#940,#941);
#786=AXIS2_PLACEMENT_3D('',#1171,#942,#943);
#787=AXIS2_PLACEMENT_3D('',#1173,#944,#945);
#788=AXIS2_PLACEMENT_3D('',#1175,#946,#947);
#789=AXIS2_PLACEMENT_3D('',#1177,#948,#949);
#790=AXIS2_PLACEMENT_3D('',#1179,#950,#951);
#791=AXIS2_PLACEMENT_3D('',#1181,#952,#953);
#792=AXIS2_PLACEMENT_3D('',#1186,#955,#956);
#793=AXIS2_PLACEMENT_3D('',#1190,#958,#959);
#794=AXIS2_PLACEMENT_3D('',#1194,#961,#962);
#795=AXIS2_PLACEMENT_3D('',#1198,#964,#965);
#796=AXIS2_PLACEMENT_3D('',#1201,#967,#968);
#797=AXIS2_PLACEMENT_3D('',#1202,#969,#970);
#798=AXIS2_PLACEMENT_3D('',#1204,#972,#973);
#799=AXIS2_PLACEMENT_3D('',#1206,#975,#976);
#800=AXIS2_PLACEMENT_3D('',#1209,#979,#980);
#801=AXIS2_PLACEMENT_3D('',#1211,#982,#983);
#802=AXIS2_PLACEMENT_3D('',#1214,#986,#987);
#803=AXIS2_PLACEMENT_3D('',#1216,#989,#990);
#804=AXIS2_PLACEMENT_3D('',#1218,#992,#993);
#805=AXIS2_PLACEMENT_3D('',#1220,#995,#996);
#806=AXIS2_PLACEMENT_3D('',#1221,#997,#998);
#807=AXIS2_PLACEMENT_3D('',#1223,#1000,#1001);
#808=AXIS2_PLACEMENT_3D('',#1225,#1003,#1004);
#809=AXIS2_PLACEMENT_3D('',#1226,#1005,#1006);
#810=AXIS2_PLACEMENT_3D('',#1228,#1008,#1009);
#811=AXIS2_PLACEMENT_3D('',#1230,#1011,#1012);
#812=AXIS2_PLACEMENT_3D('',#1231,#1013,#1014);
#813=AXIS2_PLACEMENT_3D('',#1233,#1016,#1017);
#814=AXIS2_PLACEMENT_3D('',#1235,#1019,#1020);
#815=AXIS2_PLACEMENT_3D('',#1236,#1021,#1022);
#816=AXIS2_PLACEMENT_3D('',#1238,#1024,#1025);
#817=AXIS2_PLACEMENT_3D('',#1240,#1027,#1028);
#818=AXIS2_PLACEMENT_3D('',#1242,#1030,#1031);
#819=AXIS2_PLACEMENT_3D('',#1244,#1033,#1034);
#820=AXIS2_PLACEMENT_3D('',#1246,#1036,#1037);
#821=AXIS2_PLACEMENT_3D('',#1248,#1039,#1040);
#822=AXIS2_PLACEMENT_3D('',#1250,#1042,#1043);
#823=DIRECTION('axis',(0.,0.,1.));
#824=DIRECTION('refdir',(1.,0.,0.));
#825=DIRECTION('center_axis',(-1.,-4.03717463500057E-16,-6.45947941600091E-16));
#826=DIRECTION('ref_axis',(0.,-0.977687896588684,0.210062792669227));
#827=DIRECTION('center_axis',(1.,0.,0.));
#828=DIRECTION('ref_axis',(0.,-0.977687896588684,0.210062792669227));
#829=DIRECTION('',(1.,0.,6.45947941600091E-16));
#830=DIRECTION('center_axis',(-1.,0.,0.));
#831=DIRECTION('ref_axis',(0.,-0.977687896588684,0.210062792669227));
#832=DIRECTION('',(-1.,-4.03717463500057E-16,-6.45947941600091E-16));
#833=DIRECTION('center_axis',(-1.,0.,0.));
#834=DIRECTION('ref_axis',(0.,-1.,0.));
#835=DIRECTION('center_axis',(1.,0.,0.));
#836=DIRECTION('ref_axis',(-6.39756356894277E-16,0.905413167822734,0.424531501226001));
#837=DIRECTION('center_axis',(1.,0.,0.));
#838=DIRECTION('ref_axis',(0.,-0.977687896588684,-0.210062792669228));
#839=DIRECTION('',(0.,0.,1.));
#840=DIRECTION('center_axis',(1.,0.,0.));
#841=DIRECTION('ref_axis',(0.,-0.707106781186552,0.707106781186543));
#842=DIRECTION('',(-2.73593819825392E-74,1.,0.));
#843=DIRECTION('center_axis',(1.,0.,0.));
#844=DIRECTION('ref_axis',(0.,0.707106781186552,0.707106781186543));
#845=DIRECTION('',(1.2044750615611E-74,0.,-1.));
#846=DIRECTION('center_axis',(1.,0.,0.));
#847=DIRECTION('ref_axis',(0.,0.977687896588684,-0.210062792669228));
#848=DIRECTION('center_axis',(1.,0.,0.));
#849=DIRECTION('ref_axis',(5.71200044553945E-16,-0.905413167822733,-0.424531501226002));
#850=DIRECTION('center_axis',(1.,0.,0.));
#851=DIRECTION('ref_axis',(-9.08447800979358E-16,0.977687896588684,0.210062792669228));
#852=DIRECTION('',(1.2044750615611E-74,0.,-1.));
#853=DIRECTION('center_axis',(1.,0.,0.));
#854=DIRECTION('ref_axis',(0.,0.707106781186548,-0.707106781186547));
#855=DIRECTION('',(0.,-1.,0.));
#856=DIRECTION('center_axis',(1.,0.,0.));
#857=DIRECTION('ref_axis',(0.,-0.707106781186548,-0.707106781186547));
#858=DIRECTION('',(0.,0.,1.));
#859=DIRECTION('center_axis',(1.,0.,0.));
#860=DIRECTION('ref_axis',(0.,-1.,0.));
#861=DIRECTION('center_axis',(1.,0.,0.));
#862=DIRECTION('ref_axis',(0.,-1.,0.));
#863=DIRECTION('center_axis',(1.,0.,0.));
#864=DIRECTION('ref_axis',(0.,-1.,0.));
#865=DIRECTION('center_axis',(1.,0.,0.));
#866=DIRECTION('ref_axis',(0.,-1.,0.));
#867=DIRECTION('center_axis',(1.,0.,0.));
#868=DIRECTION('ref_axis',(0.,-1.,0.));
#869=DIRECTION('center_axis',(1.,0.,0.));
#870=DIRECTION('ref_axis',(0.,-1.,0.));
#871=DIRECTION('center_axis',(1.,0.,0.));
#872=DIRECTION('ref_axis',(0.,-1.,0.));
#873=DIRECTION('center_axis',(1.,0.,0.));
#874=DIRECTION('ref_axis',(0.,-1.,0.));
#875=DIRECTION('',(0.,-0.0844120312674233,0.996430935377514));
#876=DIRECTION('center_axis',(-1.,0.,0.));
#877=DIRECTION('ref_axis',(0.,0.707106781186547,0.707106781186548));
#878=DIRECTION('',(0.,-1.,0.));
#879=DIRECTION('center_axis',(-1.,0.,0.));
#880=DIRECTION('ref_axis',(0.,-0.707106781186547,0.707106781186547));
#881=DIRECTION('',(0.,-0.0844120312673994,-0.996430935377516));
#882=DIRECTION('center_axis',(-1.,0.,0.));
#883=DIRECTION('ref_axis',(0.,-0.991862248233542,-0.127315672755177));
#884=DIRECTION('',(0.,0.333333333333332,-0.942809041582064));
#885=DIRECTION('center_axis',(-1.,0.,0.));
#886=DIRECTION('ref_axis',(0.,-1.49880108324396E-15,-1.));
#887=DIRECTION('',(0.,0.333333333333334,0.942809041582063));
#888=DIRECTION('center_axis',(-1.,0.,0.));
#889=DIRECTION('ref_axis',(0.,0.991862248233544,-0.127315672755166));
#890=DIRECTION('center_axis',(1.,4.03717463500057E-16,6.45947941600091E-16));
#891=DIRECTION('ref_axis',(-6.39756356894277E-16,0.905413167822734,0.424531501226001));
#892=DIRECTION('center_axis',(-1.,0.,0.));
#893=DIRECTION('ref_axis',(-6.39756356894277E-16,0.905413167822734,0.424531501226001));
#894=DIRECTION('',(1.,4.03717463500057E-16,6.45947941600091E-16));
#895=DIRECTION('center_axis',(1.,4.03717463500057E-16,6.45947941600091E-16));
#896=DIRECTION('ref_axis',(0.,-0.977687896588684,-0.210062792669228));
#897=DIRECTION('center_axis',(-1.,0.,0.));
#898=DIRECTION('ref_axis',(0.,-0.977687896588684,-0.210062792669228));
#899=DIRECTION('',(-1.,0.,-6.45947941600091E-16));
#900=DIRECTION('center_axis',(1.,4.03717463500057E-16,4.84460956200068E-16));
#901=DIRECTION('ref_axis',(-9.08447800979358E-16,0.977687896588684,0.210062792669228));
#902=DIRECTION('center_axis',(-1.,0.,0.));
#903=DIRECTION('ref_axis',(-9.08447800979358E-16,0.977687896588684,0.210062792669228));
#904=DIRECTION('',(-1.,0.,-4.84460956200068E-16));
#905=DIRECTION('',(1.,4.03717463500057E-16,4.84460956200068E-16));
#906=DIRECTION('center_axis',(1.,4.03717463500057E-16,4.84460956200068E-16));
#907=DIRECTION('ref_axis',(5.71200044553945E-16,-0.905413167822733,-0.424531501226002));
#908=DIRECTION('',(-1.,-4.03717463500057E-16,-4.84460956200068E-16));
#909=DIRECTION('center_axis',(-1.,0.,0.));
#910=DIRECTION('ref_axis',(5.71200044553945E-16,-0.905413167822733,-0.424531501226002));
#911=DIRECTION('center_axis',(-1.,-4.03717463500057E-16,-4.84460956200068E-16));
#912=DIRECTION('ref_axis',(0.,0.977687896588684,-0.210062792669228));
#913=DIRECTION('',(1.,0.,4.84460956200068E-16));
#914=DIRECTION('center_axis',(-1.,0.,0.));
#915=DIRECTION('ref_axis',(0.,0.977687896588684,-0.210062792669228));
#916=DIRECTION('center_axis',(0.,-1.,0.));
#917=DIRECTION('ref_axis',(0.,0.,1.));
#918=DIRECTION('',(0.,0.,1.));
#919=DIRECTION('',(1.,0.,0.));
#920=DIRECTION('center_axis',(0.,-1.,0.));
#921=DIRECTION('ref_axis',(0.,0.,1.));
#922=DIRECTION('',(-1.,0.,0.));
#923=DIRECTION('',(0.,0.,1.));
#924=DIRECTION('center_axis',(-1.,0.,0.));
#925=DIRECTION('ref_axis',(0.,-1.,0.));
#926=DIRECTION('center_axis',(-1.,0.,0.));
#927=DIRECTION('ref_axis',(0.,-0.707106781186548,-0.707106781186547));
#928=DIRECTION('',(0.,-1.,0.));
#929=DIRECTION('center_axis',(-1.,0.,0.));
#930=DIRECTION('ref_axis',(0.,0.707106781186548,-0.707106781186547));
#931=DIRECTION('',(1.2044750615611E-74,0.,-1.));
#932=DIRECTION('',(1.2044750615611E-74,0.,-1.));
#933=DIRECTION('center_axis',(-1.,0.,0.));
#934=DIRECTION('ref_axis',(0.,0.707106781186552,0.707106781186543));
#935=DIRECTION('',(-2.73593819825392E-74,1.,0.));
#936=DIRECTION('center_axis',(-1.,0.,0.));
#937=DIRECTION('ref_axis',(0.,-0.707106781186552,0.707106781186543));
#938=DIRECTION('center_axis',(1.,0.,0.));
#939=DIRECTION('ref_axis',(0.,-1.,0.));
#940=DIRECTION('center_axis',(1.,0.,0.));
#941=DIRECTION('ref_axis',(0.,-1.,0.));
#942=DIRECTION('center_axis',(1.,0.,0.));
#943=DIRECTION('ref_axis',(0.,-1.,0.));
#944=DIRECTION('center_axis',(1.,0.,0.));
#945=DIRECTION('ref_axis',(0.,-1.,0.));
#946=DIRECTION('center_axis',(1.,0.,0.));
#947=DIRECTION('ref_axis',(0.,-1.,0.));
#948=DIRECTION('center_axis',(1.,0.,0.));
#949=DIRECTION('ref_axis',(0.,-1.,0.));
#950=DIRECTION('center_axis',(1.,0.,0.));
#951=DIRECTION('ref_axis',(0.,-1.,0.));
#952=DIRECTION('center_axis',(1.,0.,0.));
#953=DIRECTION('ref_axis',(0.,-1.,0.));
#954=DIRECTION('',(0.,0.0844120312674233,-0.996430935377514));
#955=DIRECTION('center_axis',(1.,0.,0.));
#956=DIRECTION('ref_axis',(0.,0.991862248233544,-0.127315672755166));
#957=DIRECTION('',(0.,-0.333333333333334,-0.942809041582063));
#958=DIRECTION('center_axis',(1.,0.,0.));
#959=DIRECTION('ref_axis',(0.,-1.49880108324396E-15,-1.));
#960=DIRECTION('',(0.,-0.333333333333332,0.942809041582064));
#961=DIRECTION('center_axis',(1.,0.,0.));
#962=DIRECTION('ref_axis',(0.,-0.991862248233542,-0.127315672755177));
#963=DIRECTION('',(0.,0.0844120312673994,0.996430935377516));
#964=DIRECTION('center_axis',(1.,0.,0.));
#965=DIRECTION('ref_axis',(0.,-0.707106781186547,0.707106781186547));
#966=DIRECTION('',(0.,-1.,0.));
#967=DIRECTION('center_axis',(1.,0.,0.));
#968=DIRECTION('ref_axis',(0.,0.707106781186547,0.707106781186548));
#969=DIRECTION('center_axis',(0.,1.,0.));
#970=DIRECTION('ref_axis',(1.2044750615611E-74,0.,-1.));
#971=DIRECTION('',(1.,0.,0.));
#972=DIRECTION('center_axis',(0.,1.,0.));
#973=DIRECTION('ref_axis',(1.2044750615611E-74,0.,-1.));
#974=DIRECTION('',(-1.,0.,0.));
#975=DIRECTION('center_axis',(1.,0.,0.));
#976=DIRECTION('ref_axis',(0.,-0.991862248233542,-0.127315672755177));
#977=DIRECTION('',(1.,0.,0.));
#978=DIRECTION('',(-1.,0.,0.));
#979=DIRECTION('center_axis',(0.,-0.996430935377516,0.0844120312673994));
#980=DIRECTION('ref_axis',(0.,-0.0844120312673994,-0.996430935377516));
#981=DIRECTION('',(-1.,0.,0.));
#982=DIRECTION('center_axis',(-1.,0.,0.));
#983=DIRECTION('ref_axis',(0.,0.991862248233544,-0.127315672755166));
#984=DIRECTION('',(-1.,0.,0.));
#985=DIRECTION('',(1.,0.,0.));
#986=DIRECTION('center_axis',(0.,0.996430935377514,0.0844120312674233));
#987=DIRECTION('ref_axis',(0.,-0.0844120312674233,0.996430935377514));
#988=DIRECTION('',(1.,0.,0.));
#989=DIRECTION('center_axis',(0.,0.942809041582063,-0.333333333333335));
#990=DIRECTION('ref_axis',(0.,-0.333333333333334,-0.942809041582063));
#991=DIRECTION('',(-1.,0.,0.));
#992=DIRECTION('center_axis',(0.,-0.942809041582064,-0.333333333333332));
#993=DIRECTION('ref_axis',(0.,-0.333333333333332,0.942809041582064));
#994=DIRECTION('',(1.,0.,0.));
#995=DIRECTION('center_axis',(-1.,0.,0.));
#996=DIRECTION('ref_axis',(0.,-1.49880108324396E-15,-1.));
#997=DIRECTION('center_axis',(-1.,0.,0.));
#998=DIRECTION('ref_axis',(0.,-0.707106781186548,-0.707106781186547));
#999=DIRECTION('',(1.,0.,0.));
#1000=DIRECTION('center_axis',(0.,0.,-1.));
#1001=DIRECTION('ref_axis',(0.,-1.,0.));
#1002=DIRECTION('',(-1.,0.,0.));
#1003=DIRECTION('center_axis',(-1.,0.,0.));
#1004=DIRECTION('ref_axis',(0.,0.707106781186548,-0.707106781186547));
#1005=DIRECTION('center_axis',(-1.,0.,0.));
#1006=DIRECTION('ref_axis',(0.,-0.707106781186552,0.707106781186543));
#1007=DIRECTION('',(-1.,0.,0.));
#1008=DIRECTION('center_axis',(0.,0.,1.));
#1009=DIRECTION('ref_axis',(-2.73593819825392E-74,1.,0.));
#1010=DIRECTION('',(1.,0.,0.));
#1011=DIRECTION('center_axis',(-1.,0.,0.));
#1012=DIRECTION('ref_axis',(0.,0.707106781186552,0.707106781186543));
#1013=DIRECTION('center_axis',(-1.,0.,0.));
#1014=DIRECTION('ref_axis',(0.,-0.707106781186547,0.707106781186547));
#1015=DIRECTION('',(1.,0.,0.));
#1016=DIRECTION('center_axis',(-1.,0.,0.));
#1017=DIRECTION('ref_axis',(0.,0.707106781186547,0.707106781186548));
#1018=DIRECTION('',(-1.,0.,0.));
#1019=DIRECTION('center_axis',(0.,0.,-1.));
#1020=DIRECTION('ref_axis',(0.,-1.,0.));
#1021=DIRECTION('center_axis',(-1.,0.,0.));
#1022=DIRECTION('ref_axis',(0.,-1.,0.));
#1023=DIRECTION('',(1.,0.,0.));
#1024=DIRECTION('center_axis',(-1.,0.,0.));
#1025=DIRECTION('ref_axis',(0.,-1.,0.));
#1026=DIRECTION('',(1.,0.,0.));
#1027=DIRECTION('center_axis',(-1.,0.,0.));
#1028=DIRECTION('ref_axis',(0.,-1.,0.));
#1029=DIRECTION('',(1.,0.,0.));
#1030=DIRECTION('center_axis',(-1.,0.,0.));
#1031=DIRECTION('ref_axis',(0.,-1.,0.));
#1032=DIRECTION('',(1.,0.,0.));
#1033=DIRECTION('center_axis',(-1.,0.,0.));
#1034=DIRECTION('ref_axis',(0.,-1.,0.));
#1035=DIRECTION('',(1.,0.,0.));
#1036=DIRECTION('center_axis',(-1.,0.,0.));
#1037=DIRECTION('ref_axis',(0.,-1.,0.));
#1038=DIRECTION('',(1.,0.,0.));
#1039=DIRECTION('center_axis',(-1.,0.,0.));
#1040=DIRECTION('ref_axis',(0.,-1.,0.));
#1041=DIRECTION('',(1.,0.,0.));
#1042=DIRECTION('center_axis',(-1.,0.,0.));
#1043=DIRECTION('ref_axis',(0.,-1.,0.));
#1044=DIRECTION('',(1.,0.,0.));
#1045=CARTESIAN_POINT('',(0.,0.,0.));
#1046=CARTESIAN_POINT('Origin',(-49.9999999999998,-53.65,44.1624235716038));
#1047=CARTESIAN_POINT('',(-49.9999999999998,-62.7674724627201,48.2699405699302));
#1048=CARTESIAN_POINT('',(-49.9999999999999,-63.65,44.1624235716038));
#1049=CARTESIAN_POINT('Origin',(-49.9999999999999,-53.65,44.1624235716038));
#1050=CARTESIAN_POINT('',(-43.6499999999999,-63.65,44.1624235716038));
#1051=CARTESIAN_POINT('',(-49.9999999999998,-63.65,44.1624235716038));
#1052=CARTESIAN_POINT('',(-43.6499999999998,-62.7674724627201,48.2699405699302));
#1053=CARTESIAN_POINT('Origin',(-43.6499999999998,-53.65,44.1624235716038));
#1054=CARTESIAN_POINT('',(-49.9999999999998,-62.7674724627201,48.2699405699302));
#1055=CARTESIAN_POINT('Origin',(-49.9999999999999,0.,102.325000000001));
#1056=CARTESIAN_POINT('',(-49.9999999999998,-62.7674724627201,162.73005943007));
#1057=CARTESIAN_POINT('Origin',(-49.9999999999998,-189.801271983476,105.5));
#1058=CARTESIAN_POINT('',(-49.9999999999999,-63.65,166.837576428397));
#1059=CARTESIAN_POINT('Origin',(-49.9999999999999,-53.65,166.837576428397));
#1060=CARTESIAN_POINT('',(-49.9999999999999,-63.65,201.650000000001));
#1061=CARTESIAN_POINT('',(-49.9999999999999,-63.65,2.22044604925031E-15));
#1062=CARTESIAN_POINT('',(-49.9999999999999,-60.65,204.650000000001));
#1063=CARTESIAN_POINT('Origin',(-49.9999999999999,-60.65,201.650000000001));
#1064=CARTESIAN_POINT('',(-49.9999999999999,60.65,204.650000000001));
#1065=CARTESIAN_POINT('',(-49.9999999999999,-43.65,204.650000000001));
#1066=CARTESIAN_POINT('',(-49.9999999999999,63.65,201.650000000001));
#1067=CARTESIAN_POINT('Origin',(-49.9999999999999,60.65,201.650000000001));
#1068=CARTESIAN_POINT('',(-49.9999999999999,63.65,166.837576428397));
#1069=CARTESIAN_POINT('',(-49.9999999999999,63.65,204.650000000001));
#1070=CARTESIAN_POINT('',(-50.,62.7674724627201,162.73005943007));
#1071=CARTESIAN_POINT('Origin',(-50.,53.65,166.837576428397));
#1072=CARTESIAN_POINT('',(-50.,62.7674724627201,48.26994056993));
#1073=CARTESIAN_POINT('Origin',(-50.,189.801271983476,105.5));
#1074=CARTESIAN_POINT('',(-49.9999999999999,63.65,44.1624235716035));
#1075=CARTESIAN_POINT('Origin',(-49.9999999999999,53.65,44.1624235716035));
#1076=CARTESIAN_POINT('',(-49.9999999999999,63.65,3.00000000000001));
#1077=CARTESIAN_POINT('',(-49.9999999999999,63.65,204.650000000001));
#1078=CARTESIAN_POINT('',(-49.9999999999999,60.65,2.22044604925031E-15));
#1079=CARTESIAN_POINT('Origin',(-49.9999999999999,60.65,3.00000000000001));
#1080=CARTESIAN_POINT('',(-49.9999999999999,-60.65,2.22044604925031E-15));
#1081=CARTESIAN_POINT('',(-49.9999999999999,63.65,2.22044604925031E-15));
#1082=CARTESIAN_POINT('',(-49.9999999999999,-63.65,3.));
#1083=CARTESIAN_POINT('Origin',(-49.9999999999999,-60.65,3.));
#1084=CARTESIAN_POINT('',(-49.9999999999999,-63.65,2.22044604925031E-15));
#1085=CARTESIAN_POINT('',(-49.9999999999999,-51.,174.65));
#1086=CARTESIAN_POINT('Origin',(-49.9999999999999,-53.65,174.65));
#1087=CARTESIAN_POINT('',(-49.9999999999999,-51.,36.3499999999995));
#1088=CARTESIAN_POINT('Origin',(-49.9999999999999,-53.65,36.3499999999995));
#1089=CARTESIAN_POINT('',(-49.9999999999999,56.3,16.3499999999995));
#1090=CARTESIAN_POINT('Origin',(-49.9999999999999,53.6499999999999,16.3499999999995));
#1091=CARTESIAN_POINT('',(-49.9999999999999,-51.,194.65));
#1092=CARTESIAN_POINT('Origin',(-49.9999999999999,-53.65,194.65));
#1093=CARTESIAN_POINT('',(-49.9999999999999,-51.,16.3499999999995));
#1094=CARTESIAN_POINT('Origin',(-49.9999999999999,-53.65,16.3499999999995));
#1095=CARTESIAN_POINT('',(-49.9999999999999,56.2999999999999,174.65));
#1096=CARTESIAN_POINT('Origin',(-49.9999999999999,53.6499999999999,174.65));
#1097=CARTESIAN_POINT('',(-49.9999999999999,56.2999999999999,194.65));
#1098=CARTESIAN_POINT('Origin',(-49.9999999999999,53.6499999999999,194.65));
#1099=CARTESIAN_POINT('',(-49.9999999999999,56.2999999999999,36.3499999999995));
#1100=CARTESIAN_POINT('Origin',(-49.9999999999999,53.6499999999999,36.3499999999995));
#1101=CARTESIAN_POINT('',(-49.9999999999999,30.8194305225185,99.5009119876703));
#1102=CARTESIAN_POINT('',(-49.9999999999999,23.9999999999991,180.000000000001));
#1103=CARTESIAN_POINT('',(-49.9999999999999,30.0297202735552,108.822944762343));
#1104=CARTESIAN_POINT('',(-49.9999999999999,18.9999999999991,185.000000000001));
#1105=CARTESIAN_POINT('Origin',(-49.9999999999999,18.9999999999991,180.000000000001));
#1106=CARTESIAN_POINT('',(-49.9999999999999,-19.0000000000009,185.000000000001));
#1107=CARTESIAN_POINT('',(-49.9999999999999,-24.0000000000009,185.000000000001));
#1108=CARTESIAN_POINT('',(-49.9999999999999,-24.0000000000009,180.000000000001));
#1109=CARTESIAN_POINT('Origin',(-49.9999999999999,-19.0000000000009,180.000000000001));
#1110=CARTESIAN_POINT('',(-49.9999999999999,-30.8194305225184,99.5009119876694));
#1111=CARTESIAN_POINT('',(-49.9999999999999,-27.1811469209895,142.448561485119));
#1112=CARTESIAN_POINT('',(-49.9999999999999,-30.5513210535411,97.4121851646658));
#1113=CARTESIAN_POINT('Origin',(-49.9999999999999,-25.8372758456308,99.0788518313325));
#1114=CARTESIAN_POINT('',(-49.9999999999999,-9.42809041582078,37.6666666666677));
#1115=CARTESIAN_POINT('',(-49.9999999999999,-14.3503392870804,51.5888888888898));
#1116=CARTESIAN_POINT('',(-49.9999999999999,9.42809041582048,37.6666666666677));
#1117=CARTESIAN_POINT('Origin',(-49.9999999999999,-1.46549439250521E-13,
41.000000000001));
#1118=CARTESIAN_POINT('',(-49.9999999999999,30.5513210535412,97.4121851646665));
#1119=CARTESIAN_POINT('',(-49.9999999999999,37.9205653266318,118.255555555556));
#1120=CARTESIAN_POINT('Origin',(-49.9999999999999,25.8372758456309,99.0788518313332));
#1121=CARTESIAN_POINT('Origin',(-49.9999999999998,-189.801271983476,105.5));
#1122=CARTESIAN_POINT('',(-43.6499999999998,-62.7674724627201,162.73005943007));
#1123=CARTESIAN_POINT('Origin',(-43.6499999999998,-189.801271983476,105.5));
#1124=CARTESIAN_POINT('',(-49.9999999999999,-62.7674724627201,162.73005943007));
#1125=CARTESIAN_POINT('Origin',(-49.9999999999999,-53.65,166.837576428397));
#1126=CARTESIAN_POINT('',(-43.6499999999999,-63.65,166.837576428397));
#1127=CARTESIAN_POINT('Origin',(-43.6499999999999,-53.65,166.837576428397));
#1128=CARTESIAN_POINT('',(-49.9999999999999,-63.65,166.837576428397));
#1129=CARTESIAN_POINT('Origin',(-49.9999999999997,53.65,44.1624235716035));
#1130=CARTESIAN_POINT('',(-43.65,62.7674724627201,48.26994056993));
#1131=CARTESIAN_POINT('',(-43.6499999999999,63.65,44.1624235716035));
#1132=CARTESIAN_POINT('Origin',(-43.6499999999999,53.65,44.1624235716035));
#1133=CARTESIAN_POINT('',(-49.9999999999997,63.65,44.1624235716035));
#1134=CARTESIAN_POINT('',(-49.9999999999997,62.7674724627201,48.26994056993));
#1135=CARTESIAN_POINT('Origin',(-49.9999999999998,189.801271983476,105.5));
#1136=CARTESIAN_POINT('',(-43.65,62.7674724627201,162.73005943007));
#1137=CARTESIAN_POINT('',(-49.9999999999998,62.7674724627201,162.73005943007));
#1138=CARTESIAN_POINT('Origin',(-43.65,189.801271983476,105.5));
#1139=CARTESIAN_POINT('Origin',(-49.9999999999998,53.65,166.837576428397));
#1140=CARTESIAN_POINT('',(-43.6499999999999,63.65,166.837576428397));
#1141=CARTESIAN_POINT('',(-49.9999999999998,63.65,166.837576428397));
#1142=CARTESIAN_POINT('Origin',(-43.65,53.65,166.837576428397));
#1143=CARTESIAN_POINT('Origin',(-43.6499999999999,-63.65,2.22044604925031E-15));
#1144=CARTESIAN_POINT('',(-43.6499999999999,-63.65,201.650000000001));
#1145=CARTESIAN_POINT('',(-43.6499999999999,-63.65,2.22044604925031E-15));
#1146=CARTESIAN_POINT('',(-43.6499999999999,-63.65,201.650000000001));
#1147=CARTESIAN_POINT('Origin',(-43.6499999999999,-63.65,2.22044604925031E-15));
#1148=CARTESIAN_POINT('',(-43.6499999999999,-63.65,3.));
#1149=CARTESIAN_POINT('',(-43.6499999999999,-63.65,3.));
#1150=CARTESIAN_POINT('',(-43.6499999999999,-63.65,2.22044604925031E-15));
#1151=CARTESIAN_POINT('Origin',(-43.6499999999999,0.,102.325000000001));
#1152=CARTESIAN_POINT('',(-43.6499999999999,-60.65,2.22044604925031E-15));
#1153=CARTESIAN_POINT('Origin',(-43.6499999999999,-60.65,3.));
#1154=CARTESIAN_POINT('',(-43.6499999999999,60.65,2.22044604925031E-15));
#1155=CARTESIAN_POINT('',(-43.6499999999999,63.65,2.22044604925031E-15));
#1156=CARTESIAN_POINT('',(-43.6499999999999,63.65,3.00000000000001));
#1157=CARTESIAN_POINT('Origin',(-43.6499999999999,60.65,3.00000000000001));
#1158=CARTESIAN_POINT('',(-43.6499999999999,63.65,204.650000000001));
#1159=CARTESIAN_POINT('',(-43.6499999999999,63.65,201.650000000001));
#1160=CARTESIAN_POINT('',(-43.6499999999999,63.65,204.650000000001));
#1161=CARTESIAN_POINT('',(-43.6499999999999,60.65,204.650000000001));
#1162=CARTESIAN_POINT('Origin',(-43.6499999999999,60.65,201.650000000001));
#1163=CARTESIAN_POINT('',(-43.6499999999999,-60.65,204.650000000001));
#1164=CARTESIAN_POINT('',(-43.6499999999999,-43.65,204.650000000001));
#1165=CARTESIAN_POINT('Origin',(-43.6499999999999,-60.65,201.650000000001));
#1166=CARTESIAN_POINT('',(-43.6499999999999,-51.,174.65));
#1167=CARTESIAN_POINT('Origin',(-43.6499999999999,-53.65,174.65));
#1168=CARTESIAN_POINT('',(-43.6499999999999,-51.,36.3499999999995));
#1169=CARTESIAN_POINT('Origin',(-43.6499999999999,-53.65,36.3499999999995));
#1170=CARTESIAN_POINT('',(-43.6499999999999,56.3,16.3499999999995));
#1171=CARTESIAN_POINT('Origin',(-43.6499999999999,53.6499999999999,16.3499999999995));
#1172=CARTESIAN_POINT('',(-43.6499999999999,-51.,194.65));
#1173=CARTESIAN_POINT('Origin',(-43.6499999999999,-53.65,194.65));
#1174=CARTESIAN_POINT('',(-43.6499999999999,-51.,16.3499999999995));
#1175=CARTESIAN_POINT('Origin',(-43.6499999999999,-53.65,16.3499999999995));
#1176=CARTESIAN_POINT('',(-43.6499999999999,56.2999999999999,174.65));
#1177=CARTESIAN_POINT('Origin',(-43.6499999999999,53.6499999999999,174.65));
#1178=CARTESIAN_POINT('',(-43.6499999999999,56.2999999999999,194.65));
#1179=CARTESIAN_POINT('Origin',(-43.6499999999999,53.6499999999999,194.65));
#1180=CARTESIAN_POINT('',(-43.6499999999999,56.2999999999999,36.3499999999995));
#1181=CARTESIAN_POINT('Origin',(-43.6499999999999,53.6499999999999,36.3499999999995));
#1182=CARTESIAN_POINT('',(-43.6499999999999,23.9999999999991,180.000000000001));
#1183=CARTESIAN_POINT('',(-43.6499999999999,30.8194305225185,99.5009119876703));
#1184=CARTESIAN_POINT('',(-43.6499999999999,30.0297202735552,108.822944762343));
#1185=CARTESIAN_POINT('',(-43.6499999999999,30.5513210535412,97.4121851646665));
#1186=CARTESIAN_POINT('Origin',(-43.6499999999999,25.8372758456309,99.0788518313332));
#1187=CARTESIAN_POINT('',(-43.6499999999999,9.42809041582048,37.6666666666677));
#1188=CARTESIAN_POINT('',(-43.6499999999999,37.9205653266318,118.255555555556));
#1189=CARTESIAN_POINT('',(-43.6499999999999,-9.42809041582078,37.6666666666677));
#1190=CARTESIAN_POINT('Origin',(-43.6499999999999,-1.46549439250521E-13,
41.000000000001));
#1191=CARTESIAN_POINT('',(-43.6499999999999,-30.5513210535411,97.4121851646658));
#1192=CARTESIAN_POINT('',(-43.6499999999999,-14.3503392870804,51.5888888888898));
#1193=CARTESIAN_POINT('',(-43.6499999999999,-30.8194305225184,99.5009119876694));
#1194=CARTESIAN_POINT('Origin',(-43.6499999999999,-25.8372758456308,99.0788518313325));
#1195=CARTESIAN_POINT('',(-43.6499999999999,-24.0000000000009,180.000000000001));
#1196=CARTESIAN_POINT('',(-43.6499999999999,-27.1811469209895,142.448561485119));
#1197=CARTESIAN_POINT('',(-43.6499999999999,-19.0000000000009,185.000000000001));
#1198=CARTESIAN_POINT('Origin',(-43.6499999999999,-19.0000000000009,180.000000000001));
#1199=CARTESIAN_POINT('',(-43.6499999999999,18.9999999999991,185.000000000001));
#1200=CARTESIAN_POINT('',(-43.6499999999999,-24.0000000000009,185.000000000001));
#1201=CARTESIAN_POINT('Origin',(-43.6499999999999,18.9999999999991,180.000000000001));
#1202=CARTESIAN_POINT('Origin',(-43.6499999999999,63.65,204.650000000001));
#1203=CARTESIAN_POINT('',(-43.6499999999999,63.65,3.00000000000001));
#1204=CARTESIAN_POINT('Origin',(-43.6499999999999,63.65,204.650000000001));
#1205=CARTESIAN_POINT('',(-43.6499999999999,63.65,201.650000000001));
#1206=CARTESIAN_POINT('Origin',(4.70734562441066E-13,-25.8372758456308,
99.0788518313325));
#1207=CARTESIAN_POINT('',(4.70734562441066E-13,-30.8194305225183,99.5009119876694));
#1208=CARTESIAN_POINT('',(4.70734562441066E-13,-30.5513210535411,97.4121851646658));
#1209=CARTESIAN_POINT('Origin',(-49.9999999999999,-24.0000000000009,180.000000000001));
#1210=CARTESIAN_POINT('',(-43.6499999999999,-24.0000000000009,180.000000000001));
#1211=CARTESIAN_POINT('Origin',(4.70734562441066E-13,25.8372758456309,99.0788518313332));
#1212=CARTESIAN_POINT('',(4.70734562441066E-13,30.8194305225185,99.5009119876703));
#1213=CARTESIAN_POINT('',(4.70734562441066E-13,30.5513210535412,97.4121851646665));
#1214=CARTESIAN_POINT('Origin',(-49.9999999999999,29.6971467051323,112.748766554448));
#1215=CARTESIAN_POINT('',(-43.6499999999999,23.9999999999991,180.000000000001));
#1216=CARTESIAN_POINT('Origin',(50.0000000000008,47.1404520791032,144.333333333334));
#1217=CARTESIAN_POINT('',(50.0000000000008,9.42809041582048,37.6666666666677));
#1218=CARTESIAN_POINT('Origin',(50.0000000000008,-1.87487994224777E-13,
11.000000000001));
#1219=CARTESIAN_POINT('',(50.0000000000008,-9.42809041582078,37.6666666666677));
#1220=CARTESIAN_POINT('Origin',(50.0000000000008,-1.46549439250521E-13,
41.000000000001));
#1221=CARTESIAN_POINT('Origin',(-43.6499999999999,-60.65,3.));
#1222=CARTESIAN_POINT('',(-43.6499999999999,-60.65,2.22044604925031E-15));
#1223=CARTESIAN_POINT('Origin',(-43.6499999999999,63.65,2.22044604925031E-15));
#1224=CARTESIAN_POINT('',(-43.6499999999999,60.65,2.22044604925031E-15));
#1225=CARTESIAN_POINT('Origin',(-43.6499999999999,60.65,3.00000000000001));
#1226=CARTESIAN_POINT('Origin',(-43.6499999999999,-60.65,201.650000000001));
#1227=CARTESIAN_POINT('',(-43.6499999999999,-60.65,204.650000000001));
#1228=CARTESIAN_POINT('Origin',(-43.6499999999999,-63.65,204.650000000001));
#1229=CARTESIAN_POINT('',(-43.6499999999999,60.65,204.650000000001));
#1230=CARTESIAN_POINT('Origin',(-43.6499999999999,60.65,201.650000000001));
#1231=CARTESIAN_POINT('Origin',(-43.6499999999999,-19.0000000000009,180.000000000001));
#1232=CARTESIAN_POINT('',(-43.6499999999999,-19.0000000000009,185.000000000001));
#1233=CARTESIAN_POINT('Origin',(-43.6499999999999,18.9999999999991,180.000000000001));
#1234=CARTESIAN_POINT('',(-43.6499999999999,18.9999999999991,185.000000000001));
#1235=CARTESIAN_POINT('Origin',(-43.6499999999999,23.9999999999991,185.000000000001));
#1236=CARTESIAN_POINT('Origin',(-43.6499999999999,-53.65,174.65));
#1237=CARTESIAN_POINT('',(-43.6499999999999,-51.,174.65));
#1238=CARTESIAN_POINT('Origin',(-43.6499999999999,-53.65,36.3499999999995));
#1239=CARTESIAN_POINT('',(-43.6499999999999,-51.,36.3499999999995));
#1240=CARTESIAN_POINT('Origin',(-43.6499999999999,53.6499999999999,16.3499999999995));
#1241=CARTESIAN_POINT('',(-43.6499999999999,56.3,16.3499999999995));
#1242=CARTESIAN_POINT('Origin',(-43.6499999999999,-53.65,194.65));
#1243=CARTESIAN_POINT('',(-43.6499999999999,-51.,194.65));
#1244=CARTESIAN_POINT('Origin',(-43.6499999999999,-53.65,16.3499999999995));
#1245=CARTESIAN_POINT('',(-43.6499999999999,-51.,16.3499999999995));
#1246=CARTESIAN_POINT('Origin',(-43.6499999999999,53.6499999999999,174.65));
#1247=CARTESIAN_POINT('',(-43.6499999999999,56.2999999999999,174.65));
#1248=CARTESIAN_POINT('Origin',(-43.6499999999999,53.6499999999999,194.65));
#1249=CARTESIAN_POINT('',(-43.6499999999999,56.2999999999999,194.65));
#1250=CARTESIAN_POINT('Origin',(-43.6499999999999,53.6499999999999,36.3499999999995));
#1251=CARTESIAN_POINT('',(-43.6499999999999,56.2999999999999,36.3499999999995));
#1252=UNCERTAINTY_MEASURE_WITH_UNIT(LENGTH_MEASURE(0.01),#1256,
'DISTANCE_ACCURACY_VALUE',
'Maximum model space distance between geometric entities at asserted c
onnectivities');
#1253=UNCERTAINTY_MEASURE_WITH_UNIT(LENGTH_MEASURE(0.01),#1256,
'DISTANCE_ACCURACY_VALUE',
'Maximum model space distance between geometric entities at asserted c
onnectivities');
#1254=(
GEOMETRIC_REPRESENTATION_CONTEXT(3)
GLOBAL_UNCERTAINTY_ASSIGNED_CONTEXT((#1252))
GLOBAL_UNIT_ASSIGNED_CONTEXT((#1256,#1258,#1259))
REPRESENTATION_CONTEXT('','3D')
);
#1255=(
GEOMETRIC_REPRESENTATION_CONTEXT(3)
GLOBAL_UNCERTAINTY_ASSIGNED_CONTEXT((#1253))
GLOBAL_UNIT_ASSIGNED_CONTEXT((#1256,#1258,#1259))
REPRESENTATION_CONTEXT('','3D')
);
#1256=(
LENGTH_UNIT()
NAMED_UNIT(*)
SI_UNIT(.MILLI.,.METRE.)
);
#1257=(
LENGTH_UNIT()
NAMED_UNIT(*)
SI_UNIT($,.METRE.)
);
#1258=(
NAMED_UNIT(*)
PLANE_ANGLE_UNIT()
SI_UNIT($,.RADIAN.)
);
#1259=(
NAMED_UNIT(*)
SI_UNIT($,.STERADIAN.)
SOLID_ANGLE_UNIT()
);
#1260=SHAPE_DEFINITION_REPRESENTATION(#1261,#1262);
#1261=PRODUCT_DEFINITION_SHAPE('',$,#1264);
#1262=SHAPE_REPRESENTATION('',(#740),#1254);
#1263=PRODUCT_DEFINITION_CONTEXT('part definition',#1268,'design');
#1264=PRODUCT_DEFINITION('Back Panel','Back Panel',#1265,#1263);
#1265=PRODUCT_DEFINITION_FORMATION('',$,#1270);
#1266=PRODUCT_RELATED_PRODUCT_CATEGORY('Back Panel','Back Panel',(#1270));
#1267=APPLICATION_PROTOCOL_DEFINITION('international standard',
'automotive_design',2009,#1268);
#1268=APPLICATION_CONTEXT(
'Core Data for Automotive Mechanical Design Process');
#1269=PRODUCT_CONTEXT('part definition',#1268,'mechanical');
#1270=PRODUCT('Back Panel','Back Panel',$,(#1269));
#1271=PRESENTATION_STYLE_ASSIGNMENT((#1272));
#1272=SURFACE_STYLE_USAGE(.BOTH.,#1273);
#1273=SURFACE_SIDE_STYLE('',(#1274));
#1274=SURFACE_STYLE_FILL_AREA(#1275);
#1275=FILL_AREA_STYLE('Aluminum - Satin',(#1276));
#1276=FILL_AREA_STYLE_COLOUR('Aluminum - Satin',#1277);
#1277=COLOUR_RGB('Aluminum - Satin',0.96078431372549,0.96078431372549,0.964705882352941);
ENDSEC;
END-ISO-10303-21;
