ISO-10303-21;
HEADER;
/* Generated by software containing ST-Developer
 * from STEP Tools, Inc. (www.steptools.com) 
 */

FILE_DESCRIPTION(
/* description */ (''),
/* implementation_level */ '2;1');

FILE_NAME(
/* name */ 'Bottom Main Plate.step',
/* time_stamp */ '2026-08-23T19:12:11-06:00',
/* author */ (''),
/* organization */ (''),
/* preprocessor_version */ 'ST-DEVELOPER v20.1',
/* originating_system */ 'Autodesk Translation Framework v15.8.0.0',
/* authorisation */ '');

FILE_SCHEMA (('AUTOMOTIVE_DESIGN { 1 0 10303 214 3 1 1 }'));
ENDSEC;

DATA;
#10=MECHANICAL_DESIGN_GEOMETRIC_PRESENTATION_REPRESENTATION('',(#13),#1002);
#11=SHAPE_REPRESENTATION_RELATIONSHIP('SRR','None',#1009,#12);
#12=ADVANCED_BREP_SHAPE_REPRESENTATION('',(#14),#1001);
#13=STYLED_ITEM('',(#1018),#14);
#14=MANIFOLD_SOLID_BREP('Body1',#590);
#15=FACE_BOUND('',#173,.T.);
#16=FACE_BOUND('',#174,.T.);
#17=FACE_BOUND('',#175,.T.);
#18=FACE_BOUND('',#176,.T.);
#19=FACE_BOUND('',#177,.T.);
#20=FACE_BOUND('',#178,.T.);
#21=FACE_BOUND('',#179,.T.);
#22=FACE_BOUND('',#180,.T.);
#23=FACE_BOUND('',#181,.T.);
#24=FACE_BOUND('',#182,.T.);
#25=FACE_BOUND('',#183,.T.);
#26=FACE_BOUND('',#184,.T.);
#27=FACE_BOUND('',#185,.T.);
#28=FACE_BOUND('',#186,.T.);
#29=FACE_BOUND('',#187,.T.);
#30=FACE_BOUND('',#188,.T.);
#31=FACE_BOUND('',#189,.T.);
#32=FACE_BOUND('',#190,.T.);
#33=FACE_BOUND('',#191,.T.);
#34=FACE_BOUND('',#192,.T.);
#35=FACE_BOUND('',#193,.T.);
#36=FACE_BOUND('',#195,.T.);
#37=FACE_BOUND('',#196,.T.);
#38=FACE_BOUND('',#197,.T.);
#39=FACE_BOUND('',#198,.T.);
#40=FACE_BOUND('',#199,.T.);
#41=FACE_BOUND('',#200,.T.);
#42=FACE_BOUND('',#201,.T.);
#43=FACE_BOUND('',#202,.T.);
#44=FACE_BOUND('',#203,.T.);
#45=FACE_BOUND('',#204,.T.);
#46=FACE_BOUND('',#205,.T.);
#47=FACE_BOUND('',#206,.T.);
#48=FACE_BOUND('',#207,.T.);
#49=FACE_BOUND('',#208,.T.);
#50=FACE_BOUND('',#209,.T.);
#51=FACE_BOUND('',#210,.T.);
#52=FACE_BOUND('',#211,.T.);
#53=FACE_BOUND('',#212,.T.);
#54=FACE_BOUND('',#213,.T.);
#55=FACE_BOUND('',#214,.T.);
#56=FACE_BOUND('',#215,.T.);
#57=CIRCLE('',#606,2.15);
#58=CIRCLE('',#607,2.15);
#59=CIRCLE('',#609,2.15);
#60=CIRCLE('',#610,2.15);
#61=CIRCLE('',#612,2.15);
#62=CIRCLE('',#613,2.15);
#63=CIRCLE('',#615,2.65);
#64=CIRCLE('',#616,2.65);
#65=CIRCLE('',#618,1.65);
#66=CIRCLE('',#619,1.65);
#67=CIRCLE('',#621,2.15);
#68=CIRCLE('',#622,2.15);
#69=CIRCLE('',#624,2.15);
#70=CIRCLE('',#625,2.15);
#71=CIRCLE('',#627,2.15);
#72=CIRCLE('',#628,2.15);
#73=CIRCLE('',#630,1.65);
#74=CIRCLE('',#631,1.65);
#75=CIRCLE('',#633,1.65);
#76=CIRCLE('',#634,1.65);
#77=CIRCLE('',#636,1.65);
#78=CIRCLE('',#637,1.65);
#79=CIRCLE('',#639,24.);
#80=CIRCLE('',#640,24.);
#81=CIRCLE('',#642,2.15);
#82=CIRCLE('',#643,2.15);
#83=CIRCLE('',#645,2.15);
#84=CIRCLE('',#646,2.15);
#85=CIRCLE('',#648,2.65);
#86=CIRCLE('',#649,2.65);
#87=CIRCLE('',#651,2.15);
#88=CIRCLE('',#652,2.15);
#89=CIRCLE('',#654,2.65);
#90=CIRCLE('',#655,2.65);
#91=CIRCLE('',#657,1.65);
#92=CIRCLE('',#658,1.65);
#93=CIRCLE('',#660,2.65000000000001);
#94=CIRCLE('',#661,2.65000000000001);
#95=CIRCLE('',#663,1.65);
#96=CIRCLE('',#664,1.65);
#97=CIRCLE('',#666,2.15);
#98=CIRCLE('',#667,2.15);
#99=CYLINDRICAL_SURFACE('',#605,2.15);
#100=CYLINDRICAL_SURFACE('',#608,2.15);
#101=CYLINDRICAL_SURFACE('',#611,2.15);
#102=CYLINDRICAL_SURFACE('',#614,2.65);
#103=CYLINDRICAL_SURFACE('',#617,1.65);
#104=CYLINDRICAL_SURFACE('',#620,2.15);
#105=CYLINDRICAL_SURFACE('',#623,2.15);
#106=CYLINDRICAL_SURFACE('',#626,2.15);
#107=CYLINDRICAL_SURFACE('',#629,1.65);
#108=CYLINDRICAL_SURFACE('',#632,1.65);
#109=CYLINDRICAL_SURFACE('',#635,1.65);
#110=CYLINDRICAL_SURFACE('',#638,24.);
#111=CYLINDRICAL_SURFACE('',#641,2.15);
#112=CYLINDRICAL_SURFACE('',#644,2.15);
#113=CYLINDRICAL_SURFACE('',#647,2.65);
#114=CYLINDRICAL_SURFACE('',#650,2.15);
#115=CYLINDRICAL_SURFACE('',#653,2.65);
#116=CYLINDRICAL_SURFACE('',#656,1.65);
#117=CYLINDRICAL_SURFACE('',#659,2.65000000000001);
#118=CYLINDRICAL_SURFACE('',#662,1.65);
#119=CYLINDRICAL_SURFACE('',#665,2.15);
#120=FACE_OUTER_BOUND('',#147,.T.);
#121=FACE_OUTER_BOUND('',#148,.T.);
#122=FACE_OUTER_BOUND('',#149,.T.);
#123=FACE_OUTER_BOUND('',#150,.T.);
#124=FACE_OUTER_BOUND('',#151,.T.);
#125=FACE_OUTER_BOUND('',#152,.T.);
#126=FACE_OUTER_BOUND('',#153,.T.);
#127=FACE_OUTER_BOUND('',#154,.T.);
#128=FACE_OUTER_BOUND('',#155,.T.);
#129=FACE_OUTER_BOUND('',#156,.T.);
#130=FACE_OUTER_BOUND('',#157,.T.);
#131=FACE_OUTER_BOUND('',#158,.T.);
#132=FACE_OUTER_BOUND('',#159,.T.);
#133=FACE_OUTER_BOUND('',#160,.T.);
#134=FACE_OUTER_BOUND('',#161,.T.);
#135=FACE_OUTER_BOUND('',#162,.T.);
#136=FACE_OUTER_BOUND('',#163,.T.);
#137=FACE_OUTER_BOUND('',#164,.T.);
#138=FACE_OUTER_BOUND('',#165,.T.);
#139=FACE_OUTER_BOUND('',#166,.T.);
#140=FACE_OUTER_BOUND('',#167,.T.);
#141=FACE_OUTER_BOUND('',#168,.T.);
#142=FACE_OUTER_BOUND('',#169,.T.);
#143=FACE_OUTER_BOUND('',#170,.T.);
#144=FACE_OUTER_BOUND('',#171,.T.);
#145=FACE_OUTER_BOUND('',#172,.T.);
#146=FACE_OUTER_BOUND('',#194,.T.);
#147=EDGE_LOOP('',(#407,#408,#409,#410));
#148=EDGE_LOOP('',(#411,#412,#413,#414));
#149=EDGE_LOOP('',(#415,#416,#417,#418));
#150=EDGE_LOOP('',(#419,#420,#421,#422));
#151=EDGE_LOOP('',(#423,#424,#425,#426));
#152=EDGE_LOOP('',(#427,#428,#429,#430));
#153=EDGE_LOOP('',(#431,#432,#433,#434));
#154=EDGE_LOOP('',(#435,#436,#437,#438));
#155=EDGE_LOOP('',(#439,#440,#441,#442));
#156=EDGE_LOOP('',(#443,#444,#445,#446));
#157=EDGE_LOOP('',(#447,#448,#449,#450));
#158=EDGE_LOOP('',(#451,#452,#453,#454));
#159=EDGE_LOOP('',(#455,#456,#457,#458));
#160=EDGE_LOOP('',(#459,#460,#461,#462));
#161=EDGE_LOOP('',(#463,#464,#465,#466));
#162=EDGE_LOOP('',(#467,#468,#469,#470));
#163=EDGE_LOOP('',(#471,#472,#473,#474));
#164=EDGE_LOOP('',(#475,#476,#477,#478));
#165=EDGE_LOOP('',(#479,#480,#481,#482));
#166=EDGE_LOOP('',(#483,#484,#485,#486));
#167=EDGE_LOOP('',(#487,#488,#489,#490));
#168=EDGE_LOOP('',(#491,#492,#493,#494));
#169=EDGE_LOOP('',(#495,#496,#497,#498));
#170=EDGE_LOOP('',(#499,#500,#501,#502));
#171=EDGE_LOOP('',(#503,#504,#505,#506));
#172=EDGE_LOOP('',(#507,#508,#509,#510));
#173=EDGE_LOOP('',(#511));
#174=EDGE_LOOP('',(#512));
#175=EDGE_LOOP('',(#513));
#176=EDGE_LOOP('',(#514));
#177=EDGE_LOOP('',(#515));
#178=EDGE_LOOP('',(#516));
#179=EDGE_LOOP('',(#517));
#180=EDGE_LOOP('',(#518));
#181=EDGE_LOOP('',(#519));
#182=EDGE_LOOP('',(#520));
#183=EDGE_LOOP('',(#521));
#184=EDGE_LOOP('',(#522));
#185=EDGE_LOOP('',(#523));
#186=EDGE_LOOP('',(#524));
#187=EDGE_LOOP('',(#525));
#188=EDGE_LOOP('',(#526));
#189=EDGE_LOOP('',(#527));
#190=EDGE_LOOP('',(#528));
#191=EDGE_LOOP('',(#529));
#192=EDGE_LOOP('',(#530));
#193=EDGE_LOOP('',(#531));
#194=EDGE_LOOP('',(#532,#533,#534,#535));
#195=EDGE_LOOP('',(#536));
#196=EDGE_LOOP('',(#537));
#197=EDGE_LOOP('',(#538));
#198=EDGE_LOOP('',(#539));
#199=EDGE_LOOP('',(#540));
#200=EDGE_LOOP('',(#541));
#201=EDGE_LOOP('',(#542));
#202=EDGE_LOOP('',(#543));
#203=EDGE_LOOP('',(#544));
#204=EDGE_LOOP('',(#545));
#205=EDGE_LOOP('',(#546));
#206=EDGE_LOOP('',(#547));
#207=EDGE_LOOP('',(#548));
#208=EDGE_LOOP('',(#549));
#209=EDGE_LOOP('',(#550));
#210=EDGE_LOOP('',(#551));
#211=EDGE_LOOP('',(#552));
#212=EDGE_LOOP('',(#553));
#213=EDGE_LOOP('',(#554));
#214=EDGE_LOOP('',(#555));
#215=EDGE_LOOP('',(#556));
#216=LINE('',#850,#249);
#217=LINE('',#852,#250);
#218=LINE('',#854,#251);
#219=LINE('',#855,#252);
#220=LINE('',#860,#253);
#221=LINE('',#866,#254);
#222=LINE('',#872,#255);
#223=LINE('',#878,#256);
#224=LINE('',#884,#257);
#225=LINE('',#890,#258);
#226=LINE('',#896,#259);
#227=LINE('',#902,#260);
#228=LINE('',#908,#261);
#229=LINE('',#914,#262);
#230=LINE('',#920,#263);
#231=LINE('',#926,#264);
#232=LINE('',#932,#265);
#233=LINE('',#938,#266);
#234=LINE('',#944,#267);
#235=LINE('',#950,#268);
#236=LINE('',#956,#269);
#237=LINE('',#962,#270);
#238=LINE('',#968,#271);
#239=LINE('',#974,#272);
#240=LINE('',#980,#273);
#241=LINE('',#984,#274);
#242=LINE('',#986,#275);
#243=LINE('',#987,#276);
#244=LINE('',#990,#277);
#245=LINE('',#992,#278);
#246=LINE('',#993,#279);
#247=LINE('',#995,#280);
#248=LINE('',#996,#281);
#249=VECTOR('',#677,10.);
#250=VECTOR('',#678,10.);
#251=VECTOR('',#679,10.);
#252=VECTOR('',#680,10.);
#253=VECTOR('',#685,2.15);
#254=VECTOR('',#692,2.15);
#255=VECTOR('',#699,2.15);
#256=VECTOR('',#706,2.65);
#257=VECTOR('',#713,1.65);
#258=VECTOR('',#720,2.15);
#259=VECTOR('',#727,2.15);
#260=VECTOR('',#734,2.15);
#261=VECTOR('',#741,1.65);
#262=VECTOR('',#748,1.65);
#263=VECTOR('',#755,1.65);
#264=VECTOR('',#762,25.);
#265=VECTOR('',#769,2.15);
#266=VECTOR('',#776,2.15);
#267=VECTOR('',#783,2.65);
#268=VECTOR('',#790,2.15);
#269=VECTOR('',#797,2.65);
#270=VECTOR('',#804,1.65);
#271=VECTOR('',#811,2.65000000000001);
#272=VECTOR('',#818,1.65);
#273=VECTOR('',#825,2.15);
#274=VECTOR('',#830,10.);
#275=VECTOR('',#831,10.);
#276=VECTOR('',#832,10.);
#277=VECTOR('',#835,10.);
#278=VECTOR('',#836,10.);
#279=VECTOR('',#837,10.);
#280=VECTOR('',#840,10.);
#281=VECTOR('',#841,10.);
#282=VERTEX_POINT('',#848);
#283=VERTEX_POINT('',#849);
#284=VERTEX_POINT('',#851);
#285=VERTEX_POINT('',#853);
#286=VERTEX_POINT('',#857);
#287=VERTEX_POINT('',#859);
#288=VERTEX_POINT('',#863);
#289=VERTEX_POINT('',#865);
#290=VERTEX_POINT('',#869);
#291=VERTEX_POINT('',#871);
#292=VERTEX_POINT('',#875);
#293=VERTEX_POINT('',#877);
#294=VERTEX_POINT('',#881);
#295=VERTEX_POINT('',#883);
#296=VERTEX_POINT('',#887);
#297=VERTEX_POINT('',#889);
#298=VERTEX_POINT('',#893);
#299=VERTEX_POINT('',#895);
#300=VERTEX_POINT('',#899);
#301=VERTEX_POINT('',#901);
#302=VERTEX_POINT('',#905);
#303=VERTEX_POINT('',#907);
#304=VERTEX_POINT('',#911);
#305=VERTEX_POINT('',#913);
#306=VERTEX_POINT('',#917);
#307=VERTEX_POINT('',#919);
#308=VERTEX_POINT('',#923);
#309=VERTEX_POINT('',#925);
#310=VERTEX_POINT('',#929);
#311=VERTEX_POINT('',#931);
#312=VERTEX_POINT('',#935);
#313=VERTEX_POINT('',#937);
#314=VERTEX_POINT('',#941);
#315=VERTEX_POINT('',#943);
#316=VERTEX_POINT('',#947);
#317=VERTEX_POINT('',#949);
#318=VERTEX_POINT('',#953);
#319=VERTEX_POINT('',#955);
#320=VERTEX_POINT('',#959);
#321=VERTEX_POINT('',#961);
#322=VERTEX_POINT('',#965);
#323=VERTEX_POINT('',#967);
#324=VERTEX_POINT('',#971);
#325=VERTEX_POINT('',#973);
#326=VERTEX_POINT('',#977);
#327=VERTEX_POINT('',#979);
#328=VERTEX_POINT('',#983);
#329=VERTEX_POINT('',#985);
#330=VERTEX_POINT('',#989);
#331=VERTEX_POINT('',#991);
#332=EDGE_CURVE('',#282,#283,#216,.T.);
#333=EDGE_CURVE('',#283,#284,#217,.T.);
#334=EDGE_CURVE('',#284,#285,#218,.T.);
#335=EDGE_CURVE('',#285,#282,#219,.T.);
#336=EDGE_CURVE('',#286,#286,#57,.T.);
#337=EDGE_CURVE('',#286,#287,#220,.T.);
#338=EDGE_CURVE('',#287,#287,#58,.T.);
#339=EDGE_CURVE('',#288,#288,#59,.T.);
#340=EDGE_CURVE('',#288,#289,#221,.T.);
#341=EDGE_CURVE('',#289,#289,#60,.T.);
#342=EDGE_CURVE('',#290,#290,#61,.T.);
#343=EDGE_CURVE('',#290,#291,#222,.T.);
#344=EDGE_CURVE('',#291,#291,#62,.T.);
#345=EDGE_CURVE('',#292,#292,#63,.T.);
#346=EDGE_CURVE('',#292,#293,#223,.T.);
#347=EDGE_CURVE('',#293,#293,#64,.T.);
#348=EDGE_CURVE('',#294,#294,#65,.T.);
#349=EDGE_CURVE('',#294,#295,#224,.T.);
#350=EDGE_CURVE('',#295,#295,#66,.T.);
#351=EDGE_CURVE('',#296,#296,#67,.T.);
#352=EDGE_CURVE('',#296,#297,#225,.T.);
#353=EDGE_CURVE('',#297,#297,#68,.T.);
#354=EDGE_CURVE('',#298,#298,#69,.T.);
#355=EDGE_CURVE('',#298,#299,#226,.T.);
#356=EDGE_CURVE('',#299,#299,#70,.T.);
#357=EDGE_CURVE('',#300,#300,#71,.T.);
#358=EDGE_CURVE('',#300,#301,#227,.T.);
#359=EDGE_CURVE('',#301,#301,#72,.T.);
#360=EDGE_CURVE('',#302,#302,#73,.T.);
#361=EDGE_CURVE('',#302,#303,#228,.T.);
#362=EDGE_CURVE('',#303,#303,#74,.T.);
#363=EDGE_CURVE('',#304,#304,#75,.T.);
#364=EDGE_CURVE('',#304,#305,#229,.T.);
#365=EDGE_CURVE('',#305,#305,#76,.T.);
#366=EDGE_CURVE('',#306,#306,#77,.T.);
#367=EDGE_CURVE('',#306,#307,#230,.T.);
#368=EDGE_CURVE('',#307,#307,#78,.T.);
#369=EDGE_CURVE('',#308,#308,#79,.F.);
#370=EDGE_CURVE('',#308,#309,#231,.T.);
#371=EDGE_CURVE('',#309,#309,#80,.F.);
#372=EDGE_CURVE('',#310,#310,#81,.T.);
#373=EDGE_CURVE('',#310,#311,#232,.T.);
#374=EDGE_CURVE('',#311,#311,#82,.T.);
#375=EDGE_CURVE('',#312,#312,#83,.T.);
#376=EDGE_CURVE('',#312,#313,#233,.T.);
#377=EDGE_CURVE('',#313,#313,#84,.T.);
#378=EDGE_CURVE('',#314,#314,#85,.T.);
#379=EDGE_CURVE('',#314,#315,#234,.T.);
#380=EDGE_CURVE('',#315,#315,#86,.T.);
#381=EDGE_CURVE('',#316,#316,#87,.T.);
#382=EDGE_CURVE('',#316,#317,#235,.T.);
#383=EDGE_CURVE('',#317,#317,#88,.T.);
#384=EDGE_CURVE('',#318,#318,#89,.T.);
#385=EDGE_CURVE('',#318,#319,#236,.T.);
#386=EDGE_CURVE('',#319,#319,#90,.T.);
#387=EDGE_CURVE('',#320,#320,#91,.T.);
#388=EDGE_CURVE('',#320,#321,#237,.T.);
#389=EDGE_CURVE('',#321,#321,#92,.T.);
#390=EDGE_CURVE('',#322,#322,#93,.T.);
#391=EDGE_CURVE('',#322,#323,#238,.T.);
#392=EDGE_CURVE('',#323,#323,#94,.T.);
#393=EDGE_CURVE('',#324,#324,#95,.T.);
#394=EDGE_CURVE('',#324,#325,#239,.T.);
#395=EDGE_CURVE('',#325,#325,#96,.T.);
#396=EDGE_CURVE('',#326,#326,#97,.T.);
#397=EDGE_CURVE('',#326,#327,#240,.T.);
#398=EDGE_CURVE('',#327,#327,#98,.T.);
#399=EDGE_CURVE('',#328,#282,#241,.T.);
#400=EDGE_CURVE('',#329,#285,#242,.T.);
#401=EDGE_CURVE('',#328,#329,#243,.T.);
#402=EDGE_CURVE('',#330,#328,#244,.T.);
#403=EDGE_CURVE('',#331,#329,#245,.T.);
#404=EDGE_CURVE('',#330,#331,#246,.T.);
#405=EDGE_CURVE('',#330,#283,#247,.T.);
#406=EDGE_CURVE('',#331,#284,#248,.T.);
#407=ORIENTED_EDGE('',*,*,#332,.T.);
#408=ORIENTED_EDGE('',*,*,#333,.T.);
#409=ORIENTED_EDGE('',*,*,#334,.T.);
#410=ORIENTED_EDGE('',*,*,#335,.T.);
#411=ORIENTED_EDGE('',*,*,#336,.F.);
#412=ORIENTED_EDGE('',*,*,#337,.T.);
#413=ORIENTED_EDGE('',*,*,#338,.T.);
#414=ORIENTED_EDGE('',*,*,#337,.F.);
#415=ORIENTED_EDGE('',*,*,#339,.F.);
#416=ORIENTED_EDGE('',*,*,#340,.T.);
#417=ORIENTED_EDGE('',*,*,#341,.T.);
#418=ORIENTED_EDGE('',*,*,#340,.F.);
#419=ORIENTED_EDGE('',*,*,#342,.F.);
#420=ORIENTED_EDGE('',*,*,#343,.T.);
#421=ORIENTED_EDGE('',*,*,#344,.T.);
#422=ORIENTED_EDGE('',*,*,#343,.F.);
#423=ORIENTED_EDGE('',*,*,#345,.F.);
#424=ORIENTED_EDGE('',*,*,#346,.T.);
#425=ORIENTED_EDGE('',*,*,#347,.T.);
#426=ORIENTED_EDGE('',*,*,#346,.F.);
#427=ORIENTED_EDGE('',*,*,#348,.F.);
#428=ORIENTED_EDGE('',*,*,#349,.T.);
#429=ORIENTED_EDGE('',*,*,#350,.T.);
#430=ORIENTED_EDGE('',*,*,#349,.F.);
#431=ORIENTED_EDGE('',*,*,#351,.F.);
#432=ORIENTED_EDGE('',*,*,#352,.T.);
#433=ORIENTED_EDGE('',*,*,#353,.T.);
#434=ORIENTED_EDGE('',*,*,#352,.F.);
#435=ORIENTED_EDGE('',*,*,#354,.F.);
#436=ORIENTED_EDGE('',*,*,#355,.T.);
#437=ORIENTED_EDGE('',*,*,#356,.T.);
#438=ORIENTED_EDGE('',*,*,#355,.F.);
#439=ORIENTED_EDGE('',*,*,#357,.F.);
#440=ORIENTED_EDGE('',*,*,#358,.T.);
#441=ORIENTED_EDGE('',*,*,#359,.T.);
#442=ORIENTED_EDGE('',*,*,#358,.F.);
#443=ORIENTED_EDGE('',*,*,#360,.F.);
#444=ORIENTED_EDGE('',*,*,#361,.T.);
#445=ORIENTED_EDGE('',*,*,#362,.T.);
#446=ORIENTED_EDGE('',*,*,#361,.F.);
#447=ORIENTED_EDGE('',*,*,#363,.F.);
#448=ORIENTED_EDGE('',*,*,#364,.T.);
#449=ORIENTED_EDGE('',*,*,#365,.T.);
#450=ORIENTED_EDGE('',*,*,#364,.F.);
#451=ORIENTED_EDGE('',*,*,#366,.F.);
#452=ORIENTED_EDGE('',*,*,#367,.T.);
#453=ORIENTED_EDGE('',*,*,#368,.T.);
#454=ORIENTED_EDGE('',*,*,#367,.F.);
#455=ORIENTED_EDGE('',*,*,#369,.F.);
#456=ORIENTED_EDGE('',*,*,#370,.T.);
#457=ORIENTED_EDGE('',*,*,#371,.T.);
#458=ORIENTED_EDGE('',*,*,#370,.F.);
#459=ORIENTED_EDGE('',*,*,#372,.F.);
#460=ORIENTED_EDGE('',*,*,#373,.T.);
#461=ORIENTED_EDGE('',*,*,#374,.T.);
#462=ORIENTED_EDGE('',*,*,#373,.F.);
#463=ORIENTED_EDGE('',*,*,#375,.F.);
#464=ORIENTED_EDGE('',*,*,#376,.T.);
#465=ORIENTED_EDGE('',*,*,#377,.T.);
#466=ORIENTED_EDGE('',*,*,#376,.F.);
#467=ORIENTED_EDGE('',*,*,#378,.F.);
#468=ORIENTED_EDGE('',*,*,#379,.T.);
#469=ORIENTED_EDGE('',*,*,#380,.T.);
#470=ORIENTED_EDGE('',*,*,#379,.F.);
#471=ORIENTED_EDGE('',*,*,#381,.F.);
#472=ORIENTED_EDGE('',*,*,#382,.T.);
#473=ORIENTED_EDGE('',*,*,#383,.T.);
#474=ORIENTED_EDGE('',*,*,#382,.F.);
#475=ORIENTED_EDGE('',*,*,#384,.F.);
#476=ORIENTED_EDGE('',*,*,#385,.T.);
#477=ORIENTED_EDGE('',*,*,#386,.T.);
#478=ORIENTED_EDGE('',*,*,#385,.F.);
#479=ORIENTED_EDGE('',*,*,#387,.F.);
#480=ORIENTED_EDGE('',*,*,#388,.T.);
#481=ORIENTED_EDGE('',*,*,#389,.T.);
#482=ORIENTED_EDGE('',*,*,#388,.F.);
#483=ORIENTED_EDGE('',*,*,#390,.F.);
#484=ORIENTED_EDGE('',*,*,#391,.T.);
#485=ORIENTED_EDGE('',*,*,#392,.T.);
#486=ORIENTED_EDGE('',*,*,#391,.F.);
#487=ORIENTED_EDGE('',*,*,#393,.F.);
#488=ORIENTED_EDGE('',*,*,#394,.T.);
#489=ORIENTED_EDGE('',*,*,#395,.T.);
#490=ORIENTED_EDGE('',*,*,#394,.F.);
#491=ORIENTED_EDGE('',*,*,#396,.F.);
#492=ORIENTED_EDGE('',*,*,#397,.T.);
#493=ORIENTED_EDGE('',*,*,#398,.T.);
#494=ORIENTED_EDGE('',*,*,#397,.F.);
#495=ORIENTED_EDGE('',*,*,#399,.T.);
#496=ORIENTED_EDGE('',*,*,#335,.F.);
#497=ORIENTED_EDGE('',*,*,#400,.F.);
#498=ORIENTED_EDGE('',*,*,#401,.F.);
#499=ORIENTED_EDGE('',*,*,#402,.T.);
#500=ORIENTED_EDGE('',*,*,#401,.T.);
#501=ORIENTED_EDGE('',*,*,#403,.F.);
#502=ORIENTED_EDGE('',*,*,#404,.F.);
#503=ORIENTED_EDGE('',*,*,#405,.F.);
#504=ORIENTED_EDGE('',*,*,#404,.T.);
#505=ORIENTED_EDGE('',*,*,#406,.T.);
#506=ORIENTED_EDGE('',*,*,#333,.F.);
#507=ORIENTED_EDGE('',*,*,#406,.F.);
#508=ORIENTED_EDGE('',*,*,#403,.T.);
#509=ORIENTED_EDGE('',*,*,#400,.T.);
#510=ORIENTED_EDGE('',*,*,#334,.F.);
#511=ORIENTED_EDGE('',*,*,#396,.T.);
#512=ORIENTED_EDGE('',*,*,#393,.T.);
#513=ORIENTED_EDGE('',*,*,#390,.T.);
#514=ORIENTED_EDGE('',*,*,#387,.T.);
#515=ORIENTED_EDGE('',*,*,#384,.T.);
#516=ORIENTED_EDGE('',*,*,#381,.T.);
#517=ORIENTED_EDGE('',*,*,#378,.T.);
#518=ORIENTED_EDGE('',*,*,#375,.T.);
#519=ORIENTED_EDGE('',*,*,#372,.T.);
#520=ORIENTED_EDGE('',*,*,#369,.T.);
#521=ORIENTED_EDGE('',*,*,#366,.T.);
#522=ORIENTED_EDGE('',*,*,#363,.T.);
#523=ORIENTED_EDGE('',*,*,#360,.T.);
#524=ORIENTED_EDGE('',*,*,#357,.T.);
#525=ORIENTED_EDGE('',*,*,#354,.T.);
#526=ORIENTED_EDGE('',*,*,#351,.T.);
#527=ORIENTED_EDGE('',*,*,#348,.T.);
#528=ORIENTED_EDGE('',*,*,#345,.T.);
#529=ORIENTED_EDGE('',*,*,#342,.T.);
#530=ORIENTED_EDGE('',*,*,#339,.T.);
#531=ORIENTED_EDGE('',*,*,#336,.T.);
#532=ORIENTED_EDGE('',*,*,#405,.T.);
#533=ORIENTED_EDGE('',*,*,#332,.F.);
#534=ORIENTED_EDGE('',*,*,#399,.F.);
#535=ORIENTED_EDGE('',*,*,#402,.F.);
#536=ORIENTED_EDGE('',*,*,#398,.F.);
#537=ORIENTED_EDGE('',*,*,#395,.F.);
#538=ORIENTED_EDGE('',*,*,#392,.F.);
#539=ORIENTED_EDGE('',*,*,#389,.F.);
#540=ORIENTED_EDGE('',*,*,#386,.F.);
#541=ORIENTED_EDGE('',*,*,#383,.F.);
#542=ORIENTED_EDGE('',*,*,#380,.F.);
#543=ORIENTED_EDGE('',*,*,#377,.F.);
#544=ORIENTED_EDGE('',*,*,#374,.F.);
#545=ORIENTED_EDGE('',*,*,#371,.F.);
#546=ORIENTED_EDGE('',*,*,#368,.F.);
#547=ORIENTED_EDGE('',*,*,#365,.F.);
#548=ORIENTED_EDGE('',*,*,#362,.F.);
#549=ORIENTED_EDGE('',*,*,#359,.F.);
#550=ORIENTED_EDGE('',*,*,#356,.F.);
#551=ORIENTED_EDGE('',*,*,#353,.F.);
#552=ORIENTED_EDGE('',*,*,#350,.F.);
#553=ORIENTED_EDGE('',*,*,#347,.F.);
#554=ORIENTED_EDGE('',*,*,#344,.F.);
#555=ORIENTED_EDGE('',*,*,#341,.F.);
#556=ORIENTED_EDGE('',*,*,#338,.F.);
#557=PLANE('',#604);
#558=PLANE('',#668);
#559=PLANE('',#669);
#560=PLANE('',#670);
#561=PLANE('',#671);
#562=PLANE('',#672);
#563=ADVANCED_FACE('',(#120),#557,.T.);
#564=ADVANCED_FACE('',(#121),#99,.F.);
#565=ADVANCED_FACE('',(#122),#100,.F.);
#566=ADVANCED_FACE('',(#123),#101,.F.);
#567=ADVANCED_FACE('',(#124),#102,.F.);
#568=ADVANCED_FACE('',(#125),#103,.F.);
#569=ADVANCED_FACE('',(#126),#104,.F.);
#570=ADVANCED_FACE('',(#127),#105,.F.);
#571=ADVANCED_FACE('',(#128),#106,.F.);
#572=ADVANCED_FACE('',(#129),#107,.F.);
#573=ADVANCED_FACE('',(#130),#108,.F.);
#574=ADVANCED_FACE('',(#131),#109,.F.);
#575=ADVANCED_FACE('',(#132),#110,.F.);
#576=ADVANCED_FACE('',(#133),#111,.F.);
#577=ADVANCED_FACE('',(#134),#112,.F.);
#578=ADVANCED_FACE('',(#135),#113,.F.);
#579=ADVANCED_FACE('',(#136),#114,.F.);
#580=ADVANCED_FACE('',(#137),#115,.F.);
#581=ADVANCED_FACE('',(#138),#116,.F.);
#582=ADVANCED_FACE('',(#139),#117,.F.);
#583=ADVANCED_FACE('',(#140),#118,.F.);
#584=ADVANCED_FACE('',(#141),#119,.F.);
#585=ADVANCED_FACE('',(#142),#558,.T.);
#586=ADVANCED_FACE('',(#143),#559,.T.);
#587=ADVANCED_FACE('',(#144),#560,.T.);
#588=ADVANCED_FACE('',(#145,#15,#16,#17,#18,#19,#20,#21,#22,#23,#24,#25,
#26,#27,#28,#29,#30,#31,#32,#33,#34,#35),#561,.T.);
#589=ADVANCED_FACE('',(#146,#36,#37,#38,#39,#40,#41,#42,#43,#44,#45,#46,
#47,#48,#49,#50,#51,#52,#53,#54,#55,#56),#562,.F.);
#590=CLOSED_SHELL('',(#563,#564,#565,#566,#567,#568,#569,#570,#571,#572,
#573,#574,#575,#576,#577,#578,#579,#580,#581,#582,#583,#584,#585,#586,#587,
#588,#589));
#591=DERIVED_UNIT_ELEMENT(#593,1.);
#592=DERIVED_UNIT_ELEMENT(#1004,-3.);
#593=(
MASS_UNIT()
NAMED_UNIT(*)
SI_UNIT(.KILO.,.GRAM.)
);
#594=DERIVED_UNIT((#591,#592));
#595=MEASURE_REPRESENTATION_ITEM('density measure',
POSITIVE_RATIO_MEASURE(2680.),#594);
#596=PROPERTY_DEFINITION_REPRESENTATION(#601,#598);
#597=PROPERTY_DEFINITION_REPRESENTATION(#602,#599);
#598=REPRESENTATION('material name',(#600),#1001);
#599=REPRESENTATION('density',(#595),#1001);
#600=DESCRIPTIVE_REPRESENTATION_ITEM('Aluminum 5052','Aluminum 5052');
#601=PROPERTY_DEFINITION('material property','material name',#1011);
#602=PROPERTY_DEFINITION('material property','density of part',#1011);
#603=AXIS2_PLACEMENT_3D('',#846,#673,#674);
#604=AXIS2_PLACEMENT_3D('',#847,#675,#676);
#605=AXIS2_PLACEMENT_3D('',#856,#681,#682);
#606=AXIS2_PLACEMENT_3D('',#858,#683,#684);
#607=AXIS2_PLACEMENT_3D('',#861,#686,#687);
#608=AXIS2_PLACEMENT_3D('',#862,#688,#689);
#609=AXIS2_PLACEMENT_3D('',#864,#690,#691);
#610=AXIS2_PLACEMENT_3D('',#867,#693,#694);
#611=AXIS2_PLACEMENT_3D('',#868,#695,#696);
#612=AXIS2_PLACEMENT_3D('',#870,#697,#698);
#613=AXIS2_PLACEMENT_3D('',#873,#700,#701);
#614=AXIS2_PLACEMENT_3D('',#874,#702,#703);
#615=AXIS2_PLACEMENT_3D('',#876,#704,#705);
#616=AXIS2_PLACEMENT_3D('',#879,#707,#708);
#617=AXIS2_PLACEMENT_3D('',#880,#709,#710);
#618=AXIS2_PLACEMENT_3D('',#882,#711,#712);
#619=AXIS2_PLACEMENT_3D('',#885,#714,#715);
#620=AXIS2_PLACEMENT_3D('',#886,#716,#717);
#621=AXIS2_PLACEMENT_3D('',#888,#718,#719);
#622=AXIS2_PLACEMENT_3D('',#891,#721,#722);
#623=AXIS2_PLACEMENT_3D('',#892,#723,#724);
#624=AXIS2_PLACEMENT_3D('',#894,#725,#726);
#625=AXIS2_PLACEMENT_3D('',#897,#728,#729);
#626=AXIS2_PLACEMENT_3D('',#898,#730,#731);
#627=AXIS2_PLACEMENT_3D('',#900,#732,#733);
#628=AXIS2_PLACEMENT_3D('',#903,#735,#736);
#629=AXIS2_PLACEMENT_3D('',#904,#737,#738);
#630=AXIS2_PLACEMENT_3D('',#906,#739,#740);
#631=AXIS2_PLACEMENT_3D('',#909,#742,#743);
#632=AXIS2_PLACEMENT_3D('',#910,#744,#745);
#633=AXIS2_PLACEMENT_3D('',#912,#746,#747);
#634=AXIS2_PLACEMENT_3D('',#915,#749,#750);
#635=AXIS2_PLACEMENT_3D('',#916,#751,#752);
#636=AXIS2_PLACEMENT_3D('',#918,#753,#754);
#637=AXIS2_PLACEMENT_3D('',#921,#756,#757);
#638=AXIS2_PLACEMENT_3D('',#922,#758,#759);
#639=AXIS2_PLACEMENT_3D('',#924,#760,#761);
#640=AXIS2_PLACEMENT_3D('',#927,#763,#764);
#641=AXIS2_PLACEMENT_3D('',#928,#765,#766);
#642=AXIS2_PLACEMENT_3D('',#930,#767,#768);
#643=AXIS2_PLACEMENT_3D('',#933,#770,#771);
#644=AXIS2_PLACEMENT_3D('',#934,#772,#773);
#645=AXIS2_PLACEMENT_3D('',#936,#774,#775);
#646=AXIS2_PLACEMENT_3D('',#939,#777,#778);
#647=AXIS2_PLACEMENT_3D('',#940,#779,#780);
#648=AXIS2_PLACEMENT_3D('',#942,#781,#782);
#649=AXIS2_PLACEMENT_3D('',#945,#784,#785);
#650=AXIS2_PLACEMENT_3D('',#946,#786,#787);
#651=AXIS2_PLACEMENT_3D('',#948,#788,#789);
#652=AXIS2_PLACEMENT_3D('',#951,#791,#792);
#653=AXIS2_PLACEMENT_3D('',#952,#793,#794);
#654=AXIS2_PLACEMENT_3D('',#954,#795,#796);
#655=AXIS2_PLACEMENT_3D('',#957,#798,#799);
#656=AXIS2_PLACEMENT_3D('',#958,#800,#801);
#657=AXIS2_PLACEMENT_3D('',#960,#802,#803);
#658=AXIS2_PLACEMENT_3D('',#963,#805,#806);
#659=AXIS2_PLACEMENT_3D('',#964,#807,#808);
#660=AXIS2_PLACEMENT_3D('',#966,#809,#810);
#661=AXIS2_PLACEMENT_3D('',#969,#812,#813);
#662=AXIS2_PLACEMENT_3D('',#970,#814,#815);
#663=AXIS2_PLACEMENT_3D('',#972,#816,#817);
#664=AXIS2_PLACEMENT_3D('',#975,#819,#820);
#665=AXIS2_PLACEMENT_3D('',#976,#821,#822);
#666=AXIS2_PLACEMENT_3D('',#978,#823,#824);
#667=AXIS2_PLACEMENT_3D('',#981,#826,#827);
#668=AXIS2_PLACEMENT_3D('',#982,#828,#829);
#669=AXIS2_PLACEMENT_3D('',#988,#833,#834);
#670=AXIS2_PLACEMENT_3D('',#994,#838,#839);
#671=AXIS2_PLACEMENT_3D('',#997,#842,#843);
#672=AXIS2_PLACEMENT_3D('',#998,#844,#845);
#673=DIRECTION('axis',(0.,0.,1.));
#674=DIRECTION('refdir',(1.,0.,0.));
#675=DIRECTION('center_axis',(1.,0.,3.49676543189026E-16));
#676=DIRECTION('ref_axis',(3.49676543189026E-16,0.,-1.));
#677=DIRECTION('',(4.93432455388959E-17,-1.,-9.75804505050833E-33));
#678=DIRECTION('',(3.49676543189026E-16,0.,-1.));
#679=DIRECTION('',(-4.93432455388959E-17,1.,9.75804505050833E-33));
#680=DIRECTION('',(-3.49676543189026E-16,0.,1.));
#681=DIRECTION('center_axis',(3.49676543189026E-16,0.,-1.));
#682=DIRECTION('ref_axis',(1.,-3.67840846885264E-45,3.49676543189026E-16));
#683=DIRECTION('center_axis',(-3.33066907387545E-16,-2.61926472426127E-32,
1.));
#684=DIRECTION('ref_axis',(1.,-3.67840846885264E-45,3.33066907387545E-16));
#685=DIRECTION('',(-3.49676543189026E-16,0.,1.));
#686=DIRECTION('center_axis',(-3.33066907387545E-16,-2.61926472426127E-32,
1.));
#687=DIRECTION('ref_axis',(1.,-3.67840846885264E-45,3.33066907387545E-16));
#688=DIRECTION('center_axis',(3.49676543189026E-16,0.,-1.));
#689=DIRECTION('ref_axis',(1.,-3.67840846885264E-45,3.49676543189026E-16));
#690=DIRECTION('center_axis',(-3.33066907387545E-16,-2.61926472426127E-32,
1.));
#691=DIRECTION('ref_axis',(1.,-3.67840846885264E-45,3.33066907387545E-16));
#692=DIRECTION('',(-3.49676543189026E-16,0.,1.));
#693=DIRECTION('center_axis',(-3.33066907387545E-16,-2.61926472426127E-32,
1.));
#694=DIRECTION('ref_axis',(1.,-3.67840846885264E-45,3.33066907387545E-16));
#695=DIRECTION('center_axis',(3.49676543189026E-16,0.,-1.));
#696=DIRECTION('ref_axis',(1.,-3.67840846885264E-45,3.49676543189026E-16));
#697=DIRECTION('center_axis',(-3.33066907387545E-16,-2.61926472426127E-32,
1.));
#698=DIRECTION('ref_axis',(1.,-3.67840846885264E-45,3.33066907387545E-16));
#699=DIRECTION('',(-3.49676543189026E-16,0.,1.));
#700=DIRECTION('center_axis',(-3.33066907387545E-16,-2.61926472426127E-32,
1.));
#701=DIRECTION('ref_axis',(1.,-3.67840846885264E-45,3.33066907387545E-16));
#702=DIRECTION('center_axis',(3.49676543189026E-16,0.,-1.));
#703=DIRECTION('ref_axis',(1.,-3.67840846885265E-45,3.49676543189026E-16));
#704=DIRECTION('center_axis',(-3.33066907387545E-16,-2.61926472426127E-32,
1.));
#705=DIRECTION('ref_axis',(1.,-3.67840846885265E-45,3.33066907387545E-16));
#706=DIRECTION('',(-3.49676543189026E-16,0.,1.));
#707=DIRECTION('center_axis',(-3.33066907387545E-16,-2.61926472426127E-32,
1.));
#708=DIRECTION('ref_axis',(1.,-3.67840846885265E-45,3.33066907387545E-16));
#709=DIRECTION('center_axis',(3.49676543189026E-16,0.,-1.));
#710=DIRECTION('ref_axis',(1.,-3.67840846885264E-45,3.49676543189026E-16));
#711=DIRECTION('center_axis',(-3.33066907387545E-16,-2.61926472426127E-32,
1.));
#712=DIRECTION('ref_axis',(1.,-3.67840846885264E-45,3.33066907387545E-16));
#713=DIRECTION('',(-3.49676543189026E-16,0.,1.));
#714=DIRECTION('center_axis',(-3.33066907387545E-16,-2.61926472426127E-32,
1.));
#715=DIRECTION('ref_axis',(1.,-3.67840846885264E-45,3.33066907387545E-16));
#716=DIRECTION('center_axis',(3.49676543189026E-16,0.,-1.));
#717=DIRECTION('ref_axis',(1.,-3.67840846885264E-45,3.49676543189026E-16));
#718=DIRECTION('center_axis',(-3.33066907387545E-16,-2.61926472426127E-32,
1.));
#719=DIRECTION('ref_axis',(1.,-3.67840846885264E-45,3.33066907387545E-16));
#720=DIRECTION('',(-3.49676543189026E-16,0.,1.));
#721=DIRECTION('center_axis',(-3.33066907387545E-16,-2.61926472426127E-32,
1.));
#722=DIRECTION('ref_axis',(1.,-3.67840846885264E-45,3.33066907387545E-16));
#723=DIRECTION('center_axis',(3.49676543189026E-16,0.,-1.));
#724=DIRECTION('ref_axis',(1.,-3.67840846885264E-45,3.49676543189026E-16));
#725=DIRECTION('center_axis',(-3.33066907387545E-16,-2.61926472426127E-32,
1.));
#726=DIRECTION('ref_axis',(1.,-3.67840846885264E-45,3.33066907387545E-16));
#727=DIRECTION('',(-3.49676543189026E-16,0.,1.));
#728=DIRECTION('center_axis',(-3.33066907387545E-16,-2.61926472426127E-32,
1.));
#729=DIRECTION('ref_axis',(1.,-3.67840846885264E-45,3.33066907387545E-16));
#730=DIRECTION('center_axis',(3.49676543189026E-16,0.,-1.));
#731=DIRECTION('ref_axis',(1.,-3.67840846885264E-45,3.49676543189026E-16));
#732=DIRECTION('center_axis',(-3.33066907387545E-16,-2.61926472426127E-32,
1.));
#733=DIRECTION('ref_axis',(1.,-3.67840846885264E-45,3.33066907387545E-16));
#734=DIRECTION('',(-3.49676543189026E-16,0.,1.));
#735=DIRECTION('center_axis',(-3.33066907387545E-16,-2.61926472426127E-32,
1.));
#736=DIRECTION('ref_axis',(1.,-3.67840846885264E-45,3.33066907387545E-16));
#737=DIRECTION('center_axis',(3.49676543189026E-16,0.,-1.));
#738=DIRECTION('ref_axis',(1.,-3.67840846885264E-45,3.49676543189026E-16));
#739=DIRECTION('center_axis',(-3.33066907387545E-16,-2.61926472426127E-32,
1.));
#740=DIRECTION('ref_axis',(1.,-3.67840846885264E-45,3.33066907387545E-16));
#741=DIRECTION('',(-3.49676543189026E-16,0.,1.));
#742=DIRECTION('center_axis',(-3.33066907387545E-16,-2.61926472426127E-32,
1.));
#743=DIRECTION('ref_axis',(1.,-3.67840846885264E-45,3.33066907387545E-16));
#744=DIRECTION('center_axis',(3.49676543189026E-16,0.,-1.));
#745=DIRECTION('ref_axis',(1.,-3.67840846885264E-45,3.49676543189026E-16));
#746=DIRECTION('center_axis',(-3.33066907387545E-16,-2.61926472426127E-32,
1.));
#747=DIRECTION('ref_axis',(1.,-3.67840846885264E-45,3.33066907387545E-16));
#748=DIRECTION('',(-3.49676543189026E-16,0.,1.));
#749=DIRECTION('center_axis',(-3.33066907387545E-16,-2.61926472426127E-32,
1.));
#750=DIRECTION('ref_axis',(1.,-3.67840846885264E-45,3.33066907387545E-16));
#751=DIRECTION('center_axis',(3.49676543189026E-16,0.,-1.));
#752=DIRECTION('ref_axis',(1.,-3.67840846885264E-45,3.49676543189026E-16));
#753=DIRECTION('center_axis',(-3.33066907387545E-16,-2.61926472426127E-32,
1.));
#754=DIRECTION('ref_axis',(1.,-3.67840846885264E-45,3.33066907387545E-16));
#755=DIRECTION('',(-3.49676543189026E-16,0.,1.));
#756=DIRECTION('center_axis',(-3.33066907387545E-16,-2.61926472426127E-32,
1.));
#757=DIRECTION('ref_axis',(1.,-3.67840846885264E-45,3.33066907387545E-16));
#758=DIRECTION('center_axis',(3.49676543189026E-16,0.,-1.));
#759=DIRECTION('ref_axis',(1.,-3.67840846885265E-45,3.49676543189026E-16));
#760=DIRECTION('center_axis',(3.33066907387545E-16,2.61926472426127E-32,
-1.));
#761=DIRECTION('ref_axis',(1.,-3.67840846885265E-45,3.49676543189026E-16));
#762=DIRECTION('',(-3.49676543189026E-16,0.,1.));
#763=DIRECTION('center_axis',(3.33066907387545E-16,2.61926472426127E-32,
-1.));
#764=DIRECTION('ref_axis',(1.,-3.67840846885265E-45,3.49676543189026E-16));
#765=DIRECTION('center_axis',(3.49676543189026E-16,0.,-1.));
#766=DIRECTION('ref_axis',(1.,-3.67840846885264E-45,3.49676543189026E-16));
#767=DIRECTION('center_axis',(-3.33066907387545E-16,-2.61926472426127E-32,
1.));
#768=DIRECTION('ref_axis',(1.,-3.67840846885264E-45,3.33066907387545E-16));
#769=DIRECTION('',(-3.49676543189026E-16,0.,1.));
#770=DIRECTION('center_axis',(-3.33066907387545E-16,-2.61926472426127E-32,
1.));
#771=DIRECTION('ref_axis',(1.,-3.67840846885264E-45,3.33066907387545E-16));
#772=DIRECTION('center_axis',(3.49676543189026E-16,0.,-1.));
#773=DIRECTION('ref_axis',(1.,-3.67840846885264E-45,3.49676543189026E-16));
#774=DIRECTION('center_axis',(-3.33066907387545E-16,-2.61926472426127E-32,
1.));
#775=DIRECTION('ref_axis',(1.,-3.67840846885264E-45,3.33066907387545E-16));
#776=DIRECTION('',(-3.49676543189026E-16,0.,1.));
#777=DIRECTION('center_axis',(-3.33066907387545E-16,-2.61926472426127E-32,
1.));
#778=DIRECTION('ref_axis',(1.,-3.67840846885264E-45,3.33066907387545E-16));
#779=DIRECTION('center_axis',(3.49676543189026E-16,0.,-1.));
#780=DIRECTION('ref_axis',(1.,-3.67840846885265E-45,3.49676543189026E-16));
#781=DIRECTION('center_axis',(-3.33066907387545E-16,-2.61926472426127E-32,
1.));
#782=DIRECTION('ref_axis',(1.,-3.67840846885265E-45,3.33066907387545E-16));
#783=DIRECTION('',(-3.49676543189026E-16,0.,1.));
#784=DIRECTION('center_axis',(-3.33066907387545E-16,-2.61926472426127E-32,
1.));
#785=DIRECTION('ref_axis',(1.,-3.67840846885265E-45,3.33066907387545E-16));
#786=DIRECTION('center_axis',(3.49676543189026E-16,0.,-1.));
#787=DIRECTION('ref_axis',(1.,-3.67840846885264E-45,3.49676543189026E-16));
#788=DIRECTION('center_axis',(-3.33066907387545E-16,-2.61926472426127E-32,
1.));
#789=DIRECTION('ref_axis',(1.,-3.67840846885264E-45,3.33066907387545E-16));
#790=DIRECTION('',(-3.49676543189026E-16,0.,1.));
#791=DIRECTION('center_axis',(-3.33066907387545E-16,-2.61926472426127E-32,
1.));
#792=DIRECTION('ref_axis',(1.,-3.67840846885264E-45,3.33066907387545E-16));
#793=DIRECTION('center_axis',(3.49676543189026E-16,0.,-1.));
#794=DIRECTION('ref_axis',(1.,-3.67840846885265E-45,3.49676543189026E-16));
#795=DIRECTION('center_axis',(-3.33066907387545E-16,-2.61926472426127E-32,
1.));
#796=DIRECTION('ref_axis',(1.,-3.67840846885265E-45,3.33066907387545E-16));
#797=DIRECTION('',(-3.49676543189026E-16,0.,1.));
#798=DIRECTION('center_axis',(-3.33066907387545E-16,-2.61926472426127E-32,
1.));
#799=DIRECTION('ref_axis',(1.,-3.67840846885265E-45,3.33066907387545E-16));
#800=DIRECTION('center_axis',(3.49676543189026E-16,0.,-1.));
#801=DIRECTION('ref_axis',(1.,-3.67840846885264E-45,3.49676543189026E-16));
#802=DIRECTION('center_axis',(-3.33066907387545E-16,-2.61926472426127E-32,
1.));
#803=DIRECTION('ref_axis',(1.,-3.67840846885264E-45,3.33066907387545E-16));
#804=DIRECTION('',(-3.49676543189026E-16,0.,1.));
#805=DIRECTION('center_axis',(-3.33066907387545E-16,-2.61926472426127E-32,
1.));
#806=DIRECTION('ref_axis',(1.,-3.67840846885264E-45,3.33066907387545E-16));
#807=DIRECTION('center_axis',(3.49676543189026E-16,0.,-1.));
#808=DIRECTION('ref_axis',(1.,-3.67840846885264E-45,3.49676543189026E-16));
#809=DIRECTION('center_axis',(-3.33066907387545E-16,-2.61926472426127E-32,
1.));
#810=DIRECTION('ref_axis',(1.,-3.67840846885264E-45,3.33066907387545E-16));
#811=DIRECTION('',(-3.49676543189026E-16,0.,1.));
#812=DIRECTION('center_axis',(-3.33066907387545E-16,-2.61926472426127E-32,
1.));
#813=DIRECTION('ref_axis',(1.,-3.67840846885264E-45,3.33066907387545E-16));
#814=DIRECTION('center_axis',(3.49676543189026E-16,0.,-1.));
#815=DIRECTION('ref_axis',(1.,-3.67840846885264E-45,3.49676543189026E-16));
#816=DIRECTION('center_axis',(-3.33066907387545E-16,-2.61926472426127E-32,
1.));
#817=DIRECTION('ref_axis',(1.,-3.67840846885264E-45,3.33066907387545E-16));
#818=DIRECTION('',(-3.49676543189026E-16,0.,1.));
#819=DIRECTION('center_axis',(-3.33066907387545E-16,-2.61926472426127E-32,
1.));
#820=DIRECTION('ref_axis',(1.,-3.67840846885264E-45,3.33066907387545E-16));
#821=DIRECTION('center_axis',(3.49676543189026E-16,0.,-1.));
#822=DIRECTION('ref_axis',(1.,-3.67840846885264E-45,3.49676543189026E-16));
#823=DIRECTION('center_axis',(-3.33066907387545E-16,-2.61926472426127E-32,
1.));
#824=DIRECTION('ref_axis',(1.,-3.67840846885264E-45,3.33066907387545E-16));
#825=DIRECTION('',(-3.49676543189026E-16,0.,1.));
#826=DIRECTION('center_axis',(-3.33066907387545E-16,-2.61926472426127E-32,
1.));
#827=DIRECTION('ref_axis',(1.,-3.67840846885264E-45,3.33066907387545E-16));
#828=DIRECTION('center_axis',(3.67840846885264E-45,1.,1.28625315782563E-60));
#829=DIRECTION('ref_axis',(1.,-3.67840846885264E-45,3.33066907387545E-16));
#830=DIRECTION('',(1.,-3.67840846885264E-45,3.33066907387545E-16));
#831=DIRECTION('',(1.,-3.67840846885264E-45,3.33066907387545E-16));
#832=DIRECTION('',(3.49676543189026E-16,0.,-1.));
#833=DIRECTION('center_axis',(-1.,-4.93432455388959E-17,-3.49676543189026E-16));
#834=DIRECTION('ref_axis',(-4.93432455388959E-17,1.,9.75804505050833E-33));
#835=DIRECTION('',(-4.93432455388959E-17,1.,9.75804505050833E-33));
#836=DIRECTION('',(-4.93432455388959E-17,1.,9.75804505050833E-33));
#837=DIRECTION('',(3.49676543189026E-16,0.,-1.));
#838=DIRECTION('center_axis',(-2.7974123455122E-15,-1.,-9.78189478853011E-31));
#839=DIRECTION('ref_axis',(-1.,2.7974123455122E-15,-3.33066907387545E-16));
#840=DIRECTION('',(1.,0.,3.49676543189026E-16));
#841=DIRECTION('',(1.,0.,3.49676543189026E-16));
#842=DIRECTION('center_axis',(3.33066907387545E-16,2.61926472426127E-32,
-1.));
#843=DIRECTION('ref_axis',(1.,-3.67840846885264E-45,3.33066907387545E-16));
#844=DIRECTION('center_axis',(3.33066907387545E-16,2.61926472426127E-32,
-1.));
#845=DIRECTION('ref_axis',(1.,-3.67840846885264E-45,3.33066907387545E-16));
#846=CARTESIAN_POINT('',(0.,0.,0.));
#847=CARTESIAN_POINT('Origin',(49.9998,114.15,6.35000000000002));
#848=CARTESIAN_POINT('',(49.9998,114.15,6.35000000000002));
#849=CARTESIAN_POINT('',(49.9998,-65.8500000000001,6.35000000000002));
#850=CARTESIAN_POINT('',(49.9998,-65.8500000000001,6.35000000000002));
#851=CARTESIAN_POINT('',(49.9998000000001,-65.8500000000001,2.33146835171283E-14));
#852=CARTESIAN_POINT('',(49.9998,-65.8500000000001,6.35000000000002));
#853=CARTESIAN_POINT('',(49.9998,114.15,2.33146835171283E-14));
#854=CARTESIAN_POINT('',(49.9998,-65.8500000000001,2.33146835171283E-14));
#855=CARTESIAN_POINT('',(49.9998,114.15,6.35000000000002));
#856=CARTESIAN_POINT('Origin',(-12.1520933037946,-52.4002975033069,6.35));
#857=CARTESIAN_POINT('',(-14.3020933037946,-52.4002975033069,2.22044604925031E-15));
#858=CARTESIAN_POINT('Origin',(-12.1520933037946,-52.4002975033069,2.22044604925031E-15));
#859=CARTESIAN_POINT('',(-14.3020933037946,-52.4002975033069,6.35));
#860=CARTESIAN_POINT('',(-14.3020933037946,-52.4002975033069,6.35));
#861=CARTESIAN_POINT('Origin',(-12.1520933037946,-52.4002975033069,6.35));
#862=CARTESIAN_POINT('Origin',(39.3249999999999,-14.9999999999998,6.35000000000002));
#863=CARTESIAN_POINT('',(37.1749999999999,-14.9999999999998,1.88737914186277E-14));
#864=CARTESIAN_POINT('Origin',(39.3249999999999,-14.9999999999998,1.99840144432528E-14));
#865=CARTESIAN_POINT('',(37.1749999999999,-14.9999999999998,6.35000000000002));
#866=CARTESIAN_POINT('',(37.1749999999999,-14.9999999999998,6.35000000000002));
#867=CARTESIAN_POINT('Origin',(39.3249999999999,-14.9999999999998,6.35000000000002));
#868=CARTESIAN_POINT('Origin',(-39.325,-15.0000000000002,6.34999999999999));
#869=CARTESIAN_POINT('',(-41.475,-15.0000000000002,-6.66133814775094E-15));
#870=CARTESIAN_POINT('Origin',(-39.325,-15.0000000000002,-6.66133814775094E-15));
#871=CARTESIAN_POINT('',(-41.475,-15.0000000000002,6.34999999999999));
#872=CARTESIAN_POINT('',(-41.475,-15.0000000000002,6.34999999999999));
#873=CARTESIAN_POINT('Origin',(-39.325,-15.0000000000002,6.34999999999999));
#874=CARTESIAN_POINT('Origin',(28.,101.325,6.35000000000002));
#875=CARTESIAN_POINT('',(25.35,101.325,1.55431223447522E-14));
#876=CARTESIAN_POINT('Origin',(28.,101.325,1.55431223447522E-14));
#877=CARTESIAN_POINT('',(25.35,101.325,6.35000000000002));
#878=CARTESIAN_POINT('',(25.35,101.325,6.35000000000001));
#879=CARTESIAN_POINT('Origin',(28.,101.325,6.35000000000002));
#880=CARTESIAN_POINT('Origin',(-26.7812396923984,-24.7475740847816,6.35));
#881=CARTESIAN_POINT('',(-28.4312396923984,-24.7475740847816,-3.33066907387547E-15));
#882=CARTESIAN_POINT('Origin',(-26.7812396923984,-24.7475740847816,-2.22044604925031E-15));
#883=CARTESIAN_POINT('',(-28.4312396923984,-24.7475740847816,6.35));
#884=CARTESIAN_POINT('',(-28.4312396923984,-24.7475740847816,6.35));
#885=CARTESIAN_POINT('Origin',(-26.7812396923984,-24.7475740847816,6.35));
#886=CARTESIAN_POINT('Origin',(12.1520933037949,-52.4002975033068,6.35000000000001));
#887=CARTESIAN_POINT('',(10.0020933037949,-52.4002975033068,9.99200722162641E-15));
#888=CARTESIAN_POINT('Origin',(12.1520933037949,-52.4002975033068,1.11022302462516E-14));
#889=CARTESIAN_POINT('',(10.0020933037949,-52.4002975033068,6.35000000000001));
#890=CARTESIAN_POINT('',(10.0020933037949,-52.4002975033068,6.35000000000001));
#891=CARTESIAN_POINT('Origin',(12.1520933037949,-52.4002975033068,6.35000000000001));
#892=CARTESIAN_POINT('Origin',(-31.8145933037949,8.1146550464013,6.35));
#893=CARTESIAN_POINT('',(-33.9645933037949,8.1146550464013,-4.44089209850063E-15));
#894=CARTESIAN_POINT('Origin',(-31.8145933037949,8.1146550464013,-4.44089209850063E-15));
#895=CARTESIAN_POINT('',(-33.9645933037949,8.1146550464013,6.35));
#896=CARTESIAN_POINT('',(-33.9645933037949,8.1146550464013,6.34999999999999));
#897=CARTESIAN_POINT('Origin',(-31.8145933037949,8.1146550464013,6.35));
#898=CARTESIAN_POINT('Origin',(-31.8145933037947,-38.1146550464016,6.35));
#899=CARTESIAN_POINT('',(-33.9645933037947,-38.1146550464016,-4.44089209850063E-15));
#900=CARTESIAN_POINT('Origin',(-31.8145933037947,-38.1146550464016,-4.44089209850063E-15));
#901=CARTESIAN_POINT('',(-33.9645933037947,-38.1146550464016,6.35));
#902=CARTESIAN_POINT('',(-33.9645933037947,-38.1146550464016,6.34999999999999));
#903=CARTESIAN_POINT('Origin',(-31.8145933037947,-38.1146550464016,6.35));
#904=CARTESIAN_POINT('Origin',(-4.94897306350755,-43.0670209608479,6.35000000000001));
#905=CARTESIAN_POINT('',(-6.59897306350754,-43.0670209608479,4.44089209850063E-15));
#906=CARTESIAN_POINT('Origin',(-4.94897306350754,-43.0670209608479,5.55111512312578E-15));
#907=CARTESIAN_POINT('',(-6.59897306350754,-43.0670209608479,6.35));
#908=CARTESIAN_POINT('',(-6.59897306350754,-43.0670209608479,6.35));
#909=CARTESIAN_POINT('Origin',(-4.94897306350755,-43.0670209608479,6.35000000000001));
#910=CARTESIAN_POINT('Origin',(21.8322666288909,-33.3194468760664,6.35000000000001));
#911=CARTESIAN_POINT('',(20.1822666288909,-33.3194468760664,1.33226762955019E-14));
#912=CARTESIAN_POINT('Origin',(21.8322666288909,-33.3194468760664,1.4432899320127E-14));
#913=CARTESIAN_POINT('',(20.1822666288909,-33.3194468760664,6.35000000000001));
#914=CARTESIAN_POINT('',(20.1822666288909,-33.3194468760664,6.35000000000001));
#915=CARTESIAN_POINT('Origin',(21.8322666288909,-33.3194468760664,6.35000000000001));
#916=CARTESIAN_POINT('Origin',(-21.8322666288909,3.31944687606637,6.35));
#917=CARTESIAN_POINT('',(-23.4822666288909,3.31944687606637,-1.11022302462516E-15));
#918=CARTESIAN_POINT('Origin',(-21.8322666288909,3.31944687606637,-1.11022302462516E-15));
#919=CARTESIAN_POINT('',(-23.4822666288909,3.31944687606637,6.35));
#920=CARTESIAN_POINT('',(-23.4822666288909,3.31944687606637,6.35));
#921=CARTESIAN_POINT('Origin',(-21.8322666288909,3.31944687606637,6.35));
#922=CARTESIAN_POINT('Origin',(-2.78777001483378E-14,-15.,6.35000000000001));
#923=CARTESIAN_POINT('',(-24.0000000000001,-15.,-1.73089888878568E-15));
#924=CARTESIAN_POINT('Origin',(-2.56572540990875E-14,-15.,6.66133814775094E-15));
#925=CARTESIAN_POINT('',(-24.0000000000001,-15.,6.35));
#926=CARTESIAN_POINT('',(-24.0000000000001,-15.,6.35));
#927=CARTESIAN_POINT('Origin',(-2.78777001483378E-14,-15.,6.35000000000001));
#928=CARTESIAN_POINT('Origin',(12.1520933037946,22.4002975033069,6.35000000000001));
#929=CARTESIAN_POINT('',(10.0020933037946,22.4002975033069,9.99200722162641E-15));
#930=CARTESIAN_POINT('Origin',(12.1520933037946,22.4002975033069,1.11022302462516E-14));
#931=CARTESIAN_POINT('',(10.0020933037946,22.4002975033069,6.35000000000001));
#932=CARTESIAN_POINT('',(10.0020933037946,22.4002975033069,6.35000000000001));
#933=CARTESIAN_POINT('Origin',(12.1520933037946,22.4002975033069,6.35000000000001));
#934=CARTESIAN_POINT('Origin',(31.8145933037946,8.11465504640161,6.35000000000002));
#935=CARTESIAN_POINT('',(29.6645933037946,8.11465504640161,1.66533453693773E-14));
#936=CARTESIAN_POINT('Origin',(31.8145933037946,8.11465504640161,1.77635683940025E-14));
#937=CARTESIAN_POINT('',(29.6645933037946,8.11465504640161,6.35000000000002));
#938=CARTESIAN_POINT('',(29.6645933037946,8.11465504640161,6.35000000000002));
#939=CARTESIAN_POINT('Origin',(31.8145933037946,8.11465504640161,6.35000000000002));
#940=CARTESIAN_POINT('Origin',(-28.,101.325,6.35));
#941=CARTESIAN_POINT('',(-30.65,101.325,-3.33066907387547E-15));
#942=CARTESIAN_POINT('Origin',(-28.,101.325,-2.22044604925031E-15));
#943=CARTESIAN_POINT('',(-30.65,101.325,6.35));
#944=CARTESIAN_POINT('',(-30.65,101.325,6.35));
#945=CARTESIAN_POINT('Origin',(-28.,101.325,6.35));
#946=CARTESIAN_POINT('Origin',(31.8145933037949,-38.1146550464013,6.35000000000002));
#947=CARTESIAN_POINT('',(29.6645933037949,-38.1146550464013,1.66533453693773E-14));
#948=CARTESIAN_POINT('Origin',(31.8145933037949,-38.1146550464013,1.77635683940025E-14));
#949=CARTESIAN_POINT('',(29.6645933037949,-38.1146550464013,6.35000000000002));
#950=CARTESIAN_POINT('',(29.6645933037949,-38.1146550464013,6.35000000000002));
#951=CARTESIAN_POINT('Origin',(31.8145933037949,-38.1146550464013,6.35000000000002));
#952=CARTESIAN_POINT('Origin',(-28.,41.4750000000004,6.35));
#953=CARTESIAN_POINT('',(-30.65,41.4750000000004,-3.33066907387547E-15));
#954=CARTESIAN_POINT('Origin',(-28.,41.4750000000004,-2.22044604925031E-15));
#955=CARTESIAN_POINT('',(-30.65,41.4750000000004,6.35));
#956=CARTESIAN_POINT('',(-30.65,41.4750000000004,6.35));
#957=CARTESIAN_POINT('Origin',(-28.,41.4750000000004,6.35));
#958=CARTESIAN_POINT('Origin',(4.94897306350749,13.067020960848,6.35000000000001));
#959=CARTESIAN_POINT('',(3.2989730635075,13.067020960848,7.7715611723761E-15));
#960=CARTESIAN_POINT('Origin',(4.94897306350749,13.067020960848,7.7715611723761E-15));
#961=CARTESIAN_POINT('',(3.29897306350749,13.067020960848,6.35000000000001));
#962=CARTESIAN_POINT('',(3.29897306350749,13.067020960848,6.35000000000001));
#963=CARTESIAN_POINT('Origin',(4.94897306350749,13.067020960848,6.35000000000001));
#964=CARTESIAN_POINT('Origin',(28.,41.4750000000004,6.35000000000002));
#965=CARTESIAN_POINT('',(25.35,41.4750000000004,1.55431223447522E-14));
#966=CARTESIAN_POINT('Origin',(28.,41.4750000000004,1.55431223447522E-14));
#967=CARTESIAN_POINT('',(25.35,41.4750000000004,6.35000000000002));
#968=CARTESIAN_POINT('',(25.35,41.4750000000004,6.35000000000001));
#969=CARTESIAN_POINT('Origin',(28.,41.4750000000004,6.35000000000002));
#970=CARTESIAN_POINT('Origin',(26.7812396923984,-5.25242591521842,6.35000000000002));
#971=CARTESIAN_POINT('',(25.1312396923984,-5.25242591521843,1.55431223447522E-14));
#972=CARTESIAN_POINT('Origin',(26.7812396923984,-5.25242591521842,1.55431223447522E-14));
#973=CARTESIAN_POINT('',(25.1312396923984,-5.25242591521842,6.35000000000002));
#974=CARTESIAN_POINT('',(25.1312396923984,-5.25242591521842,6.35000000000001));
#975=CARTESIAN_POINT('Origin',(26.7812396923984,-5.25242591521842,6.35000000000002));
#976=CARTESIAN_POINT('Origin',(-12.152093303795,22.4002975033068,6.35));
#977=CARTESIAN_POINT('',(-14.302093303795,22.4002975033068,2.22044604925031E-15));
#978=CARTESIAN_POINT('Origin',(-12.152093303795,22.4002975033068,2.22044604925031E-15));
#979=CARTESIAN_POINT('',(-14.302093303795,22.4002975033068,6.35));
#980=CARTESIAN_POINT('',(-14.302093303795,22.4002975033068,6.35));
#981=CARTESIAN_POINT('Origin',(-12.152093303795,22.4002975033068,6.35));
#982=CARTESIAN_POINT('Origin',(-49.9999999999999,114.15,6.34999999999999));
#983=CARTESIAN_POINT('',(-49.9999999999999,114.15,6.34999999999999));
#984=CARTESIAN_POINT('',(-49.9999999999999,114.15,6.34999999999999));
#985=CARTESIAN_POINT('',(-49.9999999999999,114.15,-9.99200722162641E-15));
#986=CARTESIAN_POINT('',(-49.9999999999999,114.15,-9.99200722162641E-15));
#987=CARTESIAN_POINT('',(-49.9999999999999,114.15,6.34999999999999));
#988=CARTESIAN_POINT('Origin',(-49.9999999999999,-65.8500000000001,6.34999999999999));
#989=CARTESIAN_POINT('',(-49.9999999999999,-65.8500000000001,6.34999999999999));
#990=CARTESIAN_POINT('',(-49.9999999999999,-65.8500000000001,6.34999999999999));
#991=CARTESIAN_POINT('',(-49.9999999999999,-65.8500000000001,-9.99200722162641E-15));
#992=CARTESIAN_POINT('',(-49.9999999999999,-65.8500000000001,-9.99200722162641E-15));
#993=CARTESIAN_POINT('',(-49.9999999999999,-65.8500000000001,6.34999999999999));
#994=CARTESIAN_POINT('Origin',(43.6498000000001,-65.8500000000003,6.35000000000002));
#995=CARTESIAN_POINT('',(43.6498,-65.8500000000001,6.35000000000002));
#996=CARTESIAN_POINT('',(43.6498000000001,-65.8500000000001,2.1094237467878E-14));
#997=CARTESIAN_POINT('Origin',(-3.17509999999992,24.15,5.55111512312578E-15));
#998=CARTESIAN_POINT('Origin',(-3.17509999999993,24.15,6.35000000000001));
#999=UNCERTAINTY_MEASURE_WITH_UNIT(LENGTH_MEASURE(0.01),#1003,
'DISTANCE_ACCURACY_VALUE',
'Maximum model space distance between geometric entities at asserted c
onnectivities');
#1000=UNCERTAINTY_MEASURE_WITH_UNIT(LENGTH_MEASURE(0.01),#1003,
'DISTANCE_ACCURACY_VALUE',
'Maximum model space distance between geometric entities at asserted c
onnectivities');
#1001=(
GEOMETRIC_REPRESENTATION_CONTEXT(3)
GLOBAL_UNCERTAINTY_ASSIGNED_CONTEXT((#999))
GLOBAL_UNIT_ASSIGNED_CONTEXT((#1003,#1005,#1006))
REPRESENTATION_CONTEXT('','3D')
);
#1002=(
GEOMETRIC_REPRESENTATION_CONTEXT(3)
GLOBAL_UNCERTAINTY_ASSIGNED_CONTEXT((#1000))
GLOBAL_UNIT_ASSIGNED_CONTEXT((#1003,#1005,#1006))
REPRESENTATION_CONTEXT('','3D')
);
#1003=(
LENGTH_UNIT()
NAMED_UNIT(*)
SI_UNIT(.MILLI.,.METRE.)
);
#1004=(
LENGTH_UNIT()
NAMED_UNIT(*)
SI_UNIT($,.METRE.)
);
#1005=(
NAMED_UNIT(*)
PLANE_ANGLE_UNIT()
SI_UNIT($,.RADIAN.)
);
#1006=(
NAMED_UNIT(*)
SI_UNIT($,.STERADIAN.)
SOLID_ANGLE_UNIT()
);
#1007=SHAPE_DEFINITION_REPRESENTATION(#1008,#1009);
#1008=PRODUCT_DEFINITION_SHAPE('',$,#1011);
#1009=SHAPE_REPRESENTATION('',(#603),#1001);
#1010=PRODUCT_DEFINITION_CONTEXT('part definition',#1015,'design');
#1011=PRODUCT_DEFINITION('Bottom Main Plate','Bottom Main Plate',#1012,
#1010);
#1012=PRODUCT_DEFINITION_FORMATION('',$,#1017);
#1013=PRODUCT_RELATED_PRODUCT_CATEGORY('Bottom Main Plate',
'Bottom Main Plate',(#1017));
#1014=APPLICATION_PROTOCOL_DEFINITION('international standard',
'automotive_design',2009,#1015);
#1015=APPLICATION_CONTEXT(
'Core Data for Automotive Mechanical Design Process');
#1016=PRODUCT_CONTEXT('part definition',#1015,'mechanical');
#1017=PRODUCT('Bottom Main Plate','Bottom Main Plate',$,(#1016));
#1018=PRESENTATION_STYLE_ASSIGNMENT((#1019));
#1019=SURFACE_STYLE_USAGE(.BOTH.,#1020);
#1020=SURFACE_SIDE_STYLE('',(#1021));
#1021=SURFACE_STYLE_FILL_AREA(#1022);
#1022=FILL_AREA_STYLE('Aluminum - Satin',(#1023));
#1023=FILL_AREA_STYLE_COLOUR('Aluminum - Satin',#1024);
#1024=COLOUR_RGB('Aluminum - Satin',0.96078431372549,0.96078431372549,0.964705882352941);
ENDSEC;
END-ISO-10303-21;
