ISO-10303-21;
HEADER;
/* Generated by software containing ST-Developer
 * from STEP Tools, Inc. (www.steptools.com) 
 */

FILE_DESCRIPTION(
/* description */ (''),
/* implementation_level */ '2;1');

FILE_NAME(
/* name */ 'Camera Mount Side Plate.step',
/* time_stamp */ '2026-08-23T19:13:09-06:00',
/* author */ (''),
/* organization */ (''),
/* preprocessor_version */ 'ST-DEVELOPER v20.1',
/* originating_system */ 'Autodesk Translation Framework v15.8.0.0',
/* authorisation */ '');

FILE_SCHEMA (('AUTOMOTIVE_DESIGN { 1 0 10303 214 3 1 1 }'));
ENDSEC;

DATA;
#10=MECHANICAL_DESIGN_GEOMETRIC_PRESENTATION_REPRESENTATION('',(#13),#789);
#11=SHAPE_REPRESENTATION_RELATIONSHIP('SRR','None',#796,#12);
#12=ADVANCED_BREP_SHAPE_REPRESENTATION('',(#14),#788);
#13=STYLED_ITEM('',(#805),#14);
#14=MANIFOLD_SOLID_BREP('Body1',#469);
#15=FACE_BOUND('',#93,.T.);
#16=FACE_BOUND('',#94,.T.);
#17=FACE_BOUND('',#95,.T.);
#18=FACE_BOUND('',#96,.T.);
#19=FACE_BOUND('',#97,.T.);
#20=FACE_BOUND('',#98,.T.);
#21=FACE_BOUND('',#99,.T.);
#22=FACE_BOUND('',#100,.T.);
#23=FACE_BOUND('',#101,.T.);
#24=FACE_BOUND('',#102,.T.);
#25=FACE_BOUND('',#103,.T.);
#26=FACE_BOUND('',#104,.T.);
#27=FACE_BOUND('',#105,.T.);
#28=FACE_BOUND('',#107,.T.);
#29=FACE_BOUND('',#108,.T.);
#30=FACE_BOUND('',#109,.T.);
#31=FACE_BOUND('',#110,.T.);
#32=FACE_BOUND('',#111,.T.);
#33=FACE_BOUND('',#112,.T.);
#34=FACE_BOUND('',#113,.T.);
#35=FACE_BOUND('',#114,.T.);
#36=FACE_BOUND('',#115,.T.);
#37=FACE_BOUND('',#116,.T.);
#38=FACE_BOUND('',#117,.T.);
#39=FACE_BOUND('',#118,.T.);
#40=FACE_BOUND('',#119,.T.);
#41=PLANE('',#495);
#42=PLANE('',#514);
#43=PLANE('',#515);
#44=PLANE('',#516);
#45=PLANE('',#517);
#46=PLANE('',#524);
#47=PLANE('',#528);
#48=PLANE('',#529);
#49=PLANE('',#530);
#50=FACE_OUTER_BOUND('',#72,.T.);
#51=FACE_OUTER_BOUND('',#73,.T.);
#52=FACE_OUTER_BOUND('',#74,.T.);
#53=FACE_OUTER_BOUND('',#75,.T.);
#54=FACE_OUTER_BOUND('',#76,.T.);
#55=FACE_OUTER_BOUND('',#77,.T.);
#56=FACE_OUTER_BOUND('',#78,.T.);
#57=FACE_OUTER_BOUND('',#79,.T.);
#58=FACE_OUTER_BOUND('',#80,.T.);
#59=FACE_OUTER_BOUND('',#81,.T.);
#60=FACE_OUTER_BOUND('',#82,.T.);
#61=FACE_OUTER_BOUND('',#83,.T.);
#62=FACE_OUTER_BOUND('',#84,.T.);
#63=FACE_OUTER_BOUND('',#85,.T.);
#64=FACE_OUTER_BOUND('',#86,.T.);
#65=FACE_OUTER_BOUND('',#87,.T.);
#66=FACE_OUTER_BOUND('',#88,.T.);
#67=FACE_OUTER_BOUND('',#89,.T.);
#68=FACE_OUTER_BOUND('',#90,.T.);
#69=FACE_OUTER_BOUND('',#91,.T.);
#70=FACE_OUTER_BOUND('',#92,.T.);
#71=FACE_OUTER_BOUND('',#106,.T.);
#72=EDGE_LOOP('',(#314,#315,#316,#317));
#73=EDGE_LOOP('',(#318,#319,#320,#321));
#74=EDGE_LOOP('',(#322,#323,#324,#325));
#75=EDGE_LOOP('',(#326,#327,#328,#329));
#76=EDGE_LOOP('',(#330,#331,#332,#333));
#77=EDGE_LOOP('',(#334,#335,#336,#337));
#78=EDGE_LOOP('',(#338,#339,#340,#341));
#79=EDGE_LOOP('',(#342,#343,#344,#345));
#80=EDGE_LOOP('',(#346,#347,#348,#349));
#81=EDGE_LOOP('',(#350,#351,#352,#353));
#82=EDGE_LOOP('',(#354,#355,#356,#357));
#83=EDGE_LOOP('',(#358,#359,#360,#361));
#84=EDGE_LOOP('',(#362,#363,#364,#365));
#85=EDGE_LOOP('',(#366,#367,#368,#369));
#86=EDGE_LOOP('',(#370,#371,#372,#373));
#87=EDGE_LOOP('',(#374,#375,#376,#377));
#88=EDGE_LOOP('',(#378,#379,#380,#381));
#89=EDGE_LOOP('',(#382,#383,#384,#385));
#90=EDGE_LOOP('',(#386,#387,#388,#389));
#91=EDGE_LOOP('',(#390,#391,#392,#393));
#92=EDGE_LOOP('',(#394,#395,#396,#397));
#93=EDGE_LOOP('',(#398));
#94=EDGE_LOOP('',(#399));
#95=EDGE_LOOP('',(#400));
#96=EDGE_LOOP('',(#401));
#97=EDGE_LOOP('',(#402));
#98=EDGE_LOOP('',(#403));
#99=EDGE_LOOP('',(#404,#405,#406,#407));
#100=EDGE_LOOP('',(#408));
#101=EDGE_LOOP('',(#409));
#102=EDGE_LOOP('',(#410));
#103=EDGE_LOOP('',(#411));
#104=EDGE_LOOP('',(#412));
#105=EDGE_LOOP('',(#413));
#106=EDGE_LOOP('',(#414,#415,#416,#417));
#107=EDGE_LOOP('',(#418));
#108=EDGE_LOOP('',(#419));
#109=EDGE_LOOP('',(#420));
#110=EDGE_LOOP('',(#421));
#111=EDGE_LOOP('',(#422));
#112=EDGE_LOOP('',(#423));
#113=EDGE_LOOP('',(#424,#425,#426,#427));
#114=EDGE_LOOP('',(#428));
#115=EDGE_LOOP('',(#429));
#116=EDGE_LOOP('',(#430));
#117=EDGE_LOOP('',(#431));
#118=EDGE_LOOP('',(#432));
#119=EDGE_LOOP('',(#433));
#120=LINE('',#668,#154);
#121=LINE('',#674,#155);
#122=LINE('',#680,#156);
#123=LINE('',#686,#157);
#124=LINE('',#691,#158);
#125=LINE('',#693,#159);
#126=LINE('',#695,#160);
#127=LINE('',#696,#161);
#128=LINE('',#701,#162);
#129=LINE('',#707,#163);
#130=LINE('',#713,#164);
#131=LINE('',#719,#165);
#132=LINE('',#725,#166);
#133=LINE('',#731,#167);
#134=LINE('',#736,#168);
#135=LINE('',#738,#169);
#136=LINE('',#740,#170);
#137=LINE('',#741,#171);
#138=LINE('',#744,#172);
#139=LINE('',#746,#173);
#140=LINE('',#747,#174);
#141=LINE('',#750,#175);
#142=LINE('',#752,#176);
#143=LINE('',#753,#177);
#144=LINE('',#755,#178);
#145=LINE('',#756,#179);
#146=LINE('',#761,#180);
#147=LINE('',#767,#181);
#148=LINE('',#771,#182);
#149=LINE('',#773,#183);
#150=LINE('',#774,#184);
#151=LINE('',#780,#185);
#152=LINE('',#782,#186);
#153=LINE('',#783,#187);
#154=VECTOR('',#537,2.65000000000001);
#155=VECTOR('',#544,2.64999999999999);
#156=VECTOR('',#551,2.65);
#157=VECTOR('',#558,2.65);
#158=VECTOR('',#563,10.);
#159=VECTOR('',#564,10.);
#160=VECTOR('',#565,10.);
#161=VECTOR('',#566,10.);
#162=VECTOR('',#571,2.65);
#163=VECTOR('',#578,2.65);
#164=VECTOR('',#585,2.65);
#165=VECTOR('',#592,2.65);
#166=VECTOR('',#599,2.65);
#167=VECTOR('',#606,2.65);
#168=VECTOR('',#611,10.);
#169=VECTOR('',#612,10.);
#170=VECTOR('',#613,10.);
#171=VECTOR('',#614,10.);
#172=VECTOR('',#617,10.);
#173=VECTOR('',#618,10.);
#174=VECTOR('',#619,10.);
#175=VECTOR('',#622,10.);
#176=VECTOR('',#623,10.);
#177=VECTOR('',#624,10.);
#178=VECTOR('',#627,10.);
#179=VECTOR('',#628,10.);
#180=VECTOR('',#633,2.65);
#181=VECTOR('',#640,2.65);
#182=VECTOR('',#645,10.);
#183=VECTOR('',#646,10.);
#184=VECTOR('',#647,10.);
#185=VECTOR('',#654,10.);
#186=VECTOR('',#657,10.);
#187=VECTOR('',#658,10.);
#188=CIRCLE('',#484,2.65000000000001);
#189=CIRCLE('',#485,2.65000000000001);
#190=CIRCLE('',#487,2.64999999999999);
#191=CIRCLE('',#488,2.64999999999999);
#192=CIRCLE('',#490,2.65);
#193=CIRCLE('',#491,2.65);
#194=CIRCLE('',#493,2.65);
#195=CIRCLE('',#494,2.65);
#196=CIRCLE('',#497,2.65);
#197=CIRCLE('',#498,2.65);
#198=CIRCLE('',#500,2.65);
#199=CIRCLE('',#501,2.65);
#200=CIRCLE('',#503,2.65);
#201=CIRCLE('',#504,2.65);
#202=CIRCLE('',#506,2.65);
#203=CIRCLE('',#507,2.65);
#204=CIRCLE('',#509,2.65);
#205=CIRCLE('',#510,2.65);
#206=CIRCLE('',#512,2.65);
#207=CIRCLE('',#513,2.65);
#208=CIRCLE('',#519,2.65);
#209=CIRCLE('',#520,2.65);
#210=CIRCLE('',#522,2.65);
#211=CIRCLE('',#523,2.65);
#212=CIRCLE('',#526,51.4755817894065);
#213=CIRCLE('',#527,51.4755817894065);
#214=VERTEX_POINT('',#665);
#215=VERTEX_POINT('',#667);
#216=VERTEX_POINT('',#671);
#217=VERTEX_POINT('',#673);
#218=VERTEX_POINT('',#677);
#219=VERTEX_POINT('',#679);
#220=VERTEX_POINT('',#683);
#221=VERTEX_POINT('',#685);
#222=VERTEX_POINT('',#689);
#223=VERTEX_POINT('',#690);
#224=VERTEX_POINT('',#692);
#225=VERTEX_POINT('',#694);
#226=VERTEX_POINT('',#698);
#227=VERTEX_POINT('',#700);
#228=VERTEX_POINT('',#704);
#229=VERTEX_POINT('',#706);
#230=VERTEX_POINT('',#710);
#231=VERTEX_POINT('',#712);
#232=VERTEX_POINT('',#716);
#233=VERTEX_POINT('',#718);
#234=VERTEX_POINT('',#722);
#235=VERTEX_POINT('',#724);
#236=VERTEX_POINT('',#728);
#237=VERTEX_POINT('',#730);
#238=VERTEX_POINT('',#734);
#239=VERTEX_POINT('',#735);
#240=VERTEX_POINT('',#737);
#241=VERTEX_POINT('',#739);
#242=VERTEX_POINT('',#743);
#243=VERTEX_POINT('',#745);
#244=VERTEX_POINT('',#749);
#245=VERTEX_POINT('',#751);
#246=VERTEX_POINT('',#758);
#247=VERTEX_POINT('',#760);
#248=VERTEX_POINT('',#764);
#249=VERTEX_POINT('',#766);
#250=VERTEX_POINT('',#770);
#251=VERTEX_POINT('',#772);
#252=VERTEX_POINT('',#776);
#253=VERTEX_POINT('',#778);
#254=EDGE_CURVE('',#214,#214,#188,.T.);
#255=EDGE_CURVE('',#214,#215,#120,.T.);
#256=EDGE_CURVE('',#215,#215,#189,.T.);
#257=EDGE_CURVE('',#216,#216,#190,.T.);
#258=EDGE_CURVE('',#216,#217,#121,.T.);
#259=EDGE_CURVE('',#217,#217,#191,.T.);
#260=EDGE_CURVE('',#218,#218,#192,.T.);
#261=EDGE_CURVE('',#218,#219,#122,.T.);
#262=EDGE_CURVE('',#219,#219,#193,.T.);
#263=EDGE_CURVE('',#220,#220,#194,.T.);
#264=EDGE_CURVE('',#220,#221,#123,.T.);
#265=EDGE_CURVE('',#221,#221,#195,.T.);
#266=EDGE_CURVE('',#222,#223,#124,.T.);
#267=EDGE_CURVE('',#223,#224,#125,.T.);
#268=EDGE_CURVE('',#224,#225,#126,.T.);
#269=EDGE_CURVE('',#225,#222,#127,.T.);
#270=EDGE_CURVE('',#226,#226,#196,.T.);
#271=EDGE_CURVE('',#226,#227,#128,.T.);
#272=EDGE_CURVE('',#227,#227,#197,.T.);
#273=EDGE_CURVE('',#228,#228,#198,.T.);
#274=EDGE_CURVE('',#228,#229,#129,.T.);
#275=EDGE_CURVE('',#229,#229,#199,.T.);
#276=EDGE_CURVE('',#230,#230,#200,.T.);
#277=EDGE_CURVE('',#230,#231,#130,.T.);
#278=EDGE_CURVE('',#231,#231,#201,.T.);
#279=EDGE_CURVE('',#232,#232,#202,.T.);
#280=EDGE_CURVE('',#232,#233,#131,.T.);
#281=EDGE_CURVE('',#233,#233,#203,.T.);
#282=EDGE_CURVE('',#234,#234,#204,.T.);
#283=EDGE_CURVE('',#234,#235,#132,.T.);
#284=EDGE_CURVE('',#235,#235,#205,.T.);
#285=EDGE_CURVE('',#236,#236,#206,.T.);
#286=EDGE_CURVE('',#236,#237,#133,.T.);
#287=EDGE_CURVE('',#237,#237,#207,.T.);
#288=EDGE_CURVE('',#238,#239,#134,.F.);
#289=EDGE_CURVE('',#239,#240,#135,.F.);
#290=EDGE_CURVE('',#241,#240,#136,.F.);
#291=EDGE_CURVE('',#238,#241,#137,.T.);
#292=EDGE_CURVE('',#242,#238,#138,.F.);
#293=EDGE_CURVE('',#243,#241,#139,.F.);
#294=EDGE_CURVE('',#242,#243,#140,.F.);
#295=EDGE_CURVE('',#244,#242,#141,.F.);
#296=EDGE_CURVE('',#245,#243,#142,.F.);
#297=EDGE_CURVE('',#244,#245,#143,.F.);
#298=EDGE_CURVE('',#239,#244,#144,.F.);
#299=EDGE_CURVE('',#240,#245,#145,.F.);
#300=EDGE_CURVE('',#246,#246,#208,.T.);
#301=EDGE_CURVE('',#246,#247,#146,.T.);
#302=EDGE_CURVE('',#247,#247,#209,.T.);
#303=EDGE_CURVE('',#248,#248,#210,.T.);
#304=EDGE_CURVE('',#248,#249,#147,.T.);
#305=EDGE_CURVE('',#249,#249,#211,.T.);
#306=EDGE_CURVE('',#250,#222,#148,.T.);
#307=EDGE_CURVE('',#251,#225,#149,.T.);
#308=EDGE_CURVE('',#250,#251,#150,.T.);
#309=EDGE_CURVE('',#252,#250,#212,.T.);
#310=EDGE_CURVE('',#253,#251,#213,.T.);
#311=EDGE_CURVE('',#252,#253,#151,.T.);
#312=EDGE_CURVE('',#252,#223,#152,.T.);
#313=EDGE_CURVE('',#253,#224,#153,.T.);
#314=ORIENTED_EDGE('',*,*,#254,.F.);
#315=ORIENTED_EDGE('',*,*,#255,.T.);
#316=ORIENTED_EDGE('',*,*,#256,.F.);
#317=ORIENTED_EDGE('',*,*,#255,.F.);
#318=ORIENTED_EDGE('',*,*,#257,.F.);
#319=ORIENTED_EDGE('',*,*,#258,.T.);
#320=ORIENTED_EDGE('',*,*,#259,.F.);
#321=ORIENTED_EDGE('',*,*,#258,.F.);
#322=ORIENTED_EDGE('',*,*,#260,.F.);
#323=ORIENTED_EDGE('',*,*,#261,.T.);
#324=ORIENTED_EDGE('',*,*,#262,.F.);
#325=ORIENTED_EDGE('',*,*,#261,.F.);
#326=ORIENTED_EDGE('',*,*,#263,.F.);
#327=ORIENTED_EDGE('',*,*,#264,.T.);
#328=ORIENTED_EDGE('',*,*,#265,.F.);
#329=ORIENTED_EDGE('',*,*,#264,.F.);
#330=ORIENTED_EDGE('',*,*,#266,.T.);
#331=ORIENTED_EDGE('',*,*,#267,.T.);
#332=ORIENTED_EDGE('',*,*,#268,.T.);
#333=ORIENTED_EDGE('',*,*,#269,.T.);
#334=ORIENTED_EDGE('',*,*,#270,.F.);
#335=ORIENTED_EDGE('',*,*,#271,.T.);
#336=ORIENTED_EDGE('',*,*,#272,.T.);
#337=ORIENTED_EDGE('',*,*,#271,.F.);
#338=ORIENTED_EDGE('',*,*,#273,.F.);
#339=ORIENTED_EDGE('',*,*,#274,.T.);
#340=ORIENTED_EDGE('',*,*,#275,.T.);
#341=ORIENTED_EDGE('',*,*,#274,.F.);
#342=ORIENTED_EDGE('',*,*,#276,.F.);
#343=ORIENTED_EDGE('',*,*,#277,.T.);
#344=ORIENTED_EDGE('',*,*,#278,.T.);
#345=ORIENTED_EDGE('',*,*,#277,.F.);
#346=ORIENTED_EDGE('',*,*,#279,.F.);
#347=ORIENTED_EDGE('',*,*,#280,.T.);
#348=ORIENTED_EDGE('',*,*,#281,.T.);
#349=ORIENTED_EDGE('',*,*,#280,.F.);
#350=ORIENTED_EDGE('',*,*,#282,.F.);
#351=ORIENTED_EDGE('',*,*,#283,.T.);
#352=ORIENTED_EDGE('',*,*,#284,.T.);
#353=ORIENTED_EDGE('',*,*,#283,.F.);
#354=ORIENTED_EDGE('',*,*,#285,.F.);
#355=ORIENTED_EDGE('',*,*,#286,.T.);
#356=ORIENTED_EDGE('',*,*,#287,.T.);
#357=ORIENTED_EDGE('',*,*,#286,.F.);
#358=ORIENTED_EDGE('',*,*,#288,.T.);
#359=ORIENTED_EDGE('',*,*,#289,.T.);
#360=ORIENTED_EDGE('',*,*,#290,.F.);
#361=ORIENTED_EDGE('',*,*,#291,.F.);
#362=ORIENTED_EDGE('',*,*,#292,.T.);
#363=ORIENTED_EDGE('',*,*,#291,.T.);
#364=ORIENTED_EDGE('',*,*,#293,.F.);
#365=ORIENTED_EDGE('',*,*,#294,.F.);
#366=ORIENTED_EDGE('',*,*,#295,.T.);
#367=ORIENTED_EDGE('',*,*,#294,.T.);
#368=ORIENTED_EDGE('',*,*,#296,.F.);
#369=ORIENTED_EDGE('',*,*,#297,.F.);
#370=ORIENTED_EDGE('',*,*,#298,.T.);
#371=ORIENTED_EDGE('',*,*,#297,.T.);
#372=ORIENTED_EDGE('',*,*,#299,.F.);
#373=ORIENTED_EDGE('',*,*,#289,.F.);
#374=ORIENTED_EDGE('',*,*,#300,.F.);
#375=ORIENTED_EDGE('',*,*,#301,.T.);
#376=ORIENTED_EDGE('',*,*,#302,.T.);
#377=ORIENTED_EDGE('',*,*,#301,.F.);
#378=ORIENTED_EDGE('',*,*,#303,.F.);
#379=ORIENTED_EDGE('',*,*,#304,.T.);
#380=ORIENTED_EDGE('',*,*,#305,.T.);
#381=ORIENTED_EDGE('',*,*,#304,.F.);
#382=ORIENTED_EDGE('',*,*,#306,.T.);
#383=ORIENTED_EDGE('',*,*,#269,.F.);
#384=ORIENTED_EDGE('',*,*,#307,.F.);
#385=ORIENTED_EDGE('',*,*,#308,.F.);
#386=ORIENTED_EDGE('',*,*,#309,.T.);
#387=ORIENTED_EDGE('',*,*,#308,.T.);
#388=ORIENTED_EDGE('',*,*,#310,.F.);
#389=ORIENTED_EDGE('',*,*,#311,.F.);
#390=ORIENTED_EDGE('',*,*,#312,.F.);
#391=ORIENTED_EDGE('',*,*,#311,.T.);
#392=ORIENTED_EDGE('',*,*,#313,.T.);
#393=ORIENTED_EDGE('',*,*,#267,.F.);
#394=ORIENTED_EDGE('',*,*,#313,.F.);
#395=ORIENTED_EDGE('',*,*,#310,.T.);
#396=ORIENTED_EDGE('',*,*,#307,.T.);
#397=ORIENTED_EDGE('',*,*,#268,.F.);
#398=ORIENTED_EDGE('',*,*,#270,.T.);
#399=ORIENTED_EDGE('',*,*,#273,.T.);
#400=ORIENTED_EDGE('',*,*,#276,.T.);
#401=ORIENTED_EDGE('',*,*,#279,.T.);
#402=ORIENTED_EDGE('',*,*,#282,.T.);
#403=ORIENTED_EDGE('',*,*,#285,.T.);
#404=ORIENTED_EDGE('',*,*,#299,.T.);
#405=ORIENTED_EDGE('',*,*,#296,.T.);
#406=ORIENTED_EDGE('',*,*,#293,.T.);
#407=ORIENTED_EDGE('',*,*,#290,.T.);
#408=ORIENTED_EDGE('',*,*,#300,.T.);
#409=ORIENTED_EDGE('',*,*,#303,.T.);
#410=ORIENTED_EDGE('',*,*,#265,.T.);
#411=ORIENTED_EDGE('',*,*,#262,.T.);
#412=ORIENTED_EDGE('',*,*,#259,.T.);
#413=ORIENTED_EDGE('',*,*,#256,.T.);
#414=ORIENTED_EDGE('',*,*,#306,.F.);
#415=ORIENTED_EDGE('',*,*,#309,.F.);
#416=ORIENTED_EDGE('',*,*,#312,.T.);
#417=ORIENTED_EDGE('',*,*,#266,.F.);
#418=ORIENTED_EDGE('',*,*,#272,.F.);
#419=ORIENTED_EDGE('',*,*,#275,.F.);
#420=ORIENTED_EDGE('',*,*,#278,.F.);
#421=ORIENTED_EDGE('',*,*,#281,.F.);
#422=ORIENTED_EDGE('',*,*,#284,.F.);
#423=ORIENTED_EDGE('',*,*,#287,.F.);
#424=ORIENTED_EDGE('',*,*,#298,.F.);
#425=ORIENTED_EDGE('',*,*,#288,.F.);
#426=ORIENTED_EDGE('',*,*,#292,.F.);
#427=ORIENTED_EDGE('',*,*,#295,.F.);
#428=ORIENTED_EDGE('',*,*,#302,.F.);
#429=ORIENTED_EDGE('',*,*,#305,.F.);
#430=ORIENTED_EDGE('',*,*,#263,.T.);
#431=ORIENTED_EDGE('',*,*,#260,.T.);
#432=ORIENTED_EDGE('',*,*,#257,.T.);
#433=ORIENTED_EDGE('',*,*,#254,.T.);
#434=CYLINDRICAL_SURFACE('',#483,2.65000000000001);
#435=CYLINDRICAL_SURFACE('',#486,2.64999999999999);
#436=CYLINDRICAL_SURFACE('',#489,2.65);
#437=CYLINDRICAL_SURFACE('',#492,2.65);
#438=CYLINDRICAL_SURFACE('',#496,2.65);
#439=CYLINDRICAL_SURFACE('',#499,2.65);
#440=CYLINDRICAL_SURFACE('',#502,2.65);
#441=CYLINDRICAL_SURFACE('',#505,2.65);
#442=CYLINDRICAL_SURFACE('',#508,2.65);
#443=CYLINDRICAL_SURFACE('',#511,2.65);
#444=CYLINDRICAL_SURFACE('',#518,2.65);
#445=CYLINDRICAL_SURFACE('',#521,2.65);
#446=CYLINDRICAL_SURFACE('',#525,51.4755817894065);
#447=ADVANCED_FACE('',(#50),#434,.F.);
#448=ADVANCED_FACE('',(#51),#435,.F.);
#449=ADVANCED_FACE('',(#52),#436,.F.);
#450=ADVANCED_FACE('',(#53),#437,.F.);
#451=ADVANCED_FACE('',(#54),#41,.T.);
#452=ADVANCED_FACE('',(#55),#438,.F.);
#453=ADVANCED_FACE('',(#56),#439,.F.);
#454=ADVANCED_FACE('',(#57),#440,.F.);
#455=ADVANCED_FACE('',(#58),#441,.F.);
#456=ADVANCED_FACE('',(#59),#442,.F.);
#457=ADVANCED_FACE('',(#60),#443,.F.);
#458=ADVANCED_FACE('',(#61),#42,.T.);
#459=ADVANCED_FACE('',(#62),#43,.T.);
#460=ADVANCED_FACE('',(#63),#44,.T.);
#461=ADVANCED_FACE('',(#64),#45,.T.);
#462=ADVANCED_FACE('',(#65),#444,.F.);
#463=ADVANCED_FACE('',(#66),#445,.F.);
#464=ADVANCED_FACE('',(#67),#46,.T.);
#465=ADVANCED_FACE('',(#68),#446,.T.);
#466=ADVANCED_FACE('',(#69),#47,.T.);
#467=ADVANCED_FACE('',(#70,#15,#16,#17,#18,#19,#20,#21,#22,#23,#24,#25,
#26,#27),#48,.T.);
#468=ADVANCED_FACE('',(#71,#28,#29,#30,#31,#32,#33,#34,#35,#36,#37,#38,
#39,#40),#49,.F.);
#469=CLOSED_SHELL('',(#447,#448,#449,#450,#451,#452,#453,#454,#455,#456,
#457,#458,#459,#460,#461,#462,#463,#464,#465,#466,#467,#468));
#470=DERIVED_UNIT_ELEMENT(#472,1.);
#471=DERIVED_UNIT_ELEMENT(#791,-3.);
#472=(
MASS_UNIT()
NAMED_UNIT(*)
SI_UNIT(.KILO.,.GRAM.)
);
#473=DERIVED_UNIT((#470,#471));
#474=MEASURE_REPRESENTATION_ITEM('density measure',
POSITIVE_RATIO_MEASURE(2680.),#473);
#475=PROPERTY_DEFINITION_REPRESENTATION(#480,#477);
#476=PROPERTY_DEFINITION_REPRESENTATION(#481,#478);
#477=REPRESENTATION('material name',(#479),#788);
#478=REPRESENTATION('density',(#474),#788);
#479=DESCRIPTIVE_REPRESENTATION_ITEM('Aluminum 5052','Aluminum 5052');
#480=PROPERTY_DEFINITION('material property','material name',#798);
#481=PROPERTY_DEFINITION('material property','density of part',#798);
#482=AXIS2_PLACEMENT_3D('',#663,#531,#532);
#483=AXIS2_PLACEMENT_3D('',#664,#533,#534);
#484=AXIS2_PLACEMENT_3D('',#666,#535,#536);
#485=AXIS2_PLACEMENT_3D('',#669,#538,#539);
#486=AXIS2_PLACEMENT_3D('',#670,#540,#541);
#487=AXIS2_PLACEMENT_3D('',#672,#542,#543);
#488=AXIS2_PLACEMENT_3D('',#675,#545,#546);
#489=AXIS2_PLACEMENT_3D('',#676,#547,#548);
#490=AXIS2_PLACEMENT_3D('',#678,#549,#550);
#491=AXIS2_PLACEMENT_3D('',#681,#552,#553);
#492=AXIS2_PLACEMENT_3D('',#682,#554,#555);
#493=AXIS2_PLACEMENT_3D('',#684,#556,#557);
#494=AXIS2_PLACEMENT_3D('',#687,#559,#560);
#495=AXIS2_PLACEMENT_3D('',#688,#561,#562);
#496=AXIS2_PLACEMENT_3D('',#697,#567,#568);
#497=AXIS2_PLACEMENT_3D('',#699,#569,#570);
#498=AXIS2_PLACEMENT_3D('',#702,#572,#573);
#499=AXIS2_PLACEMENT_3D('',#703,#574,#575);
#500=AXIS2_PLACEMENT_3D('',#705,#576,#577);
#501=AXIS2_PLACEMENT_3D('',#708,#579,#580);
#502=AXIS2_PLACEMENT_3D('',#709,#581,#582);
#503=AXIS2_PLACEMENT_3D('',#711,#583,#584);
#504=AXIS2_PLACEMENT_3D('',#714,#586,#587);
#505=AXIS2_PLACEMENT_3D('',#715,#588,#589);
#506=AXIS2_PLACEMENT_3D('',#717,#590,#591);
#507=AXIS2_PLACEMENT_3D('',#720,#593,#594);
#508=AXIS2_PLACEMENT_3D('',#721,#595,#596);
#509=AXIS2_PLACEMENT_3D('',#723,#597,#598);
#510=AXIS2_PLACEMENT_3D('',#726,#600,#601);
#511=AXIS2_PLACEMENT_3D('',#727,#602,#603);
#512=AXIS2_PLACEMENT_3D('',#729,#604,#605);
#513=AXIS2_PLACEMENT_3D('',#732,#607,#608);
#514=AXIS2_PLACEMENT_3D('',#733,#609,#610);
#515=AXIS2_PLACEMENT_3D('',#742,#615,#616);
#516=AXIS2_PLACEMENT_3D('',#748,#620,#621);
#517=AXIS2_PLACEMENT_3D('',#754,#625,#626);
#518=AXIS2_PLACEMENT_3D('',#757,#629,#630);
#519=AXIS2_PLACEMENT_3D('',#759,#631,#632);
#520=AXIS2_PLACEMENT_3D('',#762,#634,#635);
#521=AXIS2_PLACEMENT_3D('',#763,#636,#637);
#522=AXIS2_PLACEMENT_3D('',#765,#638,#639);
#523=AXIS2_PLACEMENT_3D('',#768,#641,#642);
#524=AXIS2_PLACEMENT_3D('',#769,#643,#644);
#525=AXIS2_PLACEMENT_3D('',#775,#648,#649);
#526=AXIS2_PLACEMENT_3D('',#777,#650,#651);
#527=AXIS2_PLACEMENT_3D('',#779,#652,#653);
#528=AXIS2_PLACEMENT_3D('',#781,#655,#656);
#529=AXIS2_PLACEMENT_3D('',#784,#659,#660);
#530=AXIS2_PLACEMENT_3D('',#785,#661,#662);
#531=DIRECTION('axis',(0.,0.,1.));
#532=DIRECTION('refdir',(1.,0.,0.));
#533=DIRECTION('center_axis',(-1.,0.,0.));
#534=DIRECTION('ref_axis',(0.,1.,0.));
#535=DIRECTION('center_axis',(-1.,-5.55111512312579E-17,3.3306690928989E-16));
#536=DIRECTION('ref_axis',(0.,1.,0.));
#537=DIRECTION('',(-1.,0.,0.));
#538=DIRECTION('center_axis',(1.,5.55111512312579E-17,-3.3306690928989E-16));
#539=DIRECTION('ref_axis',(0.,1.,0.));
#540=DIRECTION('center_axis',(-1.,0.,0.));
#541=DIRECTION('ref_axis',(0.,1.,0.));
#542=DIRECTION('center_axis',(-1.,-5.55111512312579E-17,3.3306690928989E-16));
#543=DIRECTION('ref_axis',(0.,1.,0.));
#544=DIRECTION('',(-1.,0.,0.));
#545=DIRECTION('center_axis',(1.,5.55111512312579E-17,-3.3306690928989E-16));
#546=DIRECTION('ref_axis',(0.,1.,0.));
#547=DIRECTION('center_axis',(-1.,0.,0.));
#548=DIRECTION('ref_axis',(0.,1.,0.));
#549=DIRECTION('center_axis',(-1.,-5.55111512312579E-17,3.3306690928989E-16));
#550=DIRECTION('ref_axis',(0.,1.,0.));
#551=DIRECTION('',(-1.,0.,0.));
#552=DIRECTION('center_axis',(1.,5.55111512312579E-17,-3.3306690928989E-16));
#553=DIRECTION('ref_axis',(0.,1.,0.));
#554=DIRECTION('center_axis',(-1.,0.,0.));
#555=DIRECTION('ref_axis',(0.,1.,0.));
#556=DIRECTION('center_axis',(-1.,-5.55111512312579E-17,3.3306690928989E-16));
#557=DIRECTION('ref_axis',(0.,1.,0.));
#558=DIRECTION('',(-1.,0.,0.));
#559=DIRECTION('center_axis',(1.,5.55111512312579E-17,-3.3306690928989E-16));
#560=DIRECTION('ref_axis',(0.,1.,0.));
#561=DIRECTION('center_axis',(0.,0.,1.));
#562=DIRECTION('ref_axis',(1.,0.,0.));
#563=DIRECTION('',(-5.55111512312578E-17,1.,-1.97215226305253E-31));
#564=DIRECTION('',(-1.,0.,0.));
#565=DIRECTION('',(5.55111512312578E-17,-1.,1.97215226305253E-31));
#566=DIRECTION('',(1.,0.,0.));
#567=DIRECTION('center_axis',(-1.,0.,0.));
#568=DIRECTION('ref_axis',(0.,-1.,1.97215226305253E-31));
#569=DIRECTION('center_axis',(1.,5.55111512312579E-17,-3.3306690928989E-16));
#570=DIRECTION('ref_axis',(5.55111512312579E-17,-1.,1.97215226305253E-31));
#571=DIRECTION('',(1.,0.,0.));
#572=DIRECTION('center_axis',(1.,5.55111512312579E-17,-3.3306690928989E-16));
#573=DIRECTION('ref_axis',(5.55111512312579E-17,-1.,1.97215226305253E-31));
#574=DIRECTION('center_axis',(-1.,0.,0.));
#575=DIRECTION('ref_axis',(0.,-1.,1.97215226305253E-31));
#576=DIRECTION('center_axis',(1.,5.55111512312579E-17,-3.3306690928989E-16));
#577=DIRECTION('ref_axis',(5.55111512312579E-17,-1.,1.97215226305253E-31));
#578=DIRECTION('',(1.,0.,0.));
#579=DIRECTION('center_axis',(1.,5.55111512312579E-17,-3.3306690928989E-16));
#580=DIRECTION('ref_axis',(5.55111512312579E-17,-1.,1.97215226305253E-31));
#581=DIRECTION('center_axis',(-1.,0.,0.));
#582=DIRECTION('ref_axis',(0.,-1.,1.97215226305253E-31));
#583=DIRECTION('center_axis',(1.,5.55111512312579E-17,-3.3306690928989E-16));
#584=DIRECTION('ref_axis',(5.55111512312579E-17,-1.,1.97215226305253E-31));
#585=DIRECTION('',(1.,0.,0.));
#586=DIRECTION('center_axis',(1.,5.55111512312579E-17,-3.3306690928989E-16));
#587=DIRECTION('ref_axis',(5.55111512312579E-17,-1.,1.97215226305253E-31));
#588=DIRECTION('center_axis',(-1.,0.,0.));
#589=DIRECTION('ref_axis',(0.,-1.,1.97215226305253E-31));
#590=DIRECTION('center_axis',(1.,5.55111512312579E-17,-3.3306690928989E-16));
#591=DIRECTION('ref_axis',(5.55111512312579E-17,-1.,1.97215226305253E-31));
#592=DIRECTION('',(1.,0.,0.));
#593=DIRECTION('center_axis',(1.,5.55111512312579E-17,-3.3306690928989E-16));
#594=DIRECTION('ref_axis',(5.55111512312579E-17,-1.,1.97215226305253E-31));
#595=DIRECTION('center_axis',(-1.,0.,0.));
#596=DIRECTION('ref_axis',(0.,-1.,1.97215226305253E-31));
#597=DIRECTION('center_axis',(1.,5.55111512312579E-17,-3.3306690928989E-16));
#598=DIRECTION('ref_axis',(5.55111512312579E-17,-1.,1.97215226305253E-31));
#599=DIRECTION('',(1.,0.,0.));
#600=DIRECTION('center_axis',(1.,5.55111512312579E-17,-3.3306690928989E-16));
#601=DIRECTION('ref_axis',(5.55111512312579E-17,-1.,1.97215226305253E-31));
#602=DIRECTION('center_axis',(-1.,0.,0.));
#603=DIRECTION('ref_axis',(0.,-1.,1.97215226305253E-31));
#604=DIRECTION('center_axis',(1.,5.55111512312579E-17,-3.3306690928989E-16));
#605=DIRECTION('ref_axis',(5.55111512312579E-17,-1.,1.97215226305253E-31));
#606=DIRECTION('',(1.,0.,0.));
#607=DIRECTION('center_axis',(1.,5.55111512312579E-17,-3.3306690928989E-16));
#608=DIRECTION('ref_axis',(5.55111512312579E-17,-1.,1.97215226305253E-31));
#609=DIRECTION('center_axis',(0.,1.97215226305253E-31,1.));
#610=DIRECTION('ref_axis',(-5.55111512312579E-17,1.,-1.97215226305253E-31));
#611=DIRECTION('',(5.55111512312579E-17,-1.,1.97215226305253E-31));
#612=DIRECTION('',(1.,0.,0.));
#613=DIRECTION('',(5.55111512312579E-17,-1.,1.97215226305253E-31));
#614=DIRECTION('',(-1.,0.,0.));
#615=DIRECTION('center_axis',(0.,1.,-1.11022302462516E-16));
#616=DIRECTION('ref_axis',(-3.3306690928989E-16,-1.11022302462516E-16,-1.));
#617=DIRECTION('',(3.3306690928989E-16,1.11022302462516E-16,1.));
#618=DIRECTION('',(3.3306690928989E-16,1.11022302462516E-16,1.));
#619=DIRECTION('',(1.,0.,0.));
#620=DIRECTION('center_axis',(0.,-1.97215226305253E-31,-1.));
#621=DIRECTION('ref_axis',(5.55111512312579E-17,-1.,1.97215226305253E-31));
#622=DIRECTION('',(-5.55111512312579E-17,1.,-1.97215226305253E-31));
#623=DIRECTION('',(-5.55111512312579E-17,1.,-1.97215226305253E-31));
#624=DIRECTION('',(1.,0.,0.));
#625=DIRECTION('center_axis',(0.,-1.,1.11022302462516E-16));
#626=DIRECTION('ref_axis',(3.3306690928989E-16,1.11022302462516E-16,1.));
#627=DIRECTION('',(-3.3306690928989E-16,-1.11022302462516E-16,-1.));
#628=DIRECTION('',(-3.3306690928989E-16,-1.11022302462516E-16,-1.));
#629=DIRECTION('center_axis',(-1.,0.,0.));
#630=DIRECTION('ref_axis',(0.,-1.,1.97215226305253E-31));
#631=DIRECTION('center_axis',(1.,5.55111512312579E-17,-3.3306690928989E-16));
#632=DIRECTION('ref_axis',(5.55111512312579E-17,-1.,1.97215226305253E-31));
#633=DIRECTION('',(1.,0.,0.));
#634=DIRECTION('center_axis',(1.,5.55111512312579E-17,-3.3306690928989E-16));
#635=DIRECTION('ref_axis',(5.55111512312579E-17,-1.,1.97215226305253E-31));
#636=DIRECTION('center_axis',(-1.,0.,0.));
#637=DIRECTION('ref_axis',(0.,-1.,1.97215226305253E-31));
#638=DIRECTION('center_axis',(1.,5.55111512312579E-17,-3.3306690928989E-16));
#639=DIRECTION('ref_axis',(5.55111512312579E-17,-1.,1.97215226305253E-31));
#640=DIRECTION('',(1.,0.,0.));
#641=DIRECTION('center_axis',(1.,5.55111512312579E-17,-3.3306690928989E-16));
#642=DIRECTION('ref_axis',(5.55111512312579E-17,-1.,1.97215226305253E-31));
#643=DIRECTION('center_axis',(0.,-1.,2.15704153876972E-31));
#644=DIRECTION('ref_axis',(3.3306690928989E-16,2.15704153876972E-31,1.));
#645=DIRECTION('',(3.3306690928989E-16,2.15704153876972E-31,1.));
#646=DIRECTION('',(3.3306690928989E-16,2.15704153876972E-31,1.));
#647=DIRECTION('',(-1.,0.,0.));
#648=DIRECTION('center_axis',(-1.,0.,0.));
#649=DIRECTION('ref_axis',(0.,-1.,1.97215226305253E-31));
#650=DIRECTION('center_axis',(-1.,-5.55111512312579E-17,3.3306690928989E-16));
#651=DIRECTION('ref_axis',(5.55111512312579E-17,-1.,1.97215226305253E-31));
#652=DIRECTION('center_axis',(-1.,-5.55111512312579E-17,3.3306690928989E-16));
#653=DIRECTION('ref_axis',(5.55111512312579E-17,-1.,1.97215226305253E-31));
#654=DIRECTION('',(-1.,0.,0.));
#655=DIRECTION('center_axis',(0.,1.,-2.15704153876972E-31));
#656=DIRECTION('ref_axis',(-3.3306690928989E-16,-2.15704153876972E-31,-1.));
#657=DIRECTION('',(0.,0.,1.));
#658=DIRECTION('',(0.,0.,1.));
#659=DIRECTION('center_axis',(-1.,-5.55111512312579E-17,3.3306690928989E-16));
#660=DIRECTION('ref_axis',(5.55111512312579E-17,-1.,1.97215226305253E-31));
#661=DIRECTION('center_axis',(-1.,-5.55111512312579E-17,3.3306690928989E-16));
#662=DIRECTION('ref_axis',(5.55111512312579E-17,-1.,1.97215226305253E-31));
#663=CARTESIAN_POINT('',(0.,0.,0.));
#664=CARTESIAN_POINT('Origin',(32.7498,16.4755817894072,228.4));
#665=CARTESIAN_POINT('',(32.7498,13.8255817894072,228.4));
#666=CARTESIAN_POINT('Origin',(32.7498,16.4755817894072,228.4));
#667=CARTESIAN_POINT('',(26.3998,13.8255817894072,228.4));
#668=CARTESIAN_POINT('',(32.7498,13.8255817894072,228.4));
#669=CARTESIAN_POINT('Origin',(26.3998,16.4755817894072,228.4));
#670=CARTESIAN_POINT('Origin',(32.7498,-26.4755817894058,228.4));
#671=CARTESIAN_POINT('',(32.7498,-29.1255817894058,228.4));
#672=CARTESIAN_POINT('Origin',(32.7498,-26.4755817894058,228.4));
#673=CARTESIAN_POINT('',(26.3998,-29.1255817894058,228.4));
#674=CARTESIAN_POINT('',(32.7498,-29.1255817894058,228.4));
#675=CARTESIAN_POINT('Origin',(26.3998,-26.4755817894058,228.4));
#676=CARTESIAN_POINT('Origin',(32.7498,36.4755817894072,228.4));
#677=CARTESIAN_POINT('',(32.7498,33.8255817894072,228.4));
#678=CARTESIAN_POINT('Origin',(32.7498,36.4755817894072,228.4));
#679=CARTESIAN_POINT('',(26.3998,33.8255817894072,228.4));
#680=CARTESIAN_POINT('',(32.7498,33.8255817894072,228.4));
#681=CARTESIAN_POINT('Origin',(26.3998,36.4755817894072,228.4));
#682=CARTESIAN_POINT('Origin',(32.7498,-46.4755817894058,228.4));
#683=CARTESIAN_POINT('',(32.7498,-49.1255817894058,228.4));
#684=CARTESIAN_POINT('Origin',(32.7498,-46.4755817894058,228.4));
#685=CARTESIAN_POINT('',(26.3998,-49.1255817894058,228.4));
#686=CARTESIAN_POINT('',(32.7498,-49.1255817894058,228.4));
#687=CARTESIAN_POINT('Origin',(26.3998,-46.4755817894058,228.4));
#688=CARTESIAN_POINT('Origin',(32.7498000000001,-56.4755817894057,238.4));
#689=CARTESIAN_POINT('',(32.7498000000001,-56.4755817894057,238.4));
#690=CARTESIAN_POINT('',(32.7498000000001,46.4755817894074,238.4));
#691=CARTESIAN_POINT('',(32.7498000000001,-56.4755817894057,238.4));
#692=CARTESIAN_POINT('',(26.3998,46.4755817894074,238.4));
#693=CARTESIAN_POINT('',(32.7498000000001,46.4755817894074,238.4));
#694=CARTESIAN_POINT('',(26.3998,-56.4755817894057,238.4));
#695=CARTESIAN_POINT('',(26.3998,-56.4755817894057,238.4));
#696=CARTESIAN_POINT('',(32.7498000000001,-56.4755817894057,238.4));
#697=CARTESIAN_POINT('Origin',(32.7498,-33.7499999999992,171.399999806285));
#698=CARTESIAN_POINT('',(26.3998,-31.0999999999992,171.399999806285));
#699=CARTESIAN_POINT('Origin',(26.3998,-33.7499999999992,171.399999806285));
#700=CARTESIAN_POINT('',(32.7498,-31.0999999999992,171.399999806285));
#701=CARTESIAN_POINT('',(32.7498,-31.0999999999992,171.399999806285));
#702=CARTESIAN_POINT('Origin',(32.7498,-33.7499999999992,171.399999806285));
#703=CARTESIAN_POINT('Origin',(32.7498,23.7500000000009,171.400000193715));
#704=CARTESIAN_POINT('',(26.3998,26.4000000000009,171.400000193715));
#705=CARTESIAN_POINT('Origin',(26.3998,23.7500000000009,171.400000193715));
#706=CARTESIAN_POINT('',(32.7498,26.4000000000009,171.400000193715));
#707=CARTESIAN_POINT('',(32.7498,26.4000000000009,171.400000193715));
#708=CARTESIAN_POINT('Origin',(32.7498,23.7500000000009,171.400000193715));
#709=CARTESIAN_POINT('Origin',(32.7498,-12.9999998062841,134.65));
#710=CARTESIAN_POINT('',(26.3998,-10.349999806284,134.65));
#711=CARTESIAN_POINT('Origin',(26.3998,-12.9999998062841,134.65));
#712=CARTESIAN_POINT('',(32.7498,-10.349999806284,134.65));
#713=CARTESIAN_POINT('',(32.7498,-10.349999806284,134.65));
#714=CARTESIAN_POINT('Origin',(32.7498,-12.9999998062841,134.65));
#715=CARTESIAN_POINT('Origin',(32.7498,2.99999980628576,192.15));
#716=CARTESIAN_POINT('',(26.3998,5.64999980628576,192.15));
#717=CARTESIAN_POINT('Origin',(26.3998,2.99999980628576,192.15));
#718=CARTESIAN_POINT('',(32.7498,5.64999980628576,192.15));
#719=CARTESIAN_POINT('',(32.7498,5.64999980628576,192.15));
#720=CARTESIAN_POINT('Origin',(32.7498,2.99999980628576,192.15));
#721=CARTESIAN_POINT('Origin',(32.7498,23.7500000000009,155.400000193715));
#722=CARTESIAN_POINT('',(26.3998,26.4000000000009,155.400000193715));
#723=CARTESIAN_POINT('Origin',(26.3998,23.7500000000009,155.400000193715));
#724=CARTESIAN_POINT('',(32.7498,26.4000000000009,155.400000193715));
#725=CARTESIAN_POINT('',(32.7498,26.4000000000009,155.400000193715));
#726=CARTESIAN_POINT('Origin',(32.7498,23.7500000000009,155.400000193715));
#727=CARTESIAN_POINT('Origin',(32.7498,-13.0000001937142,192.15));
#728=CARTESIAN_POINT('',(26.3998,-10.3500001937142,192.15));
#729=CARTESIAN_POINT('Origin',(26.3998,-13.0000001937142,192.15));
#730=CARTESIAN_POINT('',(32.7498,-10.3500001937142,192.15));
#731=CARTESIAN_POINT('',(32.7498,-10.3500001937142,192.15));
#732=CARTESIAN_POINT('Origin',(32.7498,-13.0000001937142,192.15));
#733=CARTESIAN_POINT('Origin',(32.7498,-24.9999999999992,143.25));
#734=CARTESIAN_POINT('',(32.7498,-25.1499999999992,143.25));
#735=CARTESIAN_POINT('',(32.7498,15.1500000000008,143.25));
#736=CARTESIAN_POINT('',(32.7498,-14.9999999999992,143.25));
#737=CARTESIAN_POINT('',(26.3998,15.1500000000008,143.25));
#738=CARTESIAN_POINT('',(32.7498,15.1500000000008,143.25));
#739=CARTESIAN_POINT('',(26.3998,-25.1499999999992,143.25));
#740=CARTESIAN_POINT('',(26.3998,-14.9999999999992,143.25));
#741=CARTESIAN_POINT('',(32.7498,-25.1499999999992,143.25));
#742=CARTESIAN_POINT('Origin',(32.7498,-25.1499999999991,183.4));
#743=CARTESIAN_POINT('',(32.7498,-25.1499999999991,183.55));
#744=CARTESIAN_POINT('',(32.7498,-25.1499999999991,176.781104552649));
#745=CARTESIAN_POINT('',(26.3998,-25.1499999999991,183.55));
#746=CARTESIAN_POINT('',(26.3998,-25.1499999999991,176.781104552649));
#747=CARTESIAN_POINT('',(32.7498,-25.1499999999991,183.55));
#748=CARTESIAN_POINT('Origin',(32.7498,15.0000000000008,183.55));
#749=CARTESIAN_POINT('',(32.7498,15.1500000000008,183.55));
#750=CARTESIAN_POINT('',(32.7498,5.00000000000084,183.55));
#751=CARTESIAN_POINT('',(26.3998,15.1500000000008,183.55));
#752=CARTESIAN_POINT('',(26.3998,5.00000000000084,183.55));
#753=CARTESIAN_POINT('',(32.7498,15.1500000000008,183.55));
#754=CARTESIAN_POINT('Origin',(32.7498,15.1500000000008,143.4));
#755=CARTESIAN_POINT('',(32.7498,15.1500000000008,156.781104552649));
#756=CARTESIAN_POINT('',(26.3998,15.1500000000008,156.781104552649));
#757=CARTESIAN_POINT('Origin',(32.7498,-33.7499999999992,155.399999806285));
#758=CARTESIAN_POINT('',(26.3998,-31.0999999999992,155.399999806285));
#759=CARTESIAN_POINT('Origin',(26.3998,-33.7499999999992,155.399999806285));
#760=CARTESIAN_POINT('',(32.7498,-31.0999999999992,155.399999806285));
#761=CARTESIAN_POINT('',(32.7498,-31.0999999999992,155.399999806285));
#762=CARTESIAN_POINT('Origin',(32.7498,-33.7499999999992,155.399999806285));
#763=CARTESIAN_POINT('Origin',(32.7498,3.00000019371595,134.65));
#764=CARTESIAN_POINT('',(26.3998,5.65000019371595,134.65));
#765=CARTESIAN_POINT('Origin',(26.3998,3.00000019371595,134.65));
#766=CARTESIAN_POINT('',(32.7498,5.65000019371595,134.65));
#767=CARTESIAN_POINT('',(32.7498,5.65000019371595,134.65));
#768=CARTESIAN_POINT('Origin',(32.7498,3.00000019371595,134.65));
#769=CARTESIAN_POINT('Origin',(32.7498,-56.4755817894057,163.4));
#770=CARTESIAN_POINT('',(32.7498,-56.4755817894057,163.4));
#771=CARTESIAN_POINT('',(32.7498,-56.4755817894057,163.4));
#772=CARTESIAN_POINT('',(26.3998,-56.4755817894057,163.4));
#773=CARTESIAN_POINT('',(26.3998,-56.4755817894057,163.4));
#774=CARTESIAN_POINT('',(32.7498,-56.4755817894057,163.4));
#775=CARTESIAN_POINT('Origin',(32.7498,-4.99999999999917,163.4));
#776=CARTESIAN_POINT('',(32.7498,46.4755817894074,163.4));
#777=CARTESIAN_POINT('Origin',(32.7498,-4.99999999999917,163.4));
#778=CARTESIAN_POINT('',(26.3998,46.4755817894074,163.4));
#779=CARTESIAN_POINT('Origin',(26.3998,-4.99999999999917,163.4));
#780=CARTESIAN_POINT('',(32.7498,46.4755817894074,163.4));
#781=CARTESIAN_POINT('Origin',(32.7498000000001,46.4755817894074,228.4));
#782=CARTESIAN_POINT('',(32.7498000000001,46.4755817894074,228.4));
#783=CARTESIAN_POINT('',(26.3998,46.4755817894074,228.4));
#784=CARTESIAN_POINT('Origin',(26.3998,-4.99999999999917,170.162209105297));
#785=CARTESIAN_POINT('Origin',(32.7498,-4.99999999999917,170.162209105297));
#786=UNCERTAINTY_MEASURE_WITH_UNIT(LENGTH_MEASURE(0.01),#790,
'DISTANCE_ACCURACY_VALUE',
'Maximum model space distance between geometric entities at asserted c
onnectivities');
#787=UNCERTAINTY_MEASURE_WITH_UNIT(LENGTH_MEASURE(0.01),#790,
'DISTANCE_ACCURACY_VALUE',
'Maximum model space distance between geometric entities at asserted c
onnectivities');
#788=(
GEOMETRIC_REPRESENTATION_CONTEXT(3)
GLOBAL_UNCERTAINTY_ASSIGNED_CONTEXT((#786))
GLOBAL_UNIT_ASSIGNED_CONTEXT((#790,#792,#793))
REPRESENTATION_CONTEXT('','3D')
);
#789=(
GEOMETRIC_REPRESENTATION_CONTEXT(3)
GLOBAL_UNCERTAINTY_ASSIGNED_CONTEXT((#787))
GLOBAL_UNIT_ASSIGNED_CONTEXT((#790,#792,#793))
REPRESENTATION_CONTEXT('','3D')
);
#790=(
LENGTH_UNIT()
NAMED_UNIT(*)
SI_UNIT(.MILLI.,.METRE.)
);
#791=(
LENGTH_UNIT()
NAMED_UNIT(*)
SI_UNIT($,.METRE.)
);
#792=(
NAMED_UNIT(*)
PLANE_ANGLE_UNIT()
SI_UNIT($,.RADIAN.)
);
#793=(
NAMED_UNIT(*)
SI_UNIT($,.STERADIAN.)
SOLID_ANGLE_UNIT()
);
#794=SHAPE_DEFINITION_REPRESENTATION(#795,#796);
#795=PRODUCT_DEFINITION_SHAPE('',$,#798);
#796=SHAPE_REPRESENTATION('',(#482),#788);
#797=PRODUCT_DEFINITION_CONTEXT('part definition',#802,'design');
#798=PRODUCT_DEFINITION('Camera Mount Side Plate',
'Camera Mount Side Plate',#799,#797);
#799=PRODUCT_DEFINITION_FORMATION('',$,#804);
#800=PRODUCT_RELATED_PRODUCT_CATEGORY('Camera Mount Side Plate',
'Camera Mount Side Plate',(#804));
#801=APPLICATION_PROTOCOL_DEFINITION('international standard',
'automotive_design',2009,#802);
#802=APPLICATION_CONTEXT(
'Core Data for Automotive Mechanical Design Process');
#803=PRODUCT_CONTEXT('part definition',#802,'mechanical');
#804=PRODUCT('Camera Mount Side Plate','Camera Mount Side Plate',$,(#803));
#805=PRESENTATION_STYLE_ASSIGNMENT((#806));
#806=SURFACE_STYLE_USAGE(.BOTH.,#807);
#807=SURFACE_SIDE_STYLE('',(#808));
#808=SURFACE_STYLE_FILL_AREA(#809);
#809=FILL_AREA_STYLE('Aluminum - Satin',(#810));
#810=FILL_AREA_STYLE_COLOUR('Aluminum - Satin',#811);
#811=COLOUR_RGB('Aluminum - Satin',0.96078431372549,0.96078431372549,0.964705882352941);
ENDSEC;
END-ISO-10303-21;
