ISO-10303-21;
HEADER;
/* Generated by software containing ST-Developer
 * from STEP Tools, Inc. (www.steptools.com) 
 */

FILE_DESCRIPTION(
/* description */ (''),
/* implementation_level */ '2;1');

FILE_NAME(
/* name */ 'Front Plate.step',
/* time_stamp */ '2026-08-23T20:35:50-06:00',
/* author */ (''),
/* organization */ (''),
/* preprocessor_version */ 'ST-DEVELOPER v20.1',
/* originating_system */ 'Autodesk Translation Framework v15.8.0.0',
/* authorisation */ '');

FILE_SCHEMA (('AUTOMOTIVE_DESIGN { 1 0 10303 214 3 1 1 }'));
ENDSEC;

DATA;
#10=MECHANICAL_DESIGN_GEOMETRIC_PRESENTATION_REPRESENTATION('',(#13),#1714);
#11=SHAPE_REPRESENTATION_RELATIONSHIP('SRR','None',#1721,#12);
#12=ADVANCED_BREP_SHAPE_REPRESENTATION('',(#14),#1713);
#13=STYLED_ITEM('',(#1730),#14);
#14=MANIFOLD_SOLID_BREP('Body1',#998);
#15=FACE_BOUND('',#127,.T.);
#16=FACE_BOUND('',#128,.T.);
#17=FACE_BOUND('',#129,.T.);
#18=FACE_BOUND('',#130,.T.);
#19=FACE_BOUND('',#131,.T.);
#20=FACE_BOUND('',#132,.T.);
#21=FACE_BOUND('',#133,.T.);
#22=FACE_BOUND('',#134,.T.);
#23=FACE_BOUND('',#135,.T.);
#24=FACE_BOUND('',#136,.T.);
#25=FACE_BOUND('',#137,.T.);
#26=FACE_BOUND('',#138,.T.);
#27=FACE_BOUND('',#139,.T.);
#28=FACE_BOUND('',#140,.T.);
#29=FACE_BOUND('',#141,.T.);
#30=FACE_BOUND('',#142,.T.);
#31=FACE_BOUND('',#143,.T.);
#32=FACE_BOUND('',#144,.T.);
#33=FACE_BOUND('',#145,.T.);
#34=FACE_BOUND('',#146,.T.);
#35=FACE_BOUND('',#147,.T.);
#36=FACE_BOUND('',#148,.T.);
#37=FACE_BOUND('',#149,.T.);
#38=FACE_BOUND('',#150,.T.);
#39=FACE_BOUND('',#151,.T.);
#40=FACE_BOUND('',#152,.T.);
#41=FACE_BOUND('',#162,.T.);
#42=FACE_BOUND('',#163,.T.);
#43=FACE_BOUND('',#164,.T.);
#44=FACE_BOUND('',#165,.T.);
#45=FACE_BOUND('',#166,.T.);
#46=FACE_BOUND('',#167,.T.);
#47=FACE_BOUND('',#168,.T.);
#48=FACE_BOUND('',#169,.T.);
#49=FACE_BOUND('',#170,.T.);
#50=FACE_BOUND('',#171,.T.);
#51=FACE_BOUND('',#172,.T.);
#52=FACE_BOUND('',#173,.T.);
#53=FACE_BOUND('',#174,.T.);
#54=FACE_BOUND('',#175,.T.);
#55=FACE_BOUND('',#176,.T.);
#56=FACE_BOUND('',#177,.T.);
#57=FACE_BOUND('',#178,.T.);
#58=FACE_BOUND('',#179,.T.);
#59=FACE_BOUND('',#180,.T.);
#60=FACE_BOUND('',#181,.T.);
#61=FACE_BOUND('',#182,.T.);
#62=FACE_BOUND('',#183,.T.);
#63=FACE_BOUND('',#184,.T.);
#64=FACE_BOUND('',#185,.T.);
#65=FACE_BOUND('',#186,.T.);
#66=FACE_BOUND('',#187,.T.);
#67=PLANE('',#1018);
#68=PLANE('',#1056);
#69=PLANE('',#1063);
#70=PLANE('',#1064);
#71=PLANE('',#1065);
#72=PLANE('',#1066);
#73=PLANE('',#1101);
#74=PLANE('',#1103);
#75=PLANE('',#1109);
#76=PLANE('',#1132);
#77=FACE_OUTER_BOUND('',#124,.T.);
#78=FACE_OUTER_BOUND('',#125,.T.);
#79=FACE_OUTER_BOUND('',#126,.T.);
#80=FACE_OUTER_BOUND('',#153,.T.);
#81=FACE_OUTER_BOUND('',#154,.T.);
#82=FACE_OUTER_BOUND('',#155,.T.);
#83=FACE_OUTER_BOUND('',#156,.T.);
#84=FACE_OUTER_BOUND('',#157,.T.);
#85=FACE_OUTER_BOUND('',#158,.T.);
#86=FACE_OUTER_BOUND('',#159,.T.);
#87=FACE_OUTER_BOUND('',#160,.T.);
#88=FACE_OUTER_BOUND('',#161,.T.);
#89=FACE_OUTER_BOUND('',#188,.T.);
#90=FACE_OUTER_BOUND('',#189,.T.);
#91=FACE_OUTER_BOUND('',#190,.T.);
#92=FACE_OUTER_BOUND('',#191,.T.);
#93=FACE_OUTER_BOUND('',#192,.T.);
#94=FACE_OUTER_BOUND('',#193,.T.);
#95=FACE_OUTER_BOUND('',#194,.T.);
#96=FACE_OUTER_BOUND('',#195,.T.);
#97=FACE_OUTER_BOUND('',#196,.T.);
#98=FACE_OUTER_BOUND('',#197,.T.);
#99=FACE_OUTER_BOUND('',#198,.T.);
#100=FACE_OUTER_BOUND('',#199,.T.);
#101=FACE_OUTER_BOUND('',#200,.T.);
#102=FACE_OUTER_BOUND('',#201,.T.);
#103=FACE_OUTER_BOUND('',#202,.T.);
#104=FACE_OUTER_BOUND('',#203,.T.);
#105=FACE_OUTER_BOUND('',#204,.T.);
#106=FACE_OUTER_BOUND('',#205,.T.);
#107=FACE_OUTER_BOUND('',#206,.T.);
#108=FACE_OUTER_BOUND('',#207,.T.);
#109=FACE_OUTER_BOUND('',#208,.T.);
#110=FACE_OUTER_BOUND('',#209,.T.);
#111=FACE_OUTER_BOUND('',#210,.T.);
#112=FACE_OUTER_BOUND('',#211,.T.);
#113=FACE_OUTER_BOUND('',#212,.T.);
#114=FACE_OUTER_BOUND('',#213,.T.);
#115=FACE_OUTER_BOUND('',#214,.T.);
#116=FACE_OUTER_BOUND('',#215,.T.);
#117=FACE_OUTER_BOUND('',#216,.T.);
#118=FACE_OUTER_BOUND('',#217,.T.);
#119=FACE_OUTER_BOUND('',#218,.T.);
#120=FACE_OUTER_BOUND('',#219,.T.);
#121=FACE_OUTER_BOUND('',#220,.T.);
#122=FACE_OUTER_BOUND('',#221,.T.);
#123=FACE_OUTER_BOUND('',#222,.T.);
#124=EDGE_LOOP('',(#644,#645,#646,#647));
#125=EDGE_LOOP('',(#648,#649,#650,#651));
#126=EDGE_LOOP('',(#652,#653,#654,#655,#656,#657,#658,#659,#660,#661,#662,
#663,#664,#665));
#127=EDGE_LOOP('',(#666,#667,#668,#669,#670,#671));
#128=EDGE_LOOP('',(#672));
#129=EDGE_LOOP('',(#673));
#130=EDGE_LOOP('',(#674));
#131=EDGE_LOOP('',(#675));
#132=EDGE_LOOP('',(#676));
#133=EDGE_LOOP('',(#677));
#134=EDGE_LOOP('',(#678));
#135=EDGE_LOOP('',(#679));
#136=EDGE_LOOP('',(#680));
#137=EDGE_LOOP('',(#681));
#138=EDGE_LOOP('',(#682));
#139=EDGE_LOOP('',(#683));
#140=EDGE_LOOP('',(#684));
#141=EDGE_LOOP('',(#685));
#142=EDGE_LOOP('',(#686));
#143=EDGE_LOOP('',(#687));
#144=EDGE_LOOP('',(#688));
#145=EDGE_LOOP('',(#689));
#146=EDGE_LOOP('',(#690));
#147=EDGE_LOOP('',(#691));
#148=EDGE_LOOP('',(#692));
#149=EDGE_LOOP('',(#693));
#150=EDGE_LOOP('',(#694));
#151=EDGE_LOOP('',(#695));
#152=EDGE_LOOP('',(#696));
#153=EDGE_LOOP('',(#697,#698,#699,#700));
#154=EDGE_LOOP('',(#701,#702,#703,#704));
#155=EDGE_LOOP('',(#705,#706,#707,#708));
#156=EDGE_LOOP('',(#709,#710,#711,#712));
#157=EDGE_LOOP('',(#713,#714,#715,#716));
#158=EDGE_LOOP('',(#717,#718,#719,#720));
#159=EDGE_LOOP('',(#721,#722,#723,#724));
#160=EDGE_LOOP('',(#725,#726,#727,#728));
#161=EDGE_LOOP('',(#729,#730,#731,#732,#733,#734,#735,#736,#737,#738,#739,
#740,#741,#742));
#162=EDGE_LOOP('',(#743,#744,#745,#746,#747,#748));
#163=EDGE_LOOP('',(#749));
#164=EDGE_LOOP('',(#750));
#165=EDGE_LOOP('',(#751));
#166=EDGE_LOOP('',(#752));
#167=EDGE_LOOP('',(#753));
#168=EDGE_LOOP('',(#754));
#169=EDGE_LOOP('',(#755));
#170=EDGE_LOOP('',(#756));
#171=EDGE_LOOP('',(#757));
#172=EDGE_LOOP('',(#758));
#173=EDGE_LOOP('',(#759));
#174=EDGE_LOOP('',(#760));
#175=EDGE_LOOP('',(#761));
#176=EDGE_LOOP('',(#762));
#177=EDGE_LOOP('',(#763));
#178=EDGE_LOOP('',(#764));
#179=EDGE_LOOP('',(#765));
#180=EDGE_LOOP('',(#766));
#181=EDGE_LOOP('',(#767));
#182=EDGE_LOOP('',(#768));
#183=EDGE_LOOP('',(#769));
#184=EDGE_LOOP('',(#770));
#185=EDGE_LOOP('',(#771));
#186=EDGE_LOOP('',(#772));
#187=EDGE_LOOP('',(#773));
#188=EDGE_LOOP('',(#774,#775,#776,#777));
#189=EDGE_LOOP('',(#778,#779,#780,#781));
#190=EDGE_LOOP('',(#782,#783,#784,#785));
#191=EDGE_LOOP('',(#786,#787,#788,#789));
#192=EDGE_LOOP('',(#790,#791,#792,#793));
#193=EDGE_LOOP('',(#794,#795,#796,#797));
#194=EDGE_LOOP('',(#798,#799,#800,#801));
#195=EDGE_LOOP('',(#802,#803,#804,#805));
#196=EDGE_LOOP('',(#806,#807,#808,#809));
#197=EDGE_LOOP('',(#810,#811,#812,#813));
#198=EDGE_LOOP('',(#814,#815,#816,#817));
#199=EDGE_LOOP('',(#818,#819,#820,#821));
#200=EDGE_LOOP('',(#822,#823,#824,#825));
#201=EDGE_LOOP('',(#826,#827,#828,#829));
#202=EDGE_LOOP('',(#830,#831,#832,#833));
#203=EDGE_LOOP('',(#834,#835,#836,#837));
#204=EDGE_LOOP('',(#838,#839,#840,#841));
#205=EDGE_LOOP('',(#842,#843,#844,#845));
#206=EDGE_LOOP('',(#846,#847,#848,#849));
#207=EDGE_LOOP('',(#850,#851,#852,#853));
#208=EDGE_LOOP('',(#854,#855,#856,#857));
#209=EDGE_LOOP('',(#858,#859,#860,#861));
#210=EDGE_LOOP('',(#862,#863,#864,#865));
#211=EDGE_LOOP('',(#866,#867,#868,#869));
#212=EDGE_LOOP('',(#870,#871,#872,#873));
#213=EDGE_LOOP('',(#874,#875,#876,#877));
#214=EDGE_LOOP('',(#878,#879,#880,#881));
#215=EDGE_LOOP('',(#882,#883,#884,#885));
#216=EDGE_LOOP('',(#886,#887,#888,#889));
#217=EDGE_LOOP('',(#890,#891,#892,#893));
#218=EDGE_LOOP('',(#894,#895,#896,#897));
#219=EDGE_LOOP('',(#898,#899,#900,#901));
#220=EDGE_LOOP('',(#902,#903,#904,#905));
#221=EDGE_LOOP('',(#906,#907,#908,#909));
#222=EDGE_LOOP('',(#910,#911,#912,#913));
#223=LINE('',#1444,#284);
#224=LINE('',#1447,#285);
#225=LINE('',#1452,#286);
#226=LINE('',#1456,#287);
#227=LINE('',#1460,#288);
#228=LINE('',#1464,#289);
#229=LINE('',#1472,#290);
#230=LINE('',#1474,#291);
#231=LINE('',#1476,#292);
#232=LINE('',#1480,#293);
#233=LINE('',#1484,#294);
#234=LINE('',#1542,#295);
#235=LINE('',#1546,#296);
#236=LINE('',#1547,#297);
#237=LINE('',#1552,#298);
#238=LINE('',#1553,#299);
#239=LINE('',#1556,#300);
#240=LINE('',#1560,#301);
#241=LINE('',#1564,#302);
#242=LINE('',#1565,#303);
#243=LINE('',#1568,#304);
#244=LINE('',#1569,#305);
#245=LINE('',#1572,#306);
#246=LINE('',#1573,#307);
#247=LINE('',#1575,#308);
#248=LINE('',#1579,#309);
#249=LINE('',#1583,#310);
#250=LINE('',#1591,#311);
#251=LINE('',#1644,#312);
#252=LINE('',#1645,#313);
#253=LINE('',#1647,#314);
#254=LINE('',#1649,#315);
#255=LINE('',#1651,#316);
#256=LINE('',#1653,#317);
#257=LINE('',#1656,#318);
#258=LINE('',#1658,#319);
#259=LINE('',#1660,#320);
#260=LINE('',#1662,#321);
#261=LINE('',#1664,#322);
#262=LINE('',#1666,#323);
#263=LINE('',#1669,#324);
#264=LINE('',#1671,#325);
#265=LINE('',#1673,#326);
#266=LINE('',#1675,#327);
#267=LINE('',#1677,#328);
#268=LINE('',#1679,#329);
#269=LINE('',#1681,#330);
#270=LINE('',#1683,#331);
#271=LINE('',#1685,#332);
#272=LINE('',#1687,#333);
#273=LINE('',#1689,#334);
#274=LINE('',#1691,#335);
#275=LINE('',#1693,#336);
#276=LINE('',#1695,#337);
#277=LINE('',#1697,#338);
#278=LINE('',#1699,#339);
#279=LINE('',#1701,#340);
#280=LINE('',#1703,#341);
#281=LINE('',#1705,#342);
#282=LINE('',#1707,#343);
#283=LINE('',#1709,#344);
#284=VECTOR('',#1139,10.);
#285=VECTOR('',#1142,10.);
#286=VECTOR('',#1147,10.);
#287=VECTOR('',#1152,10.);
#288=VECTOR('',#1155,10.);
#289=VECTOR('',#1158,10.);
#290=VECTOR('',#1165,10.);
#291=VECTOR('',#1166,10.);
#292=VECTOR('',#1167,10.);
#293=VECTOR('',#1170,10.);
#294=VECTOR('',#1173,10.);
#295=VECTOR('',#1232,10.);
#296=VECTOR('',#1237,10.);
#297=VECTOR('',#1238,10.);
#298=VECTOR('',#1243,10.);
#299=VECTOR('',#1244,10.);
#300=VECTOR('',#1247,10.);
#301=VECTOR('',#1252,10.);
#302=VECTOR('',#1257,10.);
#303=VECTOR('',#1258,10.);
#304=VECTOR('',#1261,10.);
#305=VECTOR('',#1262,10.);
#306=VECTOR('',#1265,10.);
#307=VECTOR('',#1266,10.);
#308=VECTOR('',#1269,10.);
#309=VECTOR('',#1272,10.);
#310=VECTOR('',#1275,10.);
#311=VECTOR('',#1282,10.);
#312=VECTOR('',#1337,10.);
#313=VECTOR('',#1338,10.);
#314=VECTOR('',#1341,10.);
#315=VECTOR('',#1344,10.);
#316=VECTOR('',#1347,10.);
#317=VECTOR('',#1350,10.);
#318=VECTOR('',#1355,2.65);
#319=VECTOR('',#1358,2.65);
#320=VECTOR('',#1361,2.65);
#321=VECTOR('',#1364,2.65);
#322=VECTOR('',#1367,10.);
#323=VECTOR('',#1370,10.);
#324=VECTOR('',#1375,2.15);
#325=VECTOR('',#1378,1.65);
#326=VECTOR('',#1381,2.15);
#327=VECTOR('',#1384,2.15000000000001);
#328=VECTOR('',#1387,1.65);
#329=VECTOR('',#1390,1.65);
#330=VECTOR('',#1393,1.65);
#331=VECTOR('',#1396,2.65);
#332=VECTOR('',#1399,2.15);
#333=VECTOR('',#1402,1.65);
#334=VECTOR('',#1405,2.15);
#335=VECTOR('',#1408,2.15);
#336=VECTOR('',#1411,2.65);
#337=VECTOR('',#1414,2.15);
#338=VECTOR('',#1417,2.15);
#339=VECTOR('',#1420,1.65);
#340=VECTOR('',#1423,25.);
#341=VECTOR('',#1426,2.15);
#342=VECTOR('',#1429,2.15);
#343=VECTOR('',#1432,2.65000000000001);
#344=VECTOR('',#1435,2.65);
#345=CIRCLE('',#1013,10.);
#346=CIRCLE('',#1014,10.);
#347=CIRCLE('',#1016,139.330061088944);
#348=CIRCLE('',#1017,139.330061088944);
#349=CIRCLE('',#1019,3.);
#350=CIRCLE('',#1020,3.);
#351=CIRCLE('',#1021,10.);
#352=CIRCLE('',#1022,139.330061088944);
#353=CIRCLE('',#1023,10.);
#354=CIRCLE('',#1024,10.);
#355=CIRCLE('',#1025,10.);
#356=CIRCLE('',#1026,10.);
#357=CIRCLE('',#1027,50.);
#358=CIRCLE('',#1028,10.);
#359=CIRCLE('',#1029,2.15);
#360=CIRCLE('',#1030,1.65);
#361=CIRCLE('',#1031,2.15);
#362=CIRCLE('',#1032,2.15000000000001);
#363=CIRCLE('',#1033,1.65);
#364=CIRCLE('',#1034,1.65);
#365=CIRCLE('',#1035,1.65);
#366=CIRCLE('',#1036,2.65);
#367=CIRCLE('',#1037,2.15);
#368=CIRCLE('',#1038,1.65);
#369=CIRCLE('',#1039,2.15);
#370=CIRCLE('',#1040,2.15);
#371=CIRCLE('',#1041,2.65);
#372=CIRCLE('',#1042,2.15);
#373=CIRCLE('',#1043,2.15);
#374=CIRCLE('',#1044,1.65);
#375=CIRCLE('',#1045,24.);
#376=CIRCLE('',#1046,2.15);
#377=CIRCLE('',#1047,2.15);
#378=CIRCLE('',#1048,2.65000000000001);
#379=CIRCLE('',#1049,2.65);
#380=CIRCLE('',#1050,2.65);
#381=CIRCLE('',#1051,2.65);
#382=CIRCLE('',#1052,2.65);
#383=CIRCLE('',#1053,2.65);
#384=CIRCLE('',#1055,10.);
#385=CIRCLE('',#1058,10.);
#386=CIRCLE('',#1060,139.330061088944);
#387=CIRCLE('',#1062,10.);
#388=CIRCLE('',#1067,3.);
#389=CIRCLE('',#1068,3.);
#390=CIRCLE('',#1069,10.);
#391=CIRCLE('',#1070,50.);
#392=CIRCLE('',#1071,10.);
#393=CIRCLE('',#1072,10.);
#394=CIRCLE('',#1073,2.15);
#395=CIRCLE('',#1074,1.65);
#396=CIRCLE('',#1075,2.15);
#397=CIRCLE('',#1076,2.15000000000001);
#398=CIRCLE('',#1077,1.65);
#399=CIRCLE('',#1078,1.65);
#400=CIRCLE('',#1079,1.65);
#401=CIRCLE('',#1080,2.65);
#402=CIRCLE('',#1081,2.15);
#403=CIRCLE('',#1082,1.65);
#404=CIRCLE('',#1083,2.15);
#405=CIRCLE('',#1084,2.15);
#406=CIRCLE('',#1085,2.65);
#407=CIRCLE('',#1086,2.15);
#408=CIRCLE('',#1087,2.15);
#409=CIRCLE('',#1088,1.65);
#410=CIRCLE('',#1089,24.);
#411=CIRCLE('',#1090,2.15);
#412=CIRCLE('',#1091,2.15);
#413=CIRCLE('',#1092,2.65000000000001);
#414=CIRCLE('',#1093,2.65);
#415=CIRCLE('',#1094,2.65);
#416=CIRCLE('',#1095,2.65);
#417=CIRCLE('',#1096,2.65);
#418=CIRCLE('',#1097,2.65);
#419=VERTEX_POINT('',#1440);
#420=VERTEX_POINT('',#1441);
#421=VERTEX_POINT('',#1443);
#422=VERTEX_POINT('',#1445);
#423=VERTEX_POINT('',#1449);
#424=VERTEX_POINT('',#1451);
#425=VERTEX_POINT('',#1455);
#426=VERTEX_POINT('',#1457);
#427=VERTEX_POINT('',#1459);
#428=VERTEX_POINT('',#1461);
#429=VERTEX_POINT('',#1463);
#430=VERTEX_POINT('',#1465);
#431=VERTEX_POINT('',#1467);
#432=VERTEX_POINT('',#1469);
#433=VERTEX_POINT('',#1471);
#434=VERTEX_POINT('',#1473);
#435=VERTEX_POINT('',#1475);
#436=VERTEX_POINT('',#1478);
#437=VERTEX_POINT('',#1479);
#438=VERTEX_POINT('',#1481);
#439=VERTEX_POINT('',#1483);
#440=VERTEX_POINT('',#1485);
#441=VERTEX_POINT('',#1487);
#442=VERTEX_POINT('',#1490);
#443=VERTEX_POINT('',#1492);
#444=VERTEX_POINT('',#1494);
#445=VERTEX_POINT('',#1496);
#446=VERTEX_POINT('',#1498);
#447=VERTEX_POINT('',#1500);
#448=VERTEX_POINT('',#1502);
#449=VERTEX_POINT('',#1504);
#450=VERTEX_POINT('',#1506);
#451=VERTEX_POINT('',#1508);
#452=VERTEX_POINT('',#1510);
#453=VERTEX_POINT('',#1512);
#454=VERTEX_POINT('',#1514);
#455=VERTEX_POINT('',#1516);
#456=VERTEX_POINT('',#1518);
#457=VERTEX_POINT('',#1520);
#458=VERTEX_POINT('',#1522);
#459=VERTEX_POINT('',#1524);
#460=VERTEX_POINT('',#1526);
#461=VERTEX_POINT('',#1528);
#462=VERTEX_POINT('',#1530);
#463=VERTEX_POINT('',#1532);
#464=VERTEX_POINT('',#1534);
#465=VERTEX_POINT('',#1536);
#466=VERTEX_POINT('',#1538);
#467=VERTEX_POINT('',#1541);
#468=VERTEX_POINT('',#1545);
#469=VERTEX_POINT('',#1549);
#470=VERTEX_POINT('',#1550);
#471=VERTEX_POINT('',#1555);
#472=VERTEX_POINT('',#1559);
#473=VERTEX_POINT('',#1563);
#474=VERTEX_POINT('',#1567);
#475=VERTEX_POINT('',#1571);
#476=VERTEX_POINT('',#1576);
#477=VERTEX_POINT('',#1578);
#478=VERTEX_POINT('',#1581);
#479=VERTEX_POINT('',#1582);
#480=VERTEX_POINT('',#1584);
#481=VERTEX_POINT('',#1586);
#482=VERTEX_POINT('',#1588);
#483=VERTEX_POINT('',#1590);
#484=VERTEX_POINT('',#1593);
#485=VERTEX_POINT('',#1595);
#486=VERTEX_POINT('',#1597);
#487=VERTEX_POINT('',#1599);
#488=VERTEX_POINT('',#1601);
#489=VERTEX_POINT('',#1603);
#490=VERTEX_POINT('',#1605);
#491=VERTEX_POINT('',#1607);
#492=VERTEX_POINT('',#1609);
#493=VERTEX_POINT('',#1611);
#494=VERTEX_POINT('',#1613);
#495=VERTEX_POINT('',#1615);
#496=VERTEX_POINT('',#1617);
#497=VERTEX_POINT('',#1619);
#498=VERTEX_POINT('',#1621);
#499=VERTEX_POINT('',#1623);
#500=VERTEX_POINT('',#1625);
#501=VERTEX_POINT('',#1627);
#502=VERTEX_POINT('',#1629);
#503=VERTEX_POINT('',#1631);
#504=VERTEX_POINT('',#1633);
#505=VERTEX_POINT('',#1635);
#506=VERTEX_POINT('',#1637);
#507=VERTEX_POINT('',#1639);
#508=VERTEX_POINT('',#1641);
#509=EDGE_CURVE('',#419,#420,#345,.T.);
#510=EDGE_CURVE('',#420,#421,#223,.T.);
#511=EDGE_CURVE('',#421,#422,#346,.T.);
#512=EDGE_CURVE('',#422,#419,#224,.T.);
#513=EDGE_CURVE('',#423,#422,#347,.T.);
#514=EDGE_CURVE('',#424,#423,#225,.T.);
#515=EDGE_CURVE('',#419,#424,#348,.T.);
#516=EDGE_CURVE('',#421,#425,#226,.T.);
#517=EDGE_CURVE('',#426,#425,#349,.T.);
#518=EDGE_CURVE('',#426,#427,#227,.T.);
#519=EDGE_CURVE('',#428,#427,#350,.T.);
#520=EDGE_CURVE('',#428,#429,#228,.T.);
#521=EDGE_CURVE('',#430,#429,#351,.T.);
#522=EDGE_CURVE('',#430,#431,#352,.T.);
#523=EDGE_CURVE('',#432,#431,#353,.T.);
#524=EDGE_CURVE('',#432,#433,#229,.T.);
#525=EDGE_CURVE('',#433,#434,#230,.T.);
#526=EDGE_CURVE('',#434,#435,#231,.T.);
#527=EDGE_CURVE('',#423,#435,#354,.T.);
#528=EDGE_CURVE('',#436,#437,#232,.T.);
#529=EDGE_CURVE('',#438,#437,#355,.T.);
#530=EDGE_CURVE('',#438,#439,#233,.T.);
#531=EDGE_CURVE('',#440,#439,#356,.T.);
#532=EDGE_CURVE('',#440,#441,#357,.T.);
#533=EDGE_CURVE('',#436,#441,#358,.T.);
#534=EDGE_CURVE('',#442,#442,#359,.T.);
#535=EDGE_CURVE('',#443,#443,#360,.T.);
#536=EDGE_CURVE('',#444,#444,#361,.T.);
#537=EDGE_CURVE('',#445,#445,#362,.T.);
#538=EDGE_CURVE('',#446,#446,#363,.T.);
#539=EDGE_CURVE('',#447,#447,#364,.T.);
#540=EDGE_CURVE('',#448,#448,#365,.T.);
#541=EDGE_CURVE('',#449,#449,#366,.T.);
#542=EDGE_CURVE('',#450,#450,#367,.T.);
#543=EDGE_CURVE('',#451,#451,#368,.T.);
#544=EDGE_CURVE('',#452,#452,#369,.T.);
#545=EDGE_CURVE('',#453,#453,#370,.T.);
#546=EDGE_CURVE('',#454,#454,#371,.T.);
#547=EDGE_CURVE('',#455,#455,#372,.T.);
#548=EDGE_CURVE('',#456,#456,#373,.T.);
#549=EDGE_CURVE('',#457,#457,#374,.T.);
#550=EDGE_CURVE('',#458,#458,#375,.F.);
#551=EDGE_CURVE('',#459,#459,#376,.T.);
#552=EDGE_CURVE('',#460,#460,#377,.T.);
#553=EDGE_CURVE('',#461,#461,#378,.T.);
#554=EDGE_CURVE('',#462,#462,#379,.T.);
#555=EDGE_CURVE('',#463,#463,#380,.T.);
#556=EDGE_CURVE('',#464,#464,#381,.T.);
#557=EDGE_CURVE('',#465,#465,#382,.T.);
#558=EDGE_CURVE('',#466,#466,#383,.T.);
#559=EDGE_CURVE('',#435,#467,#234,.T.);
#560=EDGE_CURVE('',#467,#424,#384,.T.);
#561=EDGE_CURVE('',#468,#434,#235,.T.);
#562=EDGE_CURVE('',#467,#468,#236,.T.);
#563=EDGE_CURVE('',#469,#470,#385,.T.);
#564=EDGE_CURVE('',#470,#432,#237,.T.);
#565=EDGE_CURVE('',#431,#469,#238,.T.);
#566=EDGE_CURVE('',#471,#430,#239,.T.);
#567=EDGE_CURVE('',#469,#471,#386,.T.);
#568=EDGE_CURVE('',#429,#472,#240,.T.);
#569=EDGE_CURVE('',#472,#471,#387,.T.);
#570=EDGE_CURVE('',#473,#420,#241,.T.);
#571=EDGE_CURVE('',#425,#473,#242,.T.);
#572=EDGE_CURVE('',#474,#428,#243,.T.);
#573=EDGE_CURVE('',#474,#472,#244,.T.);
#574=EDGE_CURVE('',#470,#475,#245,.T.);
#575=EDGE_CURVE('',#475,#433,#246,.T.);
#576=EDGE_CURVE('',#475,#468,#247,.T.);
#577=EDGE_CURVE('',#476,#474,#388,.T.);
#578=EDGE_CURVE('',#477,#476,#248,.T.);
#579=EDGE_CURVE('',#473,#477,#389,.T.);
#580=EDGE_CURVE('',#478,#479,#249,.T.);
#581=EDGE_CURVE('',#480,#479,#390,.T.);
#582=EDGE_CURVE('',#480,#481,#391,.T.);
#583=EDGE_CURVE('',#482,#481,#392,.T.);
#584=EDGE_CURVE('',#482,#483,#250,.T.);
#585=EDGE_CURVE('',#478,#483,#393,.T.);
#586=EDGE_CURVE('',#484,#484,#394,.T.);
#587=EDGE_CURVE('',#485,#485,#395,.T.);
#588=EDGE_CURVE('',#486,#486,#396,.T.);
#589=EDGE_CURVE('',#487,#487,#397,.T.);
#590=EDGE_CURVE('',#488,#488,#398,.T.);
#591=EDGE_CURVE('',#489,#489,#399,.T.);
#592=EDGE_CURVE('',#490,#490,#400,.T.);
#593=EDGE_CURVE('',#491,#491,#401,.T.);
#594=EDGE_CURVE('',#492,#492,#402,.T.);
#595=EDGE_CURVE('',#493,#493,#403,.T.);
#596=EDGE_CURVE('',#494,#494,#404,.T.);
#597=EDGE_CURVE('',#495,#495,#405,.T.);
#598=EDGE_CURVE('',#496,#496,#406,.T.);
#599=EDGE_CURVE('',#497,#497,#407,.T.);
#600=EDGE_CURVE('',#498,#498,#408,.T.);
#601=EDGE_CURVE('',#499,#499,#409,.T.);
#602=EDGE_CURVE('',#500,#500,#410,.F.);
#603=EDGE_CURVE('',#501,#501,#411,.T.);
#604=EDGE_CURVE('',#502,#502,#412,.T.);
#605=EDGE_CURVE('',#503,#503,#413,.T.);
#606=EDGE_CURVE('',#504,#504,#414,.T.);
#607=EDGE_CURVE('',#505,#505,#415,.T.);
#608=EDGE_CURVE('',#506,#506,#416,.T.);
#609=EDGE_CURVE('',#507,#507,#417,.T.);
#610=EDGE_CURVE('',#508,#508,#418,.T.);
#611=EDGE_CURVE('',#441,#480,#251,.T.);
#612=EDGE_CURVE('',#479,#436,#252,.T.);
#613=EDGE_CURVE('',#481,#440,#253,.T.);
#614=EDGE_CURVE('',#439,#482,#254,.T.);
#615=EDGE_CURVE('',#483,#438,#255,.T.);
#616=EDGE_CURVE('',#437,#478,#256,.T.);
#617=EDGE_CURVE('',#466,#508,#257,.T.);
#618=EDGE_CURVE('',#465,#507,#258,.T.);
#619=EDGE_CURVE('',#464,#506,#259,.T.);
#620=EDGE_CURVE('',#463,#505,#260,.T.);
#621=EDGE_CURVE('',#427,#476,#261,.T.);
#622=EDGE_CURVE('',#477,#426,#262,.T.);
#623=EDGE_CURVE('',#442,#484,#263,.T.);
#624=EDGE_CURVE('',#443,#485,#264,.T.);
#625=EDGE_CURVE('',#444,#486,#265,.T.);
#626=EDGE_CURVE('',#445,#487,#266,.T.);
#627=EDGE_CURVE('',#446,#488,#267,.T.);
#628=EDGE_CURVE('',#447,#489,#268,.T.);
#629=EDGE_CURVE('',#448,#490,#269,.T.);
#630=EDGE_CURVE('',#449,#491,#270,.T.);
#631=EDGE_CURVE('',#450,#492,#271,.T.);
#632=EDGE_CURVE('',#451,#493,#272,.T.);
#633=EDGE_CURVE('',#452,#494,#273,.T.);
#634=EDGE_CURVE('',#453,#495,#274,.T.);
#635=EDGE_CURVE('',#454,#496,#275,.T.);
#636=EDGE_CURVE('',#455,#497,#276,.T.);
#637=EDGE_CURVE('',#456,#498,#277,.T.);
#638=EDGE_CURVE('',#457,#499,#278,.T.);
#639=EDGE_CURVE('',#458,#500,#279,.T.);
#640=EDGE_CURVE('',#459,#501,#280,.T.);
#641=EDGE_CURVE('',#460,#502,#281,.T.);
#642=EDGE_CURVE('',#461,#503,#282,.T.);
#643=EDGE_CURVE('',#462,#504,#283,.T.);
#644=ORIENTED_EDGE('',*,*,#509,.T.);
#645=ORIENTED_EDGE('',*,*,#510,.T.);
#646=ORIENTED_EDGE('',*,*,#511,.T.);
#647=ORIENTED_EDGE('',*,*,#512,.T.);
#648=ORIENTED_EDGE('',*,*,#512,.F.);
#649=ORIENTED_EDGE('',*,*,#513,.F.);
#650=ORIENTED_EDGE('',*,*,#514,.F.);
#651=ORIENTED_EDGE('',*,*,#515,.F.);
#652=ORIENTED_EDGE('',*,*,#511,.F.);
#653=ORIENTED_EDGE('',*,*,#516,.T.);
#654=ORIENTED_EDGE('',*,*,#517,.F.);
#655=ORIENTED_EDGE('',*,*,#518,.T.);
#656=ORIENTED_EDGE('',*,*,#519,.F.);
#657=ORIENTED_EDGE('',*,*,#520,.T.);
#658=ORIENTED_EDGE('',*,*,#521,.F.);
#659=ORIENTED_EDGE('',*,*,#522,.T.);
#660=ORIENTED_EDGE('',*,*,#523,.F.);
#661=ORIENTED_EDGE('',*,*,#524,.T.);
#662=ORIENTED_EDGE('',*,*,#525,.T.);
#663=ORIENTED_EDGE('',*,*,#526,.T.);
#664=ORIENTED_EDGE('',*,*,#527,.F.);
#665=ORIENTED_EDGE('',*,*,#513,.T.);
#666=ORIENTED_EDGE('',*,*,#528,.T.);
#667=ORIENTED_EDGE('',*,*,#529,.F.);
#668=ORIENTED_EDGE('',*,*,#530,.T.);
#669=ORIENTED_EDGE('',*,*,#531,.F.);
#670=ORIENTED_EDGE('',*,*,#532,.T.);
#671=ORIENTED_EDGE('',*,*,#533,.F.);
#672=ORIENTED_EDGE('',*,*,#534,.T.);
#673=ORIENTED_EDGE('',*,*,#535,.T.);
#674=ORIENTED_EDGE('',*,*,#536,.T.);
#675=ORIENTED_EDGE('',*,*,#537,.T.);
#676=ORIENTED_EDGE('',*,*,#538,.T.);
#677=ORIENTED_EDGE('',*,*,#539,.T.);
#678=ORIENTED_EDGE('',*,*,#540,.T.);
#679=ORIENTED_EDGE('',*,*,#541,.T.);
#680=ORIENTED_EDGE('',*,*,#542,.T.);
#681=ORIENTED_EDGE('',*,*,#543,.T.);
#682=ORIENTED_EDGE('',*,*,#544,.T.);
#683=ORIENTED_EDGE('',*,*,#545,.T.);
#684=ORIENTED_EDGE('',*,*,#546,.T.);
#685=ORIENTED_EDGE('',*,*,#547,.T.);
#686=ORIENTED_EDGE('',*,*,#548,.T.);
#687=ORIENTED_EDGE('',*,*,#549,.T.);
#688=ORIENTED_EDGE('',*,*,#550,.T.);
#689=ORIENTED_EDGE('',*,*,#551,.T.);
#690=ORIENTED_EDGE('',*,*,#552,.T.);
#691=ORIENTED_EDGE('',*,*,#553,.T.);
#692=ORIENTED_EDGE('',*,*,#554,.T.);
#693=ORIENTED_EDGE('',*,*,#555,.T.);
#694=ORIENTED_EDGE('',*,*,#556,.T.);
#695=ORIENTED_EDGE('',*,*,#557,.T.);
#696=ORIENTED_EDGE('',*,*,#558,.T.);
#697=ORIENTED_EDGE('',*,*,#527,.T.);
#698=ORIENTED_EDGE('',*,*,#559,.T.);
#699=ORIENTED_EDGE('',*,*,#560,.T.);
#700=ORIENTED_EDGE('',*,*,#514,.T.);
#701=ORIENTED_EDGE('',*,*,#559,.F.);
#702=ORIENTED_EDGE('',*,*,#526,.F.);
#703=ORIENTED_EDGE('',*,*,#561,.F.);
#704=ORIENTED_EDGE('',*,*,#562,.F.);
#705=ORIENTED_EDGE('',*,*,#563,.T.);
#706=ORIENTED_EDGE('',*,*,#564,.T.);
#707=ORIENTED_EDGE('',*,*,#523,.T.);
#708=ORIENTED_EDGE('',*,*,#565,.T.);
#709=ORIENTED_EDGE('',*,*,#565,.F.);
#710=ORIENTED_EDGE('',*,*,#522,.F.);
#711=ORIENTED_EDGE('',*,*,#566,.F.);
#712=ORIENTED_EDGE('',*,*,#567,.F.);
#713=ORIENTED_EDGE('',*,*,#521,.T.);
#714=ORIENTED_EDGE('',*,*,#568,.T.);
#715=ORIENTED_EDGE('',*,*,#569,.T.);
#716=ORIENTED_EDGE('',*,*,#566,.T.);
#717=ORIENTED_EDGE('',*,*,#510,.F.);
#718=ORIENTED_EDGE('',*,*,#570,.F.);
#719=ORIENTED_EDGE('',*,*,#571,.F.);
#720=ORIENTED_EDGE('',*,*,#516,.F.);
#721=ORIENTED_EDGE('',*,*,#568,.F.);
#722=ORIENTED_EDGE('',*,*,#520,.F.);
#723=ORIENTED_EDGE('',*,*,#572,.F.);
#724=ORIENTED_EDGE('',*,*,#573,.T.);
#725=ORIENTED_EDGE('',*,*,#564,.F.);
#726=ORIENTED_EDGE('',*,*,#574,.T.);
#727=ORIENTED_EDGE('',*,*,#575,.T.);
#728=ORIENTED_EDGE('',*,*,#524,.F.);
#729=ORIENTED_EDGE('',*,*,#509,.F.);
#730=ORIENTED_EDGE('',*,*,#515,.T.);
#731=ORIENTED_EDGE('',*,*,#560,.F.);
#732=ORIENTED_EDGE('',*,*,#562,.T.);
#733=ORIENTED_EDGE('',*,*,#576,.F.);
#734=ORIENTED_EDGE('',*,*,#574,.F.);
#735=ORIENTED_EDGE('',*,*,#563,.F.);
#736=ORIENTED_EDGE('',*,*,#567,.T.);
#737=ORIENTED_EDGE('',*,*,#569,.F.);
#738=ORIENTED_EDGE('',*,*,#573,.F.);
#739=ORIENTED_EDGE('',*,*,#577,.F.);
#740=ORIENTED_EDGE('',*,*,#578,.F.);
#741=ORIENTED_EDGE('',*,*,#579,.F.);
#742=ORIENTED_EDGE('',*,*,#570,.T.);
#743=ORIENTED_EDGE('',*,*,#580,.T.);
#744=ORIENTED_EDGE('',*,*,#581,.F.);
#745=ORIENTED_EDGE('',*,*,#582,.T.);
#746=ORIENTED_EDGE('',*,*,#583,.F.);
#747=ORIENTED_EDGE('',*,*,#584,.T.);
#748=ORIENTED_EDGE('',*,*,#585,.F.);
#749=ORIENTED_EDGE('',*,*,#586,.F.);
#750=ORIENTED_EDGE('',*,*,#587,.F.);
#751=ORIENTED_EDGE('',*,*,#588,.F.);
#752=ORIENTED_EDGE('',*,*,#589,.F.);
#753=ORIENTED_EDGE('',*,*,#590,.F.);
#754=ORIENTED_EDGE('',*,*,#591,.F.);
#755=ORIENTED_EDGE('',*,*,#592,.F.);
#756=ORIENTED_EDGE('',*,*,#593,.F.);
#757=ORIENTED_EDGE('',*,*,#594,.F.);
#758=ORIENTED_EDGE('',*,*,#595,.F.);
#759=ORIENTED_EDGE('',*,*,#596,.F.);
#760=ORIENTED_EDGE('',*,*,#597,.F.);
#761=ORIENTED_EDGE('',*,*,#598,.F.);
#762=ORIENTED_EDGE('',*,*,#599,.F.);
#763=ORIENTED_EDGE('',*,*,#600,.F.);
#764=ORIENTED_EDGE('',*,*,#601,.F.);
#765=ORIENTED_EDGE('',*,*,#602,.F.);
#766=ORIENTED_EDGE('',*,*,#603,.F.);
#767=ORIENTED_EDGE('',*,*,#604,.F.);
#768=ORIENTED_EDGE('',*,*,#605,.F.);
#769=ORIENTED_EDGE('',*,*,#606,.F.);
#770=ORIENTED_EDGE('',*,*,#607,.T.);
#771=ORIENTED_EDGE('',*,*,#608,.T.);
#772=ORIENTED_EDGE('',*,*,#609,.T.);
#773=ORIENTED_EDGE('',*,*,#610,.T.);
#774=ORIENTED_EDGE('',*,*,#533,.T.);
#775=ORIENTED_EDGE('',*,*,#611,.T.);
#776=ORIENTED_EDGE('',*,*,#581,.T.);
#777=ORIENTED_EDGE('',*,*,#612,.T.);
#778=ORIENTED_EDGE('',*,*,#611,.F.);
#779=ORIENTED_EDGE('',*,*,#532,.F.);
#780=ORIENTED_EDGE('',*,*,#613,.F.);
#781=ORIENTED_EDGE('',*,*,#582,.F.);
#782=ORIENTED_EDGE('',*,*,#531,.T.);
#783=ORIENTED_EDGE('',*,*,#614,.T.);
#784=ORIENTED_EDGE('',*,*,#583,.T.);
#785=ORIENTED_EDGE('',*,*,#613,.T.);
#786=ORIENTED_EDGE('',*,*,#614,.F.);
#787=ORIENTED_EDGE('',*,*,#530,.F.);
#788=ORIENTED_EDGE('',*,*,#615,.F.);
#789=ORIENTED_EDGE('',*,*,#584,.F.);
#790=ORIENTED_EDGE('',*,*,#529,.T.);
#791=ORIENTED_EDGE('',*,*,#616,.T.);
#792=ORIENTED_EDGE('',*,*,#585,.T.);
#793=ORIENTED_EDGE('',*,*,#615,.T.);
#794=ORIENTED_EDGE('',*,*,#612,.F.);
#795=ORIENTED_EDGE('',*,*,#580,.F.);
#796=ORIENTED_EDGE('',*,*,#616,.F.);
#797=ORIENTED_EDGE('',*,*,#528,.F.);
#798=ORIENTED_EDGE('',*,*,#558,.F.);
#799=ORIENTED_EDGE('',*,*,#617,.T.);
#800=ORIENTED_EDGE('',*,*,#610,.F.);
#801=ORIENTED_EDGE('',*,*,#617,.F.);
#802=ORIENTED_EDGE('',*,*,#557,.F.);
#803=ORIENTED_EDGE('',*,*,#618,.T.);
#804=ORIENTED_EDGE('',*,*,#609,.F.);
#805=ORIENTED_EDGE('',*,*,#618,.F.);
#806=ORIENTED_EDGE('',*,*,#556,.F.);
#807=ORIENTED_EDGE('',*,*,#619,.T.);
#808=ORIENTED_EDGE('',*,*,#608,.F.);
#809=ORIENTED_EDGE('',*,*,#619,.F.);
#810=ORIENTED_EDGE('',*,*,#555,.F.);
#811=ORIENTED_EDGE('',*,*,#620,.T.);
#812=ORIENTED_EDGE('',*,*,#607,.F.);
#813=ORIENTED_EDGE('',*,*,#620,.F.);
#814=ORIENTED_EDGE('',*,*,#519,.T.);
#815=ORIENTED_EDGE('',*,*,#621,.T.);
#816=ORIENTED_EDGE('',*,*,#577,.T.);
#817=ORIENTED_EDGE('',*,*,#572,.T.);
#818=ORIENTED_EDGE('',*,*,#621,.F.);
#819=ORIENTED_EDGE('',*,*,#518,.F.);
#820=ORIENTED_EDGE('',*,*,#622,.F.);
#821=ORIENTED_EDGE('',*,*,#578,.T.);
#822=ORIENTED_EDGE('',*,*,#517,.T.);
#823=ORIENTED_EDGE('',*,*,#571,.T.);
#824=ORIENTED_EDGE('',*,*,#579,.T.);
#825=ORIENTED_EDGE('',*,*,#622,.T.);
#826=ORIENTED_EDGE('',*,*,#534,.F.);
#827=ORIENTED_EDGE('',*,*,#623,.T.);
#828=ORIENTED_EDGE('',*,*,#586,.T.);
#829=ORIENTED_EDGE('',*,*,#623,.F.);
#830=ORIENTED_EDGE('',*,*,#535,.F.);
#831=ORIENTED_EDGE('',*,*,#624,.T.);
#832=ORIENTED_EDGE('',*,*,#587,.T.);
#833=ORIENTED_EDGE('',*,*,#624,.F.);
#834=ORIENTED_EDGE('',*,*,#536,.F.);
#835=ORIENTED_EDGE('',*,*,#625,.T.);
#836=ORIENTED_EDGE('',*,*,#588,.T.);
#837=ORIENTED_EDGE('',*,*,#625,.F.);
#838=ORIENTED_EDGE('',*,*,#537,.F.);
#839=ORIENTED_EDGE('',*,*,#626,.T.);
#840=ORIENTED_EDGE('',*,*,#589,.T.);
#841=ORIENTED_EDGE('',*,*,#626,.F.);
#842=ORIENTED_EDGE('',*,*,#538,.F.);
#843=ORIENTED_EDGE('',*,*,#627,.T.);
#844=ORIENTED_EDGE('',*,*,#590,.T.);
#845=ORIENTED_EDGE('',*,*,#627,.F.);
#846=ORIENTED_EDGE('',*,*,#539,.F.);
#847=ORIENTED_EDGE('',*,*,#628,.T.);
#848=ORIENTED_EDGE('',*,*,#591,.T.);
#849=ORIENTED_EDGE('',*,*,#628,.F.);
#850=ORIENTED_EDGE('',*,*,#540,.F.);
#851=ORIENTED_EDGE('',*,*,#629,.T.);
#852=ORIENTED_EDGE('',*,*,#592,.T.);
#853=ORIENTED_EDGE('',*,*,#629,.F.);
#854=ORIENTED_EDGE('',*,*,#541,.F.);
#855=ORIENTED_EDGE('',*,*,#630,.T.);
#856=ORIENTED_EDGE('',*,*,#593,.T.);
#857=ORIENTED_EDGE('',*,*,#630,.F.);
#858=ORIENTED_EDGE('',*,*,#542,.F.);
#859=ORIENTED_EDGE('',*,*,#631,.T.);
#860=ORIENTED_EDGE('',*,*,#594,.T.);
#861=ORIENTED_EDGE('',*,*,#631,.F.);
#862=ORIENTED_EDGE('',*,*,#543,.F.);
#863=ORIENTED_EDGE('',*,*,#632,.T.);
#864=ORIENTED_EDGE('',*,*,#595,.T.);
#865=ORIENTED_EDGE('',*,*,#632,.F.);
#866=ORIENTED_EDGE('',*,*,#544,.F.);
#867=ORIENTED_EDGE('',*,*,#633,.T.);
#868=ORIENTED_EDGE('',*,*,#596,.T.);
#869=ORIENTED_EDGE('',*,*,#633,.F.);
#870=ORIENTED_EDGE('',*,*,#545,.F.);
#871=ORIENTED_EDGE('',*,*,#634,.T.);
#872=ORIENTED_EDGE('',*,*,#597,.T.);
#873=ORIENTED_EDGE('',*,*,#634,.F.);
#874=ORIENTED_EDGE('',*,*,#546,.F.);
#875=ORIENTED_EDGE('',*,*,#635,.T.);
#876=ORIENTED_EDGE('',*,*,#598,.T.);
#877=ORIENTED_EDGE('',*,*,#635,.F.);
#878=ORIENTED_EDGE('',*,*,#547,.F.);
#879=ORIENTED_EDGE('',*,*,#636,.T.);
#880=ORIENTED_EDGE('',*,*,#599,.T.);
#881=ORIENTED_EDGE('',*,*,#636,.F.);
#882=ORIENTED_EDGE('',*,*,#548,.F.);
#883=ORIENTED_EDGE('',*,*,#637,.T.);
#884=ORIENTED_EDGE('',*,*,#600,.T.);
#885=ORIENTED_EDGE('',*,*,#637,.F.);
#886=ORIENTED_EDGE('',*,*,#549,.F.);
#887=ORIENTED_EDGE('',*,*,#638,.T.);
#888=ORIENTED_EDGE('',*,*,#601,.T.);
#889=ORIENTED_EDGE('',*,*,#638,.F.);
#890=ORIENTED_EDGE('',*,*,#550,.F.);
#891=ORIENTED_EDGE('',*,*,#639,.T.);
#892=ORIENTED_EDGE('',*,*,#602,.T.);
#893=ORIENTED_EDGE('',*,*,#639,.F.);
#894=ORIENTED_EDGE('',*,*,#551,.F.);
#895=ORIENTED_EDGE('',*,*,#640,.T.);
#896=ORIENTED_EDGE('',*,*,#603,.T.);
#897=ORIENTED_EDGE('',*,*,#640,.F.);
#898=ORIENTED_EDGE('',*,*,#552,.F.);
#899=ORIENTED_EDGE('',*,*,#641,.T.);
#900=ORIENTED_EDGE('',*,*,#604,.T.);
#901=ORIENTED_EDGE('',*,*,#641,.F.);
#902=ORIENTED_EDGE('',*,*,#553,.F.);
#903=ORIENTED_EDGE('',*,*,#642,.T.);
#904=ORIENTED_EDGE('',*,*,#605,.T.);
#905=ORIENTED_EDGE('',*,*,#642,.F.);
#906=ORIENTED_EDGE('',*,*,#554,.F.);
#907=ORIENTED_EDGE('',*,*,#643,.T.);
#908=ORIENTED_EDGE('',*,*,#606,.T.);
#909=ORIENTED_EDGE('',*,*,#643,.F.);
#910=ORIENTED_EDGE('',*,*,#576,.T.);
#911=ORIENTED_EDGE('',*,*,#561,.T.);
#912=ORIENTED_EDGE('',*,*,#525,.F.);
#913=ORIENTED_EDGE('',*,*,#575,.F.);
#914=CYLINDRICAL_SURFACE('',#1012,10.);
#915=CYLINDRICAL_SURFACE('',#1015,139.330061088944);
#916=CYLINDRICAL_SURFACE('',#1054,10.);
#917=CYLINDRICAL_SURFACE('',#1057,10.);
#918=CYLINDRICAL_SURFACE('',#1059,139.330061088944);
#919=CYLINDRICAL_SURFACE('',#1061,10.);
#920=CYLINDRICAL_SURFACE('',#1098,10.);
#921=CYLINDRICAL_SURFACE('',#1099,50.);
#922=CYLINDRICAL_SURFACE('',#1100,10.);
#923=CYLINDRICAL_SURFACE('',#1102,10.);
#924=CYLINDRICAL_SURFACE('',#1104,2.65);
#925=CYLINDRICAL_SURFACE('',#1105,2.65);
#926=CYLINDRICAL_SURFACE('',#1106,2.65);
#927=CYLINDRICAL_SURFACE('',#1107,2.65);
#928=CYLINDRICAL_SURFACE('',#1108,3.);
#929=CYLINDRICAL_SURFACE('',#1110,3.);
#930=CYLINDRICAL_SURFACE('',#1111,2.15);
#931=CYLINDRICAL_SURFACE('',#1112,1.65);
#932=CYLINDRICAL_SURFACE('',#1113,2.15);
#933=CYLINDRICAL_SURFACE('',#1114,2.15000000000001);
#934=CYLINDRICAL_SURFACE('',#1115,1.65);
#935=CYLINDRICAL_SURFACE('',#1116,1.65);
#936=CYLINDRICAL_SURFACE('',#1117,1.65);
#937=CYLINDRICAL_SURFACE('',#1118,2.65);
#938=CYLINDRICAL_SURFACE('',#1119,2.15);
#939=CYLINDRICAL_SURFACE('',#1120,1.65);
#940=CYLINDRICAL_SURFACE('',#1121,2.15);
#941=CYLINDRICAL_SURFACE('',#1122,2.15);
#942=CYLINDRICAL_SURFACE('',#1123,2.65);
#943=CYLINDRICAL_SURFACE('',#1124,2.15);
#944=CYLINDRICAL_SURFACE('',#1125,2.15);
#945=CYLINDRICAL_SURFACE('',#1126,1.65);
#946=CYLINDRICAL_SURFACE('',#1127,24.);
#947=CYLINDRICAL_SURFACE('',#1128,2.15);
#948=CYLINDRICAL_SURFACE('',#1129,2.15);
#949=CYLINDRICAL_SURFACE('',#1130,2.65000000000001);
#950=CYLINDRICAL_SURFACE('',#1131,2.65);
#951=ADVANCED_FACE('',(#77),#914,.T.);
#952=ADVANCED_FACE('',(#78),#915,.F.);
#953=ADVANCED_FACE('',(#79,#15,#16,#17,#18,#19,#20,#21,#22,#23,#24,#25,
#26,#27,#28,#29,#30,#31,#32,#33,#34,#35,#36,#37,#38,#39,#40),#67,.T.);
#954=ADVANCED_FACE('',(#80),#916,.T.);
#955=ADVANCED_FACE('',(#81),#68,.T.);
#956=ADVANCED_FACE('',(#82),#917,.T.);
#957=ADVANCED_FACE('',(#83),#918,.F.);
#958=ADVANCED_FACE('',(#84),#919,.T.);
#959=ADVANCED_FACE('',(#85),#69,.T.);
#960=ADVANCED_FACE('',(#86),#70,.T.);
#961=ADVANCED_FACE('',(#87),#71,.T.);
#962=ADVANCED_FACE('',(#88,#41,#42,#43,#44,#45,#46,#47,#48,#49,#50,#51,
#52,#53,#54,#55,#56,#57,#58,#59,#60,#61,#62,#63,#64,#65,#66),#72,.F.);
#963=ADVANCED_FACE('',(#89),#920,.F.);
#964=ADVANCED_FACE('',(#90),#921,.T.);
#965=ADVANCED_FACE('',(#91),#922,.F.);
#966=ADVANCED_FACE('',(#92),#73,.F.);
#967=ADVANCED_FACE('',(#93),#923,.F.);
#968=ADVANCED_FACE('',(#94),#74,.F.);
#969=ADVANCED_FACE('',(#95),#924,.F.);
#970=ADVANCED_FACE('',(#96),#925,.F.);
#971=ADVANCED_FACE('',(#97),#926,.F.);
#972=ADVANCED_FACE('',(#98),#927,.F.);
#973=ADVANCED_FACE('',(#99),#928,.T.);
#974=ADVANCED_FACE('',(#100),#75,.T.);
#975=ADVANCED_FACE('',(#101),#929,.T.);
#976=ADVANCED_FACE('',(#102),#930,.F.);
#977=ADVANCED_FACE('',(#103),#931,.F.);
#978=ADVANCED_FACE('',(#104),#932,.F.);
#979=ADVANCED_FACE('',(#105),#933,.F.);
#980=ADVANCED_FACE('',(#106),#934,.F.);
#981=ADVANCED_FACE('',(#107),#935,.F.);
#982=ADVANCED_FACE('',(#108),#936,.F.);
#983=ADVANCED_FACE('',(#109),#937,.F.);
#984=ADVANCED_FACE('',(#110),#938,.F.);
#985=ADVANCED_FACE('',(#111),#939,.F.);
#986=ADVANCED_FACE('',(#112),#940,.F.);
#987=ADVANCED_FACE('',(#113),#941,.F.);
#988=ADVANCED_FACE('',(#114),#942,.F.);
#989=ADVANCED_FACE('',(#115),#943,.F.);
#990=ADVANCED_FACE('',(#116),#944,.F.);
#991=ADVANCED_FACE('',(#117),#945,.F.);
#992=ADVANCED_FACE('',(#118),#946,.F.);
#993=ADVANCED_FACE('',(#119),#947,.F.);
#994=ADVANCED_FACE('',(#120),#948,.F.);
#995=ADVANCED_FACE('',(#121),#949,.F.);
#996=ADVANCED_FACE('',(#122),#950,.F.);
#997=ADVANCED_FACE('',(#123),#76,.T.);
#998=CLOSED_SHELL('',(#951,#952,#953,#954,#955,#956,#957,#958,#959,#960,
#961,#962,#963,#964,#965,#966,#967,#968,#969,#970,#971,#972,#973,#974,#975,
#976,#977,#978,#979,#980,#981,#982,#983,#984,#985,#986,#987,#988,#989,#990,
#991,#992,#993,#994,#995,#996,#997));
#999=DERIVED_UNIT_ELEMENT(#1001,1.);
#1000=DERIVED_UNIT_ELEMENT(#1716,-3.);
#1001=(
MASS_UNIT()
NAMED_UNIT(*)
SI_UNIT(.KILO.,.GRAM.)
);
#1002=DERIVED_UNIT((#999,#1000));
#1003=MEASURE_REPRESENTATION_ITEM('density measure',
POSITIVE_RATIO_MEASURE(2700.),#1002);
#1004=PROPERTY_DEFINITION_REPRESENTATION(#1009,#1006);
#1005=PROPERTY_DEFINITION_REPRESENTATION(#1010,#1007);
#1006=REPRESENTATION('material name',(#1008),#1713);
#1007=REPRESENTATION('density',(#1003),#1713);
#1008=DESCRIPTIVE_REPRESENTATION_ITEM('Aluminum','Aluminum');
#1009=PROPERTY_DEFINITION('material property','material name',#1723);
#1010=PROPERTY_DEFINITION('material property','density of part',#1723);
#1011=AXIS2_PLACEMENT_3D('',#1438,#1133,#1134);
#1012=AXIS2_PLACEMENT_3D('',#1439,#1135,#1136);
#1013=AXIS2_PLACEMENT_3D('',#1442,#1137,#1138);
#1014=AXIS2_PLACEMENT_3D('',#1446,#1140,#1141);
#1015=AXIS2_PLACEMENT_3D('',#1448,#1143,#1144);
#1016=AXIS2_PLACEMENT_3D('',#1450,#1145,#1146);
#1017=AXIS2_PLACEMENT_3D('',#1453,#1148,#1149);
#1018=AXIS2_PLACEMENT_3D('',#1454,#1150,#1151);
#1019=AXIS2_PLACEMENT_3D('',#1458,#1153,#1154);
#1020=AXIS2_PLACEMENT_3D('',#1462,#1156,#1157);
#1021=AXIS2_PLACEMENT_3D('',#1466,#1159,#1160);
#1022=AXIS2_PLACEMENT_3D('',#1468,#1161,#1162);
#1023=AXIS2_PLACEMENT_3D('',#1470,#1163,#1164);
#1024=AXIS2_PLACEMENT_3D('',#1477,#1168,#1169);
#1025=AXIS2_PLACEMENT_3D('',#1482,#1171,#1172);
#1026=AXIS2_PLACEMENT_3D('',#1486,#1174,#1175);
#1027=AXIS2_PLACEMENT_3D('',#1488,#1176,#1177);
#1028=AXIS2_PLACEMENT_3D('',#1489,#1178,#1179);
#1029=AXIS2_PLACEMENT_3D('',#1491,#1180,#1181);
#1030=AXIS2_PLACEMENT_3D('',#1493,#1182,#1183);
#1031=AXIS2_PLACEMENT_3D('',#1495,#1184,#1185);
#1032=AXIS2_PLACEMENT_3D('',#1497,#1186,#1187);
#1033=AXIS2_PLACEMENT_3D('',#1499,#1188,#1189);
#1034=AXIS2_PLACEMENT_3D('',#1501,#1190,#1191);
#1035=AXIS2_PLACEMENT_3D('',#1503,#1192,#1193);
#1036=AXIS2_PLACEMENT_3D('',#1505,#1194,#1195);
#1037=AXIS2_PLACEMENT_3D('',#1507,#1196,#1197);
#1038=AXIS2_PLACEMENT_3D('',#1509,#1198,#1199);
#1039=AXIS2_PLACEMENT_3D('',#1511,#1200,#1201);
#1040=AXIS2_PLACEMENT_3D('',#1513,#1202,#1203);
#1041=AXIS2_PLACEMENT_3D('',#1515,#1204,#1205);
#1042=AXIS2_PLACEMENT_3D('',#1517,#1206,#1207);
#1043=AXIS2_PLACEMENT_3D('',#1519,#1208,#1209);
#1044=AXIS2_PLACEMENT_3D('',#1521,#1210,#1211);
#1045=AXIS2_PLACEMENT_3D('',#1523,#1212,#1213);
#1046=AXIS2_PLACEMENT_3D('',#1525,#1214,#1215);
#1047=AXIS2_PLACEMENT_3D('',#1527,#1216,#1217);
#1048=AXIS2_PLACEMENT_3D('',#1529,#1218,#1219);
#1049=AXIS2_PLACEMENT_3D('',#1531,#1220,#1221);
#1050=AXIS2_PLACEMENT_3D('',#1533,#1222,#1223);
#1051=AXIS2_PLACEMENT_3D('',#1535,#1224,#1225);
#1052=AXIS2_PLACEMENT_3D('',#1537,#1226,#1227);
#1053=AXIS2_PLACEMENT_3D('',#1539,#1228,#1229);
#1054=AXIS2_PLACEMENT_3D('',#1540,#1230,#1231);
#1055=AXIS2_PLACEMENT_3D('',#1543,#1233,#1234);
#1056=AXIS2_PLACEMENT_3D('',#1544,#1235,#1236);
#1057=AXIS2_PLACEMENT_3D('',#1548,#1239,#1240);
#1058=AXIS2_PLACEMENT_3D('',#1551,#1241,#1242);
#1059=AXIS2_PLACEMENT_3D('',#1554,#1245,#1246);
#1060=AXIS2_PLACEMENT_3D('',#1557,#1248,#1249);
#1061=AXIS2_PLACEMENT_3D('',#1558,#1250,#1251);
#1062=AXIS2_PLACEMENT_3D('',#1561,#1253,#1254);
#1063=AXIS2_PLACEMENT_3D('',#1562,#1255,#1256);
#1064=AXIS2_PLACEMENT_3D('',#1566,#1259,#1260);
#1065=AXIS2_PLACEMENT_3D('',#1570,#1263,#1264);
#1066=AXIS2_PLACEMENT_3D('',#1574,#1267,#1268);
#1067=AXIS2_PLACEMENT_3D('',#1577,#1270,#1271);
#1068=AXIS2_PLACEMENT_3D('',#1580,#1273,#1274);
#1069=AXIS2_PLACEMENT_3D('',#1585,#1276,#1277);
#1070=AXIS2_PLACEMENT_3D('',#1587,#1278,#1279);
#1071=AXIS2_PLACEMENT_3D('',#1589,#1280,#1281);
#1072=AXIS2_PLACEMENT_3D('',#1592,#1283,#1284);
#1073=AXIS2_PLACEMENT_3D('',#1594,#1285,#1286);
#1074=AXIS2_PLACEMENT_3D('',#1596,#1287,#1288);
#1075=AXIS2_PLACEMENT_3D('',#1598,#1289,#1290);
#1076=AXIS2_PLACEMENT_3D('',#1600,#1291,#1292);
#1077=AXIS2_PLACEMENT_3D('',#1602,#1293,#1294);
#1078=AXIS2_PLACEMENT_3D('',#1604,#1295,#1296);
#1079=AXIS2_PLACEMENT_3D('',#1606,#1297,#1298);
#1080=AXIS2_PLACEMENT_3D('',#1608,#1299,#1300);
#1081=AXIS2_PLACEMENT_3D('',#1610,#1301,#1302);
#1082=AXIS2_PLACEMENT_3D('',#1612,#1303,#1304);
#1083=AXIS2_PLACEMENT_3D('',#1614,#1305,#1306);
#1084=AXIS2_PLACEMENT_3D('',#1616,#1307,#1308);
#1085=AXIS2_PLACEMENT_3D('',#1618,#1309,#1310);
#1086=AXIS2_PLACEMENT_3D('',#1620,#1311,#1312);
#1087=AXIS2_PLACEMENT_3D('',#1622,#1313,#1314);
#1088=AXIS2_PLACEMENT_3D('',#1624,#1315,#1316);
#1089=AXIS2_PLACEMENT_3D('',#1626,#1317,#1318);
#1090=AXIS2_PLACEMENT_3D('',#1628,#1319,#1320);
#1091=AXIS2_PLACEMENT_3D('',#1630,#1321,#1322);
#1092=AXIS2_PLACEMENT_3D('',#1632,#1323,#1324);
#1093=AXIS2_PLACEMENT_3D('',#1634,#1325,#1326);
#1094=AXIS2_PLACEMENT_3D('',#1636,#1327,#1328);
#1095=AXIS2_PLACEMENT_3D('',#1638,#1329,#1330);
#1096=AXIS2_PLACEMENT_3D('',#1640,#1331,#1332);
#1097=AXIS2_PLACEMENT_3D('',#1642,#1333,#1334);
#1098=AXIS2_PLACEMENT_3D('',#1643,#1335,#1336);
#1099=AXIS2_PLACEMENT_3D('',#1646,#1339,#1340);
#1100=AXIS2_PLACEMENT_3D('',#1648,#1342,#1343);
#1101=AXIS2_PLACEMENT_3D('',#1650,#1345,#1346);
#1102=AXIS2_PLACEMENT_3D('',#1652,#1348,#1349);
#1103=AXIS2_PLACEMENT_3D('',#1654,#1351,#1352);
#1104=AXIS2_PLACEMENT_3D('',#1655,#1353,#1354);
#1105=AXIS2_PLACEMENT_3D('',#1657,#1356,#1357);
#1106=AXIS2_PLACEMENT_3D('',#1659,#1359,#1360);
#1107=AXIS2_PLACEMENT_3D('',#1661,#1362,#1363);
#1108=AXIS2_PLACEMENT_3D('',#1663,#1365,#1366);
#1109=AXIS2_PLACEMENT_3D('',#1665,#1368,#1369);
#1110=AXIS2_PLACEMENT_3D('',#1667,#1371,#1372);
#1111=AXIS2_PLACEMENT_3D('',#1668,#1373,#1374);
#1112=AXIS2_PLACEMENT_3D('',#1670,#1376,#1377);
#1113=AXIS2_PLACEMENT_3D('',#1672,#1379,#1380);
#1114=AXIS2_PLACEMENT_3D('',#1674,#1382,#1383);
#1115=AXIS2_PLACEMENT_3D('',#1676,#1385,#1386);
#1116=AXIS2_PLACEMENT_3D('',#1678,#1388,#1389);
#1117=AXIS2_PLACEMENT_3D('',#1680,#1391,#1392);
#1118=AXIS2_PLACEMENT_3D('',#1682,#1394,#1395);
#1119=AXIS2_PLACEMENT_3D('',#1684,#1397,#1398);
#1120=AXIS2_PLACEMENT_3D('',#1686,#1400,#1401);
#1121=AXIS2_PLACEMENT_3D('',#1688,#1403,#1404);
#1122=AXIS2_PLACEMENT_3D('',#1690,#1406,#1407);
#1123=AXIS2_PLACEMENT_3D('',#1692,#1409,#1410);
#1124=AXIS2_PLACEMENT_3D('',#1694,#1412,#1413);
#1125=AXIS2_PLACEMENT_3D('',#1696,#1415,#1416);
#1126=AXIS2_PLACEMENT_3D('',#1698,#1418,#1419);
#1127=AXIS2_PLACEMENT_3D('',#1700,#1421,#1422);
#1128=AXIS2_PLACEMENT_3D('',#1702,#1424,#1425);
#1129=AXIS2_PLACEMENT_3D('',#1704,#1427,#1428);
#1130=AXIS2_PLACEMENT_3D('',#1706,#1430,#1431);
#1131=AXIS2_PLACEMENT_3D('',#1708,#1433,#1434);
#1132=AXIS2_PLACEMENT_3D('',#1710,#1436,#1437);
#1133=DIRECTION('axis',(0.,0.,1.));
#1134=DIRECTION('refdir',(1.,0.,0.));
#1135=DIRECTION('center_axis',(-1.,-4.03717463500057E-16,-6.45947941600091E-16));
#1136=DIRECTION('ref_axis',(0.,-0.977687896588684,0.210062792669227));
#1137=DIRECTION('center_axis',(1.,4.39896535880657E-45,-1.97758476261356E-14));
#1138=DIRECTION('ref_axis',(0.,-0.977687896588684,0.210062792669227));
#1139=DIRECTION('',(1.,0.,6.45947941600091E-16));
#1140=DIRECTION('center_axis',(-1.,-4.39896535880657E-45,1.97758476261356E-14));
#1141=DIRECTION('ref_axis',(0.,-0.977687896588684,0.210062792669227));
#1142=DIRECTION('',(-1.,-4.03717463500057E-16,-6.45947941600091E-16));
#1143=DIRECTION('center_axis',(1.,4.03717463500057E-16,6.45947941600091E-16));
#1144=DIRECTION('ref_axis',(-6.39756356894277E-16,0.905413167822734,0.424531501226001));
#1145=DIRECTION('center_axis',(-1.,-4.39896535880657E-45,1.97758476261356E-14));
#1146=DIRECTION('ref_axis',(-6.39756356894277E-16,0.905413167822734,0.424531501226001));
#1147=DIRECTION('',(1.,4.03717463500057E-16,6.45947941600091E-16));
#1148=DIRECTION('center_axis',(1.,4.39896535880657E-45,-1.97758476261356E-14));
#1149=DIRECTION('ref_axis',(-6.39756356894277E-16,0.905413167822734,0.424531501226001));
#1150=DIRECTION('center_axis',(1.,4.39896535880657E-45,-1.97758476261356E-14));
#1151=DIRECTION('ref_axis',(-4.39896535880656E-45,1.,5.2548692412198E-46));
#1152=DIRECTION('',(-1.97758476261356E-14,5.25486924121893E-46,-1.));
#1153=DIRECTION('center_axis',(-1.,-4.39896535880657E-45,1.97758476261356E-14));
#1154=DIRECTION('ref_axis',(-1.67476528926269E-14,-0.707106781186549,-0.707106781186546));
#1155=DIRECTION('',(-4.20389539297445E-45,1.,5.25486924121976E-46));
#1156=DIRECTION('center_axis',(-1.,-4.39896535880657E-45,1.97758476261356E-14));
#1157=DIRECTION('ref_axis',(-1.25607396694702E-14,0.707106781186548,-0.707106781186547));
#1158=DIRECTION('',(1.97758476261356E-14,-5.25486924121893E-46,1.));
#1159=DIRECTION('center_axis',(-1.,-4.39896535880657E-45,1.97758476261356E-14));
#1160=DIRECTION('ref_axis',(-9.08447800979358E-16,0.977687896588684,0.210062792669228));
#1161=DIRECTION('center_axis',(-1.,-4.39896535880657E-45,1.97758476261356E-14));
#1162=DIRECTION('ref_axis',(5.71200044553945E-16,-0.905413167822733,-0.424531501226002));
#1163=DIRECTION('center_axis',(-1.,-4.39896535880657E-45,1.97758476261356E-14));
#1164=DIRECTION('ref_axis',(0.,0.977687896588684,-0.210062792669228));
#1165=DIRECTION('',(1.97758476261356E-14,-5.25486924121893E-46,1.));
#1166=DIRECTION('',(4.20389539297445E-45,-1.,-5.25486924121976E-46));
#1167=DIRECTION('',(-1.97758476261356E-14,5.25486924121893E-46,-1.));
#1168=DIRECTION('center_axis',(-1.,-4.39896535880657E-45,1.97758476261356E-14));
#1169=DIRECTION('ref_axis',(0.,-0.977687896588684,-0.210062792669228));
#1170=DIRECTION('',(-1.86448479468698E-14,-0.333333333333334,-0.942809041582063));
#1171=DIRECTION('center_axis',(1.,4.39896535880657E-45,-1.97758476261356E-14));
#1172=DIRECTION('ref_axis',(0.,-1.49880108324396E-15,-1.));
#1173=DIRECTION('',(1.86448479468698E-14,-0.333333333333332,0.942809041582064));
#1174=DIRECTION('center_axis',(1.,4.39896535880657E-45,-1.97758476261356E-14));
#1175=DIRECTION('ref_axis',(0.,-0.689190489184843,0.724580202335916));
#1176=DIRECTION('center_axis',(1.,4.39896535880657E-45,-1.97758476261356E-14));
#1177=DIRECTION('ref_axis',(0.,1.,0.));
#1178=DIRECTION('center_axis',(1.,4.39896535880657E-45,-1.97758476261356E-14));
#1179=DIRECTION('ref_axis',(0.,0.689190489184844,0.724580202335914));
#1180=DIRECTION('center_axis',(-1.,-4.01307540769019E-45,1.97758476261356E-14));
#1181=DIRECTION('ref_axis',(-4.01307540769018E-45,1.,5.25486924121972E-46));
#1182=DIRECTION('center_axis',(-1.,-4.20389539297446E-45,1.97758476261356E-14));
#1183=DIRECTION('ref_axis',(-4.20389539297445E-45,1.,5.25486924121976E-46));
#1184=DIRECTION('center_axis',(-1.,-4.01307540769019E-45,1.97758476261356E-14));
#1185=DIRECTION('ref_axis',(-4.01307540769018E-45,1.,5.25486924121972E-46));
#1186=DIRECTION('center_axis',(-1.,-4.01307540769017E-45,1.97758476261356E-14));
#1187=DIRECTION('ref_axis',(-4.01307540769016E-45,1.,5.25486924121972E-46));
#1188=DIRECTION('center_axis',(-1.,-4.20389539297446E-45,1.97758476261356E-14));
#1189=DIRECTION('ref_axis',(-4.20389539297445E-45,1.,5.25486924121976E-46));
#1190=DIRECTION('center_axis',(-1.,-4.20389539297446E-45,1.97758476261356E-14));
#1191=DIRECTION('ref_axis',(-4.20389539297445E-45,1.,5.25486924121976E-46));
#1192=DIRECTION('center_axis',(-1.,-4.20389539297446E-45,1.97758476261356E-14));
#1193=DIRECTION('ref_axis',(-4.20389539297445E-45,1.,5.25486924121976E-46));
#1194=DIRECTION('center_axis',(-1.,-4.20389539297446E-45,1.97758476261356E-14));
#1195=DIRECTION('ref_axis',(-4.20389539297445E-45,1.,5.25486924121976E-46));
#1196=DIRECTION('center_axis',(-1.,-4.01307540769018E-45,1.97758476261356E-14));
#1197=DIRECTION('ref_axis',(-4.01307540769017E-45,1.,5.25486924121972E-46));
#1198=DIRECTION('center_axis',(-1.,-4.20389539297446E-45,1.97758476261356E-14));
#1199=DIRECTION('ref_axis',(-4.20389539297445E-45,1.,5.25486924121976E-46));
#1200=DIRECTION('center_axis',(-1.,-4.01307540769019E-45,1.97758476261356E-14));
#1201=DIRECTION('ref_axis',(-4.01307540769018E-45,1.,5.25486924121972E-46));
#1202=DIRECTION('center_axis',(-1.,-4.01307540769018E-45,1.97758476261356E-14));
#1203=DIRECTION('ref_axis',(-4.01307540769017E-45,1.,5.25486924121972E-46));
#1204=DIRECTION('center_axis',(-1.,-4.20389539297446E-45,1.97758476261356E-14));
#1205=DIRECTION('ref_axis',(-4.20389539297445E-45,1.,5.25486924121976E-46));
#1206=DIRECTION('center_axis',(-1.,-4.01307540769019E-45,1.97758476261356E-14));
#1207=DIRECTION('ref_axis',(-4.01307540769018E-45,1.,5.25486924121972E-46));
#1208=DIRECTION('center_axis',(-1.,-4.01307540769018E-45,1.97758476261356E-14));
#1209=DIRECTION('ref_axis',(-4.01307540769017E-45,1.,5.25486924121972E-46));
#1210=DIRECTION('center_axis',(-1.,-4.20389539297446E-45,1.97758476261356E-14));
#1211=DIRECTION('ref_axis',(-4.20389539297445E-45,1.,5.25486924121976E-46));
#1212=DIRECTION('center_axis',(1.,4.39896535880657E-45,-1.97758476261356E-14));
#1213=DIRECTION('ref_axis',(9.95682444457781E-60,1.,5.25486924121894E-46));
#1214=DIRECTION('center_axis',(-1.,-4.01307540769019E-45,1.97758476261356E-14));
#1215=DIRECTION('ref_axis',(-4.01307540769018E-45,1.,5.25486924121972E-46));
#1216=DIRECTION('center_axis',(-1.,-4.01307540769018E-45,1.97758476261356E-14));
#1217=DIRECTION('ref_axis',(-4.01307540769017E-45,1.,5.25486924121972E-46));
#1218=DIRECTION('center_axis',(-1.,-4.20389539297446E-45,1.97758476261356E-14));
#1219=DIRECTION('ref_axis',(-4.20389539297445E-45,1.,5.25486924121976E-46));
#1220=DIRECTION('center_axis',(-1.,-4.20389539297446E-45,1.97758476261356E-14));
#1221=DIRECTION('ref_axis',(-4.20389539297445E-45,1.,5.25486924121976E-46));
#1222=DIRECTION('center_axis',(-1.,-4.39896535880657E-45,1.97758476261356E-14));
#1223=DIRECTION('ref_axis',(0.,1.,0.));
#1224=DIRECTION('center_axis',(-1.,-4.39896535880657E-45,1.97758476261356E-14));
#1225=DIRECTION('ref_axis',(0.,1.,0.));
#1226=DIRECTION('center_axis',(-1.,-4.39896535880657E-45,1.97758476261356E-14));
#1227=DIRECTION('ref_axis',(0.,1.,0.));
#1228=DIRECTION('center_axis',(-1.,-4.39896535880657E-45,1.97758476261356E-14));
#1229=DIRECTION('ref_axis',(0.,1.,0.));
#1230=DIRECTION('center_axis',(1.,4.03717463500057E-16,6.45947941600091E-16));
#1231=DIRECTION('ref_axis',(0.,-0.977687896588684,-0.210062792669228));
#1232=DIRECTION('',(-1.,0.,-6.45947941600091E-16));
#1233=DIRECTION('center_axis',(1.,4.39896535880657E-45,-1.97758476261356E-14));
#1234=DIRECTION('ref_axis',(0.,-0.977687896588684,-0.210062792669228));
#1235=DIRECTION('center_axis',(-1.02900252626067E-59,-1.,-5.25486924121893E-46));
#1236=DIRECTION('ref_axis',(-1.97758476261356E-14,5.25486924121893E-46,
-1.));
#1237=DIRECTION('',(1.,0.,-1.95818864185854E-14));
#1238=DIRECTION('',(1.97758476261356E-14,-5.25486924121893E-46,1.));
#1239=DIRECTION('center_axis',(-1.,-4.03717463500057E-16,-4.84460956200068E-16));
#1240=DIRECTION('ref_axis',(0.,0.977687896588684,-0.210062792669228));
#1241=DIRECTION('center_axis',(1.,4.39896535880657E-45,-1.97758476261356E-14));
#1242=DIRECTION('ref_axis',(0.,0.977687896588684,-0.210062792669228));
#1243=DIRECTION('',(1.,0.,4.84460956200068E-16));
#1244=DIRECTION('',(-1.,-4.03717463500057E-16,-4.84460956200068E-16));
#1245=DIRECTION('center_axis',(1.,4.03717463500057E-16,4.84460956200068E-16));
#1246=DIRECTION('ref_axis',(5.71200044553945E-16,-0.905413167822733,-0.424531501226002));
#1247=DIRECTION('',(1.,4.03717463500057E-16,4.84460956200068E-16));
#1248=DIRECTION('center_axis',(1.,4.39896535880657E-45,-1.97758476261356E-14));
#1249=DIRECTION('ref_axis',(5.71200044553945E-16,-0.905413167822733,-0.424531501226002));
#1250=DIRECTION('center_axis',(1.,4.03717463500057E-16,4.84460956200068E-16));
#1251=DIRECTION('ref_axis',(-9.08447800979358E-16,0.977687896588684,0.210062792669228));
#1252=DIRECTION('',(-1.,0.,-4.84460956200068E-16));
#1253=DIRECTION('center_axis',(1.,4.39896535880657E-45,-1.97758476261356E-14));
#1254=DIRECTION('ref_axis',(-9.08447800979358E-16,0.977687896588684,0.210062792669228));
#1255=DIRECTION('center_axis',(-1.02900252626067E-59,-1.,-5.25486924121893E-46));
#1256=DIRECTION('ref_axis',(-1.97758476261356E-14,5.25486924121893E-46,
-1.));
#1257=DIRECTION('',(1.97758476261356E-14,-5.25486924121893E-46,1.));
#1258=DIRECTION('',(-1.,0.,1.95818864185854E-14));
#1259=DIRECTION('center_axis',(1.02900252626067E-59,1.,5.25486924121893E-46));
#1260=DIRECTION('ref_axis',(1.97758476261356E-14,-5.25486924121893E-46,
1.));
#1261=DIRECTION('',(1.,0.,-1.95818864185854E-14));
#1262=DIRECTION('',(1.97758476261356E-14,-5.25486924121893E-46,1.));
#1263=DIRECTION('center_axis',(1.02900252626067E-59,1.,5.25486924121893E-46));
#1264=DIRECTION('ref_axis',(1.97758476261356E-14,-5.25486924121893E-46,
1.));
#1265=DIRECTION('',(1.97758476261356E-14,-5.25486924121893E-46,1.));
#1266=DIRECTION('',(1.,0.,-1.95818864185854E-14));
#1267=DIRECTION('center_axis',(1.,4.39896535880657E-45,-1.97758476261356E-14));
#1268=DIRECTION('ref_axis',(-4.39896535880656E-45,1.,5.2548692412198E-46));
#1269=DIRECTION('',(4.20389539297445E-45,-1.,-5.25486924121976E-46));
#1270=DIRECTION('center_axis',(1.,4.39896535880657E-45,-1.97758476261356E-14));
#1271=DIRECTION('ref_axis',(-1.25607396694702E-14,0.707106781186548,-0.707106781186547));
#1272=DIRECTION('',(-4.20389539297445E-45,1.,5.25486924121976E-46));
#1273=DIRECTION('center_axis',(1.,4.39896535880657E-45,-1.97758476261356E-14));
#1274=DIRECTION('ref_axis',(-1.67476528926269E-14,-0.707106781186549,-0.707106781186546));
#1275=DIRECTION('',(1.86448479468698E-14,0.333333333333334,0.942809041582063));
#1276=DIRECTION('center_axis',(-1.,-4.39896535880657E-45,1.97758476261356E-14));
#1277=DIRECTION('ref_axis',(0.,0.689190489184844,0.724580202335914));
#1278=DIRECTION('center_axis',(-1.,-4.39896535880657E-45,1.97758476261356E-14));
#1279=DIRECTION('ref_axis',(0.,1.,0.));
#1280=DIRECTION('center_axis',(-1.,-4.39896535880657E-45,1.97758476261356E-14));
#1281=DIRECTION('ref_axis',(0.,-0.689190489184843,0.724580202335916));
#1282=DIRECTION('',(-1.86448479468698E-14,0.333333333333332,-0.942809041582064));
#1283=DIRECTION('center_axis',(-1.,-4.39896535880657E-45,1.97758476261356E-14));
#1284=DIRECTION('ref_axis',(0.,-1.49880108324396E-15,-1.));
#1285=DIRECTION('center_axis',(-1.,-4.01307540769019E-45,1.97758476261356E-14));
#1286=DIRECTION('ref_axis',(-4.01307540769018E-45,1.,5.25486924121972E-46));
#1287=DIRECTION('center_axis',(-1.,-4.20389539297446E-45,1.97758476261356E-14));
#1288=DIRECTION('ref_axis',(-4.20389539297445E-45,1.,5.25486924121976E-46));
#1289=DIRECTION('center_axis',(-1.,-4.01307540769019E-45,1.97758476261356E-14));
#1290=DIRECTION('ref_axis',(-4.01307540769018E-45,1.,5.25486924121972E-46));
#1291=DIRECTION('center_axis',(-1.,-4.01307540769017E-45,1.97758476261356E-14));
#1292=DIRECTION('ref_axis',(-4.01307540769016E-45,1.,5.25486924121972E-46));
#1293=DIRECTION('center_axis',(-1.,-4.20389539297446E-45,1.97758476261356E-14));
#1294=DIRECTION('ref_axis',(-4.20389539297445E-45,1.,5.25486924121976E-46));
#1295=DIRECTION('center_axis',(-1.,-4.20389539297446E-45,1.97758476261356E-14));
#1296=DIRECTION('ref_axis',(-4.20389539297445E-45,1.,5.25486924121976E-46));
#1297=DIRECTION('center_axis',(-1.,-4.20389539297446E-45,1.97758476261356E-14));
#1298=DIRECTION('ref_axis',(-4.20389539297445E-45,1.,5.25486924121976E-46));
#1299=DIRECTION('center_axis',(-1.,-4.20389539297446E-45,1.97758476261356E-14));
#1300=DIRECTION('ref_axis',(-4.20389539297445E-45,1.,5.25486924121976E-46));
#1301=DIRECTION('center_axis',(-1.,-4.01307540769018E-45,1.97758476261356E-14));
#1302=DIRECTION('ref_axis',(-4.01307540769017E-45,1.,5.25486924121972E-46));
#1303=DIRECTION('center_axis',(-1.,-4.20389539297446E-45,1.97758476261356E-14));
#1304=DIRECTION('ref_axis',(-4.20389539297445E-45,1.,5.25486924121976E-46));
#1305=DIRECTION('center_axis',(-1.,-4.01307540769019E-45,1.97758476261356E-14));
#1306=DIRECTION('ref_axis',(-4.01307540769018E-45,1.,5.25486924121972E-46));
#1307=DIRECTION('center_axis',(-1.,-4.01307540769018E-45,1.97758476261356E-14));
#1308=DIRECTION('ref_axis',(-4.01307540769017E-45,1.,5.25486924121972E-46));
#1309=DIRECTION('center_axis',(-1.,-4.20389539297446E-45,1.97758476261356E-14));
#1310=DIRECTION('ref_axis',(-4.20389539297445E-45,1.,5.25486924121976E-46));
#1311=DIRECTION('center_axis',(-1.,-4.01307540769019E-45,1.97758476261356E-14));
#1312=DIRECTION('ref_axis',(-4.01307540769018E-45,1.,5.25486924121972E-46));
#1313=DIRECTION('center_axis',(-1.,-4.01307540769018E-45,1.97758476261356E-14));
#1314=DIRECTION('ref_axis',(-4.01307540769017E-45,1.,5.25486924121972E-46));
#1315=DIRECTION('center_axis',(-1.,-4.20389539297446E-45,1.97758476261356E-14));
#1316=DIRECTION('ref_axis',(-4.20389539297445E-45,1.,5.25486924121976E-46));
#1317=DIRECTION('center_axis',(1.,4.39896535880657E-45,-1.97758476261356E-14));
#1318=DIRECTION('ref_axis',(9.95682444457781E-60,1.,5.25486924121894E-46));
#1319=DIRECTION('center_axis',(-1.,-4.01307540769019E-45,1.97758476261356E-14));
#1320=DIRECTION('ref_axis',(-4.01307540769018E-45,1.,5.25486924121972E-46));
#1321=DIRECTION('center_axis',(-1.,-4.01307540769018E-45,1.97758476261356E-14));
#1322=DIRECTION('ref_axis',(-4.01307540769017E-45,1.,5.25486924121972E-46));
#1323=DIRECTION('center_axis',(-1.,-4.20389539297446E-45,1.97758476261356E-14));
#1324=DIRECTION('ref_axis',(-4.20389539297445E-45,1.,5.25486924121976E-46));
#1325=DIRECTION('center_axis',(-1.,-4.20389539297446E-45,1.97758476261356E-14));
#1326=DIRECTION('ref_axis',(-4.20389539297445E-45,1.,5.25486924121976E-46));
#1327=DIRECTION('center_axis',(1.,4.39896535880657E-45,-1.97758476261356E-14));
#1328=DIRECTION('ref_axis',(0.,1.,0.));
#1329=DIRECTION('center_axis',(1.,4.39896535880657E-45,-1.97758476261356E-14));
#1330=DIRECTION('ref_axis',(0.,1.,0.));
#1331=DIRECTION('center_axis',(1.,4.39896535880657E-45,-1.97758476261356E-14));
#1332=DIRECTION('ref_axis',(0.,1.,0.));
#1333=DIRECTION('center_axis',(1.,4.39896535880657E-45,-1.97758476261356E-14));
#1334=DIRECTION('ref_axis',(0.,1.,0.));
#1335=DIRECTION('center_axis',(-1.,0.,0.));
#1336=DIRECTION('ref_axis',(0.,0.689190489184844,0.724580202335914));
#1337=DIRECTION('',(-1.,0.,0.));
#1338=DIRECTION('',(1.,0.,0.));
#1339=DIRECTION('center_axis',(-1.,0.,0.));
#1340=DIRECTION('ref_axis',(0.,1.,0.));
#1341=DIRECTION('',(1.,0.,0.));
#1342=DIRECTION('center_axis',(-1.,0.,0.));
#1343=DIRECTION('ref_axis',(0.,-0.689190489184843,0.724580202335916));
#1344=DIRECTION('',(-1.,0.,0.));
#1345=DIRECTION('center_axis',(0.,-0.942809041582064,-0.333333333333332));
#1346=DIRECTION('ref_axis',(0.,-0.333333333333332,0.942809041582064));
#1347=DIRECTION('',(1.,0.,0.));
#1348=DIRECTION('center_axis',(-1.,0.,0.));
#1349=DIRECTION('ref_axis',(0.,-1.49880108324396E-15,-1.));
#1350=DIRECTION('',(-1.,0.,0.));
#1351=DIRECTION('center_axis',(0.,0.942809041582063,-0.333333333333335));
#1352=DIRECTION('ref_axis',(0.,-0.333333333333334,-0.942809041582063));
#1353=DIRECTION('center_axis',(-1.,0.,0.));
#1354=DIRECTION('ref_axis',(0.,1.,0.));
#1355=DIRECTION('',(-1.,0.,0.));
#1356=DIRECTION('center_axis',(-1.,0.,0.));
#1357=DIRECTION('ref_axis',(0.,1.,0.));
#1358=DIRECTION('',(-1.,0.,0.));
#1359=DIRECTION('center_axis',(-1.,0.,0.));
#1360=DIRECTION('ref_axis',(0.,1.,0.));
#1361=DIRECTION('',(-1.,0.,0.));
#1362=DIRECTION('center_axis',(-1.,0.,0.));
#1363=DIRECTION('ref_axis',(0.,1.,0.));
#1364=DIRECTION('',(-1.,0.,0.));
#1365=DIRECTION('center_axis',(1.,0.,-1.95818864185854E-14));
#1366=DIRECTION('ref_axis',(-1.25607396694702E-14,0.707106781186548,-0.707106781186547));
#1367=DIRECTION('',(-1.,0.,1.95818864185854E-14));
#1368=DIRECTION('center_axis',(-1.95818864185854E-14,5.25486924121893E-46,
-1.));
#1369=DIRECTION('ref_axis',(-4.20389539297445E-45,1.,5.25486924121976E-46));
#1370=DIRECTION('',(1.,0.,-1.95818864185854E-14));
#1371=DIRECTION('center_axis',(1.,0.,-1.95818864185854E-14));
#1372=DIRECTION('ref_axis',(-1.67476528926269E-14,-0.707106781186549,-0.707106781186546));
#1373=DIRECTION('center_axis',(1.,0.,-1.95818864185854E-14));
#1374=DIRECTION('ref_axis',(1.01304899872158E-59,1.,5.25486924121893E-46));
#1375=DIRECTION('',(-1.,0.,1.95818864185854E-14));
#1376=DIRECTION('center_axis',(1.,0.,-1.95818864185854E-14));
#1377=DIRECTION('ref_axis',(1.03716921297686E-59,1.,5.25486924121893E-46));
#1378=DIRECTION('',(-1.,0.,1.95818864185854E-14));
#1379=DIRECTION('center_axis',(1.,0.,-1.95818864185854E-14));
#1380=DIRECTION('ref_axis',(1.01304899872158E-59,1.,5.25486924121893E-46));
#1381=DIRECTION('',(-1.,0.,1.95818864185854E-14));
#1382=DIRECTION('center_axis',(1.,0.,-1.95818864185854E-14));
#1383=DIRECTION('ref_axis',(1.01304899872158E-59,1.,5.25486924121893E-46));
#1384=DIRECTION('',(-1.,0.,1.95818864185854E-14));
#1385=DIRECTION('center_axis',(1.,0.,-1.95818864185854E-14));
#1386=DIRECTION('ref_axis',(1.03716921297686E-59,1.,5.25486924121893E-46));
#1387=DIRECTION('',(-1.,0.,1.95818864185854E-14));
#1388=DIRECTION('center_axis',(1.,0.,-1.95818864185854E-14));
#1389=DIRECTION('ref_axis',(1.03716921297686E-59,1.,5.25486924121893E-46));
#1390=DIRECTION('',(-1.,0.,1.95818864185854E-14));
#1391=DIRECTION('center_axis',(1.,0.,-1.95818864185854E-14));
#1392=DIRECTION('ref_axis',(1.03716921297686E-59,1.,5.25486924121893E-46));
#1393=DIRECTION('',(-1.,0.,1.95818864185854E-14));
#1394=DIRECTION('center_axis',(1.,0.,-1.95818864185854E-14));
#1395=DIRECTION('ref_axis',(1.05673844341038E-59,1.,5.25486924121893E-46));
#1396=DIRECTION('',(-1.,0.,1.95818864185854E-14));
#1397=DIRECTION('center_axis',(1.,0.,-1.95818864185854E-14));
#1398=DIRECTION('ref_axis',(1.01304899872158E-59,1.,5.25486924121893E-46));
#1399=DIRECTION('',(-1.,0.,1.95818864185854E-14));
#1400=DIRECTION('center_axis',(1.,0.,-1.95818864185854E-14));
#1401=DIRECTION('ref_axis',(1.03716921297686E-59,1.,5.25486924121893E-46));
#1402=DIRECTION('',(-1.,0.,1.95818864185854E-14));
#1403=DIRECTION('center_axis',(1.,0.,-1.95818864185854E-14));
#1404=DIRECTION('ref_axis',(1.01304899872158E-59,1.,5.25486924121893E-46));
#1405=DIRECTION('',(-1.,0.,1.95818864185854E-14));
#1406=DIRECTION('center_axis',(1.,0.,-1.95818864185854E-14));
#1407=DIRECTION('ref_axis',(1.01304899872158E-59,1.,5.25486924121893E-46));
#1408=DIRECTION('',(-1.,0.,1.95818864185854E-14));
#1409=DIRECTION('center_axis',(1.,0.,-1.95818864185854E-14));
#1410=DIRECTION('ref_axis',(1.05673844341038E-59,1.,5.25486924121893E-46));
#1411=DIRECTION('',(-1.,0.,1.95818864185854E-14));
#1412=DIRECTION('center_axis',(1.,0.,-1.95818864185854E-14));
#1413=DIRECTION('ref_axis',(1.01304899872158E-59,1.,5.25486924121893E-46));
#1414=DIRECTION('',(-1.,0.,1.95818864185854E-14));
#1415=DIRECTION('center_axis',(1.,0.,-1.95818864185854E-14));
#1416=DIRECTION('ref_axis',(1.01304899872158E-59,1.,5.25486924121893E-46));
#1417=DIRECTION('',(-1.,0.,1.95818864185854E-14));
#1418=DIRECTION('center_axis',(1.,0.,-1.95818864185854E-14));
#1419=DIRECTION('ref_axis',(1.03716921297686E-59,1.,5.25486924121893E-46));
#1420=DIRECTION('',(-1.,0.,1.95818864185854E-14));
#1421=DIRECTION('center_axis',(1.,0.,-1.95818864185854E-14));
#1422=DIRECTION('ref_axis',(9.95682444457781E-60,1.,5.25486924121894E-46));
#1423=DIRECTION('',(-1.,0.,1.95818864185854E-14));
#1424=DIRECTION('center_axis',(1.,0.,-1.95818864185854E-14));
#1425=DIRECTION('ref_axis',(1.01304899872158E-59,1.,5.25486924121893E-46));
#1426=DIRECTION('',(-1.,0.,1.95818864185854E-14));
#1427=DIRECTION('center_axis',(1.,0.,-1.95818864185854E-14));
#1428=DIRECTION('ref_axis',(1.01304899872158E-59,1.,5.25486924121893E-46));
#1429=DIRECTION('',(-1.,0.,1.95818864185854E-14));
#1430=DIRECTION('center_axis',(1.,0.,-1.95818864185854E-14));
#1431=DIRECTION('ref_axis',(1.05673844341038E-59,1.,5.25486924121893E-46));
#1432=DIRECTION('',(-1.,0.,1.95818864185854E-14));
#1433=DIRECTION('center_axis',(1.,0.,-1.95818864185854E-14));
#1434=DIRECTION('ref_axis',(1.05673844341038E-59,1.,5.25486924121893E-46));
#1435=DIRECTION('',(-1.,0.,1.95818864185854E-14));
#1436=DIRECTION('center_axis',(1.95818864185854E-14,-5.25486924121893E-46,
1.));
#1437=DIRECTION('ref_axis',(4.20389539297445E-45,-1.,-5.25486924121976E-46));
#1438=CARTESIAN_POINT('',(0.,0.,0.));
#1439=CARTESIAN_POINT('Origin',(-49.9999999999998,-53.65,44.1624235716038));
#1440=CARTESIAN_POINT('',(43.6499999999998,-62.7674724627201,48.2699405699303));
#1441=CARTESIAN_POINT('',(43.6499999999997,-63.65,44.1624235716038));
#1442=CARTESIAN_POINT('Origin',(43.6500000000009,-53.65,44.1624235716038));
#1443=CARTESIAN_POINT('',(49.9999999999997,-63.65,44.1624235716038));
#1444=CARTESIAN_POINT('',(-49.9999999999998,-63.65,44.1624235716038));
#1445=CARTESIAN_POINT('',(49.9999999999998,-62.7674724627201,48.2699405699303));
#1446=CARTESIAN_POINT('Origin',(50.0000000000009,-53.65,44.1624235716038));
#1447=CARTESIAN_POINT('',(-49.9999999999998,-62.7674724627201,48.2699405699302));
#1448=CARTESIAN_POINT('Origin',(-49.9999999999998,-189.801271983476,105.5));
#1449=CARTESIAN_POINT('',(50.000000000002,-62.7674724627201,162.73005943007));
#1450=CARTESIAN_POINT('Origin',(50.0000000000009,-189.801271983476,105.5));
#1451=CARTESIAN_POINT('',(43.650000000002,-62.7674724627201,162.73005943007));
#1452=CARTESIAN_POINT('',(-49.9999999999999,-62.7674724627201,162.73005943007));
#1453=CARTESIAN_POINT('Origin',(43.6500000000009,-189.801271983476,105.5));
#1454=CARTESIAN_POINT('Origin',(50.0000000000008,-2.92812546243556E-24,
102.325));
#1455=CARTESIAN_POINT('',(49.9999999999989,-63.65,2.99999999999985));
#1456=CARTESIAN_POINT('',(49.9999999999988,-63.65,-1.48769885299771E-13));
#1457=CARTESIAN_POINT('',(49.9999999999988,-60.65,-1.48769885299771E-13));
#1458=CARTESIAN_POINT('Origin',(49.9999999999989,-60.65,2.99999999999985));
#1459=CARTESIAN_POINT('',(49.9999999999988,60.65,-1.48769885299771E-13));
#1460=CARTESIAN_POINT('',(49.9999999999988,-63.65,-1.48769885299771E-13));
#1461=CARTESIAN_POINT('',(49.9999999999989,63.65,2.99999999999985));
#1462=CARTESIAN_POINT('Origin',(49.9999999999989,60.65,2.99999999999985));
#1463=CARTESIAN_POINT('',(49.9999999999997,63.65,44.1624235716036));
#1464=CARTESIAN_POINT('',(49.9999999999988,63.65,-1.48769885299771E-13));
#1465=CARTESIAN_POINT('',(49.9999999999997,62.7674724627201,48.26994056993));
#1466=CARTESIAN_POINT('Origin',(50.0000000000009,53.65,44.1624235716036));
#1467=CARTESIAN_POINT('',(50.0000000000019,62.7674724627202,162.73005943007));
#1468=CARTESIAN_POINT('Origin',(50.0000000000008,189.801271983476,105.5));
#1469=CARTESIAN_POINT('',(50.0000000000021,63.65,166.837576428397));
#1470=CARTESIAN_POINT('Origin',(50.0000000000008,53.6500000000001,166.837576428397));
#1471=CARTESIAN_POINT('',(50.0000000000029,63.65,204.65));
#1472=CARTESIAN_POINT('',(49.9999999999988,63.65,-1.48769885299771E-13));
#1473=CARTESIAN_POINT('',(50.0000000000029,-63.65,204.65));
#1474=CARTESIAN_POINT('',(50.0000000000029,63.65,204.65));
#1475=CARTESIAN_POINT('',(50.0000000000021,-63.65,166.837576428397));
#1476=CARTESIAN_POINT('',(49.9999999999988,-63.65,-1.48769885299771E-13));
#1477=CARTESIAN_POINT('Origin',(50.0000000000008,-53.6499999999999,166.837576428397));
#1478=CARTESIAN_POINT('',(50.0000000000008,32.2333322291045,102.169631197756));
#1479=CARTESIAN_POINT('',(49.9999999999996,9.42809041582048,37.6666666666677));
#1480=CARTESIAN_POINT('',(50.0000000000012,37.9205653266317,118.255555555556));
#1481=CARTESIAN_POINT('',(49.9999999999996,-9.42809041582078,37.6666666666677));
#1482=CARTESIAN_POINT('Origin',(50.0000000000008,-1.46549439250521E-13,
41.000000000001));
#1483=CARTESIAN_POINT('',(50.0000000000008,-32.2333322291046,102.169631197756));
#1484=CARTESIAN_POINT('',(49.9999999999998,-14.3503392870803,51.5888888888895));
#1485=CARTESIAN_POINT('',(49.9999999999999,-19.0043681777367,114.752470442575));
#1486=CARTESIAN_POINT('Origin',(50.0000000000008,-22.805241813284,105.502964531089));
#1487=CARTESIAN_POINT('',(49.9999999999999,19.0043681777365,114.752470442575));
#1488=CARTESIAN_POINT('Origin',(50.0000000000008,-1.26217744835362E-28,
161.000000000001));
#1489=CARTESIAN_POINT('Origin',(50.0000000000008,22.8052418132839,105.502964531089));
#1490=CARTESIAN_POINT('',(50.0000000000014,20.9646550464013,129.185406696205));
#1491=CARTESIAN_POINT('Origin',(50.0000000000014,23.1146550464013,129.185406696205));
#1492=CARTESIAN_POINT('',(50.0000000000019,-29.717020960848,156.051026936493));
#1493=CARTESIAN_POINT('Origin',(50.0000000000019,-28.067020960848,156.051026936493));
#1494=CARTESIAN_POINT('',(50.0000000000012,-2.15000000000019,121.675));
#1495=CARTESIAN_POINT('Origin',(50.0000000000012,-1.89750957561312E-13,
121.675));
#1496=CARTESIAN_POINT('',(50.0000000000028,-2.1499999999998,200.325));
#1497=CARTESIAN_POINT('Origin',(50.0000000000028,2.03073633856813E-13,200.325));
#1498=CARTESIAN_POINT('',(50.0000000000015,-11.3975740847817,134.218760307602));
#1499=CARTESIAN_POINT('Origin',(50.0000000000015,-9.74757408478165,134.218760307602));
#1500=CARTESIAN_POINT('',(50.0000000000025,8.09757408478162,187.781239692399));
#1501=CARTESIAN_POINT('Origin',(50.0000000000025,9.74757408478162,187.781239692399));
#1502=CARTESIAN_POINT('',(50.0000000000021,26.417020960848,165.948973063508));
#1503=CARTESIAN_POINT('Origin',(50.0000000000021,28.067020960848,165.948973063508));
#1504=CARTESIAN_POINT('',(49.9999999999995,-56.3,36.3499999999999));
#1505=CARTESIAN_POINT('Origin',(49.9999999999995,-53.65,36.3499999999999));
#1506=CARTESIAN_POINT('',(50.0000000000022,35.2502975033069,173.152093303795));
#1507=CARTESIAN_POINT('Origin',(50.0000000000022,37.4002975033069,173.152093303795));
#1508=CARTESIAN_POINT('',(50.0000000000016,16.6694468760664,139.167733371109));
#1509=CARTESIAN_POINT('Origin',(50.0000000000016,18.3194468760664,139.167733371109));
#1510=CARTESIAN_POINT('',(50.0000000000026,-25.2646550464013,192.814593303795));
#1511=CARTESIAN_POINT('Origin',(50.0000000000026,-23.1146550464013,192.814593303795));
#1512=CARTESIAN_POINT('',(50.0000000000018,35.2502975033068,148.847906696205));
#1513=CARTESIAN_POINT('Origin',(50.0000000000018,37.4002975033068,148.847906696205));
#1514=CARTESIAN_POINT('',(49.9999999999991,-56.3,16.3499999999999));
#1515=CARTESIAN_POINT('Origin',(49.9999999999991,-53.65,16.3499999999999));
#1516=CARTESIAN_POINT('',(50.0000000000014,-25.2646550464016,129.185406696205));
#1517=CARTESIAN_POINT('Origin',(50.0000000000014,-23.1146550464016,129.185406696205));
#1518=CARTESIAN_POINT('',(50.0000000000022,-39.5502975033068,173.152093303795));
#1519=CARTESIAN_POINT('Origin',(50.0000000000022,-37.4002975033068,173.152093303795));
#1520=CARTESIAN_POINT('',(50.0000000000024,-19.9694468760664,182.832266628891));
#1521=CARTESIAN_POINT('Origin',(50.0000000000024,-18.3194468760664,182.832266628891));
#1522=CARTESIAN_POINT('',(50.000000000002,-24.,161.));
#1523=CARTESIAN_POINT('Origin',(50.000000000002,-1.26217744835362E-28,161.));
#1524=CARTESIAN_POINT('',(50.0000000000026,20.9646550464016,192.814593303795));
#1525=CARTESIAN_POINT('Origin',(50.0000000000026,23.1146550464016,192.814593303795));
#1526=CARTESIAN_POINT('',(50.0000000000018,-39.5502975033069,148.847906696205));
#1527=CARTESIAN_POINT('Origin',(50.0000000000018,-37.4002975033069,148.847906696205));
#1528=CARTESIAN_POINT('',(49.9999999999991,50.9999999999999,16.3499999999999));
#1529=CARTESIAN_POINT('Origin',(49.9999999999991,53.6499999999999,16.3499999999999));
#1530=CARTESIAN_POINT('',(49.9999999999995,51.,36.3499999999999));
#1531=CARTESIAN_POINT('Origin',(49.9999999999995,53.6499999999999,36.3499999999999));
#1532=CARTESIAN_POINT('',(50.0000000000008,50.9999999999999,194.650000000001));
#1533=CARTESIAN_POINT('Origin',(50.0000000000008,53.6499999999999,194.650000000001));
#1534=CARTESIAN_POINT('',(50.0000000000008,-56.3,194.650000000001));
#1535=CARTESIAN_POINT('Origin',(50.0000000000008,-53.65,194.650000000001));
#1536=CARTESIAN_POINT('',(50.0000000000008,50.9999999999999,174.650000000001));
#1537=CARTESIAN_POINT('Origin',(50.0000000000008,53.6499999999999,174.650000000001));
#1538=CARTESIAN_POINT('',(50.0000000000008,-56.3,174.650000000001));
#1539=CARTESIAN_POINT('Origin',(50.0000000000008,-53.65,174.650000000001));
#1540=CARTESIAN_POINT('Origin',(-49.9999999999999,-53.65,166.837576428397));
#1541=CARTESIAN_POINT('',(43.6500000000021,-63.65,166.837576428397));
#1542=CARTESIAN_POINT('',(-49.9999999999999,-63.65,166.837576428397));
#1543=CARTESIAN_POINT('Origin',(43.6500000000008,-53.6499999999999,166.837576428397));
#1544=CARTESIAN_POINT('Origin',(43.6500000000029,-63.65,204.65));
#1545=CARTESIAN_POINT('',(43.6500000000029,-63.65,204.65));
#1546=CARTESIAN_POINT('',(43.6500000000029,-63.65,204.65));
#1547=CARTESIAN_POINT('',(43.6499999999988,-63.65,-2.44249065417534E-14));
#1548=CARTESIAN_POINT('Origin',(-49.9999999999998,53.65,166.837576428397));
#1549=CARTESIAN_POINT('',(43.6500000000019,62.7674724627202,162.73005943007));
#1550=CARTESIAN_POINT('',(43.6500000000021,63.65,166.837576428397));
#1551=CARTESIAN_POINT('Origin',(43.6500000000008,53.6500000000001,166.837576428397));
#1552=CARTESIAN_POINT('',(-49.9999999999998,63.65,166.837576428397));
#1553=CARTESIAN_POINT('',(-49.9999999999998,62.7674724627201,162.73005943007));
#1554=CARTESIAN_POINT('Origin',(-49.9999999999998,189.801271983476,105.5));
#1555=CARTESIAN_POINT('',(43.6499999999996,62.7674724627201,48.26994056993));
#1556=CARTESIAN_POINT('',(-49.9999999999997,62.7674724627201,48.26994056993));
#1557=CARTESIAN_POINT('Origin',(43.6500000000008,189.801271983476,105.5));
#1558=CARTESIAN_POINT('Origin',(-49.9999999999997,53.65,44.1624235716035));
#1559=CARTESIAN_POINT('',(43.6499999999997,63.65,44.1624235716036));
#1560=CARTESIAN_POINT('',(-49.9999999999997,63.65,44.1624235716035));
#1561=CARTESIAN_POINT('Origin',(43.6500000000009,53.65,44.1624235716036));
#1562=CARTESIAN_POINT('Origin',(43.6500000000029,-63.65,204.65));
#1563=CARTESIAN_POINT('',(43.6499999999989,-63.65,2.99999999999997));
#1564=CARTESIAN_POINT('',(43.6499999999988,-63.65,-2.44249065417534E-14));
#1565=CARTESIAN_POINT('',(43.6499999999989,-63.65,2.99999999999997));
#1566=CARTESIAN_POINT('Origin',(43.6499999999988,63.65,-2.44249065417534E-14));
#1567=CARTESIAN_POINT('',(43.6499999999989,63.65,2.99999999999998));
#1568=CARTESIAN_POINT('',(43.6499999999989,63.65,2.99999999999998));
#1569=CARTESIAN_POINT('',(43.6499999999988,63.65,-2.44249065417534E-14));
#1570=CARTESIAN_POINT('Origin',(43.6499999999988,63.65,-2.44249065417534E-14));
#1571=CARTESIAN_POINT('',(43.6500000000029,63.65,204.65));
#1572=CARTESIAN_POINT('',(43.6499999999988,63.65,-2.44249065417534E-14));
#1573=CARTESIAN_POINT('',(43.6500000000029,63.65,204.65));
#1574=CARTESIAN_POINT('Origin',(43.6500000000008,-2.92812546243556E-24,
102.325));
#1575=CARTESIAN_POINT('',(43.6500000000029,63.65,204.65));
#1576=CARTESIAN_POINT('',(43.6499999999988,60.65,-2.44249065417534E-14));
#1577=CARTESIAN_POINT('Origin',(43.6499999999989,60.65,2.99999999999998));
#1578=CARTESIAN_POINT('',(43.6499999999988,-60.65,-2.44249065417534E-14));
#1579=CARTESIAN_POINT('',(43.6499999999988,-63.65,-2.44249065417534E-14));
#1580=CARTESIAN_POINT('Origin',(43.6499999999989,-60.65,2.99999999999997));
#1581=CARTESIAN_POINT('',(43.6499999999996,9.42809041582048,37.6666666666677));
#1582=CARTESIAN_POINT('',(43.6500000000008,32.2333322291045,102.169631197756));
#1583=CARTESIAN_POINT('',(43.6500000000012,37.9205653266317,118.255555555556));
#1584=CARTESIAN_POINT('',(43.6499999999999,19.0043681777365,114.752470442575));
#1585=CARTESIAN_POINT('Origin',(43.6500000000008,22.8052418132839,105.502964531089));
#1586=CARTESIAN_POINT('',(43.6499999999999,-19.0043681777367,114.752470442575));
#1587=CARTESIAN_POINT('Origin',(43.6500000000008,-1.26217744835362E-28,
161.000000000001));
#1588=CARTESIAN_POINT('',(43.6500000000008,-32.2333322291046,102.169631197756));
#1589=CARTESIAN_POINT('Origin',(43.6500000000008,-22.805241813284,105.502964531089));
#1590=CARTESIAN_POINT('',(43.6499999999996,-9.42809041582078,37.6666666666677));
#1591=CARTESIAN_POINT('',(43.6499999999998,-14.3503392870803,51.5888888888896));
#1592=CARTESIAN_POINT('Origin',(43.6500000000008,-1.46549439250521E-13,
41.000000000001));
#1593=CARTESIAN_POINT('',(43.6500000000014,20.9646550464013,129.185406696205));
#1594=CARTESIAN_POINT('Origin',(43.6500000000014,23.1146550464013,129.185406696205));
#1595=CARTESIAN_POINT('',(43.6500000000019,-29.717020960848,156.051026936493));
#1596=CARTESIAN_POINT('Origin',(43.6500000000019,-28.067020960848,156.051026936493));
#1597=CARTESIAN_POINT('',(43.6500000000012,-2.15000000000019,121.675));
#1598=CARTESIAN_POINT('Origin',(43.6500000000012,-1.89750957561312E-13,
121.675));
#1599=CARTESIAN_POINT('',(43.6500000000028,-2.1499999999998,200.325));
#1600=CARTESIAN_POINT('Origin',(43.6500000000028,2.03073633856813E-13,200.325));
#1601=CARTESIAN_POINT('',(43.6500000000015,-11.3975740847817,134.218760307602));
#1602=CARTESIAN_POINT('Origin',(43.6500000000015,-9.74757408478165,134.218760307602));
#1603=CARTESIAN_POINT('',(43.6500000000025,8.09757408478162,187.781239692399));
#1604=CARTESIAN_POINT('Origin',(43.6500000000025,9.74757408478162,187.781239692399));
#1605=CARTESIAN_POINT('',(43.6500000000021,26.417020960848,165.948973063508));
#1606=CARTESIAN_POINT('Origin',(43.6500000000021,28.067020960848,165.948973063508));
#1607=CARTESIAN_POINT('',(43.6499999999995,-56.3,36.35));
#1608=CARTESIAN_POINT('Origin',(43.6499999999995,-53.65,36.35));
#1609=CARTESIAN_POINT('',(43.6500000000023,35.2502975033069,173.152093303795));
#1610=CARTESIAN_POINT('Origin',(43.6500000000023,37.4002975033069,173.152093303795));
#1611=CARTESIAN_POINT('',(43.6500000000016,16.6694468760664,139.167733371109));
#1612=CARTESIAN_POINT('Origin',(43.6500000000016,18.3194468760664,139.167733371109));
#1613=CARTESIAN_POINT('',(43.6500000000026,-25.2646550464013,192.814593303795));
#1614=CARTESIAN_POINT('Origin',(43.6500000000026,-23.1146550464013,192.814593303795));
#1615=CARTESIAN_POINT('',(43.6500000000018,35.2502975033068,148.847906696205));
#1616=CARTESIAN_POINT('Origin',(43.6500000000018,37.4002975033068,148.847906696205));
#1617=CARTESIAN_POINT('',(43.6499999999991,-56.3,16.35));
#1618=CARTESIAN_POINT('Origin',(43.6499999999991,-53.65,16.35));
#1619=CARTESIAN_POINT('',(43.6500000000014,-25.2646550464016,129.185406696205));
#1620=CARTESIAN_POINT('Origin',(43.6500000000014,-23.1146550464016,129.185406696205));
#1621=CARTESIAN_POINT('',(43.6500000000023,-39.5502975033068,173.152093303795));
#1622=CARTESIAN_POINT('Origin',(43.6500000000023,-37.4002975033068,173.152093303795));
#1623=CARTESIAN_POINT('',(43.6500000000024,-19.9694468760664,182.832266628891));
#1624=CARTESIAN_POINT('Origin',(43.6500000000024,-18.3194468760664,182.832266628891));
#1625=CARTESIAN_POINT('',(43.650000000002,-24.,161.));
#1626=CARTESIAN_POINT('Origin',(43.650000000002,-1.26217744835362E-28,161.));
#1627=CARTESIAN_POINT('',(43.6500000000026,20.9646550464016,192.814593303795));
#1628=CARTESIAN_POINT('Origin',(43.6500000000026,23.1146550464016,192.814593303795));
#1629=CARTESIAN_POINT('',(43.6500000000018,-39.5502975033069,148.847906696206));
#1630=CARTESIAN_POINT('Origin',(43.6500000000018,-37.4002975033069,148.847906696206));
#1631=CARTESIAN_POINT('',(43.6499999999991,50.9999999999999,16.35));
#1632=CARTESIAN_POINT('Origin',(43.6499999999991,53.6499999999999,16.35));
#1633=CARTESIAN_POINT('',(43.6499999999995,51.,36.35));
#1634=CARTESIAN_POINT('Origin',(43.6499999999995,53.6499999999999,36.35));
#1635=CARTESIAN_POINT('',(43.6500000000008,50.9999999999999,194.650000000001));
#1636=CARTESIAN_POINT('Origin',(43.6500000000008,53.6499999999999,194.650000000001));
#1637=CARTESIAN_POINT('',(43.6500000000008,-56.3,194.650000000001));
#1638=CARTESIAN_POINT('Origin',(43.6500000000008,-53.65,194.650000000001));
#1639=CARTESIAN_POINT('',(43.6500000000008,50.9999999999999,174.650000000001));
#1640=CARTESIAN_POINT('Origin',(43.6500000000008,53.6499999999999,174.650000000001));
#1641=CARTESIAN_POINT('',(43.6500000000008,-56.3,174.650000000001));
#1642=CARTESIAN_POINT('Origin',(43.6500000000008,-53.65,174.650000000001));
#1643=CARTESIAN_POINT('Origin',(50.0000000000008,22.8052418132839,105.502964531089));
#1644=CARTESIAN_POINT('',(50.0000000000008,19.0043681777365,114.752470442575));
#1645=CARTESIAN_POINT('',(50.0000000000008,32.2333322291045,102.169631197756));
#1646=CARTESIAN_POINT('Origin',(50.0000000000008,-1.26217744835362E-28,
161.000000000001));
#1647=CARTESIAN_POINT('',(50.0000000000008,-19.0043681777367,114.752470442575));
#1648=CARTESIAN_POINT('Origin',(50.0000000000008,-22.805241813284,105.502964531089));
#1649=CARTESIAN_POINT('',(50.0000000000008,-32.2333322291046,102.169631197756));
#1650=CARTESIAN_POINT('Origin',(50.0000000000008,-1.87487994224777E-13,
11.000000000001));
#1651=CARTESIAN_POINT('',(50.0000000000008,-9.42809041582078,37.6666666666677));
#1652=CARTESIAN_POINT('Origin',(50.0000000000008,-1.46549439250521E-13,
41.000000000001));
#1653=CARTESIAN_POINT('',(50.0000000000008,9.42809041582048,37.6666666666677));
#1654=CARTESIAN_POINT('Origin',(50.0000000000008,47.1404520791032,144.333333333334));
#1655=CARTESIAN_POINT('Origin',(50.0000000000008,-53.65,174.650000000001));
#1656=CARTESIAN_POINT('',(50.0000000000008,-56.3,174.650000000001));
#1657=CARTESIAN_POINT('Origin',(50.0000000000008,53.6499999999999,174.650000000001));
#1658=CARTESIAN_POINT('',(50.0000000000008,50.9999999999999,174.650000000001));
#1659=CARTESIAN_POINT('Origin',(50.0000000000008,-53.65,194.650000000001));
#1660=CARTESIAN_POINT('',(50.0000000000008,-56.3,194.650000000001));
#1661=CARTESIAN_POINT('Origin',(50.0000000000008,53.6499999999999,194.650000000001));
#1662=CARTESIAN_POINT('',(50.0000000000008,50.9999999999999,194.650000000001));
#1663=CARTESIAN_POINT('Origin',(43.6499999999989,60.65,2.99999999999998));
#1664=CARTESIAN_POINT('',(43.6499999999988,60.65,-2.44249065417534E-14));
#1665=CARTESIAN_POINT('Origin',(43.6499999999988,-63.65,-2.44249065417534E-14));
#1666=CARTESIAN_POINT('',(43.6499999999988,-60.65,-2.44249065417534E-14));
#1667=CARTESIAN_POINT('Origin',(43.6499999999989,-60.65,2.99999999999997));
#1668=CARTESIAN_POINT('Origin',(43.6500000000014,23.1146550464013,129.185406696205));
#1669=CARTESIAN_POINT('',(43.6500000000014,20.9646550464013,129.185406696205));
#1670=CARTESIAN_POINT('Origin',(43.6500000000019,-28.067020960848,156.051026936493));
#1671=CARTESIAN_POINT('',(43.6500000000019,-29.717020960848,156.051026936493));
#1672=CARTESIAN_POINT('Origin',(43.6500000000012,-1.89750957561312E-13,
121.675));
#1673=CARTESIAN_POINT('',(43.6500000000012,-2.15000000000019,121.675));
#1674=CARTESIAN_POINT('Origin',(43.6500000000028,2.03073633856813E-13,200.325));
#1675=CARTESIAN_POINT('',(43.6500000000028,-2.1499999999998,200.325));
#1676=CARTESIAN_POINT('Origin',(43.6500000000015,-9.74757408478165,134.218760307602));
#1677=CARTESIAN_POINT('',(43.6500000000015,-11.3975740847817,134.218760307602));
#1678=CARTESIAN_POINT('Origin',(43.6500000000025,9.74757408478162,187.781239692399));
#1679=CARTESIAN_POINT('',(43.6500000000025,8.09757408478162,187.781239692399));
#1680=CARTESIAN_POINT('Origin',(43.6500000000021,28.067020960848,165.948973063508));
#1681=CARTESIAN_POINT('',(43.6500000000021,26.417020960848,165.948973063508));
#1682=CARTESIAN_POINT('Origin',(43.6499999999995,-53.65,36.35));
#1683=CARTESIAN_POINT('',(43.6499999999995,-56.3,36.35));
#1684=CARTESIAN_POINT('Origin',(43.6500000000023,37.4002975033069,173.152093303795));
#1685=CARTESIAN_POINT('',(43.6500000000023,35.2502975033069,173.152093303795));
#1686=CARTESIAN_POINT('Origin',(43.6500000000016,18.3194468760664,139.167733371109));
#1687=CARTESIAN_POINT('',(43.6500000000016,16.6694468760664,139.167733371109));
#1688=CARTESIAN_POINT('Origin',(43.6500000000026,-23.1146550464013,192.814593303795));
#1689=CARTESIAN_POINT('',(43.6500000000026,-25.2646550464013,192.814593303795));
#1690=CARTESIAN_POINT('Origin',(43.6500000000018,37.4002975033068,148.847906696205));
#1691=CARTESIAN_POINT('',(43.6500000000018,35.2502975033068,148.847906696205));
#1692=CARTESIAN_POINT('Origin',(43.6499999999991,-53.65,16.35));
#1693=CARTESIAN_POINT('',(43.6499999999991,-56.3,16.35));
#1694=CARTESIAN_POINT('Origin',(43.6500000000014,-23.1146550464016,129.185406696205));
#1695=CARTESIAN_POINT('',(43.6500000000014,-25.2646550464016,129.185406696205));
#1696=CARTESIAN_POINT('Origin',(43.6500000000023,-37.4002975033068,173.152093303795));
#1697=CARTESIAN_POINT('',(43.6500000000023,-39.5502975033068,173.152093303795));
#1698=CARTESIAN_POINT('Origin',(43.6500000000024,-18.3194468760664,182.832266628891));
#1699=CARTESIAN_POINT('',(43.6500000000024,-19.9694468760664,182.832266628891));
#1700=CARTESIAN_POINT('Origin',(43.650000000002,-1.26217744835362E-28,161.));
#1701=CARTESIAN_POINT('',(43.650000000002,-24.,161.));
#1702=CARTESIAN_POINT('Origin',(43.6500000000026,23.1146550464016,192.814593303795));
#1703=CARTESIAN_POINT('',(43.6500000000026,20.9646550464016,192.814593303795));
#1704=CARTESIAN_POINT('Origin',(43.6500000000018,-37.4002975033069,148.847906696206));
#1705=CARTESIAN_POINT('',(43.6500000000018,-39.5502975033069,148.847906696206));
#1706=CARTESIAN_POINT('Origin',(43.6499999999991,53.6499999999999,16.35));
#1707=CARTESIAN_POINT('',(43.6499999999991,50.9999999999999,16.35));
#1708=CARTESIAN_POINT('Origin',(43.6499999999995,53.6499999999999,36.35));
#1709=CARTESIAN_POINT('',(43.6499999999995,51.,36.35));
#1710=CARTESIAN_POINT('Origin',(43.6500000000029,63.65,204.65));
#1711=UNCERTAINTY_MEASURE_WITH_UNIT(LENGTH_MEASURE(0.01),#1715,
'DISTANCE_ACCURACY_VALUE',
'Maximum model space distance between geometric entities at asserted c
onnectivities');
#1712=UNCERTAINTY_MEASURE_WITH_UNIT(LENGTH_MEASURE(0.01),#1715,
'DISTANCE_ACCURACY_VALUE',
'Maximum model space distance between geometric entities at asserted c
onnectivities');
#1713=(
GEOMETRIC_REPRESENTATION_CONTEXT(3)
GLOBAL_UNCERTAINTY_ASSIGNED_CONTEXT((#1711))
GLOBAL_UNIT_ASSIGNED_CONTEXT((#1715,#1717,#1718))
REPRESENTATION_CONTEXT('','3D')
);
#1714=(
GEOMETRIC_REPRESENTATION_CONTEXT(3)
GLOBAL_UNCERTAINTY_ASSIGNED_CONTEXT((#1712))
GLOBAL_UNIT_ASSIGNED_CONTEXT((#1715,#1717,#1718))
REPRESENTATION_CONTEXT('','3D')
);
#1715=(
LENGTH_UNIT()
NAMED_UNIT(*)
SI_UNIT(.MILLI.,.METRE.)
);
#1716=(
LENGTH_UNIT()
NAMED_UNIT(*)
SI_UNIT($,.METRE.)
);
#1717=(
NAMED_UNIT(*)
PLANE_ANGLE_UNIT()
SI_UNIT($,.RADIAN.)
);
#1718=(
NAMED_UNIT(*)
SI_UNIT($,.STERADIAN.)
SOLID_ANGLE_UNIT()
);
#1719=SHAPE_DEFINITION_REPRESENTATION(#1720,#1721);
#1720=PRODUCT_DEFINITION_SHAPE('',$,#1723);
#1721=SHAPE_REPRESENTATION('',(#1011),#1713);
#1722=PRODUCT_DEFINITION_CONTEXT('part definition',#1727,'design');
#1723=PRODUCT_DEFINITION('Front Plate','Front Plate',#1724,#1722);
#1724=PRODUCT_DEFINITION_FORMATION('',$,#1729);
#1725=PRODUCT_RELATED_PRODUCT_CATEGORY('Front Plate','Front Plate',(#1729));
#1726=APPLICATION_PROTOCOL_DEFINITION('international standard',
'automotive_design',2009,#1727);
#1727=APPLICATION_CONTEXT(
'Core Data for Automotive Mechanical Design Process');
#1728=PRODUCT_CONTEXT('part definition',#1727,'mechanical');
#1729=PRODUCT('Front Plate','Front Plate',$,(#1728));
#1730=PRESENTATION_STYLE_ASSIGNMENT((#1731));
#1731=SURFACE_STYLE_USAGE(.BOTH.,#1732);
#1732=SURFACE_SIDE_STYLE('',(#1733));
#1733=SURFACE_STYLE_FILL_AREA(#1734);
#1734=FILL_AREA_STYLE('Aluminum - Satin',(#1735));
#1735=FILL_AREA_STYLE_COLOUR('Aluminum - Satin',#1736);
#1736=COLOUR_RGB('Aluminum - Satin',0.96078431372549,0.96078431372549,0.964705882352941);
ENDSEC;
END-ISO-10303-21;
